G75*
%MOIN*%
%OFA0B0*%
%FSLAX25Y25*%
%IPPOS*%
%LPD*%
%AMOC8*
5,1,8,0,0,1.08239X$1,22.5*
%
%ADD10C,0.00200*%
%ADD11C,0.00300*%
%ADD12C,0.00800*%
%ADD13C,0.00600*%
%ADD14C,0.00000*%
%ADD15C,0.01000*%
D10*
X0009498Y0014160D02*
X0011700Y0014160D01*
X0011700Y0015628D01*
X0011333Y0016370D02*
X0011700Y0016737D01*
X0011700Y0017471D01*
X0011333Y0017838D01*
X0010599Y0017838D01*
X0010232Y0017471D01*
X0010232Y0016737D01*
X0010599Y0016370D01*
X0011333Y0016370D01*
X0011333Y0018580D02*
X0010966Y0018947D01*
X0010966Y0020048D01*
X0010599Y0020048D02*
X0011700Y0020048D01*
X0011700Y0018947D01*
X0011333Y0018580D01*
X0010232Y0018947D02*
X0010232Y0019681D01*
X0010599Y0020048D01*
X0010599Y0020790D02*
X0010232Y0021157D01*
X0010232Y0022258D01*
X0009498Y0022258D02*
X0011700Y0022258D01*
X0011700Y0021157D01*
X0011333Y0020790D01*
X0010599Y0020790D01*
X0009865Y0025209D02*
X0011333Y0025209D01*
X0011700Y0025576D01*
X0011700Y0026310D01*
X0011333Y0026677D01*
X0011333Y0027419D02*
X0010599Y0027419D01*
X0010232Y0027786D01*
X0010232Y0028520D01*
X0010599Y0028887D01*
X0010966Y0028887D01*
X0010966Y0027419D01*
X0011333Y0027419D02*
X0011700Y0027786D01*
X0011700Y0028520D01*
X0011700Y0029629D02*
X0011700Y0030363D01*
X0011700Y0029996D02*
X0009498Y0029996D01*
X0009498Y0029629D01*
X0009498Y0031102D02*
X0009498Y0031469D01*
X0011700Y0031469D01*
X0011700Y0031102D02*
X0011700Y0031836D01*
X0011700Y0034786D02*
X0010232Y0034786D01*
X0009498Y0035519D01*
X0010232Y0036253D01*
X0011700Y0036253D01*
X0011700Y0036995D02*
X0010232Y0036995D01*
X0010232Y0037362D01*
X0010599Y0037729D01*
X0010232Y0038096D01*
X0010599Y0038463D01*
X0011700Y0038463D01*
X0011700Y0037729D02*
X0010599Y0037729D01*
X0010599Y0036253D02*
X0010599Y0034786D01*
X0010232Y0039205D02*
X0010232Y0040306D01*
X0010599Y0040673D01*
X0011333Y0040673D01*
X0011700Y0040306D01*
X0011700Y0039205D01*
X0012434Y0039205D02*
X0010232Y0039205D01*
X0009498Y0041415D02*
X0009498Y0041782D01*
X0011700Y0041782D01*
X0011700Y0041415D02*
X0011700Y0042149D01*
X0011700Y0042888D02*
X0011700Y0043622D01*
X0011700Y0043255D02*
X0010232Y0043255D01*
X0010232Y0042888D01*
X0009498Y0043255D02*
X0009131Y0043255D01*
X0009865Y0044729D02*
X0009498Y0045096D01*
X0009865Y0044729D02*
X0011700Y0044729D01*
X0011700Y0045835D02*
X0011700Y0046569D01*
X0011700Y0046202D02*
X0010232Y0046202D01*
X0010232Y0045835D01*
X0009498Y0046202D02*
X0009131Y0046202D01*
X0010599Y0047308D02*
X0010232Y0047675D01*
X0010232Y0048409D01*
X0010599Y0048776D01*
X0010966Y0048776D01*
X0010966Y0047308D01*
X0011333Y0047308D02*
X0010599Y0047308D01*
X0011333Y0047308D02*
X0011700Y0047675D01*
X0011700Y0048409D01*
X0011700Y0049518D02*
X0010232Y0049518D01*
X0010232Y0050252D02*
X0010232Y0050619D01*
X0010232Y0050252D02*
X0010966Y0049518D01*
X0011333Y0053570D02*
X0009865Y0053570D01*
X0009498Y0053936D01*
X0009498Y0054670D01*
X0009865Y0055037D01*
X0011333Y0053570D01*
X0011700Y0053936D01*
X0011700Y0054670D01*
X0011333Y0055037D01*
X0009865Y0055037D01*
X0011333Y0055779D02*
X0011333Y0056146D01*
X0011700Y0056146D01*
X0011700Y0055779D01*
X0011333Y0055779D01*
X0011700Y0056884D02*
X0011700Y0058352D01*
X0011700Y0057618D02*
X0009498Y0057618D01*
X0010232Y0056884D01*
X0010599Y0045096D02*
X0010599Y0044362D01*
X0009865Y0026677D02*
X0009498Y0026310D01*
X0009498Y0025576D01*
X0009865Y0025209D01*
X0010578Y0099160D02*
X0010578Y0101362D01*
X0011320Y0101362D02*
X0012421Y0101362D01*
X0012788Y0100995D01*
X0012788Y0099527D01*
X0012421Y0099160D01*
X0011320Y0099160D01*
X0011320Y0101362D01*
X0009110Y0101362D02*
X0009110Y0099160D01*
X0008368Y0099527D02*
X0008368Y0100261D01*
X0007634Y0100261D01*
X0008368Y0100995D02*
X0008001Y0101362D01*
X0007267Y0101362D01*
X0006900Y0100995D01*
X0006900Y0099527D01*
X0007267Y0099160D01*
X0008001Y0099160D01*
X0008368Y0099527D01*
X0009110Y0101362D02*
X0010578Y0099160D01*
X0005424Y0121760D02*
X0004690Y0122494D01*
X0004690Y0123962D01*
X0003948Y0123962D02*
X0002480Y0123962D01*
X0002480Y0122861D01*
X0003214Y0123228D01*
X0003581Y0123228D01*
X0003948Y0122861D01*
X0003948Y0122127D01*
X0003581Y0121760D01*
X0002847Y0121760D01*
X0002480Y0122127D01*
X0005424Y0121760D02*
X0006158Y0122494D01*
X0006158Y0123962D01*
X0089498Y0065048D02*
X0089498Y0063580D01*
X0089498Y0064314D02*
X0091700Y0064314D01*
X0091333Y0062838D02*
X0089498Y0062838D01*
X0089498Y0061370D02*
X0091333Y0061370D01*
X0091700Y0061737D01*
X0091700Y0062471D01*
X0091333Y0062838D01*
X0091333Y0060628D02*
X0089865Y0060628D01*
X0089498Y0060261D01*
X0089498Y0059527D01*
X0089865Y0059160D01*
X0091333Y0059160D01*
X0091700Y0059527D01*
X0091700Y0060261D01*
X0091333Y0060628D01*
X0094498Y0059681D02*
X0094498Y0058947D01*
X0094865Y0058580D01*
X0096333Y0058580D01*
X0096700Y0058947D01*
X0096700Y0059681D01*
X0096333Y0060048D01*
X0097067Y0060790D02*
X0097067Y0062258D01*
X0096333Y0063000D02*
X0096700Y0063366D01*
X0096700Y0064100D01*
X0096333Y0064467D01*
X0094865Y0064467D01*
X0094498Y0064100D01*
X0094498Y0063366D01*
X0094865Y0063000D01*
X0096333Y0063000D01*
X0096333Y0065209D02*
X0096700Y0065576D01*
X0096700Y0066310D01*
X0096333Y0066677D01*
X0094498Y0066677D01*
X0094498Y0067419D02*
X0094498Y0068887D01*
X0094498Y0068153D02*
X0096700Y0068153D01*
X0096333Y0065209D02*
X0094498Y0065209D01*
X0094865Y0060048D02*
X0094498Y0059681D01*
X0094865Y0057838D02*
X0094498Y0057471D01*
X0094498Y0056370D01*
X0096700Y0056370D01*
X0096700Y0057471D01*
X0096333Y0057838D01*
X0094865Y0057838D01*
X0095232Y0055628D02*
X0094498Y0054894D01*
X0095232Y0054160D01*
X0096700Y0054160D01*
X0095599Y0054160D02*
X0095599Y0055628D01*
X0095232Y0055628D02*
X0096700Y0055628D01*
X0091333Y0050048D02*
X0091700Y0049681D01*
X0091700Y0048580D01*
X0089498Y0048580D01*
X0089498Y0049681D01*
X0089865Y0050048D01*
X0091333Y0050048D01*
X0091700Y0047838D02*
X0089498Y0047838D01*
X0089498Y0046370D02*
X0091700Y0047838D01*
X0091700Y0046370D02*
X0089498Y0046370D01*
X0089865Y0045628D02*
X0089498Y0045261D01*
X0089498Y0044527D01*
X0089865Y0044160D01*
X0091333Y0044160D01*
X0091700Y0044527D01*
X0091700Y0045261D01*
X0091333Y0045628D01*
X0090599Y0045628D01*
X0090599Y0044894D01*
X0094498Y0104160D02*
X0096700Y0104160D01*
X0096700Y0105628D01*
X0096333Y0106370D02*
X0096700Y0106737D01*
X0096700Y0107471D01*
X0096333Y0107838D01*
X0095599Y0107838D01*
X0095232Y0107471D01*
X0095232Y0106737D01*
X0095599Y0106370D01*
X0096333Y0106370D01*
X0096333Y0108580D02*
X0095966Y0108947D01*
X0095966Y0110048D01*
X0095599Y0110048D02*
X0096700Y0110048D01*
X0096700Y0108947D01*
X0096333Y0108580D01*
X0095232Y0108947D02*
X0095232Y0109681D01*
X0095599Y0110048D01*
X0095599Y0110790D02*
X0095232Y0111157D01*
X0095232Y0112258D01*
X0094498Y0112258D02*
X0096700Y0112258D01*
X0096700Y0111157D01*
X0096333Y0110790D01*
X0095599Y0110790D01*
X0094865Y0115209D02*
X0094498Y0115576D01*
X0094498Y0116310D01*
X0094865Y0116677D01*
X0095599Y0117419D02*
X0095232Y0117786D01*
X0095232Y0118520D01*
X0095599Y0118887D01*
X0095966Y0118887D01*
X0095966Y0117419D01*
X0096333Y0117419D02*
X0095599Y0117419D01*
X0096333Y0117419D02*
X0096700Y0117786D01*
X0096700Y0118520D01*
X0096700Y0119629D02*
X0096700Y0120363D01*
X0096700Y0119996D02*
X0094498Y0119996D01*
X0094498Y0119629D01*
X0094498Y0121102D02*
X0094498Y0121469D01*
X0096700Y0121469D01*
X0096700Y0121102D02*
X0096700Y0121836D01*
X0096700Y0124786D02*
X0096700Y0125519D01*
X0096700Y0125153D02*
X0094498Y0125153D01*
X0094498Y0125519D02*
X0094498Y0124786D01*
X0095232Y0126259D02*
X0095232Y0127360D01*
X0095599Y0127727D01*
X0096700Y0127727D01*
X0096700Y0128469D02*
X0096700Y0129570D01*
X0096333Y0129937D01*
X0095599Y0129937D01*
X0095232Y0129570D01*
X0095232Y0128469D01*
X0097434Y0128469D01*
X0096700Y0126259D02*
X0095232Y0126259D01*
X0095232Y0130679D02*
X0096333Y0130679D01*
X0096700Y0131046D01*
X0096700Y0132146D01*
X0095232Y0132146D01*
X0095232Y0132888D02*
X0095232Y0133622D01*
X0094865Y0133255D02*
X0096333Y0133255D01*
X0096700Y0133622D01*
X0096333Y0116677D02*
X0096700Y0116310D01*
X0096700Y0115576D01*
X0096333Y0115209D01*
X0094865Y0115209D01*
D11*
X0091166Y0119210D02*
X0091650Y0119694D01*
X0091650Y0120661D01*
X0091166Y0121145D01*
X0090683Y0121145D01*
X0090199Y0120661D01*
X0090199Y0119694D01*
X0089715Y0119210D01*
X0089231Y0119210D01*
X0088748Y0119694D01*
X0088748Y0120661D01*
X0089231Y0121145D01*
X0090199Y0122157D02*
X0090199Y0124091D01*
X0091166Y0123124D02*
X0089231Y0123124D01*
X0090199Y0114091D02*
X0090199Y0112157D01*
X0090683Y0111145D02*
X0090199Y0110661D01*
X0090199Y0109694D01*
X0089715Y0109210D01*
X0089231Y0109210D01*
X0088748Y0109694D01*
X0088748Y0110661D01*
X0089231Y0111145D01*
X0090683Y0111145D02*
X0091166Y0111145D01*
X0091650Y0110661D01*
X0091650Y0109694D01*
X0091166Y0109210D01*
X0090683Y0101145D02*
X0088748Y0101145D01*
X0088748Y0099210D02*
X0090683Y0099210D01*
X0091650Y0100177D01*
X0090683Y0101145D01*
X0091166Y0092038D02*
X0089231Y0092038D01*
X0088748Y0091554D01*
X0088748Y0090103D01*
X0091650Y0090103D01*
X0091650Y0091554D01*
X0091166Y0092038D01*
X0091650Y0089091D02*
X0088748Y0089091D01*
X0088748Y0087157D02*
X0091650Y0089091D01*
X0091650Y0087157D02*
X0088748Y0087157D01*
X0089231Y0086145D02*
X0088748Y0085661D01*
X0088748Y0084694D01*
X0089231Y0084210D01*
X0091166Y0084210D01*
X0091650Y0084694D01*
X0091650Y0085661D01*
X0091166Y0086145D01*
X0090199Y0086145D01*
X0090199Y0085177D01*
X0042786Y0124394D02*
X0039650Y0127530D01*
X0039650Y0125962D02*
X0042786Y0125962D01*
X0042786Y0127530D02*
X0039650Y0124394D01*
X0041218Y0124394D02*
X0041218Y0127530D01*
D12*
X0016800Y0121560D02*
X0016800Y0116560D01*
X0014300Y0114060D01*
X0016800Y0111560D01*
X0016800Y0106560D01*
X0014300Y0104060D01*
X0009300Y0104060D01*
X0006800Y0106560D01*
X0006800Y0111560D01*
X0009300Y0114060D01*
X0006800Y0116560D01*
X0006800Y0121560D01*
X0009300Y0124060D01*
X0014300Y0124060D01*
X0016800Y0121560D01*
X0016800Y0085060D02*
X0016800Y0084060D01*
X0019800Y0084060D01*
X0019800Y0064060D01*
X0016800Y0064060D01*
X0016800Y0063060D01*
X0016800Y0064060D02*
X0013800Y0064060D01*
X0013800Y0084060D01*
X0016800Y0084060D01*
X0028800Y0084060D02*
X0031800Y0084060D01*
X0031800Y0085060D01*
X0031800Y0084060D02*
X0034800Y0084060D01*
X0034800Y0064060D01*
X0031800Y0064060D01*
X0031800Y0063060D01*
X0031800Y0064060D02*
X0028800Y0064060D01*
X0028800Y0084060D01*
X0038040Y0042820D02*
X0038040Y0005300D01*
X0075560Y0005300D01*
X0075560Y0042820D01*
X0072548Y0042820D01*
X0072548Y0041245D01*
X0041052Y0041245D01*
X0041052Y0042820D01*
X0038040Y0042820D01*
X0076800Y0046560D02*
X0076800Y0051560D01*
X0079300Y0054060D01*
X0076800Y0056560D01*
X0076800Y0061560D01*
X0079300Y0064060D01*
X0084300Y0064060D01*
X0086800Y0061560D01*
X0086800Y0056560D01*
X0084300Y0054060D01*
X0086800Y0051560D01*
X0086800Y0046560D01*
X0084300Y0044060D01*
X0079300Y0044060D01*
X0076800Y0046560D01*
X0079300Y0084060D02*
X0084300Y0084060D01*
X0086800Y0086560D01*
X0086800Y0091560D01*
X0084300Y0094060D01*
X0086800Y0096560D01*
X0086800Y0101560D01*
X0084300Y0104060D01*
X0086800Y0106560D01*
X0086800Y0111560D01*
X0084300Y0114060D01*
X0086800Y0116560D01*
X0086800Y0121560D01*
X0084300Y0124060D01*
X0079300Y0124060D01*
X0076800Y0121560D01*
X0076800Y0116560D01*
X0079300Y0114060D01*
X0076800Y0111560D01*
X0076800Y0106560D01*
X0079300Y0104060D01*
X0076800Y0101560D01*
X0076800Y0096560D01*
X0079300Y0094060D01*
X0076800Y0091560D01*
X0076800Y0086560D01*
X0079300Y0084060D01*
D13*
X0068300Y0122860D02*
X0058000Y0122860D01*
X0055600Y0122860D01*
X0047000Y0122860D01*
X0045300Y0045260D02*
X0068300Y0045260D01*
D14*
X0058000Y0122860D02*
X0057998Y0122791D01*
X0057992Y0122723D01*
X0057982Y0122655D01*
X0057969Y0122588D01*
X0057951Y0122522D01*
X0057930Y0122457D01*
X0057905Y0122393D01*
X0057877Y0122331D01*
X0057845Y0122270D01*
X0057810Y0122211D01*
X0057771Y0122155D01*
X0057729Y0122100D01*
X0057684Y0122049D01*
X0057636Y0121999D01*
X0057586Y0121953D01*
X0057533Y0121910D01*
X0057477Y0121869D01*
X0057420Y0121832D01*
X0057360Y0121799D01*
X0057298Y0121768D01*
X0057235Y0121742D01*
X0057171Y0121719D01*
X0057105Y0121699D01*
X0057038Y0121684D01*
X0056971Y0121672D01*
X0056903Y0121664D01*
X0056834Y0121660D01*
X0056766Y0121660D01*
X0056697Y0121664D01*
X0056629Y0121672D01*
X0056562Y0121684D01*
X0056495Y0121699D01*
X0056429Y0121719D01*
X0056365Y0121742D01*
X0056302Y0121768D01*
X0056240Y0121799D01*
X0056180Y0121832D01*
X0056123Y0121869D01*
X0056067Y0121910D01*
X0056014Y0121953D01*
X0055964Y0121999D01*
X0055916Y0122049D01*
X0055871Y0122100D01*
X0055829Y0122155D01*
X0055790Y0122211D01*
X0055755Y0122270D01*
X0055723Y0122331D01*
X0055695Y0122393D01*
X0055670Y0122457D01*
X0055649Y0122522D01*
X0055631Y0122588D01*
X0055618Y0122655D01*
X0055608Y0122723D01*
X0055602Y0122791D01*
X0055600Y0122860D01*
D15*
X0031800Y0124560D02*
X0031800Y0103560D01*
X0021800Y0103560D01*
X0021800Y0124560D01*
X0031800Y0124560D01*
X0029300Y0114060D02*
X0024300Y0114060D01*
M02*
