G75*
%MOIN*%
%OFA0B0*%
%FSLAX25Y25*%
%IPPOS*%
%LPD*%
%AMOC8*
5,1,8,0,0,1.08239X$1,22.5*
%
%ADD10C,0.07400*%
%ADD11R,0.06600X0.06600*%
%ADD12C,0.06600*%
%ADD13C,0.08000*%
%ADD14R,0.07400X0.07400*%
%ADD15C,0.01600*%
D10*
X0016800Y0059060D03*
X0031800Y0059060D03*
X0031800Y0089060D03*
X0016800Y0089060D03*
X0011800Y0109060D03*
X0011800Y0119060D03*
X0081800Y0119060D03*
X0081800Y0109060D03*
X0081800Y0099060D03*
X0081800Y0089060D03*
X0081800Y0059060D03*
X0081800Y0049060D03*
X0056800Y0024119D03*
X0046800Y0024119D03*
D11*
X0041800Y0119060D03*
D12*
X0041800Y0109060D03*
X0041800Y0099060D03*
X0041800Y0089060D03*
X0041800Y0079060D03*
X0041800Y0069060D03*
X0041800Y0059060D03*
X0041800Y0049060D03*
X0071800Y0049060D03*
X0071800Y0059060D03*
X0071800Y0069060D03*
X0071800Y0079060D03*
X0071800Y0089060D03*
X0071800Y0099060D03*
X0071800Y0109060D03*
X0071800Y0119060D03*
D13*
X0026800Y0119560D03*
X0026800Y0108560D03*
D14*
X0066800Y0024119D03*
D15*
X0038606Y0013860D02*
X0006600Y0013860D01*
X0006600Y0055866D01*
X0019765Y0042700D01*
X0020441Y0042025D01*
X0021323Y0041660D01*
X0030806Y0041660D01*
X0034400Y0038066D01*
X0034400Y0018583D01*
X0034765Y0017700D01*
X0038606Y0013860D01*
X0006600Y0013860D01*
X0006600Y0055866D01*
X0019765Y0042700D01*
X0020441Y0042025D01*
X0021323Y0041660D01*
X0030806Y0041660D01*
X0034400Y0038066D01*
X0034400Y0018583D01*
X0034765Y0017700D01*
X0038606Y0013860D01*
X0038109Y0014357D02*
X0006600Y0014357D01*
X0038109Y0014357D01*
X0036510Y0015956D02*
X0006600Y0015956D01*
X0036510Y0015956D01*
X0034912Y0017554D02*
X0006600Y0017554D01*
X0034912Y0017554D01*
X0034400Y0019153D02*
X0006600Y0019153D01*
X0034400Y0019153D01*
X0034400Y0020751D02*
X0006600Y0020751D01*
X0034400Y0020751D01*
X0034400Y0022350D02*
X0006600Y0022350D01*
X0034400Y0022350D01*
X0034400Y0023948D02*
X0006600Y0023948D01*
X0034400Y0023948D01*
X0034400Y0025547D02*
X0006600Y0025547D01*
X0034400Y0025547D01*
X0034400Y0027145D02*
X0006600Y0027145D01*
X0034400Y0027145D01*
X0034400Y0028744D02*
X0006600Y0028744D01*
X0034400Y0028744D01*
X0034400Y0030342D02*
X0006600Y0030342D01*
X0034400Y0030342D01*
X0034400Y0031941D02*
X0006600Y0031941D01*
X0034400Y0031941D01*
X0034400Y0033539D02*
X0006600Y0033539D01*
X0034400Y0033539D01*
X0034400Y0035138D02*
X0006600Y0035138D01*
X0034400Y0035138D01*
X0034400Y0036736D02*
X0006600Y0036736D01*
X0034400Y0036736D01*
X0034131Y0038335D02*
X0006600Y0038335D01*
X0034131Y0038335D01*
X0032532Y0039933D02*
X0006600Y0039933D01*
X0032532Y0039933D01*
X0030934Y0041532D02*
X0006600Y0041532D01*
X0030934Y0041532D01*
X0031800Y0044060D02*
X0036800Y0039060D01*
X0036800Y0019060D01*
X0041800Y0014060D01*
X0056741Y0014060D01*
X0066800Y0024119D01*
X0066859Y0024119D01*
X0081800Y0039060D01*
X0081800Y0049060D01*
X0086800Y0049060D01*
X0091800Y0054060D01*
X0091800Y0069060D01*
X0086800Y0074060D01*
X0076800Y0074060D01*
X0071800Y0079060D01*
X0081800Y0089060D01*
X0080022Y0094060D02*
X0078798Y0093553D01*
X0077307Y0092062D01*
X0076584Y0090316D01*
X0075954Y0091836D01*
X0074576Y0093214D01*
X0072775Y0093960D01*
X0070825Y0093960D01*
X0069024Y0093214D01*
X0067646Y0091836D01*
X0066900Y0090035D01*
X0066900Y0088085D01*
X0067646Y0086284D01*
X0069024Y0084906D01*
X0070825Y0084160D01*
X0072775Y0084160D01*
X0074023Y0084677D01*
X0073150Y0083804D01*
X0072775Y0083960D01*
X0070825Y0083960D01*
X0069024Y0083214D01*
X0067646Y0081836D01*
X0066900Y0080035D01*
X0066900Y0078085D01*
X0067646Y0076284D01*
X0069024Y0074906D01*
X0070825Y0074160D01*
X0072775Y0074160D01*
X0073150Y0074316D01*
X0074023Y0073443D01*
X0072775Y0073960D01*
X0070825Y0073960D01*
X0069024Y0073214D01*
X0067646Y0071836D01*
X0066900Y0070035D01*
X0066900Y0068085D01*
X0067646Y0066284D01*
X0069024Y0064906D01*
X0069400Y0064750D01*
X0069400Y0063370D01*
X0069024Y0063214D01*
X0067646Y0061836D01*
X0066900Y0060035D01*
X0066900Y0058085D01*
X0067646Y0056284D01*
X0069024Y0054906D01*
X0070825Y0054160D01*
X0072775Y0054160D01*
X0074576Y0054906D01*
X0075954Y0056284D01*
X0076110Y0056660D01*
X0077057Y0056660D01*
X0077307Y0056058D01*
X0078798Y0054567D01*
X0080022Y0054060D01*
X0078798Y0053553D01*
X0077307Y0052062D01*
X0076584Y0050316D01*
X0075954Y0051836D01*
X0074576Y0053214D01*
X0072775Y0053960D01*
X0070825Y0053960D01*
X0069024Y0053214D01*
X0067646Y0051836D01*
X0066900Y0050035D01*
X0066900Y0048085D01*
X0067056Y0047710D01*
X0054765Y0035419D01*
X0054400Y0034537D01*
X0054400Y0028862D01*
X0053798Y0028612D01*
X0052307Y0027121D01*
X0051800Y0025898D01*
X0051293Y0027121D01*
X0049802Y0028612D01*
X0047854Y0029419D01*
X0045746Y0029419D01*
X0045144Y0029170D01*
X0044200Y0030113D01*
X0044200Y0044750D01*
X0044576Y0044906D01*
X0045954Y0046284D01*
X0046700Y0048085D01*
X0046700Y0050035D01*
X0045954Y0051836D01*
X0044576Y0053214D01*
X0042775Y0053960D01*
X0040825Y0053960D01*
X0039577Y0053443D01*
X0040450Y0054316D01*
X0040825Y0054160D01*
X0042775Y0054160D01*
X0044576Y0054906D01*
X0045954Y0056284D01*
X0046700Y0058085D01*
X0046700Y0060035D01*
X0045954Y0061836D01*
X0044576Y0063214D01*
X0042775Y0063960D01*
X0040825Y0063960D01*
X0039024Y0063214D01*
X0037646Y0061836D01*
X0037016Y0060316D01*
X0036293Y0062062D01*
X0034802Y0063553D01*
X0034721Y0063587D01*
X0037579Y0066445D01*
X0037646Y0066284D01*
X0039024Y0064906D01*
X0040825Y0064160D01*
X0042775Y0064160D01*
X0044576Y0064906D01*
X0045954Y0066284D01*
X0046700Y0068085D01*
X0046700Y0070035D01*
X0045954Y0071836D01*
X0044576Y0073214D01*
X0042775Y0073960D01*
X0040825Y0073960D01*
X0039024Y0073214D01*
X0037646Y0071836D01*
X0037490Y0071460D01*
X0036323Y0071460D01*
X0035441Y0071095D01*
X0034765Y0070419D01*
X0030441Y0066095D01*
X0029765Y0065419D01*
X0029400Y0064537D01*
X0029400Y0063803D01*
X0028798Y0063553D01*
X0027307Y0062062D01*
X0026500Y0060114D01*
X0026500Y0058006D01*
X0027307Y0056058D01*
X0028798Y0054567D01*
X0030746Y0053760D01*
X0032854Y0053760D01*
X0033284Y0053938D01*
X0030806Y0051460D01*
X0022794Y0051460D01*
X0019721Y0054533D01*
X0019802Y0054567D01*
X0021293Y0056058D01*
X0022100Y0058006D01*
X0022100Y0060114D01*
X0021293Y0062062D01*
X0019802Y0063553D01*
X0017854Y0064360D01*
X0015746Y0064360D01*
X0013798Y0063553D01*
X0012307Y0062062D01*
X0011500Y0060114D01*
X0011500Y0058006D01*
X0011678Y0057576D01*
X0009200Y0060054D01*
X0009200Y0093066D01*
X0012794Y0096660D01*
X0036006Y0096660D01*
X0033456Y0094111D01*
X0032854Y0094360D01*
X0030746Y0094360D01*
X0028798Y0093553D01*
X0027307Y0092062D01*
X0027057Y0091460D01*
X0021543Y0091460D01*
X0021293Y0092062D01*
X0019802Y0093553D01*
X0017854Y0094360D01*
X0015746Y0094360D01*
X0013798Y0093553D01*
X0012307Y0092062D01*
X0011500Y0090114D01*
X0011500Y0088006D01*
X0012307Y0086058D01*
X0013798Y0084567D01*
X0015746Y0083760D01*
X0017854Y0083760D01*
X0019802Y0084567D01*
X0021293Y0086058D01*
X0021543Y0086660D01*
X0027057Y0086660D01*
X0027307Y0086058D01*
X0028798Y0084567D01*
X0030746Y0083760D01*
X0032854Y0083760D01*
X0034802Y0084567D01*
X0036293Y0086058D01*
X0037016Y0087804D01*
X0037646Y0086284D01*
X0039024Y0084906D01*
X0039400Y0084750D01*
X0039400Y0083370D01*
X0039024Y0083214D01*
X0037646Y0081836D01*
X0036900Y0080035D01*
X0036900Y0078085D01*
X0037646Y0076284D01*
X0039024Y0074906D01*
X0040825Y0074160D01*
X0042775Y0074160D01*
X0044576Y0074906D01*
X0045954Y0076284D01*
X0046700Y0078085D01*
X0046700Y0080035D01*
X0045954Y0081836D01*
X0044576Y0083214D01*
X0044200Y0083370D01*
X0044200Y0084750D01*
X0044576Y0084906D01*
X0045954Y0086284D01*
X0046110Y0086660D01*
X0057277Y0086660D01*
X0058159Y0087025D01*
X0067579Y0096445D01*
X0067646Y0096284D01*
X0069024Y0094906D01*
X0070825Y0094160D01*
X0072775Y0094160D01*
X0074576Y0094906D01*
X0075954Y0096284D01*
X0076110Y0096660D01*
X0077057Y0096660D01*
X0077307Y0096058D01*
X0078798Y0094567D01*
X0080022Y0094060D01*
X0078798Y0093553D01*
X0077307Y0092062D01*
X0076584Y0090316D01*
X0075954Y0091836D01*
X0074576Y0093214D01*
X0072775Y0093960D01*
X0070825Y0093960D01*
X0069024Y0093214D01*
X0067646Y0091836D01*
X0066900Y0090035D01*
X0066900Y0088085D01*
X0067646Y0086284D01*
X0069024Y0084906D01*
X0070825Y0084160D01*
X0072775Y0084160D01*
X0074023Y0084677D01*
X0073150Y0083804D01*
X0072775Y0083960D01*
X0070825Y0083960D01*
X0069024Y0083214D01*
X0067646Y0081836D01*
X0066900Y0080035D01*
X0066900Y0078085D01*
X0067646Y0076284D01*
X0069024Y0074906D01*
X0070825Y0074160D01*
X0072775Y0074160D01*
X0073150Y0074316D01*
X0074023Y0073443D01*
X0072775Y0073960D01*
X0070825Y0073960D01*
X0069024Y0073214D01*
X0067646Y0071836D01*
X0066900Y0070035D01*
X0066900Y0068085D01*
X0067646Y0066284D01*
X0069024Y0064906D01*
X0069400Y0064750D01*
X0069400Y0063370D01*
X0069024Y0063214D01*
X0067646Y0061836D01*
X0066900Y0060035D01*
X0066900Y0058085D01*
X0067646Y0056284D01*
X0069024Y0054906D01*
X0070825Y0054160D01*
X0072775Y0054160D01*
X0074576Y0054906D01*
X0075954Y0056284D01*
X0076110Y0056660D01*
X0077057Y0056660D01*
X0077307Y0056058D01*
X0078798Y0054567D01*
X0080022Y0054060D01*
X0078798Y0053553D01*
X0077307Y0052062D01*
X0076584Y0050316D01*
X0075954Y0051836D01*
X0074576Y0053214D01*
X0072775Y0053960D01*
X0070825Y0053960D01*
X0069024Y0053214D01*
X0067646Y0051836D01*
X0066900Y0050035D01*
X0066900Y0048085D01*
X0067056Y0047710D01*
X0054765Y0035419D01*
X0054400Y0034537D01*
X0054400Y0028862D01*
X0053798Y0028612D01*
X0052307Y0027121D01*
X0051800Y0025898D01*
X0051293Y0027121D01*
X0049802Y0028612D01*
X0047854Y0029419D01*
X0045746Y0029419D01*
X0045144Y0029170D01*
X0044200Y0030113D01*
X0044200Y0044750D01*
X0044576Y0044906D01*
X0045954Y0046284D01*
X0046700Y0048085D01*
X0046700Y0050035D01*
X0045954Y0051836D01*
X0044576Y0053214D01*
X0042775Y0053960D01*
X0040825Y0053960D01*
X0039577Y0053443D01*
X0040450Y0054316D01*
X0040825Y0054160D01*
X0042775Y0054160D01*
X0044576Y0054906D01*
X0045954Y0056284D01*
X0046700Y0058085D01*
X0046700Y0060035D01*
X0045954Y0061836D01*
X0044576Y0063214D01*
X0042775Y0063960D01*
X0040825Y0063960D01*
X0039024Y0063214D01*
X0037646Y0061836D01*
X0037016Y0060316D01*
X0036293Y0062062D01*
X0034802Y0063553D01*
X0034721Y0063587D01*
X0037579Y0066445D01*
X0037646Y0066284D01*
X0039024Y0064906D01*
X0040825Y0064160D01*
X0042775Y0064160D01*
X0044576Y0064906D01*
X0045954Y0066284D01*
X0046700Y0068085D01*
X0046700Y0070035D01*
X0045954Y0071836D01*
X0044576Y0073214D01*
X0042775Y0073960D01*
X0040825Y0073960D01*
X0039024Y0073214D01*
X0037646Y0071836D01*
X0037490Y0071460D01*
X0036323Y0071460D01*
X0035441Y0071095D01*
X0034765Y0070419D01*
X0034765Y0070419D01*
X0030441Y0066095D01*
X0030441Y0066095D01*
X0029765Y0065419D01*
X0029400Y0064537D01*
X0029400Y0063803D01*
X0028798Y0063553D01*
X0027307Y0062062D01*
X0026500Y0060114D01*
X0026500Y0058006D01*
X0027307Y0056058D01*
X0028798Y0054567D01*
X0030746Y0053760D01*
X0032854Y0053760D01*
X0033284Y0053938D01*
X0030806Y0051460D01*
X0022794Y0051460D01*
X0019721Y0054533D01*
X0019802Y0054567D01*
X0021293Y0056058D01*
X0022100Y0058006D01*
X0022100Y0060114D01*
X0021293Y0062062D01*
X0019802Y0063553D01*
X0017854Y0064360D01*
X0015746Y0064360D01*
X0013798Y0063553D01*
X0012307Y0062062D01*
X0011500Y0060114D01*
X0011500Y0058006D01*
X0011678Y0057576D01*
X0009200Y0060054D01*
X0009200Y0093066D01*
X0012794Y0096660D01*
X0036006Y0096660D01*
X0033456Y0094111D01*
X0032854Y0094360D01*
X0030746Y0094360D01*
X0028798Y0093553D01*
X0027307Y0092062D01*
X0027057Y0091460D01*
X0021543Y0091460D01*
X0021293Y0092062D01*
X0019802Y0093553D01*
X0017854Y0094360D01*
X0015746Y0094360D01*
X0013798Y0093553D01*
X0012307Y0092062D01*
X0011500Y0090114D01*
X0011500Y0088006D01*
X0012307Y0086058D01*
X0013798Y0084567D01*
X0015746Y0083760D01*
X0017854Y0083760D01*
X0019802Y0084567D01*
X0021293Y0086058D01*
X0021543Y0086660D01*
X0027057Y0086660D01*
X0027307Y0086058D01*
X0028798Y0084567D01*
X0030746Y0083760D01*
X0032854Y0083760D01*
X0034802Y0084567D01*
X0036293Y0086058D01*
X0037016Y0087804D01*
X0037646Y0086284D01*
X0039024Y0084906D01*
X0039400Y0084750D01*
X0039400Y0083370D01*
X0039024Y0083214D01*
X0037646Y0081836D01*
X0036900Y0080035D01*
X0036900Y0078085D01*
X0037646Y0076284D01*
X0039024Y0074906D01*
X0040825Y0074160D01*
X0042775Y0074160D01*
X0044576Y0074906D01*
X0045954Y0076284D01*
X0046700Y0078085D01*
X0046700Y0080035D01*
X0045954Y0081836D01*
X0044576Y0083214D01*
X0044200Y0083370D01*
X0044200Y0084750D01*
X0044576Y0084906D01*
X0045954Y0086284D01*
X0046110Y0086660D01*
X0057277Y0086660D01*
X0058159Y0087025D01*
X0067579Y0096445D01*
X0067646Y0096284D01*
X0069024Y0094906D01*
X0070825Y0094160D01*
X0072775Y0094160D01*
X0074576Y0094906D01*
X0075954Y0096284D01*
X0076110Y0096660D01*
X0077057Y0096660D01*
X0077307Y0096058D01*
X0078798Y0094567D01*
X0080022Y0094060D01*
X0079484Y0094283D02*
X0073071Y0094283D01*
X0079484Y0094283D01*
X0077929Y0092684D02*
X0075105Y0092684D01*
X0077929Y0092684D01*
X0076902Y0091086D02*
X0076265Y0091086D01*
X0076902Y0091086D01*
X0076584Y0087804D02*
X0076183Y0086837D01*
X0076749Y0087404D01*
X0076584Y0087804D01*
X0076183Y0086837D01*
X0076749Y0087404D01*
X0076584Y0087804D01*
X0080144Y0084009D02*
X0080746Y0083760D01*
X0082854Y0083760D01*
X0084802Y0084567D01*
X0086293Y0086058D01*
X0087100Y0088006D01*
X0087100Y0090114D01*
X0086293Y0092062D01*
X0084802Y0093553D01*
X0083578Y0094060D01*
X0084802Y0094567D01*
X0086293Y0096058D01*
X0087100Y0098006D01*
X0087100Y0100114D01*
X0086293Y0102062D01*
X0084802Y0103553D01*
X0083578Y0104060D01*
X0084802Y0104567D01*
X0086293Y0106058D01*
X0087100Y0108006D01*
X0087100Y0110114D01*
X0086293Y0112062D01*
X0084802Y0113553D01*
X0083578Y0114060D01*
X0084802Y0114567D01*
X0086293Y0116058D01*
X0087100Y0118006D01*
X0087100Y0120114D01*
X0086293Y0122062D01*
X0084802Y0123553D01*
X0083191Y0124221D01*
X0095701Y0124221D01*
X0095701Y0013860D01*
X0059935Y0013860D01*
X0064894Y0018819D01*
X0071163Y0018819D01*
X0072100Y0019756D01*
X0072100Y0025966D01*
X0083159Y0037025D01*
X0083835Y0037700D01*
X0084200Y0038583D01*
X0084200Y0044317D01*
X0084802Y0044567D01*
X0086293Y0046058D01*
X0086543Y0046660D01*
X0087277Y0046660D01*
X0088159Y0047025D01*
X0093159Y0052025D01*
X0093835Y0052700D01*
X0094200Y0053583D01*
X0094200Y0069537D01*
X0093835Y0070419D01*
X0088835Y0075419D01*
X0088159Y0076095D01*
X0087277Y0076460D01*
X0077794Y0076460D01*
X0076544Y0077710D01*
X0076700Y0078085D01*
X0076700Y0080035D01*
X0076544Y0080410D01*
X0080144Y0084009D01*
X0080746Y0083760D01*
X0082854Y0083760D01*
X0084802Y0084567D01*
X0086293Y0086058D01*
X0087100Y0088006D01*
X0087100Y0090114D01*
X0086293Y0092062D01*
X0084802Y0093553D01*
X0083578Y0094060D01*
X0084802Y0094567D01*
X0086293Y0096058D01*
X0087100Y0098006D01*
X0087100Y0100114D01*
X0086293Y0102062D01*
X0084802Y0103553D01*
X0083578Y0104060D01*
X0084802Y0104567D01*
X0086293Y0106058D01*
X0087100Y0108006D01*
X0087100Y0110114D01*
X0086293Y0112062D01*
X0084802Y0113553D01*
X0083578Y0114060D01*
X0084802Y0114567D01*
X0086293Y0116058D01*
X0087100Y0118006D01*
X0087100Y0120114D01*
X0086293Y0122062D01*
X0084802Y0123553D01*
X0083191Y0124221D01*
X0095701Y0124221D01*
X0095701Y0013860D01*
X0059935Y0013860D01*
X0064894Y0018819D01*
X0071163Y0018819D01*
X0072100Y0019756D01*
X0072100Y0025966D01*
X0083159Y0037025D01*
X0083835Y0037700D01*
X0084200Y0038583D01*
X0084200Y0044317D01*
X0084802Y0044567D01*
X0086293Y0046058D01*
X0086543Y0046660D01*
X0087277Y0046660D01*
X0088159Y0047025D01*
X0093159Y0052025D01*
X0093835Y0052700D01*
X0094200Y0053583D01*
X0094200Y0069537D01*
X0093835Y0070419D01*
X0088835Y0075419D01*
X0088159Y0076095D01*
X0087277Y0076460D01*
X0077794Y0076460D01*
X0076544Y0077710D01*
X0076700Y0078085D01*
X0076700Y0080035D01*
X0076544Y0080410D01*
X0080144Y0084009D01*
X0079227Y0083093D02*
X0095701Y0083093D01*
X0079227Y0083093D01*
X0077629Y0081495D02*
X0095701Y0081495D01*
X0077629Y0081495D01*
X0076700Y0079896D02*
X0095701Y0079896D01*
X0076700Y0079896D01*
X0076700Y0078298D02*
X0095701Y0078298D01*
X0076700Y0078298D01*
X0077555Y0076699D02*
X0095701Y0076699D01*
X0077555Y0076699D01*
X0073964Y0073502D02*
X0073880Y0073502D01*
X0073964Y0073502D01*
X0075965Y0071808D02*
X0076700Y0070035D01*
X0076700Y0068085D01*
X0075954Y0066284D01*
X0074576Y0064906D01*
X0074200Y0064750D01*
X0074200Y0063370D01*
X0074576Y0063214D01*
X0075954Y0061836D01*
X0076110Y0061460D01*
X0077057Y0061460D01*
X0077307Y0062062D01*
X0078798Y0063553D01*
X0080746Y0064360D01*
X0082854Y0064360D01*
X0084802Y0063553D01*
X0086293Y0062062D01*
X0087100Y0060114D01*
X0087100Y0058006D01*
X0086293Y0056058D01*
X0084802Y0054567D01*
X0083578Y0054060D01*
X0084802Y0053553D01*
X0086293Y0052062D01*
X0086327Y0051981D01*
X0089400Y0055054D01*
X0089400Y0068066D01*
X0085806Y0071660D01*
X0076323Y0071660D01*
X0075965Y0071808D01*
X0076323Y0071660D01*
X0085806Y0071660D01*
X0089400Y0068066D01*
X0089400Y0055054D01*
X0086327Y0051981D01*
X0086293Y0052062D01*
X0084802Y0053553D01*
X0083578Y0054060D01*
X0084802Y0054567D01*
X0086293Y0056058D01*
X0087100Y0058006D01*
X0087100Y0060114D01*
X0086293Y0062062D01*
X0084802Y0063553D01*
X0082854Y0064360D01*
X0080746Y0064360D01*
X0078798Y0063553D01*
X0077307Y0062062D01*
X0077057Y0061460D01*
X0076110Y0061460D01*
X0075954Y0061836D01*
X0074576Y0063214D01*
X0074200Y0063370D01*
X0074200Y0064750D01*
X0074576Y0064906D01*
X0075954Y0066284D01*
X0076700Y0068085D01*
X0076700Y0070035D01*
X0075965Y0071808D01*
X0076588Y0070305D02*
X0087161Y0070305D01*
X0076588Y0070305D01*
X0076700Y0068707D02*
X0088759Y0068707D01*
X0076700Y0068707D01*
X0076295Y0067108D02*
X0089400Y0067108D01*
X0076295Y0067108D01*
X0075179Y0065510D02*
X0089400Y0065510D01*
X0075179Y0065510D01*
X0074200Y0063911D02*
X0079662Y0063911D01*
X0074200Y0063911D01*
X0075477Y0062313D02*
X0077557Y0062313D01*
X0075477Y0062313D01*
X0071800Y0059060D02*
X0081800Y0059060D01*
X0083938Y0063911D02*
X0089400Y0063911D01*
X0083938Y0063911D01*
X0086043Y0062313D02*
X0089400Y0062313D01*
X0086043Y0062313D01*
X0086852Y0060714D02*
X0089400Y0060714D01*
X0086852Y0060714D01*
X0087100Y0059116D02*
X0089400Y0059116D01*
X0087100Y0059116D01*
X0086898Y0057517D02*
X0089400Y0057517D01*
X0086898Y0057517D01*
X0086154Y0055919D02*
X0089400Y0055919D01*
X0086154Y0055919D01*
X0084206Y0054320D02*
X0088666Y0054320D01*
X0084206Y0054320D01*
X0085634Y0052722D02*
X0087067Y0052722D01*
X0085634Y0052722D01*
X0089060Y0047926D02*
X0095701Y0047926D01*
X0089060Y0047926D01*
X0090659Y0049525D02*
X0095701Y0049525D01*
X0090659Y0049525D01*
X0092257Y0051123D02*
X0095701Y0051123D01*
X0092257Y0051123D01*
X0093843Y0052722D02*
X0095701Y0052722D01*
X0093843Y0052722D01*
X0094200Y0054320D02*
X0095701Y0054320D01*
X0094200Y0054320D01*
X0094200Y0055919D02*
X0095701Y0055919D01*
X0094200Y0055919D01*
X0094200Y0057517D02*
X0095701Y0057517D01*
X0094200Y0057517D01*
X0094200Y0059116D02*
X0095701Y0059116D01*
X0094200Y0059116D01*
X0094200Y0060714D02*
X0095701Y0060714D01*
X0094200Y0060714D01*
X0094200Y0062313D02*
X0095701Y0062313D01*
X0094200Y0062313D01*
X0094200Y0063911D02*
X0095701Y0063911D01*
X0094200Y0063911D01*
X0094200Y0065510D02*
X0095701Y0065510D01*
X0094200Y0065510D01*
X0094200Y0067108D02*
X0095701Y0067108D01*
X0094200Y0067108D01*
X0094200Y0068707D02*
X0095701Y0068707D01*
X0094200Y0068707D01*
X0093882Y0070305D02*
X0095701Y0070305D01*
X0093882Y0070305D01*
X0092350Y0071904D02*
X0095701Y0071904D01*
X0092350Y0071904D01*
X0090752Y0073502D02*
X0095701Y0073502D01*
X0090752Y0073502D01*
X0089153Y0075101D02*
X0095701Y0075101D01*
X0089153Y0075101D01*
X0084927Y0084692D02*
X0095701Y0084692D01*
X0084927Y0084692D01*
X0086389Y0086290D02*
X0095701Y0086290D01*
X0086389Y0086290D01*
X0087052Y0087889D02*
X0095701Y0087889D01*
X0087052Y0087889D01*
X0087100Y0089487D02*
X0095701Y0089487D01*
X0087100Y0089487D01*
X0086698Y0091086D02*
X0095701Y0091086D01*
X0086698Y0091086D01*
X0085671Y0092684D02*
X0095701Y0092684D01*
X0085671Y0092684D01*
X0084116Y0094283D02*
X0095701Y0094283D01*
X0084116Y0094283D01*
X0086117Y0095881D02*
X0095701Y0095881D01*
X0086117Y0095881D01*
X0086882Y0097480D02*
X0095701Y0097480D01*
X0086882Y0097480D01*
X0087100Y0099078D02*
X0095701Y0099078D01*
X0087100Y0099078D01*
X0086867Y0100677D02*
X0095701Y0100677D01*
X0086867Y0100677D01*
X0086080Y0102275D02*
X0095701Y0102275D01*
X0086080Y0102275D01*
X0084028Y0103874D02*
X0095701Y0103874D01*
X0084028Y0103874D01*
X0085708Y0105472D02*
X0095701Y0105472D01*
X0085708Y0105472D01*
X0086713Y0107071D02*
X0095701Y0107071D01*
X0086713Y0107071D01*
X0087100Y0108669D02*
X0095701Y0108669D01*
X0087100Y0108669D01*
X0087036Y0110268D02*
X0095701Y0110268D01*
X0087036Y0110268D01*
X0086374Y0111866D02*
X0095701Y0111866D01*
X0086374Y0111866D01*
X0084890Y0113465D02*
X0095701Y0113465D01*
X0084890Y0113465D01*
X0085299Y0115063D02*
X0095701Y0115063D01*
X0085299Y0115063D01*
X0086543Y0116662D02*
X0095701Y0116662D01*
X0086543Y0116662D01*
X0087100Y0118261D02*
X0095701Y0118261D01*
X0087100Y0118261D01*
X0087100Y0119859D02*
X0095701Y0119859D01*
X0087100Y0119859D01*
X0086544Y0121458D02*
X0095701Y0121458D01*
X0086544Y0121458D01*
X0085299Y0123056D02*
X0095701Y0123056D01*
X0085299Y0123056D01*
X0080409Y0124221D02*
X0078798Y0123553D01*
X0077307Y0122062D01*
X0076584Y0120316D01*
X0075954Y0121836D01*
X0074576Y0123214D01*
X0072775Y0123960D01*
X0070825Y0123960D01*
X0069024Y0123214D01*
X0067646Y0121836D01*
X0066900Y0120035D01*
X0066900Y0118085D01*
X0067646Y0116284D01*
X0069024Y0114906D01*
X0070825Y0114160D01*
X0072775Y0114160D01*
X0074576Y0114906D01*
X0075954Y0116284D01*
X0076584Y0117804D01*
X0077307Y0116058D01*
X0078798Y0114567D01*
X0080022Y0114060D01*
X0078798Y0113553D01*
X0077307Y0112062D01*
X0076584Y0110316D01*
X0075954Y0111836D01*
X0074576Y0113214D01*
X0072775Y0113960D01*
X0070825Y0113960D01*
X0069024Y0113214D01*
X0067646Y0111836D01*
X0066900Y0110035D01*
X0066900Y0108085D01*
X0067646Y0106284D01*
X0069024Y0104906D01*
X0070825Y0104160D01*
X0072775Y0104160D01*
X0074576Y0104906D01*
X0075954Y0106284D01*
X0076584Y0107804D01*
X0077307Y0106058D01*
X0078798Y0104567D01*
X0080022Y0104060D01*
X0078798Y0103553D01*
X0077307Y0102062D01*
X0077057Y0101460D01*
X0076110Y0101460D01*
X0075954Y0101836D01*
X0074576Y0103214D01*
X0072775Y0103960D01*
X0070825Y0103960D01*
X0069024Y0103214D01*
X0067646Y0101836D01*
X0067490Y0101460D01*
X0066323Y0101460D01*
X0065441Y0101095D01*
X0064765Y0100419D01*
X0055806Y0091460D01*
X0046110Y0091460D01*
X0045954Y0091836D01*
X0044576Y0093214D01*
X0042775Y0093960D01*
X0040825Y0093960D01*
X0039577Y0093443D01*
X0040450Y0094316D01*
X0040825Y0094160D01*
X0042775Y0094160D01*
X0044576Y0094906D01*
X0045954Y0096284D01*
X0046700Y0098085D01*
X0046700Y0100035D01*
X0045954Y0101836D01*
X0044576Y0103214D01*
X0042775Y0103960D01*
X0040825Y0103960D01*
X0040450Y0103804D01*
X0039577Y0104677D01*
X0040825Y0104160D01*
X0042775Y0104160D01*
X0044576Y0104906D01*
X0045954Y0106284D01*
X0046700Y0108085D01*
X0046700Y0110035D01*
X0045954Y0111836D01*
X0044576Y0113214D01*
X0044200Y0113370D01*
X0044200Y0114160D01*
X0045763Y0114160D01*
X0046700Y0115097D01*
X0046700Y0123023D01*
X0045763Y0123960D01*
X0037837Y0123960D01*
X0036900Y0123023D01*
X0036900Y0121960D01*
X0031867Y0121960D01*
X0031547Y0122732D01*
X0030059Y0124221D01*
X0080409Y0124221D01*
X0078798Y0123553D01*
X0077307Y0122062D01*
X0076584Y0120316D01*
X0075954Y0121836D01*
X0074576Y0123214D01*
X0072775Y0123960D01*
X0070825Y0123960D01*
X0069024Y0123214D01*
X0067646Y0121836D01*
X0066900Y0120035D01*
X0066900Y0118085D01*
X0067646Y0116284D01*
X0069024Y0114906D01*
X0070825Y0114160D01*
X0072775Y0114160D01*
X0074576Y0114906D01*
X0075954Y0116284D01*
X0076584Y0117804D01*
X0077307Y0116058D01*
X0078798Y0114567D01*
X0080022Y0114060D01*
X0078798Y0113553D01*
X0077307Y0112062D01*
X0076584Y0110316D01*
X0075954Y0111836D01*
X0074576Y0113214D01*
X0072775Y0113960D01*
X0070825Y0113960D01*
X0069024Y0113214D01*
X0067646Y0111836D01*
X0066900Y0110035D01*
X0066900Y0108085D01*
X0067646Y0106284D01*
X0069024Y0104906D01*
X0070825Y0104160D01*
X0072775Y0104160D01*
X0074576Y0104906D01*
X0075954Y0106284D01*
X0076584Y0107804D01*
X0077307Y0106058D01*
X0078798Y0104567D01*
X0080022Y0104060D01*
X0078798Y0103553D01*
X0077307Y0102062D01*
X0077057Y0101460D01*
X0076110Y0101460D01*
X0075954Y0101836D01*
X0074576Y0103214D01*
X0072775Y0103960D01*
X0070825Y0103960D01*
X0069024Y0103214D01*
X0067646Y0101836D01*
X0067490Y0101460D01*
X0066323Y0101460D01*
X0065441Y0101095D01*
X0064765Y0100419D01*
X0055806Y0091460D01*
X0046110Y0091460D01*
X0045954Y0091836D01*
X0044576Y0093214D01*
X0042775Y0093960D01*
X0040825Y0093960D01*
X0039577Y0093443D01*
X0040450Y0094316D01*
X0040825Y0094160D01*
X0042775Y0094160D01*
X0044576Y0094906D01*
X0045954Y0096284D01*
X0046700Y0098085D01*
X0046700Y0100035D01*
X0045954Y0101836D01*
X0044576Y0103214D01*
X0042775Y0103960D01*
X0040825Y0103960D01*
X0040450Y0103804D01*
X0039577Y0104677D01*
X0040825Y0104160D01*
X0042775Y0104160D01*
X0044576Y0104906D01*
X0045954Y0106284D01*
X0046700Y0108085D01*
X0046700Y0110035D01*
X0045954Y0111836D01*
X0044576Y0113214D01*
X0044200Y0113370D01*
X0044200Y0114160D01*
X0045763Y0114160D01*
X0046700Y0115097D01*
X0046700Y0123023D01*
X0045763Y0123960D01*
X0037837Y0123960D01*
X0036900Y0123023D01*
X0036900Y0121960D01*
X0031867Y0121960D01*
X0031547Y0122732D01*
X0030059Y0124221D01*
X0080409Y0124221D01*
X0078301Y0123056D02*
X0074734Y0123056D01*
X0078301Y0123056D01*
X0077056Y0121458D02*
X0076111Y0121458D01*
X0077056Y0121458D01*
X0077057Y0116662D02*
X0076110Y0116662D01*
X0077057Y0116662D01*
X0078301Y0115063D02*
X0074733Y0115063D01*
X0078301Y0115063D01*
X0078710Y0113465D02*
X0073970Y0113465D01*
X0078710Y0113465D01*
X0077226Y0111866D02*
X0075923Y0111866D01*
X0077226Y0111866D01*
X0076887Y0107071D02*
X0076280Y0107071D01*
X0076887Y0107071D01*
X0077892Y0105472D02*
X0075142Y0105472D01*
X0077892Y0105472D01*
X0079572Y0103874D02*
X0072982Y0103874D01*
X0079572Y0103874D01*
X0077520Y0102275D02*
X0075514Y0102275D01*
X0077520Y0102275D01*
X0081800Y0099060D02*
X0071800Y0099060D01*
X0066800Y0099060D01*
X0056800Y0089060D01*
X0041800Y0089060D01*
X0041800Y0079060D01*
X0044770Y0075101D02*
X0068830Y0075101D01*
X0044770Y0075101D01*
X0043880Y0073502D02*
X0069720Y0073502D01*
X0043880Y0073502D01*
X0045886Y0071904D02*
X0067714Y0071904D01*
X0045886Y0071904D01*
X0046588Y0070305D02*
X0067012Y0070305D01*
X0046588Y0070305D01*
X0046700Y0068707D02*
X0066900Y0068707D01*
X0046700Y0068707D01*
X0046295Y0067108D02*
X0067305Y0067108D01*
X0046295Y0067108D01*
X0045179Y0065510D02*
X0068421Y0065510D01*
X0045179Y0065510D01*
X0042893Y0063911D02*
X0069400Y0063911D01*
X0042893Y0063911D01*
X0040707Y0063911D02*
X0035045Y0063911D01*
X0040707Y0063911D01*
X0038421Y0065510D02*
X0036644Y0065510D01*
X0038421Y0065510D01*
X0038123Y0062313D02*
X0036043Y0062313D01*
X0038123Y0062313D01*
X0037181Y0060714D02*
X0036852Y0060714D01*
X0037181Y0060714D01*
X0037016Y0057804D02*
X0036922Y0057576D01*
X0037056Y0057710D01*
X0037016Y0057804D01*
X0036922Y0057576D01*
X0037056Y0057710D01*
X0037016Y0057804D01*
X0041800Y0059060D02*
X0031800Y0049060D01*
X0021800Y0049060D01*
X0016800Y0054060D01*
X0016800Y0059060D01*
X0014662Y0063911D02*
X0009200Y0063911D01*
X0014662Y0063911D01*
X0012557Y0062313D02*
X0009200Y0062313D01*
X0012557Y0062313D01*
X0011748Y0060714D02*
X0009200Y0060714D01*
X0011748Y0060714D01*
X0011500Y0059116D02*
X0010138Y0059116D01*
X0011500Y0059116D01*
X0008146Y0054320D02*
X0006600Y0054320D01*
X0008146Y0054320D01*
X0006600Y0052722D02*
X0009744Y0052722D01*
X0006600Y0052722D01*
X0006600Y0051123D02*
X0011343Y0051123D01*
X0006600Y0051123D01*
X0006600Y0049525D02*
X0012941Y0049525D01*
X0006600Y0049525D01*
X0006600Y0047926D02*
X0014540Y0047926D01*
X0006600Y0047926D01*
X0006600Y0046327D02*
X0016138Y0046327D01*
X0006600Y0046327D01*
X0006600Y0044729D02*
X0017737Y0044729D01*
X0006600Y0044729D01*
X0006600Y0043130D02*
X0019335Y0043130D01*
X0006600Y0043130D01*
X0021800Y0044060D02*
X0006800Y0059060D01*
X0006800Y0094060D01*
X0011800Y0099060D01*
X0041800Y0099060D01*
X0031800Y0089060D01*
X0016800Y0089060D01*
X0020671Y0092684D02*
X0027929Y0092684D01*
X0020671Y0092684D01*
X0018040Y0094283D02*
X0030560Y0094283D01*
X0018040Y0094283D01*
X0015560Y0094283D02*
X0010417Y0094283D01*
X0015560Y0094283D01*
X0012929Y0092684D02*
X0009200Y0092684D01*
X0012929Y0092684D01*
X0011902Y0091086D02*
X0009200Y0091086D01*
X0011902Y0091086D01*
X0011500Y0089487D02*
X0009200Y0089487D01*
X0011500Y0089487D01*
X0011548Y0087889D02*
X0009200Y0087889D01*
X0011548Y0087889D01*
X0012211Y0086290D02*
X0009200Y0086290D01*
X0012211Y0086290D01*
X0013673Y0084692D02*
X0009200Y0084692D01*
X0013673Y0084692D01*
X0009200Y0083093D02*
X0038904Y0083093D01*
X0009200Y0083093D01*
X0009200Y0081495D02*
X0037505Y0081495D01*
X0009200Y0081495D01*
X0009200Y0079896D02*
X0036900Y0079896D01*
X0009200Y0079896D01*
X0009200Y0078298D02*
X0036900Y0078298D01*
X0009200Y0078298D01*
X0009200Y0076699D02*
X0037474Y0076699D01*
X0009200Y0076699D01*
X0009200Y0075101D02*
X0038830Y0075101D01*
X0009200Y0075101D01*
X0009200Y0073502D02*
X0039720Y0073502D01*
X0009200Y0073502D01*
X0009200Y0071904D02*
X0037714Y0071904D01*
X0009200Y0071904D01*
X0009200Y0070305D02*
X0034651Y0070305D01*
X0009200Y0070305D01*
X0009200Y0068707D02*
X0033053Y0068707D01*
X0009200Y0068707D01*
X0009200Y0067108D02*
X0031454Y0067108D01*
X0009200Y0067108D01*
X0009200Y0065510D02*
X0029856Y0065510D01*
X0009200Y0065510D01*
X0018938Y0063911D02*
X0029400Y0063911D01*
X0018938Y0063911D01*
X0021043Y0062313D02*
X0027557Y0062313D01*
X0021043Y0062313D01*
X0021852Y0060714D02*
X0026748Y0060714D01*
X0021852Y0060714D01*
X0022100Y0059116D02*
X0026500Y0059116D01*
X0022100Y0059116D01*
X0021898Y0057517D02*
X0026702Y0057517D01*
X0021898Y0057517D01*
X0021154Y0055919D02*
X0027446Y0055919D01*
X0021154Y0055919D01*
X0019934Y0054320D02*
X0029394Y0054320D01*
X0019934Y0054320D01*
X0021533Y0052722D02*
X0032067Y0052722D01*
X0021533Y0052722D01*
X0022594Y0046660D02*
X0032277Y0046660D01*
X0033159Y0047025D01*
X0037417Y0051283D01*
X0036900Y0050035D01*
X0036900Y0048085D01*
X0037646Y0046284D01*
X0039024Y0044906D01*
X0039400Y0044750D01*
X0039400Y0028642D01*
X0039765Y0027760D01*
X0041749Y0025775D01*
X0041500Y0025173D01*
X0041500Y0023065D01*
X0042307Y0021117D01*
X0043798Y0019626D01*
X0045746Y0018819D01*
X0047854Y0018819D01*
X0049802Y0019626D01*
X0051293Y0021117D01*
X0051800Y0022341D01*
X0052307Y0021117D01*
X0053798Y0019626D01*
X0055746Y0018819D01*
X0057854Y0018819D01*
X0058284Y0018997D01*
X0055747Y0016460D01*
X0042794Y0016460D01*
X0039200Y0020054D01*
X0039200Y0039537D01*
X0038835Y0040419D01*
X0038159Y0041095D01*
X0033159Y0046095D01*
X0032277Y0046460D01*
X0022794Y0046460D01*
X0022594Y0046660D01*
X0032277Y0046660D01*
X0033159Y0047025D01*
X0037417Y0051283D01*
X0036900Y0050035D01*
X0036900Y0048085D01*
X0037646Y0046284D01*
X0039024Y0044906D01*
X0039400Y0044750D01*
X0039400Y0028642D01*
X0039765Y0027760D01*
X0041749Y0025775D01*
X0041500Y0025173D01*
X0041500Y0023065D01*
X0042307Y0021117D01*
X0043798Y0019626D01*
X0045746Y0018819D01*
X0047854Y0018819D01*
X0049802Y0019626D01*
X0051293Y0021117D01*
X0051800Y0022341D01*
X0052307Y0021117D01*
X0053798Y0019626D01*
X0055746Y0018819D01*
X0057854Y0018819D01*
X0058284Y0018997D01*
X0055747Y0016460D01*
X0042794Y0016460D01*
X0039200Y0020054D01*
X0039200Y0039537D01*
X0038835Y0040419D01*
X0038159Y0041095D01*
X0033159Y0046095D01*
X0032277Y0046460D01*
X0022794Y0046460D01*
X0022594Y0046660D01*
X0021800Y0044060D02*
X0031800Y0044060D01*
X0032597Y0046327D02*
X0037628Y0046327D01*
X0032597Y0046327D01*
X0034060Y0047926D02*
X0036966Y0047926D01*
X0034060Y0047926D01*
X0035659Y0049525D02*
X0036900Y0049525D01*
X0035659Y0049525D01*
X0037257Y0051123D02*
X0037351Y0051123D01*
X0037257Y0051123D01*
X0041800Y0049060D02*
X0041800Y0029119D01*
X0046800Y0024119D01*
X0044940Y0019153D02*
X0040101Y0019153D01*
X0044940Y0019153D01*
X0042672Y0020751D02*
X0039200Y0020751D01*
X0042672Y0020751D01*
X0041796Y0022350D02*
X0039200Y0022350D01*
X0041796Y0022350D01*
X0041500Y0023948D02*
X0039200Y0023948D01*
X0041500Y0023948D01*
X0041655Y0025547D02*
X0039200Y0025547D01*
X0041655Y0025547D01*
X0040380Y0027145D02*
X0039200Y0027145D01*
X0040380Y0027145D01*
X0039400Y0028744D02*
X0039200Y0028744D01*
X0039400Y0028744D01*
X0039400Y0030342D02*
X0039200Y0030342D01*
X0039400Y0030342D01*
X0039400Y0031941D02*
X0039200Y0031941D01*
X0039400Y0031941D01*
X0039400Y0033539D02*
X0039200Y0033539D01*
X0039400Y0033539D01*
X0039400Y0035138D02*
X0039200Y0035138D01*
X0039400Y0035138D01*
X0039400Y0036736D02*
X0039200Y0036736D01*
X0039400Y0036736D01*
X0039400Y0038335D02*
X0039200Y0038335D01*
X0039400Y0038335D01*
X0039400Y0039933D02*
X0039036Y0039933D01*
X0039400Y0039933D01*
X0039400Y0041532D02*
X0037722Y0041532D01*
X0039400Y0041532D01*
X0039400Y0043130D02*
X0036124Y0043130D01*
X0039400Y0043130D01*
X0039400Y0044729D02*
X0034525Y0044729D01*
X0039400Y0044729D01*
X0044200Y0044729D02*
X0064075Y0044729D01*
X0044200Y0044729D01*
X0044200Y0043130D02*
X0062476Y0043130D01*
X0044200Y0043130D01*
X0044200Y0041532D02*
X0060878Y0041532D01*
X0044200Y0041532D01*
X0044200Y0039933D02*
X0059279Y0039933D01*
X0044200Y0039933D01*
X0044200Y0038335D02*
X0057681Y0038335D01*
X0044200Y0038335D01*
X0044200Y0036736D02*
X0056082Y0036736D01*
X0044200Y0036736D01*
X0044200Y0035138D02*
X0054649Y0035138D01*
X0044200Y0035138D01*
X0044200Y0033539D02*
X0054400Y0033539D01*
X0044200Y0033539D01*
X0044200Y0031941D02*
X0054400Y0031941D01*
X0044200Y0031941D01*
X0044200Y0030342D02*
X0054400Y0030342D01*
X0044200Y0030342D01*
X0049484Y0028744D02*
X0054116Y0028744D01*
X0049484Y0028744D01*
X0051269Y0027145D02*
X0052331Y0027145D01*
X0051269Y0027145D01*
X0050928Y0020751D02*
X0052672Y0020751D01*
X0050928Y0020751D01*
X0048660Y0019153D02*
X0054940Y0019153D01*
X0048660Y0019153D01*
X0041700Y0017554D02*
X0056841Y0017554D01*
X0041700Y0017554D01*
X0056800Y0024119D02*
X0056800Y0034060D01*
X0071800Y0049060D01*
X0075068Y0052722D02*
X0077966Y0052722D01*
X0075068Y0052722D01*
X0076249Y0051123D02*
X0076918Y0051123D01*
X0076249Y0051123D01*
X0076584Y0047804D02*
X0077307Y0046058D01*
X0078798Y0044567D01*
X0079400Y0044317D01*
X0079400Y0040054D01*
X0068765Y0029419D01*
X0062437Y0029419D01*
X0061500Y0028482D01*
X0061500Y0026622D01*
X0061293Y0027121D01*
X0059802Y0028612D01*
X0059200Y0028862D01*
X0059200Y0033066D01*
X0070450Y0044316D01*
X0070825Y0044160D01*
X0072775Y0044160D01*
X0074576Y0044906D01*
X0075954Y0046284D01*
X0076584Y0047804D01*
X0077307Y0046058D01*
X0078798Y0044567D01*
X0079400Y0044317D01*
X0079400Y0040054D01*
X0068765Y0029419D01*
X0062437Y0029419D01*
X0061500Y0028482D01*
X0061500Y0026622D01*
X0061293Y0027121D01*
X0059802Y0028612D01*
X0059200Y0028862D01*
X0059200Y0033066D01*
X0070450Y0044316D01*
X0070825Y0044160D01*
X0072775Y0044160D01*
X0074576Y0044906D01*
X0075954Y0046284D01*
X0076584Y0047804D01*
X0075972Y0046327D02*
X0077195Y0046327D01*
X0075972Y0046327D01*
X0074148Y0044729D02*
X0078636Y0044729D01*
X0074148Y0044729D01*
X0077681Y0038335D02*
X0064469Y0038335D01*
X0077681Y0038335D01*
X0079279Y0039933D02*
X0066068Y0039933D01*
X0079279Y0039933D01*
X0079400Y0041532D02*
X0067666Y0041532D01*
X0079400Y0041532D01*
X0079400Y0043130D02*
X0069265Y0043130D01*
X0079400Y0043130D01*
X0084200Y0043130D02*
X0095701Y0043130D01*
X0084200Y0043130D01*
X0084200Y0041532D02*
X0095701Y0041532D01*
X0084200Y0041532D01*
X0084200Y0039933D02*
X0095701Y0039933D01*
X0084200Y0039933D01*
X0084097Y0038335D02*
X0095701Y0038335D01*
X0084097Y0038335D01*
X0082871Y0036736D02*
X0095701Y0036736D01*
X0082871Y0036736D01*
X0081272Y0035138D02*
X0095701Y0035138D01*
X0081272Y0035138D01*
X0079674Y0033539D02*
X0095701Y0033539D01*
X0079674Y0033539D01*
X0078075Y0031941D02*
X0095701Y0031941D01*
X0078075Y0031941D01*
X0076476Y0030342D02*
X0095701Y0030342D01*
X0076476Y0030342D01*
X0074878Y0028744D02*
X0095701Y0028744D01*
X0074878Y0028744D01*
X0073279Y0027145D02*
X0095701Y0027145D01*
X0073279Y0027145D01*
X0072100Y0025547D02*
X0095701Y0025547D01*
X0072100Y0025547D01*
X0072100Y0023948D02*
X0095701Y0023948D01*
X0072100Y0023948D01*
X0072100Y0022350D02*
X0095701Y0022350D01*
X0072100Y0022350D01*
X0072100Y0020751D02*
X0095701Y0020751D01*
X0072100Y0020751D01*
X0071496Y0019153D02*
X0095701Y0019153D01*
X0071496Y0019153D01*
X0063629Y0017554D02*
X0095701Y0017554D01*
X0063629Y0017554D01*
X0062031Y0015956D02*
X0095701Y0015956D01*
X0062031Y0015956D01*
X0060432Y0014357D02*
X0095701Y0014357D01*
X0060432Y0014357D01*
X0061269Y0027145D02*
X0061500Y0027145D01*
X0061269Y0027145D01*
X0061762Y0028744D02*
X0059484Y0028744D01*
X0061762Y0028744D01*
X0059200Y0030342D02*
X0069688Y0030342D01*
X0059200Y0030342D01*
X0059200Y0031941D02*
X0071287Y0031941D01*
X0059200Y0031941D01*
X0059674Y0033539D02*
X0072885Y0033539D01*
X0059674Y0033539D01*
X0061272Y0035138D02*
X0074484Y0035138D01*
X0061272Y0035138D01*
X0062871Y0036736D02*
X0076082Y0036736D01*
X0062871Y0036736D01*
X0065673Y0046327D02*
X0045972Y0046327D01*
X0065673Y0046327D01*
X0066966Y0047926D02*
X0046634Y0047926D01*
X0066966Y0047926D01*
X0066900Y0049525D02*
X0046700Y0049525D01*
X0066900Y0049525D01*
X0067351Y0051123D02*
X0046249Y0051123D01*
X0067351Y0051123D01*
X0068532Y0052722D02*
X0045068Y0052722D01*
X0068532Y0052722D01*
X0070439Y0054320D02*
X0043161Y0054320D01*
X0070439Y0054320D01*
X0068012Y0055919D02*
X0045588Y0055919D01*
X0068012Y0055919D01*
X0067135Y0057517D02*
X0046465Y0057517D01*
X0067135Y0057517D01*
X0066900Y0059116D02*
X0046700Y0059116D01*
X0066900Y0059116D01*
X0067181Y0060714D02*
X0046419Y0060714D01*
X0067181Y0060714D01*
X0068123Y0062313D02*
X0045477Y0062313D01*
X0068123Y0062313D01*
X0071800Y0059060D02*
X0071800Y0069060D01*
X0067474Y0076699D02*
X0046126Y0076699D01*
X0067474Y0076699D01*
X0066900Y0078298D02*
X0046700Y0078298D01*
X0066900Y0078298D01*
X0066900Y0079896D02*
X0046700Y0079896D01*
X0066900Y0079896D01*
X0067505Y0081495D02*
X0046095Y0081495D01*
X0067505Y0081495D01*
X0068904Y0083093D02*
X0044696Y0083093D01*
X0068904Y0083093D01*
X0069541Y0084692D02*
X0044200Y0084692D01*
X0069541Y0084692D01*
X0067644Y0086290D02*
X0045956Y0086290D01*
X0067644Y0086290D01*
X0066981Y0087889D02*
X0059023Y0087889D01*
X0066981Y0087889D01*
X0066900Y0089487D02*
X0060621Y0089487D01*
X0066900Y0089487D01*
X0067335Y0091086D02*
X0062220Y0091086D01*
X0067335Y0091086D01*
X0068495Y0092684D02*
X0063818Y0092684D01*
X0068495Y0092684D01*
X0070529Y0094283D02*
X0065417Y0094283D01*
X0070529Y0094283D01*
X0068049Y0095881D02*
X0067015Y0095881D01*
X0068049Y0095881D01*
X0065023Y0100677D02*
X0046434Y0100677D01*
X0065023Y0100677D01*
X0063424Y0099078D02*
X0046700Y0099078D01*
X0063424Y0099078D01*
X0061826Y0097480D02*
X0046449Y0097480D01*
X0061826Y0097480D01*
X0060227Y0095881D02*
X0045551Y0095881D01*
X0060227Y0095881D01*
X0058629Y0094283D02*
X0043071Y0094283D01*
X0058629Y0094283D01*
X0057030Y0092684D02*
X0045105Y0092684D01*
X0057030Y0092684D01*
X0068086Y0102275D02*
X0045514Y0102275D01*
X0068086Y0102275D01*
X0070618Y0103874D02*
X0042982Y0103874D01*
X0070618Y0103874D01*
X0068458Y0105472D02*
X0045142Y0105472D01*
X0068458Y0105472D01*
X0067320Y0107071D02*
X0046280Y0107071D01*
X0067320Y0107071D01*
X0066900Y0108669D02*
X0046700Y0108669D01*
X0066900Y0108669D01*
X0066997Y0110268D02*
X0046603Y0110268D01*
X0066997Y0110268D01*
X0067677Y0111866D02*
X0045923Y0111866D01*
X0067677Y0111866D01*
X0069630Y0113465D02*
X0044200Y0113465D01*
X0069630Y0113465D01*
X0068867Y0115063D02*
X0046666Y0115063D01*
X0068867Y0115063D01*
X0067490Y0116662D02*
X0046700Y0116662D01*
X0067490Y0116662D01*
X0066900Y0118261D02*
X0046700Y0118261D01*
X0066900Y0118261D01*
X0066900Y0119859D02*
X0046700Y0119859D01*
X0066900Y0119859D01*
X0067489Y0121458D02*
X0046700Y0121458D01*
X0067489Y0121458D01*
X0068866Y0123056D02*
X0046667Y0123056D01*
X0068866Y0123056D01*
X0075551Y0095881D02*
X0077483Y0095881D01*
X0075551Y0095881D01*
X0075588Y0055919D02*
X0077446Y0055919D01*
X0075588Y0055919D01*
X0073161Y0054320D02*
X0079394Y0054320D01*
X0073161Y0054320D01*
X0084964Y0044729D02*
X0095701Y0044729D01*
X0084964Y0044729D01*
X0086405Y0046327D02*
X0095701Y0046327D01*
X0086405Y0046327D01*
X0041800Y0069060D02*
X0036800Y0069060D01*
X0031800Y0064060D01*
X0031800Y0059060D01*
X0030441Y0066095D02*
X0030441Y0066095D01*
X0034765Y0070419D02*
X0034765Y0070419D01*
X0034927Y0084692D02*
X0039400Y0084692D01*
X0034927Y0084692D01*
X0036389Y0086290D02*
X0037644Y0086290D01*
X0036389Y0086290D01*
X0037016Y0090316D02*
X0037417Y0091283D01*
X0036851Y0090716D01*
X0037016Y0090316D01*
X0037417Y0091283D01*
X0036851Y0090716D01*
X0037016Y0090316D01*
X0037220Y0091086D02*
X0037335Y0091086D01*
X0037220Y0091086D01*
X0040417Y0094283D02*
X0040529Y0094283D01*
X0040417Y0094283D01*
X0041800Y0099060D02*
X0032300Y0108560D01*
X0026800Y0108560D01*
X0026300Y0109060D01*
X0011800Y0109060D01*
X0008710Y0113465D02*
X0006600Y0113465D01*
X0008710Y0113465D01*
X0008798Y0113553D02*
X0007307Y0112062D01*
X0006600Y0110356D01*
X0006600Y0117764D01*
X0007307Y0116058D01*
X0008798Y0114567D01*
X0010022Y0114060D01*
X0008798Y0113553D01*
X0007307Y0112062D01*
X0006600Y0110356D01*
X0006600Y0117764D01*
X0007307Y0116058D01*
X0008798Y0114567D01*
X0010022Y0114060D01*
X0008798Y0113553D01*
X0008301Y0115063D02*
X0006600Y0115063D01*
X0008301Y0115063D01*
X0007057Y0116662D02*
X0006600Y0116662D01*
X0007057Y0116662D01*
X0006600Y0120356D02*
X0006600Y0124221D01*
X0010409Y0124221D01*
X0008798Y0123553D01*
X0007307Y0122062D01*
X0006600Y0120356D01*
X0006600Y0124221D01*
X0010409Y0124221D01*
X0008798Y0123553D01*
X0007307Y0122062D01*
X0006600Y0120356D01*
X0006600Y0121458D02*
X0007056Y0121458D01*
X0006600Y0121458D01*
X0006600Y0123056D02*
X0008301Y0123056D01*
X0006600Y0123056D01*
X0011800Y0119060D02*
X0026300Y0119060D01*
X0026800Y0119560D01*
X0041300Y0119560D01*
X0041800Y0119060D01*
X0041800Y0109060D01*
X0039400Y0113370D02*
X0039024Y0113214D01*
X0037646Y0111836D01*
X0036900Y0110035D01*
X0036900Y0108085D01*
X0037417Y0106837D01*
X0033659Y0110595D01*
X0032777Y0110960D01*
X0031867Y0110960D01*
X0031547Y0111732D01*
X0029972Y0113307D01*
X0028155Y0114060D01*
X0029972Y0114813D01*
X0031547Y0116388D01*
X0031867Y0117160D01*
X0036900Y0117160D01*
X0036900Y0115097D01*
X0037837Y0114160D01*
X0039400Y0114160D01*
X0039400Y0113370D01*
X0039024Y0113214D01*
X0037646Y0111836D01*
X0036900Y0110035D01*
X0036900Y0108085D01*
X0037417Y0106837D01*
X0033659Y0110595D01*
X0032777Y0110960D01*
X0031867Y0110960D01*
X0031547Y0111732D01*
X0029972Y0113307D01*
X0028155Y0114060D01*
X0029972Y0114813D01*
X0031547Y0116388D01*
X0031867Y0117160D01*
X0036900Y0117160D01*
X0036900Y0115097D01*
X0037837Y0114160D01*
X0039400Y0114160D01*
X0039400Y0113370D01*
X0039400Y0113465D02*
X0029592Y0113465D01*
X0039400Y0113465D01*
X0037677Y0111866D02*
X0031413Y0111866D01*
X0037677Y0111866D01*
X0036997Y0110268D02*
X0033986Y0110268D01*
X0036997Y0110268D01*
X0036900Y0108669D02*
X0035585Y0108669D01*
X0036900Y0108669D01*
X0037183Y0107071D02*
X0037320Y0107071D01*
X0037183Y0107071D01*
X0040380Y0103874D02*
X0040618Y0103874D01*
X0040380Y0103874D01*
X0036006Y0101460D02*
X0011323Y0101460D01*
X0010441Y0101095D01*
X0006600Y0097254D01*
X0006600Y0107764D01*
X0007307Y0106058D01*
X0008798Y0104567D01*
X0010746Y0103760D01*
X0012854Y0103760D01*
X0014802Y0104567D01*
X0016293Y0106058D01*
X0016543Y0106660D01*
X0021526Y0106660D01*
X0022053Y0105388D01*
X0023628Y0103813D01*
X0025686Y0102960D01*
X0027914Y0102960D01*
X0029972Y0103813D01*
X0031547Y0105388D01*
X0031703Y0105763D01*
X0036006Y0101460D01*
X0011323Y0101460D01*
X0010441Y0101095D01*
X0006600Y0097254D01*
X0006600Y0107764D01*
X0007307Y0106058D01*
X0008798Y0104567D01*
X0010746Y0103760D01*
X0012854Y0103760D01*
X0014802Y0104567D01*
X0016293Y0106058D01*
X0016543Y0106660D01*
X0021526Y0106660D01*
X0022053Y0105388D01*
X0023628Y0103813D01*
X0025686Y0102960D01*
X0027914Y0102960D01*
X0029972Y0103813D01*
X0031547Y0105388D01*
X0031703Y0105763D01*
X0036006Y0101460D01*
X0035190Y0102275D02*
X0006600Y0102275D01*
X0035190Y0102275D01*
X0033592Y0103874D02*
X0030034Y0103874D01*
X0033592Y0103874D01*
X0031993Y0105472D02*
X0031582Y0105472D01*
X0031993Y0105472D01*
X0025445Y0114060D02*
X0023628Y0113307D01*
X0022053Y0111732D01*
X0021940Y0111460D01*
X0016543Y0111460D01*
X0016293Y0112062D01*
X0014802Y0113553D01*
X0013578Y0114060D01*
X0014802Y0114567D01*
X0016293Y0116058D01*
X0016543Y0116660D01*
X0021940Y0116660D01*
X0022053Y0116388D01*
X0023628Y0114813D01*
X0025445Y0114060D01*
X0023628Y0113307D01*
X0022053Y0111732D01*
X0021940Y0111460D01*
X0016543Y0111460D01*
X0016293Y0112062D01*
X0014802Y0113553D01*
X0013578Y0114060D01*
X0014802Y0114567D01*
X0016293Y0116058D01*
X0016543Y0116660D01*
X0021940Y0116660D01*
X0022053Y0116388D01*
X0023628Y0114813D01*
X0025445Y0114060D01*
X0024008Y0113465D02*
X0014890Y0113465D01*
X0024008Y0113465D01*
X0023377Y0115063D02*
X0015299Y0115063D01*
X0023377Y0115063D01*
X0022187Y0111866D02*
X0016374Y0111866D01*
X0022187Y0111866D01*
X0022018Y0105472D02*
X0015708Y0105472D01*
X0022018Y0105472D01*
X0023566Y0103874D02*
X0013129Y0103874D01*
X0023566Y0103874D01*
X0030223Y0115063D02*
X0036934Y0115063D01*
X0030223Y0115063D01*
X0031661Y0116662D02*
X0036900Y0116662D01*
X0031661Y0116662D01*
X0031224Y0123056D02*
X0036933Y0123056D01*
X0031224Y0123056D01*
X0023541Y0124221D02*
X0022053Y0122732D01*
X0021526Y0121460D01*
X0016543Y0121460D01*
X0016293Y0122062D01*
X0014802Y0123553D01*
X0013191Y0124221D01*
X0023541Y0124221D01*
X0022053Y0122732D01*
X0021526Y0121460D01*
X0016543Y0121460D01*
X0016293Y0122062D01*
X0014802Y0123553D01*
X0013191Y0124221D01*
X0023541Y0124221D01*
X0022376Y0123056D02*
X0015299Y0123056D01*
X0022376Y0123056D01*
X0010471Y0103874D02*
X0006600Y0103874D01*
X0010471Y0103874D01*
X0010023Y0100677D02*
X0006600Y0100677D01*
X0010023Y0100677D01*
X0008424Y0099078D02*
X0006600Y0099078D01*
X0008424Y0099078D01*
X0006826Y0097480D02*
X0006600Y0097480D01*
X0006826Y0097480D01*
X0012015Y0095881D02*
X0035227Y0095881D01*
X0012015Y0095881D01*
X0007892Y0105472D02*
X0006600Y0105472D01*
X0007892Y0105472D01*
X0006887Y0107071D02*
X0006600Y0107071D01*
X0006887Y0107071D01*
X0006600Y0111866D02*
X0007226Y0111866D01*
X0006600Y0111866D01*
X0021389Y0086290D02*
X0027211Y0086290D01*
X0021389Y0086290D01*
X0019927Y0084692D02*
X0028673Y0084692D01*
X0019927Y0084692D01*
X0033040Y0094283D02*
X0033629Y0094283D01*
X0033040Y0094283D01*
M02*
