G75*
%MOIN*%
%OFA0B0*%
%FSLAX25Y25*%
%IPPOS*%
%LPD*%
%AMOC8*
5,1,8,0,0,1.08239X$1,22.5*
%
%ADD10C,0.00000*%
%ADD11R,0.07800X0.07800*%
%ADD12C,0.07800*%
%ADD13C,0.01301*%
%ADD14R,0.04337X0.04731*%
%ADD15C,0.05550*%
%ADD16C,0.09400*%
%ADD17R,0.03550X0.08274*%
%ADD18R,0.08668X0.12211*%
%ADD19R,0.06400X0.03400*%
%ADD20R,0.08274X0.03550*%
%ADD21R,0.12211X0.08668*%
%ADD22R,0.02800X0.09100*%
%ADD23R,0.03550X0.06699*%
%ADD24R,0.09100X0.02800*%
%ADD25R,0.06699X0.03550*%
%ADD26R,0.04731X0.04337*%
%ADD27R,0.04849X0.10006*%
D10*
X0007983Y0008986D02*
X0007983Y0263946D01*
X0211684Y0263946D01*
X0211684Y0008986D01*
X0007983Y0008986D01*
D11*
X0022983Y0113986D03*
X0032983Y0113986D03*
X0077983Y0124045D03*
X0192983Y0113986D03*
X0202983Y0113986D03*
D12*
X0202983Y0103986D03*
X0192983Y0103986D03*
X0192983Y0093986D03*
X0202983Y0093986D03*
X0202983Y0083986D03*
X0202983Y0073986D03*
X0192983Y0073986D03*
X0192983Y0083986D03*
X0192983Y0063986D03*
X0202983Y0063986D03*
X0202983Y0053986D03*
X0202983Y0043986D03*
X0192983Y0043986D03*
X0192983Y0053986D03*
X0192983Y0033986D03*
X0202983Y0033986D03*
X0202983Y0023986D03*
X0192983Y0023986D03*
X0067983Y0124045D03*
X0057983Y0124045D03*
X0032983Y0103986D03*
X0022983Y0103986D03*
X0022983Y0093986D03*
X0032983Y0093986D03*
X0032983Y0083986D03*
X0032983Y0073986D03*
X0022983Y0073986D03*
X0022983Y0083986D03*
X0022983Y0063986D03*
X0032983Y0063986D03*
X0032983Y0053986D03*
X0032983Y0043986D03*
X0022983Y0043986D03*
X0022983Y0053986D03*
X0022983Y0033986D03*
X0032983Y0033986D03*
X0032983Y0023986D03*
X0022983Y0023986D03*
X0156183Y0237086D03*
X0156183Y0254886D03*
X0181783Y0254886D03*
X0181783Y0237086D03*
D13*
X0126954Y0139504D02*
X0126954Y0136468D01*
X0123918Y0136468D01*
X0123918Y0139504D01*
X0126954Y0139504D01*
X0126954Y0137768D02*
X0123918Y0137768D01*
X0123918Y0139068D02*
X0126954Y0139068D01*
X0120049Y0139504D02*
X0120049Y0136468D01*
X0117013Y0136468D01*
X0117013Y0139504D01*
X0120049Y0139504D01*
X0120049Y0137768D02*
X0117013Y0137768D01*
X0117013Y0139068D02*
X0120049Y0139068D01*
X0120049Y0128504D02*
X0120049Y0125468D01*
X0117013Y0125468D01*
X0117013Y0128504D01*
X0120049Y0128504D01*
X0120049Y0126768D02*
X0117013Y0126768D01*
X0117013Y0128068D02*
X0120049Y0128068D01*
X0126954Y0128504D02*
X0126954Y0125468D01*
X0123918Y0125468D01*
X0123918Y0128504D01*
X0126954Y0128504D01*
X0126954Y0126768D02*
X0123918Y0126768D01*
X0123918Y0128068D02*
X0126954Y0128068D01*
X0049501Y0235015D02*
X0046465Y0235015D01*
X0046465Y0238051D01*
X0049501Y0238051D01*
X0049501Y0235015D01*
X0049501Y0236315D02*
X0046465Y0236315D01*
X0046465Y0237615D02*
X0049501Y0237615D01*
X0049501Y0241920D02*
X0046465Y0241920D01*
X0046465Y0244956D01*
X0049501Y0244956D01*
X0049501Y0241920D01*
X0049501Y0243220D02*
X0046465Y0243220D01*
X0046465Y0244520D02*
X0049501Y0244520D01*
X0019501Y0133956D02*
X0016465Y0133956D01*
X0019501Y0133956D02*
X0019501Y0130920D01*
X0016465Y0130920D01*
X0016465Y0133956D01*
X0016465Y0132220D02*
X0019501Y0132220D01*
X0019501Y0133520D02*
X0016465Y0133520D01*
X0016465Y0127051D02*
X0019501Y0127051D01*
X0019501Y0124015D01*
X0016465Y0124015D01*
X0016465Y0127051D01*
X0016465Y0125315D02*
X0019501Y0125315D01*
X0019501Y0126615D02*
X0016465Y0126615D01*
D14*
X0025983Y0125639D03*
X0025983Y0132332D03*
X0049983Y0156639D03*
X0049983Y0163332D03*
X0053983Y0180639D03*
X0053983Y0187332D03*
X0044983Y0187332D03*
X0044983Y0180639D03*
X0038983Y0236639D03*
X0038983Y0243332D03*
X0061983Y0249639D03*
X0061983Y0256332D03*
X0071983Y0256332D03*
X0071983Y0249639D03*
X0081983Y0249639D03*
X0081983Y0256332D03*
X0101637Y0137986D03*
X0108330Y0137986D03*
X0108330Y0125986D03*
X0101637Y0125986D03*
X0093983Y0055332D03*
X0093983Y0048639D03*
X0071983Y0046332D03*
X0071983Y0039639D03*
X0064983Y0039639D03*
X0064983Y0046332D03*
D15*
X0032983Y0171986D03*
X0032983Y0191986D03*
X0032983Y0211986D03*
X0032983Y0221986D03*
D16*
X0014983Y0239986D03*
X0020983Y0144986D03*
D17*
X0024523Y0243143D03*
X0029444Y0243143D03*
X0108062Y0243143D03*
X0112983Y0243143D03*
X0117905Y0243143D03*
X0076365Y0028828D03*
X0071444Y0028828D03*
X0066523Y0028828D03*
X0061602Y0028828D03*
D18*
X0051759Y0016525D03*
X0086208Y0016525D03*
X0116720Y0014899D03*
X0171247Y0014899D03*
X0127747Y0255446D03*
X0098220Y0255446D03*
X0039287Y0255446D03*
X0014680Y0255446D03*
D19*
X0056183Y0097486D03*
X0056183Y0092486D03*
X0056183Y0087486D03*
X0056183Y0082486D03*
X0056183Y0077486D03*
X0056183Y0072486D03*
X0056183Y0067486D03*
X0056183Y0062486D03*
X0093783Y0062486D03*
X0093783Y0067486D03*
X0093783Y0072486D03*
X0093783Y0077486D03*
X0093783Y0082486D03*
X0093783Y0087486D03*
X0093783Y0092486D03*
X0093783Y0097486D03*
D20*
X0191141Y0138064D03*
X0191141Y0142986D03*
X0191141Y0147907D03*
D21*
X0203444Y0157749D03*
X0204070Y0168801D03*
X0203444Y0128222D03*
X0204070Y0233171D03*
D22*
X0149483Y0063286D03*
X0144483Y0063286D03*
X0139483Y0063286D03*
X0134483Y0063286D03*
X0134483Y0042686D03*
X0139483Y0042686D03*
X0144483Y0042686D03*
X0149483Y0042686D03*
D23*
X0151365Y0026316D03*
X0146444Y0026316D03*
X0141523Y0026316D03*
X0136602Y0026316D03*
X0131680Y0026316D03*
X0126759Y0026316D03*
X0156287Y0026316D03*
X0161208Y0026316D03*
D24*
X0081283Y0153486D03*
X0081283Y0158486D03*
X0081283Y0163486D03*
X0081283Y0168486D03*
X0060683Y0168486D03*
X0060683Y0163486D03*
X0060683Y0158486D03*
X0060683Y0153486D03*
X0146683Y0165486D03*
X0146683Y0170486D03*
X0146683Y0175486D03*
X0146683Y0180486D03*
X0146683Y0185486D03*
X0146683Y0190486D03*
X0146683Y0195486D03*
X0146683Y0200486D03*
X0167283Y0200486D03*
X0167283Y0195486D03*
X0167283Y0190486D03*
X0167283Y0185486D03*
X0167283Y0180486D03*
X0167283Y0175486D03*
X0167283Y0170486D03*
X0167283Y0165486D03*
D25*
X0192653Y0178840D03*
X0192653Y0183761D03*
X0192653Y0188682D03*
X0192653Y0193604D03*
X0192653Y0198525D03*
X0192653Y0203446D03*
X0192653Y0208367D03*
X0192653Y0213289D03*
X0192653Y0218210D03*
X0192653Y0223131D03*
D26*
X0146330Y0240986D03*
X0139637Y0240986D03*
X0139637Y0251986D03*
X0146330Y0251986D03*
X0112330Y0219986D03*
X0105637Y0219986D03*
X0087330Y0175986D03*
X0080637Y0175986D03*
D27*
X0081983Y0204056D03*
X0091983Y0204056D03*
X0071983Y0204056D03*
X0061983Y0204056D03*
X0061983Y0237915D03*
X0071983Y0237915D03*
X0081983Y0237915D03*
X0091983Y0237915D03*
M02*
