G75*
%MOIN*%
%OFA0B0*%
%FSLAX25Y25*%
%IPPOS*%
%LPD*%
%AMOC8*
5,1,8,0,0,1.08239X$1,22.5*
%
%ADD10C,0.00000*%
%ADD11R,0.07800X0.07800*%
%ADD12C,0.07800*%
%ADD13C,0.05550*%
%ADD14C,0.09400*%
%ADD15R,0.03550X0.08274*%
%ADD16R,0.08668X0.12211*%
%ADD17R,0.08274X0.03550*%
%ADD18R,0.12211X0.08668*%
%ADD19R,0.06699X0.03550*%
D10*
X0007983Y0008986D02*
X0007983Y0263946D01*
X0211684Y0263946D01*
X0211684Y0008986D01*
X0007983Y0008986D01*
D11*
X0022983Y0113986D03*
X0032983Y0113986D03*
X0077983Y0124045D03*
X0192983Y0113986D03*
X0202983Y0113986D03*
D12*
X0202983Y0103986D03*
X0192983Y0103986D03*
X0192983Y0093986D03*
X0202983Y0093986D03*
X0202983Y0083986D03*
X0202983Y0073986D03*
X0192983Y0073986D03*
X0192983Y0083986D03*
X0192983Y0063986D03*
X0202983Y0063986D03*
X0202983Y0053986D03*
X0202983Y0043986D03*
X0192983Y0043986D03*
X0192983Y0053986D03*
X0192983Y0033986D03*
X0202983Y0033986D03*
X0202983Y0023986D03*
X0192983Y0023986D03*
X0067983Y0124045D03*
X0057983Y0124045D03*
X0032983Y0103986D03*
X0022983Y0103986D03*
X0022983Y0093986D03*
X0032983Y0093986D03*
X0032983Y0083986D03*
X0032983Y0073986D03*
X0022983Y0073986D03*
X0022983Y0083986D03*
X0022983Y0063986D03*
X0032983Y0063986D03*
X0032983Y0053986D03*
X0032983Y0043986D03*
X0022983Y0043986D03*
X0022983Y0053986D03*
X0022983Y0033986D03*
X0032983Y0033986D03*
X0032983Y0023986D03*
X0022983Y0023986D03*
X0156183Y0237086D03*
X0156183Y0254886D03*
X0181783Y0254886D03*
X0181783Y0237086D03*
D13*
X0032983Y0221986D03*
X0032983Y0211986D03*
X0032983Y0191986D03*
X0032983Y0171986D03*
D14*
X0020983Y0144986D03*
X0014983Y0239986D03*
D15*
X0090602Y0244143D03*
X0095523Y0244143D03*
X0100444Y0244143D03*
X0105365Y0244143D03*
X0109523Y0028828D03*
X0114444Y0028828D03*
X0151523Y0028828D03*
X0156444Y0028828D03*
X0071444Y0028828D03*
X0066523Y0028828D03*
D16*
X0056680Y0016525D03*
X0081287Y0016525D03*
X0099680Y0016525D03*
X0124287Y0016525D03*
X0141680Y0016525D03*
X0166287Y0016525D03*
X0115208Y0256446D03*
X0080759Y0256446D03*
D17*
X0191141Y0145446D03*
X0191141Y0140525D03*
D18*
X0203444Y0130682D03*
X0203444Y0155289D03*
X0204070Y0175722D03*
X0204070Y0230249D03*
D19*
X0192653Y0220210D03*
X0192653Y0215289D03*
X0192653Y0210367D03*
X0192653Y0205446D03*
X0192653Y0200525D03*
X0192653Y0195604D03*
X0192653Y0190682D03*
X0192653Y0185761D03*
M02*
