G75*
%MOIN*%
%OFA0B0*%
%FSLAX25Y25*%
%IPPOS*%
%LPD*%
%AMOC8*
5,1,8,0,0,1.08239X$1,22.5*
%
%ADD10C,0.00000*%
%ADD11C,0.00400*%
%ADD12C,0.00600*%
%ADD13C,0.00800*%
%ADD14C,0.00500*%
%ADD15C,0.00900*%
%ADD16C,0.00300*%
%ADD17C,0.00100*%
%ADD18C,0.02200*%
%ADD19C,0.00200*%
%ADD20R,0.03000X0.01800*%
%ADD21R,0.01969X0.03445*%
%ADD22R,0.03445X0.01969*%
%ADD23R,0.01800X0.03000*%
%ADD24R,0.05906X0.05906*%
D10*
X0007983Y0008986D02*
X0007983Y0263946D01*
X0211684Y0263946D01*
X0211684Y0008986D01*
X0007983Y0008986D01*
D11*
X0044655Y0007471D02*
X0044655Y0002867D01*
X0047724Y0002867D01*
X0049259Y0003634D02*
X0050026Y0002867D01*
X0051561Y0002867D01*
X0052328Y0003634D01*
X0052328Y0006703D01*
X0051561Y0007471D01*
X0050026Y0007471D01*
X0049259Y0006703D01*
X0049259Y0003634D01*
X0053863Y0002867D02*
X0053863Y0005936D01*
X0055398Y0007471D01*
X0056932Y0005936D01*
X0056932Y0002867D01*
X0058467Y0002867D02*
X0060769Y0002867D01*
X0061536Y0003634D01*
X0061536Y0006703D01*
X0060769Y0007471D01*
X0058467Y0007471D01*
X0058467Y0002867D01*
X0056932Y0005169D02*
X0053863Y0005169D01*
X0063071Y0006703D02*
X0063071Y0003634D01*
X0063838Y0002867D01*
X0065373Y0002867D01*
X0066140Y0003634D01*
X0067675Y0002867D02*
X0070744Y0002867D01*
X0072279Y0002867D02*
X0075348Y0002867D01*
X0076883Y0002867D02*
X0076883Y0007471D01*
X0076883Y0002867D02*
X0079952Y0002867D01*
X0072279Y0002867D02*
X0072279Y0007471D01*
X0070744Y0007471D02*
X0067675Y0007471D01*
X0067675Y0002867D01*
X0067675Y0005169D02*
X0069209Y0005169D01*
X0066140Y0006703D02*
X0065373Y0007471D01*
X0063838Y0007471D01*
X0063071Y0006703D01*
X0061253Y0039186D02*
X0058183Y0039186D01*
X0059718Y0039186D02*
X0059718Y0043789D01*
X0058183Y0042255D01*
X0103183Y0042255D02*
X0104718Y0043789D01*
X0104718Y0039186D01*
X0103183Y0039186D02*
X0106253Y0039186D01*
X0119383Y0033587D02*
X0119383Y0032186D01*
X0119383Y0033236D02*
X0120785Y0033236D01*
X0120785Y0033587D02*
X0120785Y0032186D01*
X0121685Y0032186D02*
X0122736Y0032186D01*
X0123087Y0032536D01*
X0123087Y0032886D01*
X0122736Y0033236D01*
X0121685Y0033236D01*
X0120785Y0033587D02*
X0120084Y0034287D01*
X0119383Y0033587D01*
X0121685Y0034287D02*
X0121685Y0032186D01*
X0122736Y0033236D02*
X0123087Y0033587D01*
X0123087Y0033937D01*
X0122736Y0034287D01*
X0121685Y0034287D01*
X0123987Y0033937D02*
X0123987Y0033587D01*
X0124338Y0033236D01*
X0125038Y0033236D01*
X0125389Y0032886D01*
X0125389Y0032536D01*
X0125038Y0032186D01*
X0124338Y0032186D01*
X0123987Y0032536D01*
X0123987Y0033937D02*
X0124338Y0034287D01*
X0125038Y0034287D01*
X0125389Y0033937D01*
X0126289Y0034287D02*
X0126289Y0032186D01*
X0127690Y0032186D01*
X0128591Y0032186D02*
X0128591Y0034287D01*
X0129992Y0032186D01*
X0129992Y0034287D01*
X0130893Y0033937D02*
X0130893Y0032536D01*
X0131243Y0032186D01*
X0131944Y0032186D01*
X0132294Y0032536D01*
X0132294Y0033937D02*
X0131944Y0034287D01*
X0131243Y0034287D01*
X0130893Y0033937D01*
X0127690Y0034287D02*
X0126289Y0034287D01*
X0126289Y0033236D02*
X0126990Y0033236D01*
X0107857Y0131186D02*
X0104787Y0131186D01*
X0103253Y0131186D02*
X0101718Y0132720D01*
X0102485Y0132720D02*
X0100183Y0132720D01*
X0100183Y0131186D02*
X0100183Y0135789D01*
X0102485Y0135789D01*
X0103253Y0135022D01*
X0103253Y0133488D01*
X0102485Y0132720D01*
X0104787Y0134255D02*
X0106322Y0135789D01*
X0106322Y0131186D01*
X0107857Y0143186D02*
X0104787Y0143186D01*
X0107857Y0146255D01*
X0107857Y0147022D01*
X0107089Y0147789D01*
X0105555Y0147789D01*
X0104787Y0147022D01*
X0103253Y0147022D02*
X0102485Y0147789D01*
X0100183Y0147789D01*
X0100183Y0143186D01*
X0100183Y0144720D02*
X0102485Y0144720D01*
X0103253Y0145488D01*
X0103253Y0147022D01*
X0101718Y0144720D02*
X0103253Y0143186D01*
X0046253Y0114186D02*
X0043183Y0114186D01*
X0044718Y0114186D02*
X0044718Y0118789D01*
X0043183Y0117255D01*
X0103852Y0221820D02*
X0104620Y0221820D01*
X0105387Y0222588D01*
X0105387Y0224122D01*
X0106154Y0224889D01*
X0106922Y0224889D01*
X0107689Y0224122D01*
X0107689Y0222588D01*
X0106922Y0221820D01*
X0107689Y0226424D02*
X0107689Y0229493D01*
X0107689Y0227959D02*
X0103085Y0227959D01*
X0104620Y0226424D01*
X0103852Y0224889D02*
X0103085Y0224122D01*
X0103085Y0222588D01*
X0103852Y0221820D01*
X0104108Y0264504D02*
X0105643Y0264504D01*
X0106410Y0265272D01*
X0107945Y0264504D02*
X0107945Y0267574D01*
X0109479Y0269108D01*
X0111014Y0267574D01*
X0111014Y0264504D01*
X0112549Y0264504D02*
X0112549Y0269108D01*
X0115618Y0264504D01*
X0115618Y0269108D01*
X0111014Y0266806D02*
X0107945Y0266806D01*
X0106410Y0268341D02*
X0105643Y0269108D01*
X0104108Y0269108D01*
X0103341Y0268341D01*
X0103341Y0265272D01*
X0104108Y0264504D01*
X0027475Y0264504D02*
X0024405Y0264504D01*
X0022871Y0264504D02*
X0019802Y0269108D01*
X0022871Y0269108D02*
X0019802Y0264504D01*
X0024405Y0267574D02*
X0025940Y0269108D01*
X0025940Y0264504D01*
X0184682Y0176690D02*
X0186783Y0176690D01*
X0186783Y0175989D02*
X0186783Y0177391D01*
X0185382Y0175989D02*
X0184682Y0176690D01*
X0184682Y0174388D02*
X0186783Y0174388D01*
X0186783Y0173688D02*
X0186783Y0175089D01*
X0185382Y0173688D02*
X0184682Y0174388D01*
X0184682Y0172787D02*
X0186783Y0171386D01*
X0186783Y0172787D02*
X0184682Y0171386D01*
X0212498Y0150726D02*
X0212498Y0149191D01*
X0213266Y0148424D01*
X0216335Y0148424D01*
X0217102Y0149191D01*
X0217102Y0150726D01*
X0216335Y0151493D01*
X0213266Y0151493D01*
X0212498Y0150726D01*
X0212498Y0146889D02*
X0217102Y0146889D01*
X0217102Y0143820D02*
X0212498Y0143820D01*
X0214033Y0145355D01*
X0212498Y0146889D01*
X0213266Y0142286D02*
X0214800Y0142286D01*
X0215568Y0141518D01*
X0215568Y0139216D01*
X0217102Y0139216D02*
X0212498Y0139216D01*
X0212498Y0141518D01*
X0213266Y0142286D01*
X0215568Y0140751D02*
X0217102Y0142286D01*
X0217102Y0137682D02*
X0217102Y0134612D01*
X0212498Y0134612D01*
X0212498Y0137682D01*
X0214800Y0136147D02*
X0214800Y0134612D01*
X0214800Y0133078D02*
X0214800Y0130008D01*
X0217102Y0130008D02*
X0212498Y0130008D01*
X0212498Y0128474D02*
X0212498Y0125404D01*
X0212498Y0126939D02*
X0217102Y0126939D01*
X0217102Y0133078D02*
X0212498Y0133078D01*
D12*
X0184683Y0148286D02*
X0180413Y0152556D01*
X0179346Y0154731D02*
X0178278Y0155799D01*
X0178278Y0157934D01*
X0179346Y0159001D01*
X0180413Y0159001D01*
X0181481Y0157934D01*
X0182548Y0159001D01*
X0183616Y0159001D01*
X0184683Y0157934D01*
X0184683Y0155799D01*
X0183616Y0154731D01*
X0184683Y0152556D02*
X0180413Y0148286D01*
X0181481Y0156866D02*
X0181481Y0157934D01*
X0182413Y0169286D02*
X0186683Y0173556D01*
X0186683Y0175731D02*
X0186683Y0180001D01*
X0186683Y0177866D02*
X0180278Y0177866D01*
X0182413Y0175731D01*
X0182413Y0173556D02*
X0186683Y0169286D01*
X0194621Y0172934D02*
X0194621Y0176576D01*
X0194621Y0172934D02*
X0197476Y0172934D01*
X0194621Y0181104D02*
X0194621Y0181497D01*
X0194621Y0186025D02*
X0194621Y0186419D01*
X0194621Y0190946D02*
X0194621Y0191340D01*
X0194621Y0195867D02*
X0194621Y0196261D01*
X0194621Y0200789D02*
X0194621Y0201182D01*
X0194621Y0205710D02*
X0194621Y0206104D01*
X0194621Y0210631D02*
X0194621Y0211025D01*
X0194621Y0215552D02*
X0194621Y0215946D01*
X0194621Y0220474D02*
X0194621Y0220867D01*
X0194621Y0225395D02*
X0194621Y0229037D01*
X0197476Y0229037D01*
X0194493Y0242920D02*
X0192983Y0247449D01*
X0194521Y0248987D02*
X0194521Y0252007D01*
X0199051Y0247477D01*
X0197541Y0245967D02*
X0200561Y0248987D01*
X0202099Y0250525D02*
X0202854Y0251280D01*
X0202099Y0252035D01*
X0201344Y0251280D01*
X0202099Y0250525D01*
X0203623Y0253559D02*
X0203623Y0259598D01*
X0206642Y0256578D01*
X0206642Y0255069D01*
X0205132Y0253559D01*
X0203623Y0253559D01*
X0200603Y0256578D01*
X0200603Y0258088D01*
X0202113Y0259598D01*
X0203623Y0259598D01*
X0194493Y0242920D02*
X0189964Y0244429D01*
X0172999Y0231623D02*
X0171932Y0232691D01*
X0169796Y0232691D01*
X0168729Y0231623D01*
X0166554Y0231623D02*
X0165486Y0232691D01*
X0163351Y0232691D01*
X0162283Y0231623D01*
X0162283Y0230556D01*
X0163351Y0229488D01*
X0165486Y0229488D01*
X0166554Y0228421D01*
X0166554Y0227353D01*
X0165486Y0226286D01*
X0163351Y0226286D01*
X0162283Y0227353D01*
X0168729Y0226286D02*
X0172999Y0230556D01*
X0172999Y0231623D01*
X0172999Y0226286D02*
X0168729Y0226286D01*
X0159616Y0206229D02*
X0157481Y0206229D01*
X0156413Y0205161D01*
X0156413Y0204094D01*
X0157481Y0201959D01*
X0154278Y0201959D01*
X0154278Y0206229D01*
X0159616Y0206229D02*
X0160683Y0205161D01*
X0160683Y0203026D01*
X0159616Y0201959D01*
X0164082Y0202285D02*
X0149885Y0202285D01*
X0154278Y0199783D02*
X0155346Y0199783D01*
X0159616Y0195513D01*
X0160683Y0195513D01*
X0160683Y0193338D02*
X0160683Y0189068D01*
X0160683Y0191203D02*
X0154278Y0191203D01*
X0156413Y0189068D01*
X0157481Y0186892D02*
X0159616Y0186892D01*
X0160683Y0185825D01*
X0160683Y0183690D01*
X0159616Y0182622D01*
X0157481Y0182622D02*
X0156413Y0184757D01*
X0156413Y0185825D01*
X0157481Y0186892D01*
X0154278Y0186892D02*
X0154278Y0182622D01*
X0157481Y0182622D01*
X0155346Y0180447D02*
X0159616Y0176177D01*
X0160683Y0176177D01*
X0160683Y0174001D02*
X0154278Y0174001D01*
X0154278Y0176177D02*
X0154278Y0180447D01*
X0155346Y0180447D01*
X0160683Y0174001D02*
X0154278Y0169731D01*
X0160683Y0169731D01*
X0159616Y0167556D02*
X0160683Y0166488D01*
X0160683Y0164353D01*
X0159616Y0163286D01*
X0157481Y0164353D02*
X0157481Y0166488D01*
X0158548Y0167556D01*
X0159616Y0167556D01*
X0157481Y0164353D02*
X0156413Y0163286D01*
X0155346Y0163286D01*
X0154278Y0164353D01*
X0154278Y0166488D01*
X0155346Y0167556D01*
X0149885Y0163686D02*
X0164082Y0163686D01*
X0182413Y0182177D02*
X0180278Y0184312D01*
X0186683Y0184312D01*
X0186683Y0182177D02*
X0186683Y0186447D01*
X0210665Y0172934D02*
X0211157Y0172934D01*
X0211157Y0229037D01*
X0210665Y0229037D01*
X0154278Y0199783D02*
X0154278Y0195513D01*
X0131932Y0239286D02*
X0131932Y0245691D01*
X0128729Y0242488D01*
X0132999Y0242488D01*
X0126554Y0243556D02*
X0122283Y0239286D01*
X0122283Y0243556D02*
X0126554Y0239286D01*
X0078082Y0170285D02*
X0063885Y0170285D01*
X0068278Y0168379D02*
X0068278Y0165177D01*
X0074683Y0165177D01*
X0072548Y0165177D02*
X0072548Y0168379D01*
X0071481Y0169447D01*
X0069346Y0169447D01*
X0068278Y0168379D01*
X0069346Y0163001D02*
X0068278Y0161934D01*
X0068278Y0159799D01*
X0069346Y0158731D01*
X0073616Y0158731D01*
X0074683Y0159799D01*
X0074683Y0161934D01*
X0073616Y0163001D01*
X0074683Y0156556D02*
X0068278Y0156556D01*
X0070413Y0154421D01*
X0068278Y0152286D01*
X0074683Y0152286D01*
X0078082Y0151686D02*
X0063885Y0151686D01*
X0060385Y0099887D02*
X0060385Y0059785D01*
X0089582Y0059785D01*
X0089582Y0099887D01*
X0060385Y0099887D01*
X0073278Y0098635D02*
X0073278Y0094365D01*
X0076481Y0094365D01*
X0075413Y0096500D01*
X0075413Y0097567D01*
X0076481Y0098635D01*
X0078616Y0098635D01*
X0079683Y0097567D01*
X0079683Y0095432D01*
X0078616Y0094365D01*
X0079683Y0092189D02*
X0079683Y0087919D01*
X0075413Y0092189D01*
X0074346Y0092189D01*
X0073278Y0091122D01*
X0073278Y0088987D01*
X0074346Y0087919D01*
X0073278Y0083609D02*
X0079683Y0083609D01*
X0079683Y0081474D02*
X0079683Y0085744D01*
X0075413Y0081474D02*
X0073278Y0083609D01*
X0075413Y0079298D02*
X0079683Y0079298D01*
X0076481Y0079298D02*
X0076481Y0075028D01*
X0075413Y0075028D02*
X0073278Y0077163D01*
X0075413Y0079298D01*
X0075413Y0075028D02*
X0079683Y0075028D01*
X0079683Y0072853D02*
X0073278Y0072853D01*
X0073278Y0068583D02*
X0079683Y0072853D01*
X0079683Y0068583D02*
X0073278Y0068583D01*
X0073278Y0066421D02*
X0073278Y0064286D01*
X0073278Y0065353D02*
X0079683Y0065353D01*
X0079683Y0064286D02*
X0079683Y0066421D01*
X0083983Y0063386D02*
X0083985Y0063478D01*
X0083991Y0063569D01*
X0084001Y0063660D01*
X0084015Y0063751D01*
X0084033Y0063841D01*
X0084055Y0063930D01*
X0084080Y0064017D01*
X0084110Y0064104D01*
X0084143Y0064190D01*
X0084180Y0064273D01*
X0084220Y0064356D01*
X0084264Y0064436D01*
X0084312Y0064514D01*
X0084363Y0064591D01*
X0084417Y0064664D01*
X0084474Y0064736D01*
X0084535Y0064805D01*
X0084598Y0064871D01*
X0084664Y0064934D01*
X0084733Y0064995D01*
X0084805Y0065052D01*
X0084878Y0065106D01*
X0084955Y0065157D01*
X0085033Y0065205D01*
X0085113Y0065249D01*
X0085196Y0065289D01*
X0085279Y0065326D01*
X0085365Y0065359D01*
X0085452Y0065389D01*
X0085539Y0065414D01*
X0085628Y0065436D01*
X0085718Y0065454D01*
X0085809Y0065468D01*
X0085900Y0065478D01*
X0085991Y0065484D01*
X0086083Y0065486D01*
X0086175Y0065484D01*
X0086266Y0065478D01*
X0086357Y0065468D01*
X0086448Y0065454D01*
X0086538Y0065436D01*
X0086627Y0065414D01*
X0086714Y0065389D01*
X0086801Y0065359D01*
X0086887Y0065326D01*
X0086970Y0065289D01*
X0087053Y0065249D01*
X0087133Y0065205D01*
X0087211Y0065157D01*
X0087288Y0065106D01*
X0087361Y0065052D01*
X0087433Y0064995D01*
X0087502Y0064934D01*
X0087568Y0064871D01*
X0087631Y0064805D01*
X0087692Y0064736D01*
X0087749Y0064664D01*
X0087803Y0064591D01*
X0087854Y0064514D01*
X0087902Y0064436D01*
X0087946Y0064356D01*
X0087986Y0064273D01*
X0088023Y0064190D01*
X0088056Y0064104D01*
X0088086Y0064017D01*
X0088111Y0063930D01*
X0088133Y0063841D01*
X0088151Y0063751D01*
X0088165Y0063660D01*
X0088175Y0063569D01*
X0088181Y0063478D01*
X0088183Y0063386D01*
X0088181Y0063294D01*
X0088175Y0063203D01*
X0088165Y0063112D01*
X0088151Y0063021D01*
X0088133Y0062931D01*
X0088111Y0062842D01*
X0088086Y0062755D01*
X0088056Y0062668D01*
X0088023Y0062582D01*
X0087986Y0062499D01*
X0087946Y0062416D01*
X0087902Y0062336D01*
X0087854Y0062258D01*
X0087803Y0062181D01*
X0087749Y0062108D01*
X0087692Y0062036D01*
X0087631Y0061967D01*
X0087568Y0061901D01*
X0087502Y0061838D01*
X0087433Y0061777D01*
X0087361Y0061720D01*
X0087288Y0061666D01*
X0087211Y0061615D01*
X0087133Y0061567D01*
X0087053Y0061523D01*
X0086970Y0061483D01*
X0086887Y0061446D01*
X0086801Y0061413D01*
X0086714Y0061383D01*
X0086627Y0061358D01*
X0086538Y0061336D01*
X0086448Y0061318D01*
X0086357Y0061304D01*
X0086266Y0061294D01*
X0086175Y0061288D01*
X0086083Y0061286D01*
X0085991Y0061288D01*
X0085900Y0061294D01*
X0085809Y0061304D01*
X0085718Y0061318D01*
X0085628Y0061336D01*
X0085539Y0061358D01*
X0085452Y0061383D01*
X0085365Y0061413D01*
X0085279Y0061446D01*
X0085196Y0061483D01*
X0085113Y0061523D01*
X0085033Y0061567D01*
X0084955Y0061615D01*
X0084878Y0061666D01*
X0084805Y0061720D01*
X0084733Y0061777D01*
X0084664Y0061838D01*
X0084598Y0061901D01*
X0084535Y0061967D01*
X0084474Y0062036D01*
X0084417Y0062108D01*
X0084363Y0062181D01*
X0084312Y0062258D01*
X0084264Y0062336D01*
X0084220Y0062416D01*
X0084180Y0062499D01*
X0084143Y0062582D01*
X0084110Y0062668D01*
X0084080Y0062755D01*
X0084055Y0062842D01*
X0084033Y0062931D01*
X0084015Y0063021D01*
X0084001Y0063112D01*
X0083991Y0063203D01*
X0083985Y0063294D01*
X0083983Y0063386D01*
X0088796Y0033691D02*
X0087729Y0032623D01*
X0088796Y0033691D02*
X0090932Y0033691D01*
X0091999Y0032623D01*
X0091999Y0031556D01*
X0087729Y0027286D01*
X0091999Y0027286D01*
X0085554Y0027286D02*
X0081283Y0031556D01*
X0081283Y0027286D02*
X0085554Y0031556D01*
X0115346Y0066286D02*
X0114278Y0067353D01*
X0114278Y0069488D01*
X0115346Y0070556D01*
X0117481Y0069488D02*
X0118548Y0070556D01*
X0119616Y0070556D01*
X0120683Y0069488D01*
X0120683Y0067353D01*
X0119616Y0066286D01*
X0117481Y0067353D02*
X0117481Y0069488D01*
X0117481Y0067353D02*
X0116413Y0066286D01*
X0115346Y0066286D01*
X0114278Y0072731D02*
X0120683Y0072731D01*
X0120683Y0077001D01*
X0120683Y0079177D02*
X0116413Y0079177D01*
X0114278Y0081312D01*
X0116413Y0083447D01*
X0120683Y0083447D01*
X0117481Y0083447D02*
X0117481Y0079177D01*
X0114278Y0077001D02*
X0114278Y0072731D01*
X0117481Y0072731D02*
X0117481Y0074866D01*
X0116413Y0092068D02*
X0117481Y0093135D01*
X0117481Y0095270D01*
X0118548Y0096338D01*
X0119616Y0096338D01*
X0120683Y0095270D01*
X0120683Y0093135D01*
X0119616Y0092068D01*
X0116413Y0092068D02*
X0115346Y0092068D01*
X0114278Y0093135D01*
X0114278Y0095270D01*
X0115346Y0096338D01*
X0114278Y0098513D02*
X0120683Y0098513D01*
X0120683Y0102783D02*
X0117481Y0102783D01*
X0116413Y0101716D01*
X0116413Y0099581D01*
X0117481Y0098513D01*
X0116413Y0104959D02*
X0116413Y0106026D01*
X0120683Y0106026D01*
X0120683Y0104959D02*
X0120683Y0107094D01*
X0119616Y0109256D02*
X0117481Y0109256D01*
X0116413Y0110323D01*
X0116413Y0112458D01*
X0117481Y0113526D01*
X0118548Y0113526D01*
X0118548Y0109256D01*
X0119616Y0109256D02*
X0120683Y0110323D01*
X0120683Y0112458D01*
X0120683Y0115701D02*
X0120683Y0117836D01*
X0120683Y0116769D02*
X0114278Y0116769D01*
X0114278Y0115701D01*
X0117481Y0119998D02*
X0116413Y0121066D01*
X0116413Y0124268D01*
X0114278Y0124268D02*
X0120683Y0124268D01*
X0120683Y0121066D01*
X0119616Y0119998D01*
X0117481Y0119998D01*
X0114278Y0106026D02*
X0113210Y0106026D01*
X0132684Y0060084D02*
X0132684Y0045887D01*
X0151283Y0045887D02*
X0151283Y0060084D01*
X0166283Y0030556D02*
X0170554Y0026286D01*
X0172729Y0027353D02*
X0173796Y0026286D01*
X0175932Y0026286D01*
X0176999Y0027353D01*
X0176999Y0029488D01*
X0175932Y0030556D01*
X0174864Y0030556D01*
X0172729Y0029488D01*
X0172729Y0032691D01*
X0176999Y0032691D01*
X0170554Y0030556D02*
X0166283Y0026286D01*
X0167113Y0024348D02*
X0163472Y0024348D01*
X0167113Y0024348D02*
X0167113Y0021493D01*
X0158944Y0024348D02*
X0158550Y0024348D01*
X0154023Y0024348D02*
X0153629Y0024348D01*
X0149102Y0024348D02*
X0148708Y0024348D01*
X0144180Y0024348D02*
X0143787Y0024348D01*
X0139259Y0024348D02*
X0138865Y0024348D01*
X0134338Y0024348D02*
X0133944Y0024348D01*
X0129416Y0024348D02*
X0129023Y0024348D01*
X0124495Y0024348D02*
X0120853Y0024348D01*
X0120853Y0021493D01*
X0120853Y0008304D02*
X0120853Y0007812D01*
X0167113Y0007812D01*
X0167113Y0008304D01*
X0052683Y0252286D02*
X0052683Y0254421D01*
X0052683Y0253353D02*
X0046278Y0253353D01*
X0046278Y0252286D02*
X0046278Y0254421D01*
X0046278Y0256583D02*
X0052683Y0260853D01*
X0046278Y0260853D01*
X0046278Y0256583D02*
X0052683Y0256583D01*
D13*
X0049794Y0240655D02*
X0047983Y0240655D01*
X0048904Y0239434D01*
X0047983Y0240655D02*
X0046172Y0240655D01*
X0047124Y0239434D02*
X0047883Y0240594D01*
X0054582Y0233682D02*
X0056767Y0233682D01*
X0054582Y0233682D02*
X0054582Y0208289D01*
X0056767Y0208289D01*
X0059031Y0213112D02*
X0059031Y0228860D01*
X0064936Y0228860D01*
X0064936Y0213112D01*
X0059031Y0213112D01*
X0066767Y0208289D02*
X0067298Y0208289D01*
X0069031Y0213112D02*
X0069031Y0228860D01*
X0074936Y0228860D01*
X0074936Y0213112D01*
X0069031Y0213112D01*
X0076767Y0208289D02*
X0077298Y0208289D01*
X0079031Y0213112D02*
X0079031Y0228860D01*
X0084936Y0228860D01*
X0084936Y0213112D01*
X0079031Y0213112D01*
X0086767Y0208289D02*
X0087298Y0208289D01*
X0089031Y0213112D02*
X0089031Y0228860D01*
X0094936Y0228860D01*
X0094936Y0213112D01*
X0089031Y0213112D01*
X0097298Y0208289D02*
X0099483Y0208289D01*
X0099483Y0233682D01*
X0094562Y0233682D01*
X0099385Y0228860D01*
X0097298Y0233682D02*
X0094562Y0233682D01*
X0087298Y0233682D02*
X0086767Y0233682D01*
X0077298Y0233682D02*
X0076767Y0233682D01*
X0067298Y0233682D02*
X0066767Y0233682D01*
X0034956Y0247572D02*
X0034956Y0263320D01*
X0034365Y0263320D01*
X0019602Y0263320D01*
X0019011Y0263320D01*
X0019011Y0247572D01*
X0021078Y0247572D01*
X0032889Y0247572D01*
X0034956Y0247572D01*
X0066518Y0168086D02*
X0066520Y0168133D01*
X0066526Y0168180D01*
X0066536Y0168227D01*
X0066549Y0168272D01*
X0066567Y0168316D01*
X0066588Y0168358D01*
X0066612Y0168399D01*
X0066640Y0168437D01*
X0066671Y0168473D01*
X0066705Y0168506D01*
X0066741Y0168536D01*
X0066780Y0168563D01*
X0066821Y0168587D01*
X0066864Y0168607D01*
X0066908Y0168623D01*
X0066954Y0168636D01*
X0067000Y0168645D01*
X0067048Y0168650D01*
X0067095Y0168651D01*
X0067142Y0168648D01*
X0067189Y0168641D01*
X0067235Y0168630D01*
X0067280Y0168616D01*
X0067324Y0168597D01*
X0067365Y0168575D01*
X0067405Y0168550D01*
X0067443Y0168521D01*
X0067478Y0168490D01*
X0067511Y0168455D01*
X0067540Y0168418D01*
X0067566Y0168379D01*
X0067589Y0168337D01*
X0067608Y0168294D01*
X0067624Y0168249D01*
X0067636Y0168203D01*
X0067644Y0168157D01*
X0067648Y0168110D01*
X0067648Y0168062D01*
X0067644Y0168015D01*
X0067636Y0167969D01*
X0067624Y0167923D01*
X0067608Y0167878D01*
X0067589Y0167835D01*
X0067566Y0167793D01*
X0067540Y0167754D01*
X0067511Y0167717D01*
X0067478Y0167682D01*
X0067443Y0167651D01*
X0067405Y0167622D01*
X0067366Y0167597D01*
X0067324Y0167575D01*
X0067280Y0167556D01*
X0067235Y0167542D01*
X0067189Y0167531D01*
X0067142Y0167524D01*
X0067095Y0167521D01*
X0067048Y0167522D01*
X0067000Y0167527D01*
X0066954Y0167536D01*
X0066908Y0167549D01*
X0066864Y0167565D01*
X0066821Y0167585D01*
X0066780Y0167609D01*
X0066741Y0167636D01*
X0066705Y0167666D01*
X0066671Y0167699D01*
X0066640Y0167735D01*
X0066612Y0167773D01*
X0066588Y0167814D01*
X0066567Y0167856D01*
X0066549Y0167900D01*
X0066536Y0167945D01*
X0066526Y0167992D01*
X0066520Y0168039D01*
X0066518Y0168086D01*
X0052235Y0142745D02*
X0049224Y0142745D01*
X0049224Y0105226D01*
X0086743Y0105226D01*
X0086743Y0142745D01*
X0083731Y0142745D01*
X0083731Y0141171D01*
X0052235Y0141171D01*
X0052235Y0142745D01*
X0035483Y0108986D02*
X0037983Y0106486D01*
X0037983Y0101486D01*
X0035483Y0098986D01*
X0037983Y0096486D01*
X0037983Y0091486D01*
X0035483Y0088986D01*
X0037983Y0086486D01*
X0037983Y0081486D01*
X0035483Y0078986D01*
X0037983Y0076486D01*
X0037983Y0071486D01*
X0035483Y0068986D01*
X0037983Y0066486D01*
X0037983Y0061486D01*
X0035483Y0058986D01*
X0037983Y0056486D01*
X0037983Y0051486D01*
X0035483Y0048986D01*
X0037983Y0046486D01*
X0037983Y0041486D01*
X0035483Y0038986D01*
X0037983Y0036486D01*
X0037983Y0031486D01*
X0035483Y0028986D01*
X0037983Y0026486D01*
X0037983Y0021486D01*
X0035483Y0018986D01*
X0030483Y0018986D01*
X0027983Y0021486D01*
X0027983Y0026486D01*
X0030483Y0028986D01*
X0027983Y0031486D01*
X0027983Y0036486D01*
X0030483Y0038986D01*
X0027983Y0041486D01*
X0027983Y0046486D01*
X0030483Y0048986D01*
X0027983Y0051486D01*
X0027983Y0056486D01*
X0030483Y0058986D01*
X0027983Y0061486D01*
X0027983Y0066486D01*
X0030483Y0068986D01*
X0027983Y0071486D01*
X0027983Y0076486D01*
X0030483Y0078986D01*
X0027983Y0081486D01*
X0027983Y0086486D01*
X0030483Y0088986D01*
X0027983Y0091486D01*
X0027983Y0096486D01*
X0030483Y0098986D01*
X0027983Y0101486D01*
X0027983Y0106486D01*
X0030483Y0108986D01*
X0027983Y0106486D02*
X0025483Y0108986D01*
X0020483Y0108986D02*
X0017983Y0106486D01*
X0017983Y0101486D01*
X0020483Y0098986D01*
X0017983Y0096486D01*
X0017983Y0091486D01*
X0020483Y0088986D01*
X0017983Y0086486D01*
X0017983Y0081486D01*
X0020483Y0078986D01*
X0017983Y0076486D01*
X0017983Y0071486D01*
X0020483Y0068986D01*
X0017983Y0066486D01*
X0017983Y0061486D01*
X0020483Y0058986D01*
X0017983Y0056486D01*
X0017983Y0051486D01*
X0020483Y0048986D01*
X0017983Y0046486D01*
X0017983Y0041486D01*
X0020483Y0038986D01*
X0017983Y0036486D01*
X0017983Y0031486D01*
X0020483Y0028986D01*
X0017983Y0026486D01*
X0017983Y0021486D01*
X0020483Y0018986D01*
X0025483Y0018986D01*
X0027983Y0021486D01*
X0027983Y0026486D02*
X0025483Y0028986D01*
X0027983Y0031486D01*
X0027983Y0036486D02*
X0025483Y0038986D01*
X0027983Y0041486D01*
X0027983Y0046486D02*
X0025483Y0048986D01*
X0027983Y0051486D01*
X0027983Y0056486D02*
X0025483Y0058986D01*
X0027983Y0061486D01*
X0027983Y0066486D02*
X0025483Y0068986D01*
X0027983Y0071486D01*
X0027983Y0076486D02*
X0025483Y0078986D01*
X0027983Y0081486D01*
X0027983Y0086486D02*
X0025483Y0088986D01*
X0027983Y0091486D01*
X0027983Y0096486D02*
X0025483Y0098986D01*
X0027983Y0101486D01*
X0019794Y0128316D02*
X0017983Y0128316D01*
X0017063Y0129537D01*
X0016172Y0128316D02*
X0017983Y0128316D01*
X0018083Y0128377D02*
X0018843Y0129537D01*
X0056090Y0024399D02*
X0056090Y0008651D01*
X0056680Y0008651D01*
X0081287Y0008651D01*
X0081877Y0008651D01*
X0081877Y0024399D01*
X0079810Y0024399D01*
X0058157Y0024399D01*
X0056090Y0024399D01*
X0121314Y0125175D02*
X0121314Y0126986D01*
X0122535Y0127906D01*
X0121314Y0128797D02*
X0121314Y0126986D01*
X0121375Y0126886D02*
X0122535Y0126126D01*
X0121314Y0136175D02*
X0121314Y0137986D01*
X0122535Y0138906D01*
X0121314Y0139797D02*
X0121314Y0137986D01*
X0121375Y0137886D02*
X0122535Y0137126D01*
X0152518Y0200086D02*
X0152520Y0200133D01*
X0152526Y0200180D01*
X0152536Y0200227D01*
X0152549Y0200272D01*
X0152567Y0200316D01*
X0152588Y0200358D01*
X0152612Y0200399D01*
X0152640Y0200437D01*
X0152671Y0200473D01*
X0152705Y0200506D01*
X0152741Y0200536D01*
X0152780Y0200563D01*
X0152821Y0200587D01*
X0152864Y0200607D01*
X0152908Y0200623D01*
X0152954Y0200636D01*
X0153000Y0200645D01*
X0153048Y0200650D01*
X0153095Y0200651D01*
X0153142Y0200648D01*
X0153189Y0200641D01*
X0153235Y0200630D01*
X0153280Y0200616D01*
X0153324Y0200597D01*
X0153365Y0200575D01*
X0153405Y0200550D01*
X0153443Y0200521D01*
X0153478Y0200490D01*
X0153511Y0200455D01*
X0153540Y0200418D01*
X0153566Y0200379D01*
X0153589Y0200337D01*
X0153608Y0200294D01*
X0153624Y0200249D01*
X0153636Y0200203D01*
X0153644Y0200157D01*
X0153648Y0200110D01*
X0153648Y0200062D01*
X0153644Y0200015D01*
X0153636Y0199969D01*
X0153624Y0199923D01*
X0153608Y0199878D01*
X0153589Y0199835D01*
X0153566Y0199793D01*
X0153540Y0199754D01*
X0153511Y0199717D01*
X0153478Y0199682D01*
X0153443Y0199651D01*
X0153405Y0199622D01*
X0153366Y0199597D01*
X0153324Y0199575D01*
X0153280Y0199556D01*
X0153235Y0199542D01*
X0153189Y0199531D01*
X0153142Y0199524D01*
X0153095Y0199521D01*
X0153048Y0199522D01*
X0153000Y0199527D01*
X0152954Y0199536D01*
X0152908Y0199549D01*
X0152864Y0199565D01*
X0152821Y0199585D01*
X0152780Y0199609D01*
X0152741Y0199636D01*
X0152705Y0199666D01*
X0152671Y0199699D01*
X0152640Y0199735D01*
X0152612Y0199773D01*
X0152588Y0199814D01*
X0152567Y0199856D01*
X0152549Y0199900D01*
X0152536Y0199945D01*
X0152526Y0199992D01*
X0152520Y0200039D01*
X0152518Y0200086D01*
X0160483Y0233986D02*
X0177483Y0233986D01*
X0180983Y0241986D02*
X0180983Y0249915D01*
X0177483Y0257986D02*
X0160483Y0257986D01*
X0156983Y0250033D02*
X0156983Y0241986D01*
X0161983Y0245986D02*
X0161985Y0246158D01*
X0161991Y0246329D01*
X0162002Y0246501D01*
X0162017Y0246672D01*
X0162036Y0246843D01*
X0162059Y0247013D01*
X0162086Y0247183D01*
X0162118Y0247352D01*
X0162153Y0247520D01*
X0162193Y0247687D01*
X0162237Y0247853D01*
X0162284Y0248018D01*
X0162336Y0248182D01*
X0162392Y0248344D01*
X0162452Y0248505D01*
X0162516Y0248665D01*
X0162584Y0248823D01*
X0162655Y0248979D01*
X0162730Y0249133D01*
X0162810Y0249286D01*
X0162892Y0249436D01*
X0162979Y0249585D01*
X0163069Y0249731D01*
X0163163Y0249875D01*
X0163260Y0250017D01*
X0163361Y0250156D01*
X0163465Y0250293D01*
X0163572Y0250427D01*
X0163683Y0250558D01*
X0163796Y0250687D01*
X0163913Y0250813D01*
X0164033Y0250936D01*
X0164156Y0251056D01*
X0164282Y0251173D01*
X0164411Y0251286D01*
X0164542Y0251397D01*
X0164676Y0251504D01*
X0164813Y0251608D01*
X0164952Y0251709D01*
X0165094Y0251806D01*
X0165238Y0251900D01*
X0165384Y0251990D01*
X0165533Y0252077D01*
X0165683Y0252159D01*
X0165836Y0252239D01*
X0165990Y0252314D01*
X0166146Y0252385D01*
X0166304Y0252453D01*
X0166464Y0252517D01*
X0166625Y0252577D01*
X0166787Y0252633D01*
X0166951Y0252685D01*
X0167116Y0252732D01*
X0167282Y0252776D01*
X0167449Y0252816D01*
X0167617Y0252851D01*
X0167786Y0252883D01*
X0167956Y0252910D01*
X0168126Y0252933D01*
X0168297Y0252952D01*
X0168468Y0252967D01*
X0168640Y0252978D01*
X0168811Y0252984D01*
X0168983Y0252986D01*
X0169155Y0252984D01*
X0169326Y0252978D01*
X0169498Y0252967D01*
X0169669Y0252952D01*
X0169840Y0252933D01*
X0170010Y0252910D01*
X0170180Y0252883D01*
X0170349Y0252851D01*
X0170517Y0252816D01*
X0170684Y0252776D01*
X0170850Y0252732D01*
X0171015Y0252685D01*
X0171179Y0252633D01*
X0171341Y0252577D01*
X0171502Y0252517D01*
X0171662Y0252453D01*
X0171820Y0252385D01*
X0171976Y0252314D01*
X0172130Y0252239D01*
X0172283Y0252159D01*
X0172433Y0252077D01*
X0172582Y0251990D01*
X0172728Y0251900D01*
X0172872Y0251806D01*
X0173014Y0251709D01*
X0173153Y0251608D01*
X0173290Y0251504D01*
X0173424Y0251397D01*
X0173555Y0251286D01*
X0173684Y0251173D01*
X0173810Y0251056D01*
X0173933Y0250936D01*
X0174053Y0250813D01*
X0174170Y0250687D01*
X0174283Y0250558D01*
X0174394Y0250427D01*
X0174501Y0250293D01*
X0174605Y0250156D01*
X0174706Y0250017D01*
X0174803Y0249875D01*
X0174897Y0249731D01*
X0174987Y0249585D01*
X0175074Y0249436D01*
X0175156Y0249286D01*
X0175236Y0249133D01*
X0175311Y0248979D01*
X0175382Y0248823D01*
X0175450Y0248665D01*
X0175514Y0248505D01*
X0175574Y0248344D01*
X0175630Y0248182D01*
X0175682Y0248018D01*
X0175729Y0247853D01*
X0175773Y0247687D01*
X0175813Y0247520D01*
X0175848Y0247352D01*
X0175880Y0247183D01*
X0175907Y0247013D01*
X0175930Y0246843D01*
X0175949Y0246672D01*
X0175964Y0246501D01*
X0175975Y0246329D01*
X0175981Y0246158D01*
X0175983Y0245986D01*
X0175981Y0245814D01*
X0175975Y0245643D01*
X0175964Y0245471D01*
X0175949Y0245300D01*
X0175930Y0245129D01*
X0175907Y0244959D01*
X0175880Y0244789D01*
X0175848Y0244620D01*
X0175813Y0244452D01*
X0175773Y0244285D01*
X0175729Y0244119D01*
X0175682Y0243954D01*
X0175630Y0243790D01*
X0175574Y0243628D01*
X0175514Y0243467D01*
X0175450Y0243307D01*
X0175382Y0243149D01*
X0175311Y0242993D01*
X0175236Y0242839D01*
X0175156Y0242686D01*
X0175074Y0242536D01*
X0174987Y0242387D01*
X0174897Y0242241D01*
X0174803Y0242097D01*
X0174706Y0241955D01*
X0174605Y0241816D01*
X0174501Y0241679D01*
X0174394Y0241545D01*
X0174283Y0241414D01*
X0174170Y0241285D01*
X0174053Y0241159D01*
X0173933Y0241036D01*
X0173810Y0240916D01*
X0173684Y0240799D01*
X0173555Y0240686D01*
X0173424Y0240575D01*
X0173290Y0240468D01*
X0173153Y0240364D01*
X0173014Y0240263D01*
X0172872Y0240166D01*
X0172728Y0240072D01*
X0172582Y0239982D01*
X0172433Y0239895D01*
X0172283Y0239813D01*
X0172130Y0239733D01*
X0171976Y0239658D01*
X0171820Y0239587D01*
X0171662Y0239519D01*
X0171502Y0239455D01*
X0171341Y0239395D01*
X0171179Y0239339D01*
X0171015Y0239287D01*
X0170850Y0239240D01*
X0170684Y0239196D01*
X0170517Y0239156D01*
X0170349Y0239121D01*
X0170180Y0239089D01*
X0170010Y0239062D01*
X0169840Y0239039D01*
X0169669Y0239020D01*
X0169498Y0239005D01*
X0169326Y0238994D01*
X0169155Y0238988D01*
X0168983Y0238986D01*
X0168811Y0238988D01*
X0168640Y0238994D01*
X0168468Y0239005D01*
X0168297Y0239020D01*
X0168126Y0239039D01*
X0167956Y0239062D01*
X0167786Y0239089D01*
X0167617Y0239121D01*
X0167449Y0239156D01*
X0167282Y0239196D01*
X0167116Y0239240D01*
X0166951Y0239287D01*
X0166787Y0239339D01*
X0166625Y0239395D01*
X0166464Y0239455D01*
X0166304Y0239519D01*
X0166146Y0239587D01*
X0165990Y0239658D01*
X0165836Y0239733D01*
X0165683Y0239813D01*
X0165533Y0239895D01*
X0165384Y0239982D01*
X0165238Y0240072D01*
X0165094Y0240166D01*
X0164952Y0240263D01*
X0164813Y0240364D01*
X0164676Y0240468D01*
X0164542Y0240575D01*
X0164411Y0240686D01*
X0164282Y0240799D01*
X0164156Y0240916D01*
X0164033Y0241036D01*
X0163913Y0241159D01*
X0163796Y0241285D01*
X0163683Y0241414D01*
X0163572Y0241545D01*
X0163465Y0241679D01*
X0163361Y0241816D01*
X0163260Y0241955D01*
X0163163Y0242097D01*
X0163069Y0242241D01*
X0162979Y0242387D01*
X0162892Y0242536D01*
X0162810Y0242686D01*
X0162730Y0242839D01*
X0162655Y0242993D01*
X0162584Y0243149D01*
X0162516Y0243307D01*
X0162452Y0243467D01*
X0162392Y0243628D01*
X0162336Y0243790D01*
X0162284Y0243954D01*
X0162237Y0244119D01*
X0162193Y0244285D01*
X0162153Y0244452D01*
X0162118Y0244620D01*
X0162086Y0244789D01*
X0162059Y0244959D01*
X0162036Y0245129D01*
X0162017Y0245300D01*
X0162002Y0245471D01*
X0161991Y0245643D01*
X0161985Y0245814D01*
X0161983Y0245986D01*
X0123416Y0247572D02*
X0123416Y0263320D01*
X0122826Y0263320D01*
X0103141Y0263320D01*
X0102550Y0263320D01*
X0102550Y0247572D01*
X0104617Y0247572D01*
X0121350Y0247572D01*
X0123416Y0247572D01*
X0195570Y0153419D02*
X0211318Y0153419D01*
X0211318Y0152828D01*
X0211318Y0133143D01*
X0211318Y0132552D01*
X0195570Y0132552D01*
X0195570Y0134619D01*
X0195570Y0151352D01*
X0195570Y0153419D01*
X0195483Y0108986D02*
X0197983Y0106486D01*
X0200483Y0108986D01*
X0197983Y0106486D02*
X0197983Y0101486D01*
X0200483Y0098986D01*
X0197983Y0096486D01*
X0197983Y0091486D01*
X0200483Y0088986D01*
X0197983Y0086486D01*
X0197983Y0081486D01*
X0200483Y0078986D01*
X0197983Y0076486D01*
X0197983Y0071486D01*
X0200483Y0068986D01*
X0197983Y0066486D01*
X0197983Y0061486D01*
X0200483Y0058986D01*
X0197983Y0056486D01*
X0197983Y0051486D01*
X0200483Y0048986D01*
X0197983Y0046486D01*
X0197983Y0041486D01*
X0200483Y0038986D01*
X0197983Y0036486D01*
X0197983Y0031486D01*
X0200483Y0028986D01*
X0197983Y0026486D01*
X0197983Y0021486D01*
X0200483Y0018986D01*
X0205483Y0018986D01*
X0207983Y0021486D01*
X0207983Y0026486D01*
X0205483Y0028986D01*
X0207983Y0031486D01*
X0207983Y0036486D01*
X0205483Y0038986D01*
X0207983Y0041486D01*
X0207983Y0046486D01*
X0205483Y0048986D01*
X0207983Y0051486D01*
X0207983Y0056486D01*
X0205483Y0058986D01*
X0207983Y0061486D01*
X0207983Y0066486D01*
X0205483Y0068986D01*
X0207983Y0071486D01*
X0207983Y0076486D01*
X0205483Y0078986D01*
X0207983Y0081486D01*
X0207983Y0086486D01*
X0205483Y0088986D01*
X0207983Y0091486D01*
X0207983Y0096486D01*
X0205483Y0098986D01*
X0207983Y0101486D01*
X0207983Y0106486D01*
X0205483Y0108986D01*
X0197983Y0101486D02*
X0195483Y0098986D01*
X0197983Y0096486D01*
X0197983Y0091486D02*
X0195483Y0088986D01*
X0197983Y0086486D01*
X0197983Y0081486D02*
X0195483Y0078986D01*
X0197983Y0076486D01*
X0197983Y0071486D02*
X0195483Y0068986D01*
X0197983Y0066486D01*
X0197983Y0061486D02*
X0195483Y0058986D01*
X0197983Y0056486D01*
X0197983Y0051486D02*
X0195483Y0048986D01*
X0197983Y0046486D01*
X0197983Y0041486D02*
X0195483Y0038986D01*
X0197983Y0036486D01*
X0197983Y0031486D02*
X0195483Y0028986D01*
X0197983Y0026486D01*
X0197983Y0021486D02*
X0195483Y0018986D01*
X0190483Y0018986D01*
X0187983Y0021486D01*
X0187983Y0026486D01*
X0190483Y0028986D01*
X0187983Y0031486D01*
X0187983Y0036486D01*
X0190483Y0038986D01*
X0187983Y0041486D01*
X0187983Y0046486D01*
X0190483Y0048986D01*
X0187983Y0051486D01*
X0187983Y0056486D01*
X0190483Y0058986D01*
X0187983Y0061486D01*
X0187983Y0066486D01*
X0190483Y0068986D01*
X0187983Y0071486D01*
X0187983Y0076486D01*
X0190483Y0078986D01*
X0187983Y0081486D01*
X0187983Y0086486D01*
X0190483Y0088986D01*
X0187983Y0091486D01*
X0187983Y0096486D01*
X0190483Y0098986D01*
X0187983Y0101486D01*
X0187983Y0106486D01*
X0190483Y0108986D01*
X0148518Y0056886D02*
X0148520Y0056933D01*
X0148526Y0056980D01*
X0148536Y0057027D01*
X0148549Y0057072D01*
X0148567Y0057116D01*
X0148588Y0057158D01*
X0148612Y0057199D01*
X0148640Y0057237D01*
X0148671Y0057273D01*
X0148705Y0057306D01*
X0148741Y0057336D01*
X0148780Y0057363D01*
X0148821Y0057387D01*
X0148864Y0057407D01*
X0148908Y0057423D01*
X0148954Y0057436D01*
X0149000Y0057445D01*
X0149048Y0057450D01*
X0149095Y0057451D01*
X0149142Y0057448D01*
X0149189Y0057441D01*
X0149235Y0057430D01*
X0149280Y0057416D01*
X0149324Y0057397D01*
X0149365Y0057375D01*
X0149405Y0057350D01*
X0149443Y0057321D01*
X0149478Y0057290D01*
X0149511Y0057255D01*
X0149540Y0057218D01*
X0149566Y0057179D01*
X0149589Y0057137D01*
X0149608Y0057094D01*
X0149624Y0057049D01*
X0149636Y0057003D01*
X0149644Y0056957D01*
X0149648Y0056910D01*
X0149648Y0056862D01*
X0149644Y0056815D01*
X0149636Y0056769D01*
X0149624Y0056723D01*
X0149608Y0056678D01*
X0149589Y0056635D01*
X0149566Y0056593D01*
X0149540Y0056554D01*
X0149511Y0056517D01*
X0149478Y0056482D01*
X0149443Y0056451D01*
X0149405Y0056422D01*
X0149366Y0056397D01*
X0149324Y0056375D01*
X0149280Y0056356D01*
X0149235Y0056342D01*
X0149189Y0056331D01*
X0149142Y0056324D01*
X0149095Y0056321D01*
X0149048Y0056322D01*
X0149000Y0056327D01*
X0148954Y0056336D01*
X0148908Y0056349D01*
X0148864Y0056365D01*
X0148821Y0056385D01*
X0148780Y0056409D01*
X0148741Y0056436D01*
X0148705Y0056466D01*
X0148671Y0056499D01*
X0148640Y0056535D01*
X0148612Y0056573D01*
X0148588Y0056614D01*
X0148567Y0056656D01*
X0148549Y0056700D01*
X0148536Y0056745D01*
X0148526Y0056792D01*
X0148520Y0056839D01*
X0148518Y0056886D01*
D14*
X0090733Y0053186D02*
X0090733Y0052552D01*
X0090416Y0052236D01*
X0089783Y0052869D02*
X0089783Y0053186D01*
X0090100Y0053503D01*
X0090416Y0053503D01*
X0090733Y0053186D01*
X0089783Y0053186D02*
X0089466Y0053503D01*
X0089149Y0053503D01*
X0088832Y0053186D01*
X0088832Y0052552D01*
X0089149Y0052236D01*
X0089149Y0051293D02*
X0088832Y0050976D01*
X0088832Y0050343D01*
X0089149Y0050026D01*
X0090416Y0050026D01*
X0090733Y0050343D01*
X0090733Y0050976D01*
X0090416Y0051293D01*
X0088632Y0053236D02*
X0085629Y0053236D01*
X0087131Y0053236D02*
X0087131Y0057739D01*
X0085629Y0056238D01*
X0084028Y0056989D02*
X0083277Y0057739D01*
X0081776Y0057739D01*
X0081026Y0056989D01*
X0081026Y0053986D01*
X0081776Y0053236D01*
X0083277Y0053236D01*
X0084028Y0053986D01*
X0079458Y0053236D02*
X0077956Y0053236D01*
X0078707Y0053236D02*
X0078707Y0057739D01*
X0077956Y0057739D02*
X0079458Y0057739D01*
X0068549Y0044503D02*
X0069816Y0043236D01*
X0070133Y0043236D01*
X0070133Y0042293D02*
X0069500Y0041660D01*
X0069500Y0041976D02*
X0069500Y0041026D01*
X0070133Y0041026D02*
X0068232Y0041026D01*
X0068232Y0041976D01*
X0068549Y0042293D01*
X0069183Y0042293D01*
X0069500Y0041976D01*
X0068733Y0042293D02*
X0068100Y0041660D01*
X0068100Y0041976D02*
X0068100Y0041026D01*
X0068733Y0041026D02*
X0066832Y0041026D01*
X0066832Y0041976D01*
X0067149Y0042293D01*
X0067783Y0042293D01*
X0068100Y0041976D01*
X0068100Y0043236D02*
X0067783Y0043552D01*
X0067783Y0044186D01*
X0068100Y0044503D01*
X0068416Y0044503D01*
X0068733Y0044186D01*
X0068733Y0043552D01*
X0068416Y0043236D01*
X0068100Y0043236D01*
X0068232Y0043236D02*
X0068232Y0044503D01*
X0068549Y0044503D01*
X0067783Y0044186D02*
X0067466Y0044503D01*
X0067149Y0044503D01*
X0066832Y0044186D01*
X0066832Y0043552D01*
X0067149Y0043236D01*
X0067466Y0043236D01*
X0067783Y0043552D01*
X0067291Y0102336D02*
X0066657Y0102969D01*
X0066974Y0102969D02*
X0066024Y0102969D01*
X0066024Y0102336D02*
X0066024Y0104237D01*
X0066974Y0104237D01*
X0067291Y0103920D01*
X0067291Y0103286D01*
X0066974Y0102969D01*
X0068233Y0102652D02*
X0068233Y0103920D01*
X0068550Y0104237D01*
X0069184Y0104237D01*
X0069501Y0103920D01*
X0069501Y0103286D02*
X0068867Y0103286D01*
X0069501Y0103286D02*
X0069501Y0102652D01*
X0069184Y0102336D01*
X0068550Y0102336D01*
X0068233Y0102652D01*
X0098983Y0122986D02*
X0103983Y0122986D01*
X0105983Y0122986D02*
X0110983Y0122986D01*
X0110983Y0124986D01*
X0110983Y0126986D02*
X0110983Y0128986D01*
X0105983Y0128986D01*
X0103983Y0128986D02*
X0098983Y0128986D01*
X0098983Y0126986D01*
X0098983Y0124986D02*
X0098983Y0122986D01*
X0098983Y0134986D02*
X0103983Y0134986D01*
X0105983Y0134986D02*
X0110983Y0134986D01*
X0110983Y0136986D01*
X0110983Y0138986D02*
X0110983Y0140986D01*
X0105983Y0140986D01*
X0103983Y0140986D02*
X0098983Y0140986D01*
X0098983Y0138986D01*
X0098983Y0136986D02*
X0098983Y0134986D01*
X0058816Y0182026D02*
X0059133Y0182343D01*
X0059133Y0182976D01*
X0058816Y0183293D01*
X0059133Y0184236D02*
X0059133Y0185503D01*
X0059133Y0184869D02*
X0057232Y0184869D01*
X0057866Y0184236D01*
X0057549Y0183293D02*
X0057232Y0182976D01*
X0057232Y0182343D01*
X0057549Y0182026D01*
X0058816Y0182026D01*
X0038083Y0154586D02*
X0007983Y0154586D01*
X0007983Y0231986D01*
X0038083Y0231986D01*
X0038083Y0154586D01*
X0036789Y0135939D02*
X0035288Y0135939D01*
X0034537Y0135189D01*
X0032936Y0135939D02*
X0031435Y0135939D01*
X0032185Y0135939D02*
X0032185Y0132186D01*
X0031435Y0131436D01*
X0030684Y0131436D01*
X0029933Y0132186D01*
X0025540Y0131436D02*
X0022537Y0131436D01*
X0024039Y0131436D02*
X0024039Y0135939D01*
X0022537Y0134438D01*
X0020936Y0135939D02*
X0019435Y0135939D01*
X0020185Y0135939D02*
X0020185Y0132186D01*
X0019435Y0131436D01*
X0018684Y0131436D01*
X0017933Y0132186D01*
X0015983Y0144986D02*
X0015985Y0145127D01*
X0015991Y0145268D01*
X0016001Y0145408D01*
X0016015Y0145548D01*
X0016033Y0145688D01*
X0016054Y0145827D01*
X0016080Y0145966D01*
X0016109Y0146104D01*
X0016143Y0146240D01*
X0016180Y0146376D01*
X0016221Y0146511D01*
X0016266Y0146645D01*
X0016315Y0146777D01*
X0016367Y0146908D01*
X0016423Y0147037D01*
X0016483Y0147164D01*
X0016546Y0147290D01*
X0016612Y0147414D01*
X0016683Y0147537D01*
X0016756Y0147657D01*
X0016833Y0147775D01*
X0016913Y0147891D01*
X0016997Y0148004D01*
X0017083Y0148115D01*
X0017173Y0148224D01*
X0017266Y0148330D01*
X0017361Y0148433D01*
X0017460Y0148534D01*
X0017561Y0148632D01*
X0017665Y0148727D01*
X0017772Y0148819D01*
X0017881Y0148908D01*
X0017993Y0148993D01*
X0018107Y0149076D01*
X0018223Y0149156D01*
X0018342Y0149232D01*
X0018463Y0149304D01*
X0018585Y0149374D01*
X0018710Y0149439D01*
X0018836Y0149502D01*
X0018964Y0149560D01*
X0019094Y0149615D01*
X0019225Y0149667D01*
X0019358Y0149714D01*
X0019492Y0149758D01*
X0019627Y0149799D01*
X0019763Y0149835D01*
X0019900Y0149867D01*
X0020038Y0149896D01*
X0020176Y0149921D01*
X0020316Y0149941D01*
X0020456Y0149958D01*
X0020596Y0149971D01*
X0020737Y0149980D01*
X0020877Y0149985D01*
X0021018Y0149986D01*
X0021159Y0149983D01*
X0021300Y0149976D01*
X0021440Y0149965D01*
X0021580Y0149950D01*
X0021720Y0149931D01*
X0021859Y0149909D01*
X0021997Y0149882D01*
X0022135Y0149852D01*
X0022271Y0149817D01*
X0022407Y0149779D01*
X0022541Y0149737D01*
X0022675Y0149691D01*
X0022807Y0149642D01*
X0022937Y0149588D01*
X0023066Y0149531D01*
X0023193Y0149471D01*
X0023319Y0149407D01*
X0023442Y0149339D01*
X0023564Y0149268D01*
X0023684Y0149194D01*
X0023801Y0149116D01*
X0023916Y0149035D01*
X0024029Y0148951D01*
X0024140Y0148864D01*
X0024248Y0148773D01*
X0024353Y0148680D01*
X0024456Y0148583D01*
X0024556Y0148484D01*
X0024653Y0148382D01*
X0024747Y0148277D01*
X0024838Y0148170D01*
X0024926Y0148060D01*
X0025011Y0147948D01*
X0025093Y0147833D01*
X0025172Y0147716D01*
X0025247Y0147597D01*
X0025319Y0147476D01*
X0025387Y0147353D01*
X0025452Y0147228D01*
X0025514Y0147101D01*
X0025571Y0146972D01*
X0025626Y0146842D01*
X0025676Y0146711D01*
X0025723Y0146578D01*
X0025766Y0146444D01*
X0025805Y0146308D01*
X0025840Y0146172D01*
X0025872Y0146035D01*
X0025899Y0145897D01*
X0025923Y0145758D01*
X0025943Y0145618D01*
X0025959Y0145478D01*
X0025971Y0145338D01*
X0025979Y0145197D01*
X0025983Y0145056D01*
X0025983Y0144916D01*
X0025979Y0144775D01*
X0025971Y0144634D01*
X0025959Y0144494D01*
X0025943Y0144354D01*
X0025923Y0144214D01*
X0025899Y0144075D01*
X0025872Y0143937D01*
X0025840Y0143800D01*
X0025805Y0143664D01*
X0025766Y0143528D01*
X0025723Y0143394D01*
X0025676Y0143261D01*
X0025626Y0143130D01*
X0025571Y0143000D01*
X0025514Y0142871D01*
X0025452Y0142744D01*
X0025387Y0142619D01*
X0025319Y0142496D01*
X0025247Y0142375D01*
X0025172Y0142256D01*
X0025093Y0142139D01*
X0025011Y0142024D01*
X0024926Y0141912D01*
X0024838Y0141802D01*
X0024747Y0141695D01*
X0024653Y0141590D01*
X0024556Y0141488D01*
X0024456Y0141389D01*
X0024353Y0141292D01*
X0024248Y0141199D01*
X0024140Y0141108D01*
X0024029Y0141021D01*
X0023916Y0140937D01*
X0023801Y0140856D01*
X0023684Y0140778D01*
X0023564Y0140704D01*
X0023442Y0140633D01*
X0023319Y0140565D01*
X0023193Y0140501D01*
X0023066Y0140441D01*
X0022937Y0140384D01*
X0022807Y0140330D01*
X0022675Y0140281D01*
X0022541Y0140235D01*
X0022407Y0140193D01*
X0022271Y0140155D01*
X0022135Y0140120D01*
X0021997Y0140090D01*
X0021859Y0140063D01*
X0021720Y0140041D01*
X0021580Y0140022D01*
X0021440Y0140007D01*
X0021300Y0139996D01*
X0021159Y0139989D01*
X0021018Y0139986D01*
X0020877Y0139987D01*
X0020737Y0139992D01*
X0020596Y0140001D01*
X0020456Y0140014D01*
X0020316Y0140031D01*
X0020176Y0140051D01*
X0020038Y0140076D01*
X0019900Y0140105D01*
X0019763Y0140137D01*
X0019627Y0140173D01*
X0019492Y0140214D01*
X0019358Y0140258D01*
X0019225Y0140305D01*
X0019094Y0140357D01*
X0018964Y0140412D01*
X0018836Y0140470D01*
X0018710Y0140533D01*
X0018585Y0140598D01*
X0018463Y0140668D01*
X0018342Y0140740D01*
X0018223Y0140816D01*
X0018107Y0140896D01*
X0017993Y0140979D01*
X0017881Y0141064D01*
X0017772Y0141153D01*
X0017665Y0141245D01*
X0017561Y0141340D01*
X0017460Y0141438D01*
X0017361Y0141539D01*
X0017266Y0141642D01*
X0017173Y0141748D01*
X0017083Y0141857D01*
X0016997Y0141968D01*
X0016913Y0142081D01*
X0016833Y0142197D01*
X0016756Y0142315D01*
X0016683Y0142435D01*
X0016612Y0142558D01*
X0016546Y0142682D01*
X0016483Y0142808D01*
X0016423Y0142935D01*
X0016367Y0143064D01*
X0016315Y0143195D01*
X0016266Y0143327D01*
X0016221Y0143461D01*
X0016180Y0143596D01*
X0016143Y0143732D01*
X0016109Y0143868D01*
X0016080Y0144006D01*
X0016054Y0144145D01*
X0016033Y0144284D01*
X0016015Y0144424D01*
X0016001Y0144564D01*
X0015991Y0144704D01*
X0015985Y0144845D01*
X0015983Y0144986D01*
X0034537Y0132186D02*
X0035288Y0131436D01*
X0036789Y0131436D01*
X0037540Y0132186D01*
X0037540Y0132937D01*
X0036789Y0133687D01*
X0036039Y0133687D01*
X0036789Y0133687D02*
X0037540Y0134438D01*
X0037540Y0135189D01*
X0036789Y0135939D01*
X0009983Y0239986D02*
X0009985Y0240127D01*
X0009991Y0240268D01*
X0010001Y0240408D01*
X0010015Y0240548D01*
X0010033Y0240688D01*
X0010054Y0240827D01*
X0010080Y0240966D01*
X0010109Y0241104D01*
X0010143Y0241240D01*
X0010180Y0241376D01*
X0010221Y0241511D01*
X0010266Y0241645D01*
X0010315Y0241777D01*
X0010367Y0241908D01*
X0010423Y0242037D01*
X0010483Y0242164D01*
X0010546Y0242290D01*
X0010612Y0242414D01*
X0010683Y0242537D01*
X0010756Y0242657D01*
X0010833Y0242775D01*
X0010913Y0242891D01*
X0010997Y0243004D01*
X0011083Y0243115D01*
X0011173Y0243224D01*
X0011266Y0243330D01*
X0011361Y0243433D01*
X0011460Y0243534D01*
X0011561Y0243632D01*
X0011665Y0243727D01*
X0011772Y0243819D01*
X0011881Y0243908D01*
X0011993Y0243993D01*
X0012107Y0244076D01*
X0012223Y0244156D01*
X0012342Y0244232D01*
X0012463Y0244304D01*
X0012585Y0244374D01*
X0012710Y0244439D01*
X0012836Y0244502D01*
X0012964Y0244560D01*
X0013094Y0244615D01*
X0013225Y0244667D01*
X0013358Y0244714D01*
X0013492Y0244758D01*
X0013627Y0244799D01*
X0013763Y0244835D01*
X0013900Y0244867D01*
X0014038Y0244896D01*
X0014176Y0244921D01*
X0014316Y0244941D01*
X0014456Y0244958D01*
X0014596Y0244971D01*
X0014737Y0244980D01*
X0014877Y0244985D01*
X0015018Y0244986D01*
X0015159Y0244983D01*
X0015300Y0244976D01*
X0015440Y0244965D01*
X0015580Y0244950D01*
X0015720Y0244931D01*
X0015859Y0244909D01*
X0015997Y0244882D01*
X0016135Y0244852D01*
X0016271Y0244817D01*
X0016407Y0244779D01*
X0016541Y0244737D01*
X0016675Y0244691D01*
X0016807Y0244642D01*
X0016937Y0244588D01*
X0017066Y0244531D01*
X0017193Y0244471D01*
X0017319Y0244407D01*
X0017442Y0244339D01*
X0017564Y0244268D01*
X0017684Y0244194D01*
X0017801Y0244116D01*
X0017916Y0244035D01*
X0018029Y0243951D01*
X0018140Y0243864D01*
X0018248Y0243773D01*
X0018353Y0243680D01*
X0018456Y0243583D01*
X0018556Y0243484D01*
X0018653Y0243382D01*
X0018747Y0243277D01*
X0018838Y0243170D01*
X0018926Y0243060D01*
X0019011Y0242948D01*
X0019093Y0242833D01*
X0019172Y0242716D01*
X0019247Y0242597D01*
X0019319Y0242476D01*
X0019387Y0242353D01*
X0019452Y0242228D01*
X0019514Y0242101D01*
X0019571Y0241972D01*
X0019626Y0241842D01*
X0019676Y0241711D01*
X0019723Y0241578D01*
X0019766Y0241444D01*
X0019805Y0241308D01*
X0019840Y0241172D01*
X0019872Y0241035D01*
X0019899Y0240897D01*
X0019923Y0240758D01*
X0019943Y0240618D01*
X0019959Y0240478D01*
X0019971Y0240338D01*
X0019979Y0240197D01*
X0019983Y0240056D01*
X0019983Y0239916D01*
X0019979Y0239775D01*
X0019971Y0239634D01*
X0019959Y0239494D01*
X0019943Y0239354D01*
X0019923Y0239214D01*
X0019899Y0239075D01*
X0019872Y0238937D01*
X0019840Y0238800D01*
X0019805Y0238664D01*
X0019766Y0238528D01*
X0019723Y0238394D01*
X0019676Y0238261D01*
X0019626Y0238130D01*
X0019571Y0238000D01*
X0019514Y0237871D01*
X0019452Y0237744D01*
X0019387Y0237619D01*
X0019319Y0237496D01*
X0019247Y0237375D01*
X0019172Y0237256D01*
X0019093Y0237139D01*
X0019011Y0237024D01*
X0018926Y0236912D01*
X0018838Y0236802D01*
X0018747Y0236695D01*
X0018653Y0236590D01*
X0018556Y0236488D01*
X0018456Y0236389D01*
X0018353Y0236292D01*
X0018248Y0236199D01*
X0018140Y0236108D01*
X0018029Y0236021D01*
X0017916Y0235937D01*
X0017801Y0235856D01*
X0017684Y0235778D01*
X0017564Y0235704D01*
X0017442Y0235633D01*
X0017319Y0235565D01*
X0017193Y0235501D01*
X0017066Y0235441D01*
X0016937Y0235384D01*
X0016807Y0235330D01*
X0016675Y0235281D01*
X0016541Y0235235D01*
X0016407Y0235193D01*
X0016271Y0235155D01*
X0016135Y0235120D01*
X0015997Y0235090D01*
X0015859Y0235063D01*
X0015720Y0235041D01*
X0015580Y0235022D01*
X0015440Y0235007D01*
X0015300Y0234996D01*
X0015159Y0234989D01*
X0015018Y0234986D01*
X0014877Y0234987D01*
X0014737Y0234992D01*
X0014596Y0235001D01*
X0014456Y0235014D01*
X0014316Y0235031D01*
X0014176Y0235051D01*
X0014038Y0235076D01*
X0013900Y0235105D01*
X0013763Y0235137D01*
X0013627Y0235173D01*
X0013492Y0235214D01*
X0013358Y0235258D01*
X0013225Y0235305D01*
X0013094Y0235357D01*
X0012964Y0235412D01*
X0012836Y0235470D01*
X0012710Y0235533D01*
X0012585Y0235598D01*
X0012463Y0235668D01*
X0012342Y0235740D01*
X0012223Y0235816D01*
X0012107Y0235896D01*
X0011993Y0235979D01*
X0011881Y0236064D01*
X0011772Y0236153D01*
X0011665Y0236245D01*
X0011561Y0236340D01*
X0011460Y0236438D01*
X0011361Y0236539D01*
X0011266Y0236642D01*
X0011173Y0236748D01*
X0011083Y0236857D01*
X0010997Y0236968D01*
X0010913Y0237081D01*
X0010833Y0237197D01*
X0010756Y0237315D01*
X0010683Y0237435D01*
X0010612Y0237558D01*
X0010546Y0237682D01*
X0010483Y0237808D01*
X0010423Y0237935D01*
X0010367Y0238064D01*
X0010315Y0238195D01*
X0010266Y0238327D01*
X0010221Y0238461D01*
X0010180Y0238596D01*
X0010143Y0238732D01*
X0010109Y0238868D01*
X0010080Y0239006D01*
X0010054Y0239145D01*
X0010033Y0239284D01*
X0010015Y0239424D01*
X0010001Y0239564D01*
X0009991Y0239704D01*
X0009985Y0239845D01*
X0009983Y0239986D01*
X0159233Y0261986D02*
X0159984Y0261236D01*
X0161485Y0261236D01*
X0162236Y0261986D01*
X0162236Y0262737D01*
X0161485Y0263487D01*
X0159984Y0263487D01*
X0159233Y0264238D01*
X0159233Y0264989D01*
X0159984Y0265739D01*
X0161485Y0265739D01*
X0162236Y0264989D01*
X0163837Y0264989D02*
X0164588Y0265739D01*
X0166089Y0265739D01*
X0166840Y0264989D01*
X0166840Y0264238D01*
X0163837Y0261236D01*
X0166840Y0261236D01*
X0188435Y0135939D02*
X0189936Y0135939D01*
X0189185Y0135939D02*
X0189185Y0132186D01*
X0188435Y0131436D01*
X0187684Y0131436D01*
X0186933Y0132186D01*
X0191537Y0133687D02*
X0194540Y0133687D01*
X0193789Y0131436D02*
X0193789Y0135939D01*
X0191537Y0133687D01*
X0199933Y0132186D02*
X0200684Y0131436D01*
X0201435Y0131436D01*
X0202185Y0132186D01*
X0202185Y0135939D01*
X0201435Y0135939D02*
X0202936Y0135939D01*
X0204537Y0135189D02*
X0205288Y0135939D01*
X0206789Y0135939D01*
X0207540Y0135189D01*
X0207540Y0134438D01*
X0204537Y0131436D01*
X0207540Y0131436D01*
D15*
X0207983Y0118986D02*
X0197983Y0118986D01*
X0197983Y0108986D01*
X0200483Y0108986D01*
X0197983Y0108986D02*
X0195483Y0108986D01*
X0190483Y0108986D02*
X0187983Y0108986D01*
X0187983Y0118986D01*
X0197983Y0118986D01*
X0205483Y0108986D02*
X0207983Y0108986D01*
X0207983Y0118986D01*
X0037983Y0118986D02*
X0037983Y0108986D01*
X0035483Y0108986D01*
X0030483Y0108986D02*
X0027983Y0108986D01*
X0027983Y0118986D01*
X0037983Y0118986D01*
X0027983Y0118986D02*
X0017983Y0118986D01*
X0017983Y0108986D01*
X0020483Y0108986D01*
X0025483Y0108986D02*
X0027983Y0108986D01*
D16*
X0042133Y0112669D02*
X0042667Y0112136D01*
X0043735Y0112136D01*
X0044269Y0112669D01*
X0044269Y0113737D01*
X0043735Y0114271D01*
X0043201Y0114271D01*
X0042133Y0113737D01*
X0042133Y0115338D01*
X0044269Y0115338D01*
X0045356Y0115338D02*
X0045356Y0113203D01*
X0046424Y0112136D01*
X0047491Y0113203D01*
X0047491Y0115338D01*
X0046046Y0123136D02*
X0043911Y0123136D01*
X0044978Y0123136D02*
X0044978Y0126338D01*
X0043911Y0125271D01*
X0042823Y0125271D02*
X0042823Y0125805D01*
X0042289Y0126338D01*
X0041222Y0126338D01*
X0040688Y0125805D01*
X0042823Y0125271D02*
X0040688Y0123136D01*
X0042823Y0123136D01*
X0032033Y0126743D02*
X0029131Y0126743D01*
X0029131Y0128194D01*
X0029615Y0128677D01*
X0030582Y0128677D01*
X0031066Y0128194D01*
X0031066Y0126743D01*
X0031066Y0127710D02*
X0032033Y0128677D01*
X0030582Y0129689D02*
X0030582Y0131624D01*
X0029131Y0131140D02*
X0030582Y0129689D01*
X0032033Y0131140D02*
X0029131Y0131140D01*
X0023783Y0131140D02*
X0020881Y0131140D01*
X0022332Y0129689D01*
X0022332Y0131624D01*
X0021365Y0128677D02*
X0020881Y0128194D01*
X0020881Y0126743D01*
X0023783Y0126743D01*
X0023783Y0128194D01*
X0023300Y0128677D01*
X0021365Y0128677D01*
X0012201Y0126338D02*
X0012201Y0123136D01*
X0011133Y0123136D02*
X0013269Y0123136D01*
X0011133Y0125271D02*
X0012201Y0126338D01*
X0013046Y0105338D02*
X0013046Y0102136D01*
X0010911Y0105338D01*
X0010911Y0102136D01*
X0009830Y0102136D02*
X0008762Y0102136D01*
X0009296Y0102136D02*
X0009296Y0105338D01*
X0008762Y0105338D02*
X0009830Y0105338D01*
X0007675Y0104271D02*
X0007675Y0102136D01*
X0007675Y0103737D02*
X0005539Y0103737D01*
X0005539Y0104271D02*
X0006607Y0105338D01*
X0007675Y0104271D01*
X0005539Y0104271D02*
X0005539Y0102136D01*
X0007688Y0095338D02*
X0009289Y0095338D01*
X0009823Y0094805D01*
X0009823Y0093737D01*
X0009289Y0093203D01*
X0007688Y0093203D01*
X0007688Y0092136D02*
X0007688Y0095338D01*
X0008755Y0093203D02*
X0009823Y0092136D01*
X0010911Y0092136D02*
X0013046Y0095338D01*
X0010911Y0095338D02*
X0013046Y0092136D01*
X0013046Y0086338D02*
X0010911Y0083136D01*
X0013046Y0083136D02*
X0010911Y0086338D01*
X0009823Y0086338D02*
X0007688Y0086338D01*
X0008755Y0086338D02*
X0008755Y0083136D01*
X0008762Y0076338D02*
X0009830Y0076338D01*
X0009296Y0076338D02*
X0009296Y0073136D01*
X0008762Y0073136D02*
X0009830Y0073136D01*
X0010911Y0073669D02*
X0011444Y0073136D01*
X0012512Y0073136D01*
X0013046Y0073669D01*
X0013046Y0075805D01*
X0012512Y0076338D01*
X0011444Y0076338D01*
X0010911Y0075805D01*
X0010911Y0073669D01*
X0007675Y0074737D02*
X0007141Y0074203D01*
X0005539Y0074203D01*
X0005539Y0073136D02*
X0005539Y0076338D01*
X0007141Y0076338D01*
X0007675Y0075805D01*
X0007675Y0074737D01*
X0004452Y0074737D02*
X0004452Y0073669D01*
X0003918Y0073136D01*
X0002850Y0073136D01*
X0002317Y0073669D01*
X0002317Y0075805D01*
X0002850Y0076338D01*
X0003918Y0076338D01*
X0004452Y0075805D01*
X0004452Y0074737D02*
X0003384Y0074737D01*
X0006607Y0066338D02*
X0007675Y0065271D01*
X0007675Y0063136D01*
X0008762Y0063136D02*
X0009830Y0063136D01*
X0009296Y0063136D02*
X0009296Y0066338D01*
X0008762Y0066338D02*
X0009830Y0066338D01*
X0010911Y0066338D02*
X0013046Y0063136D01*
X0013046Y0066338D01*
X0010911Y0066338D02*
X0010911Y0063136D01*
X0007675Y0064737D02*
X0005539Y0064737D01*
X0005539Y0065271D02*
X0006607Y0066338D01*
X0005539Y0065271D02*
X0005539Y0063136D01*
X0006067Y0056338D02*
X0004999Y0056338D01*
X0004465Y0055805D01*
X0004465Y0053669D01*
X0004999Y0053136D01*
X0006067Y0053136D01*
X0006600Y0053669D01*
X0007688Y0053136D02*
X0007688Y0056338D01*
X0006600Y0055805D02*
X0006067Y0056338D01*
X0007688Y0053136D02*
X0009823Y0053136D01*
X0010911Y0053136D02*
X0010911Y0056338D01*
X0011444Y0054737D02*
X0013046Y0053136D01*
X0010911Y0054203D02*
X0013046Y0056338D01*
X0012512Y0046338D02*
X0013046Y0045805D01*
X0013046Y0043669D01*
X0012512Y0043136D01*
X0011444Y0043136D01*
X0010911Y0043669D01*
X0010911Y0045805D01*
X0011444Y0046338D01*
X0012512Y0046338D01*
X0009830Y0046338D02*
X0008762Y0046338D01*
X0009296Y0046338D02*
X0009296Y0043136D01*
X0008762Y0043136D02*
X0009830Y0043136D01*
X0007675Y0044737D02*
X0007141Y0044203D01*
X0005539Y0044203D01*
X0005539Y0043136D02*
X0005539Y0046338D01*
X0007141Y0046338D01*
X0007675Y0045805D01*
X0007675Y0044737D01*
X0004452Y0044737D02*
X0004452Y0043669D01*
X0003918Y0043136D01*
X0002850Y0043136D01*
X0002317Y0043669D01*
X0002317Y0045805D01*
X0002850Y0046338D01*
X0003918Y0046338D01*
X0004452Y0045805D01*
X0004452Y0044737D02*
X0003384Y0044737D01*
X0004999Y0036338D02*
X0004465Y0035805D01*
X0004465Y0035271D01*
X0004999Y0034737D01*
X0006067Y0034737D01*
X0006600Y0034203D01*
X0006600Y0033669D01*
X0006067Y0033136D01*
X0004999Y0033136D01*
X0004465Y0033669D01*
X0004999Y0036338D02*
X0006067Y0036338D01*
X0006600Y0035805D01*
X0007688Y0035805D02*
X0007688Y0033669D01*
X0008222Y0033136D01*
X0009289Y0033136D01*
X0009823Y0033669D01*
X0010911Y0033136D02*
X0013046Y0033136D01*
X0010911Y0033136D02*
X0010911Y0036338D01*
X0009823Y0035805D02*
X0009289Y0036338D01*
X0008222Y0036338D01*
X0007688Y0035805D01*
X0007688Y0026338D02*
X0009289Y0026338D01*
X0009823Y0025805D01*
X0009823Y0023669D01*
X0009289Y0023136D01*
X0007688Y0023136D01*
X0007688Y0026338D01*
X0006600Y0025805D02*
X0006067Y0026338D01*
X0004999Y0026338D01*
X0004465Y0025805D01*
X0004465Y0025271D01*
X0004999Y0024737D01*
X0006067Y0024737D01*
X0006600Y0024203D01*
X0006600Y0023669D01*
X0006067Y0023136D01*
X0004999Y0023136D01*
X0004465Y0023669D01*
X0010911Y0023136D02*
X0010911Y0025271D01*
X0011978Y0026338D01*
X0013046Y0025271D01*
X0013046Y0023136D01*
X0013046Y0024737D02*
X0010911Y0024737D01*
X0012201Y0015338D02*
X0011133Y0014271D01*
X0012201Y0015338D02*
X0012201Y0012136D01*
X0011133Y0012136D02*
X0013269Y0012136D01*
X0014356Y0012669D02*
X0014356Y0014805D01*
X0014890Y0015338D01*
X0015958Y0015338D01*
X0016491Y0014805D01*
X0014356Y0012669D01*
X0014890Y0012136D01*
X0015958Y0012136D01*
X0016491Y0012669D01*
X0016491Y0014805D01*
X0040688Y0014805D02*
X0041222Y0015338D01*
X0042289Y0015338D01*
X0042823Y0014805D01*
X0042823Y0014271D01*
X0042289Y0013737D01*
X0042823Y0013203D01*
X0042823Y0012669D01*
X0042289Y0012136D01*
X0041222Y0012136D01*
X0040688Y0012669D01*
X0041755Y0013737D02*
X0042289Y0013737D01*
X0043911Y0012669D02*
X0043911Y0014805D01*
X0044444Y0015338D01*
X0045512Y0015338D01*
X0046046Y0014805D01*
X0043911Y0012669D01*
X0044444Y0012136D01*
X0045512Y0012136D01*
X0046046Y0012669D01*
X0046046Y0014805D01*
X0045890Y0022136D02*
X0046958Y0022136D01*
X0047491Y0022669D01*
X0047491Y0024805D01*
X0046958Y0025338D01*
X0045890Y0025338D01*
X0045356Y0024805D01*
X0045356Y0022669D01*
X0045890Y0022136D01*
X0044269Y0022136D02*
X0044269Y0024271D01*
X0043201Y0025338D01*
X0042133Y0024271D01*
X0042133Y0022136D01*
X0042133Y0023737D02*
X0044269Y0023737D01*
X0048579Y0022669D02*
X0049113Y0022136D01*
X0050180Y0022136D01*
X0050714Y0022669D01*
X0050714Y0025338D01*
X0051802Y0025338D02*
X0053937Y0025338D01*
X0052869Y0025338D02*
X0052869Y0022136D01*
X0048579Y0022669D02*
X0048579Y0025338D01*
X0049113Y0032136D02*
X0050180Y0032136D01*
X0050714Y0032669D01*
X0050714Y0035338D01*
X0051802Y0035338D02*
X0053937Y0035338D01*
X0052869Y0035338D02*
X0052869Y0032136D01*
X0049113Y0032136D02*
X0048579Y0032669D01*
X0048579Y0035338D01*
X0047491Y0034805D02*
X0046958Y0035338D01*
X0045890Y0035338D01*
X0045356Y0034805D01*
X0045356Y0032669D01*
X0045890Y0032136D01*
X0046958Y0032136D01*
X0047491Y0032669D01*
X0047491Y0034805D01*
X0044269Y0034271D02*
X0044269Y0032136D01*
X0044269Y0033737D02*
X0042133Y0033737D01*
X0042133Y0034271D02*
X0043201Y0035338D01*
X0044269Y0034271D01*
X0042133Y0034271D02*
X0042133Y0032136D01*
X0042133Y0042136D02*
X0042133Y0044271D01*
X0043201Y0045338D01*
X0044269Y0044271D01*
X0044269Y0042136D01*
X0045356Y0042136D02*
X0046424Y0042136D01*
X0045890Y0042136D02*
X0045890Y0045338D01*
X0045356Y0045338D02*
X0046424Y0045338D01*
X0047505Y0045338D02*
X0049640Y0042136D01*
X0049640Y0045338D01*
X0047505Y0045338D02*
X0047505Y0042136D01*
X0044269Y0043737D02*
X0042133Y0043737D01*
X0042133Y0052136D02*
X0042133Y0054271D01*
X0043201Y0055338D01*
X0044269Y0054271D01*
X0044269Y0052136D01*
X0045356Y0052136D02*
X0046424Y0052136D01*
X0045890Y0052136D02*
X0045890Y0055338D01*
X0045356Y0055338D02*
X0046424Y0055338D01*
X0047505Y0055338D02*
X0049640Y0052136D01*
X0049640Y0055338D01*
X0047505Y0055338D02*
X0047505Y0052136D01*
X0044269Y0053737D02*
X0042133Y0053737D01*
X0042133Y0062136D02*
X0042133Y0064271D01*
X0043201Y0065338D01*
X0044269Y0064271D01*
X0044269Y0062136D01*
X0045356Y0062136D02*
X0046424Y0062136D01*
X0045890Y0062136D02*
X0045890Y0065338D01*
X0045356Y0065338D02*
X0046424Y0065338D01*
X0047505Y0065338D02*
X0049640Y0062136D01*
X0049640Y0065338D01*
X0047505Y0065338D02*
X0047505Y0062136D01*
X0044269Y0063737D02*
X0042133Y0063737D01*
X0042133Y0072136D02*
X0042133Y0074271D01*
X0043201Y0075338D01*
X0044269Y0074271D01*
X0044269Y0072136D01*
X0045356Y0072136D02*
X0046424Y0072136D01*
X0045890Y0072136D02*
X0045890Y0075338D01*
X0045356Y0075338D02*
X0046424Y0075338D01*
X0047505Y0075338D02*
X0049640Y0072136D01*
X0049640Y0075338D01*
X0047505Y0075338D02*
X0047505Y0072136D01*
X0044269Y0073737D02*
X0042133Y0073737D01*
X0042133Y0082136D02*
X0042133Y0084271D01*
X0043201Y0085338D01*
X0044269Y0084271D01*
X0044269Y0082136D01*
X0045356Y0082136D02*
X0046424Y0082136D01*
X0045890Y0082136D02*
X0045890Y0085338D01*
X0045356Y0085338D02*
X0046424Y0085338D01*
X0047505Y0085338D02*
X0049640Y0082136D01*
X0049640Y0085338D01*
X0047505Y0085338D02*
X0047505Y0082136D01*
X0044269Y0083737D02*
X0042133Y0083737D01*
X0042133Y0092136D02*
X0042133Y0094271D01*
X0043201Y0095338D01*
X0044269Y0094271D01*
X0044269Y0092136D01*
X0045356Y0092136D02*
X0046424Y0092136D01*
X0045890Y0092136D02*
X0045890Y0095338D01*
X0045356Y0095338D02*
X0046424Y0095338D01*
X0047505Y0095338D02*
X0049640Y0092136D01*
X0049640Y0095338D01*
X0047505Y0095338D02*
X0047505Y0092136D01*
X0044269Y0093737D02*
X0042133Y0093737D01*
X0042667Y0102136D02*
X0043735Y0102136D01*
X0044269Y0102669D01*
X0044269Y0103737D01*
X0043201Y0103737D01*
X0044269Y0104805D02*
X0043735Y0105338D01*
X0042667Y0105338D01*
X0042133Y0104805D01*
X0042133Y0102669D01*
X0042667Y0102136D01*
X0045356Y0102136D02*
X0045356Y0105338D01*
X0047491Y0102136D01*
X0047491Y0105338D01*
X0048579Y0105338D02*
X0050180Y0105338D01*
X0050714Y0104805D01*
X0050714Y0102669D01*
X0050180Y0102136D01*
X0048579Y0102136D01*
X0048579Y0105338D01*
X0046483Y0156636D02*
X0045082Y0156636D01*
X0044732Y0156986D01*
X0044732Y0157686D01*
X0045082Y0158037D01*
X0045432Y0158845D02*
X0044732Y0159546D01*
X0046833Y0159546D01*
X0046833Y0158845D02*
X0046833Y0160247D01*
X0046483Y0161055D02*
X0045082Y0162457D01*
X0046483Y0162457D01*
X0046833Y0162106D01*
X0046833Y0161406D01*
X0046483Y0161055D01*
X0045082Y0161055D01*
X0044732Y0161406D01*
X0044732Y0162106D01*
X0045082Y0162457D01*
X0046483Y0158037D02*
X0046833Y0157686D01*
X0046833Y0156986D01*
X0046483Y0156636D01*
X0041350Y0180636D02*
X0039415Y0180636D01*
X0038931Y0181119D01*
X0038931Y0182087D01*
X0039415Y0182571D01*
X0039415Y0183582D02*
X0039898Y0183582D01*
X0040382Y0184066D01*
X0040382Y0185517D01*
X0039415Y0185517D02*
X0038931Y0185033D01*
X0038931Y0184066D01*
X0039415Y0183582D01*
X0041350Y0183582D02*
X0041833Y0184066D01*
X0041833Y0185033D01*
X0041350Y0185517D01*
X0039415Y0185517D01*
X0041350Y0182571D02*
X0041833Y0182087D01*
X0041833Y0181119D01*
X0041350Y0180636D01*
X0080633Y0181237D02*
X0080633Y0179136D01*
X0080633Y0179836D02*
X0081684Y0179836D01*
X0082035Y0180186D01*
X0082035Y0180887D01*
X0081684Y0181237D01*
X0080633Y0181237D01*
X0081334Y0179836D02*
X0082035Y0179136D01*
X0082843Y0179486D02*
X0083194Y0179136D01*
X0083894Y0179136D01*
X0084244Y0179486D01*
X0084244Y0179836D01*
X0083894Y0180186D01*
X0082843Y0180186D01*
X0082843Y0179486D01*
X0082843Y0180186D02*
X0083544Y0180887D01*
X0084244Y0181237D01*
X0105633Y0223136D02*
X0105633Y0225237D01*
X0106684Y0225237D01*
X0107035Y0224887D01*
X0107035Y0224186D01*
X0106684Y0223836D01*
X0105633Y0223836D01*
X0106334Y0223836D02*
X0107035Y0223136D01*
X0107843Y0223486D02*
X0108194Y0223136D01*
X0108894Y0223136D01*
X0109244Y0223486D01*
X0109244Y0224887D01*
X0108894Y0225237D01*
X0108194Y0225237D01*
X0107843Y0224887D01*
X0107843Y0224537D01*
X0108194Y0224186D01*
X0109244Y0224186D01*
X0078833Y0249636D02*
X0076732Y0249636D01*
X0076732Y0250686D01*
X0077082Y0251037D01*
X0077783Y0251037D01*
X0078133Y0250686D01*
X0078133Y0249636D01*
X0078133Y0250336D02*
X0078833Y0251037D01*
X0078833Y0251845D02*
X0078833Y0253247D01*
X0078833Y0252546D02*
X0076732Y0252546D01*
X0077432Y0251845D01*
X0077082Y0254055D02*
X0076732Y0254406D01*
X0076732Y0255106D01*
X0077082Y0255457D01*
X0078483Y0254055D01*
X0078833Y0254406D01*
X0078833Y0255106D01*
X0078483Y0255457D01*
X0077082Y0255457D01*
X0077082Y0254055D02*
X0078483Y0254055D01*
X0068833Y0254055D02*
X0068833Y0255457D01*
X0068833Y0254756D02*
X0066732Y0254756D01*
X0067432Y0254055D01*
X0068833Y0253247D02*
X0068833Y0251845D01*
X0068833Y0252546D02*
X0066732Y0252546D01*
X0067432Y0251845D01*
X0067082Y0251037D02*
X0067783Y0251037D01*
X0068133Y0250686D01*
X0068133Y0249636D01*
X0068133Y0250336D02*
X0068833Y0251037D01*
X0068833Y0249636D02*
X0066732Y0249636D01*
X0066732Y0250686D01*
X0067082Y0251037D01*
X0058833Y0251037D02*
X0058133Y0250336D01*
X0058133Y0250686D02*
X0058133Y0249636D01*
X0058833Y0249636D02*
X0056732Y0249636D01*
X0056732Y0250686D01*
X0057082Y0251037D01*
X0057783Y0251037D01*
X0058133Y0250686D01*
X0058833Y0251845D02*
X0058833Y0253247D01*
X0058833Y0252546D02*
X0056732Y0252546D01*
X0057432Y0251845D01*
X0057082Y0254055D02*
X0056732Y0254406D01*
X0056732Y0255106D01*
X0057082Y0255457D01*
X0057432Y0255457D01*
X0058833Y0254055D01*
X0058833Y0255457D01*
X0045033Y0242140D02*
X0045033Y0241173D01*
X0044550Y0240689D01*
X0043582Y0240689D02*
X0043098Y0241657D01*
X0043098Y0242140D01*
X0043582Y0242624D01*
X0044550Y0242624D01*
X0045033Y0242140D01*
X0045083Y0241517D02*
X0045083Y0239582D01*
X0043148Y0241517D01*
X0042665Y0241517D01*
X0042181Y0241033D01*
X0042181Y0240066D01*
X0042665Y0239582D01*
X0042615Y0239677D02*
X0043582Y0239677D01*
X0044066Y0239194D01*
X0044066Y0237743D01*
X0044066Y0238710D02*
X0045033Y0239677D01*
X0044600Y0238571D02*
X0042665Y0238571D01*
X0042181Y0238087D01*
X0042181Y0236636D01*
X0045083Y0236636D01*
X0045083Y0238087D01*
X0044600Y0238571D01*
X0045033Y0237743D02*
X0042131Y0237743D01*
X0042131Y0239194D01*
X0042615Y0239677D01*
X0042131Y0240689D02*
X0043582Y0240689D01*
X0042131Y0240689D02*
X0042131Y0242624D01*
X0174465Y0115338D02*
X0174465Y0112136D01*
X0174465Y0113203D02*
X0176067Y0113203D01*
X0176600Y0113737D01*
X0176600Y0114805D01*
X0176067Y0115338D01*
X0174465Y0115338D01*
X0177688Y0115338D02*
X0177688Y0112136D01*
X0178755Y0113203D01*
X0179823Y0112136D01*
X0179823Y0115338D01*
X0180911Y0115338D02*
X0181978Y0114271D01*
X0183046Y0115338D01*
X0183046Y0112136D01*
X0180911Y0112136D02*
X0180911Y0115338D01*
X0182735Y0123136D02*
X0182735Y0126338D01*
X0181133Y0124737D01*
X0183269Y0124737D01*
X0184356Y0123669D02*
X0184356Y0125805D01*
X0184890Y0126338D01*
X0185958Y0126338D01*
X0186491Y0125805D01*
X0184356Y0123669D01*
X0184890Y0123136D01*
X0185958Y0123136D01*
X0186491Y0123669D01*
X0186491Y0125805D01*
X0183046Y0105338D02*
X0181978Y0104271D01*
X0180911Y0105338D01*
X0180911Y0102136D01*
X0179823Y0102136D02*
X0179823Y0105338D01*
X0177688Y0105338D02*
X0177688Y0102136D01*
X0178755Y0103203D01*
X0179823Y0102136D01*
X0176600Y0103737D02*
X0176067Y0103203D01*
X0174465Y0103203D01*
X0174465Y0102136D02*
X0174465Y0105338D01*
X0176067Y0105338D01*
X0176600Y0104805D01*
X0176600Y0103737D01*
X0183046Y0105338D02*
X0183046Y0102136D01*
X0183046Y0095338D02*
X0181978Y0094271D01*
X0180911Y0095338D01*
X0180911Y0092136D01*
X0179823Y0092136D02*
X0179823Y0095338D01*
X0177688Y0095338D02*
X0177688Y0092136D01*
X0178755Y0093203D01*
X0179823Y0092136D01*
X0176600Y0093737D02*
X0176067Y0093203D01*
X0174465Y0093203D01*
X0174465Y0092136D02*
X0174465Y0095338D01*
X0176067Y0095338D01*
X0176600Y0094805D01*
X0176600Y0093737D01*
X0183046Y0095338D02*
X0183046Y0092136D01*
X0183046Y0086338D02*
X0181978Y0085271D01*
X0180911Y0086338D01*
X0180911Y0083136D01*
X0179823Y0083136D02*
X0179823Y0086338D01*
X0177688Y0086338D02*
X0177688Y0083136D01*
X0178755Y0084203D01*
X0179823Y0083136D01*
X0176600Y0084737D02*
X0176067Y0084203D01*
X0174465Y0084203D01*
X0174465Y0083136D02*
X0174465Y0086338D01*
X0176067Y0086338D01*
X0176600Y0085805D01*
X0176600Y0084737D01*
X0183046Y0086338D02*
X0183046Y0083136D01*
X0182512Y0076338D02*
X0183046Y0075805D01*
X0183046Y0074737D01*
X0182512Y0074203D01*
X0180911Y0074203D01*
X0181978Y0074203D02*
X0183046Y0073136D01*
X0180911Y0073136D02*
X0180911Y0076338D01*
X0182512Y0076338D01*
X0179823Y0076338D02*
X0177688Y0076338D01*
X0177688Y0073136D01*
X0179823Y0073136D01*
X0178755Y0074737D02*
X0177688Y0074737D01*
X0176600Y0076338D02*
X0176600Y0073136D01*
X0174465Y0073136D02*
X0174465Y0076338D01*
X0175533Y0075271D01*
X0176600Y0076338D01*
X0173384Y0076338D02*
X0172317Y0076338D01*
X0172850Y0076338D02*
X0172850Y0073136D01*
X0172317Y0073136D02*
X0173384Y0073136D01*
X0170161Y0073136D02*
X0170161Y0076338D01*
X0169094Y0076338D02*
X0171229Y0076338D01*
X0171229Y0066338D02*
X0169094Y0066338D01*
X0170161Y0066338D02*
X0170161Y0063136D01*
X0172317Y0063136D02*
X0173384Y0063136D01*
X0172850Y0063136D02*
X0172850Y0066338D01*
X0172317Y0066338D02*
X0173384Y0066338D01*
X0174465Y0066338D02*
X0175533Y0065271D01*
X0176600Y0066338D01*
X0176600Y0063136D01*
X0177688Y0063136D02*
X0179823Y0063136D01*
X0180911Y0063136D02*
X0180911Y0066338D01*
X0182512Y0066338D01*
X0183046Y0065805D01*
X0183046Y0064737D01*
X0182512Y0064203D01*
X0180911Y0064203D01*
X0181978Y0064203D02*
X0183046Y0063136D01*
X0179823Y0066338D02*
X0177688Y0066338D01*
X0177688Y0063136D01*
X0177688Y0064737D02*
X0178755Y0064737D01*
X0174465Y0063136D02*
X0174465Y0066338D01*
X0173918Y0056338D02*
X0172850Y0056338D01*
X0172317Y0055805D01*
X0172317Y0053669D01*
X0172850Y0053136D01*
X0173918Y0053136D01*
X0174452Y0053669D01*
X0174452Y0054737D01*
X0173384Y0054737D01*
X0174452Y0055805D02*
X0173918Y0056338D01*
X0175539Y0056338D02*
X0175539Y0053136D01*
X0175539Y0054203D02*
X0177141Y0054203D01*
X0177675Y0054737D01*
X0177675Y0055805D01*
X0177141Y0056338D01*
X0175539Y0056338D01*
X0178762Y0056338D02*
X0179830Y0056338D01*
X0179296Y0056338D02*
X0179296Y0053136D01*
X0178762Y0053136D02*
X0179830Y0053136D01*
X0180911Y0053669D02*
X0180911Y0055805D01*
X0181444Y0056338D01*
X0182512Y0056338D01*
X0183046Y0055805D01*
X0183046Y0053669D01*
X0182512Y0053136D01*
X0181444Y0053136D01*
X0180911Y0053669D01*
X0181444Y0046338D02*
X0180911Y0045805D01*
X0180911Y0043669D01*
X0181444Y0043136D01*
X0182512Y0043136D01*
X0183046Y0043669D01*
X0183046Y0045805D01*
X0182512Y0046338D01*
X0181444Y0046338D01*
X0179830Y0046338D02*
X0178762Y0046338D01*
X0179296Y0046338D02*
X0179296Y0043136D01*
X0178762Y0043136D02*
X0179830Y0043136D01*
X0177675Y0044737D02*
X0177141Y0044203D01*
X0175539Y0044203D01*
X0175539Y0043136D02*
X0175539Y0046338D01*
X0177141Y0046338D01*
X0177675Y0045805D01*
X0177675Y0044737D01*
X0174452Y0044737D02*
X0174452Y0043669D01*
X0173918Y0043136D01*
X0172850Y0043136D01*
X0172317Y0043669D01*
X0172317Y0045805D01*
X0172850Y0046338D01*
X0173918Y0046338D01*
X0174452Y0045805D01*
X0174452Y0044737D02*
X0173384Y0044737D01*
X0172850Y0036338D02*
X0172317Y0035805D01*
X0172317Y0033669D01*
X0172850Y0033136D01*
X0173918Y0033136D01*
X0174452Y0033669D01*
X0174452Y0034737D01*
X0173384Y0034737D01*
X0174452Y0035805D02*
X0173918Y0036338D01*
X0172850Y0036338D01*
X0175539Y0036338D02*
X0175539Y0033136D01*
X0175539Y0034203D02*
X0177141Y0034203D01*
X0177675Y0034737D01*
X0177675Y0035805D01*
X0177141Y0036338D01*
X0175539Y0036338D01*
X0178762Y0036338D02*
X0179830Y0036338D01*
X0179296Y0036338D02*
X0179296Y0033136D01*
X0178762Y0033136D02*
X0179830Y0033136D01*
X0180911Y0033669D02*
X0180911Y0035805D01*
X0181444Y0036338D01*
X0182512Y0036338D01*
X0183046Y0035805D01*
X0183046Y0033669D01*
X0182512Y0033136D01*
X0181444Y0033136D01*
X0180911Y0033669D01*
X0181444Y0026338D02*
X0180911Y0025805D01*
X0180911Y0023669D01*
X0181444Y0023136D01*
X0182512Y0023136D01*
X0183046Y0023669D01*
X0183046Y0025805D01*
X0182512Y0026338D01*
X0181444Y0026338D01*
X0179830Y0026338D02*
X0178762Y0026338D01*
X0179296Y0026338D02*
X0179296Y0023136D01*
X0178762Y0023136D02*
X0179830Y0023136D01*
X0177675Y0024737D02*
X0177141Y0024203D01*
X0175539Y0024203D01*
X0175539Y0023136D02*
X0175539Y0026338D01*
X0177141Y0026338D01*
X0177675Y0025805D01*
X0177675Y0024737D01*
X0174452Y0024737D02*
X0174452Y0023669D01*
X0173918Y0023136D01*
X0172850Y0023136D01*
X0172317Y0023669D01*
X0172317Y0025805D01*
X0172850Y0026338D01*
X0173918Y0026338D01*
X0174452Y0025805D01*
X0174452Y0024737D02*
X0173384Y0024737D01*
X0181667Y0015338D02*
X0182735Y0015338D01*
X0183269Y0014805D01*
X0183269Y0014271D01*
X0182735Y0013737D01*
X0183269Y0013203D01*
X0183269Y0012669D01*
X0182735Y0012136D01*
X0181667Y0012136D01*
X0181133Y0012669D01*
X0182201Y0013737D02*
X0182735Y0013737D01*
X0184356Y0014271D02*
X0185424Y0015338D01*
X0185424Y0012136D01*
X0186491Y0012136D02*
X0184356Y0012136D01*
X0181667Y0015338D02*
X0181133Y0014805D01*
X0210688Y0014271D02*
X0211755Y0015338D01*
X0211755Y0012136D01*
X0210688Y0012136D02*
X0212823Y0012136D01*
X0213911Y0012136D02*
X0216046Y0012136D01*
X0214978Y0012136D02*
X0214978Y0015338D01*
X0213911Y0014271D01*
X0213735Y0022136D02*
X0214269Y0022669D01*
X0214269Y0023737D01*
X0213201Y0023737D01*
X0214269Y0024805D02*
X0213735Y0025338D01*
X0212667Y0025338D01*
X0212133Y0024805D01*
X0212133Y0022669D01*
X0212667Y0022136D01*
X0213735Y0022136D01*
X0215356Y0022136D02*
X0215356Y0025338D01*
X0216958Y0025338D01*
X0217491Y0024805D01*
X0217491Y0023737D01*
X0216958Y0023203D01*
X0215356Y0023203D01*
X0218579Y0022136D02*
X0219646Y0022136D01*
X0219113Y0022136D02*
X0219113Y0025338D01*
X0219646Y0025338D02*
X0218579Y0025338D01*
X0220727Y0024805D02*
X0220727Y0022669D01*
X0221261Y0022136D01*
X0222329Y0022136D01*
X0222863Y0022669D01*
X0222863Y0024805D01*
X0222329Y0025338D01*
X0221261Y0025338D01*
X0220727Y0024805D01*
X0216958Y0032136D02*
X0215890Y0032136D01*
X0215356Y0032669D01*
X0214269Y0032669D02*
X0213735Y0032136D01*
X0212667Y0032136D01*
X0212133Y0032669D01*
X0212133Y0034805D01*
X0212667Y0035338D01*
X0213735Y0035338D01*
X0214269Y0034805D01*
X0215356Y0034805D02*
X0215356Y0034271D01*
X0215890Y0033737D01*
X0216958Y0033737D01*
X0217491Y0033203D01*
X0217491Y0032669D01*
X0216958Y0032136D01*
X0217491Y0034805D02*
X0216958Y0035338D01*
X0215890Y0035338D01*
X0215356Y0034805D01*
X0215890Y0042136D02*
X0215356Y0042669D01*
X0215890Y0042136D02*
X0216958Y0042136D01*
X0217491Y0042669D01*
X0217491Y0043203D01*
X0216958Y0043737D01*
X0215890Y0043737D01*
X0215356Y0044271D01*
X0215356Y0044805D01*
X0215890Y0045338D01*
X0216958Y0045338D01*
X0217491Y0044805D01*
X0214269Y0044805D02*
X0213735Y0045338D01*
X0212667Y0045338D01*
X0212133Y0044805D01*
X0212133Y0042669D01*
X0212667Y0042136D01*
X0213735Y0042136D01*
X0214269Y0042669D01*
X0214269Y0052136D02*
X0214269Y0055338D01*
X0213201Y0054271D01*
X0212133Y0055338D01*
X0212133Y0052136D01*
X0215356Y0052136D02*
X0216424Y0052136D01*
X0215890Y0052136D02*
X0215890Y0055338D01*
X0215356Y0055338D02*
X0216424Y0055338D01*
X0217505Y0054805D02*
X0217505Y0054271D01*
X0218038Y0053737D01*
X0219106Y0053737D01*
X0219640Y0053203D01*
X0219640Y0052669D01*
X0219106Y0052136D01*
X0218038Y0052136D01*
X0217505Y0052669D01*
X0217505Y0054805D02*
X0218038Y0055338D01*
X0219106Y0055338D01*
X0219640Y0054805D01*
X0220727Y0054805D02*
X0220727Y0052669D01*
X0221261Y0052136D01*
X0222329Y0052136D01*
X0222863Y0052669D01*
X0222863Y0054805D01*
X0222329Y0055338D01*
X0221261Y0055338D01*
X0220727Y0054805D01*
X0220180Y0062136D02*
X0219113Y0062136D01*
X0218579Y0062669D01*
X0217491Y0062669D02*
X0217491Y0064805D01*
X0216958Y0065338D01*
X0215890Y0065338D01*
X0215356Y0064805D01*
X0215356Y0062669D01*
X0215890Y0062136D01*
X0216958Y0062136D01*
X0217491Y0062669D01*
X0218579Y0064271D02*
X0219113Y0063737D01*
X0220180Y0063737D01*
X0220714Y0063203D01*
X0220714Y0062669D01*
X0220180Y0062136D01*
X0221802Y0062136D02*
X0222869Y0062136D01*
X0222335Y0062136D02*
X0222335Y0065338D01*
X0221802Y0065338D02*
X0222869Y0065338D01*
X0220714Y0064805D02*
X0220180Y0065338D01*
X0219113Y0065338D01*
X0218579Y0064805D01*
X0218579Y0064271D01*
X0214269Y0065338D02*
X0214269Y0062136D01*
X0212133Y0062136D02*
X0212133Y0065338D01*
X0213201Y0064271D01*
X0214269Y0065338D01*
X0214269Y0072136D02*
X0213201Y0073203D01*
X0213735Y0073203D02*
X0212133Y0073203D01*
X0212133Y0072136D02*
X0212133Y0075338D01*
X0213735Y0075338D01*
X0214269Y0074805D01*
X0214269Y0073737D01*
X0213735Y0073203D01*
X0215356Y0072669D02*
X0215890Y0072136D01*
X0216958Y0072136D01*
X0217491Y0072669D01*
X0217491Y0073203D01*
X0216958Y0073737D01*
X0215890Y0073737D01*
X0215356Y0074271D01*
X0215356Y0074805D01*
X0215890Y0075338D01*
X0216958Y0075338D01*
X0217491Y0074805D01*
X0218579Y0075338D02*
X0220714Y0075338D01*
X0219646Y0075338D02*
X0219646Y0072136D01*
X0219646Y0082136D02*
X0218579Y0082136D01*
X0219113Y0082136D02*
X0219113Y0085338D01*
X0219646Y0085338D02*
X0218579Y0085338D01*
X0217491Y0084805D02*
X0217491Y0083737D01*
X0216958Y0083203D01*
X0215356Y0083203D01*
X0215356Y0082136D02*
X0215356Y0085338D01*
X0216958Y0085338D01*
X0217491Y0084805D01*
X0220727Y0084805D02*
X0220727Y0082669D01*
X0221261Y0082136D01*
X0222329Y0082136D01*
X0222863Y0082669D01*
X0222863Y0084805D01*
X0222329Y0085338D01*
X0221261Y0085338D01*
X0220727Y0084805D01*
X0216958Y0092136D02*
X0215890Y0092136D01*
X0215356Y0092669D01*
X0214269Y0092669D02*
X0213735Y0092136D01*
X0212667Y0092136D01*
X0212133Y0092669D01*
X0212133Y0094805D01*
X0212667Y0095338D01*
X0213735Y0095338D01*
X0214269Y0094805D01*
X0215356Y0094805D02*
X0215356Y0094271D01*
X0215890Y0093737D01*
X0216958Y0093737D01*
X0217491Y0093203D01*
X0217491Y0092669D01*
X0216958Y0092136D01*
X0217491Y0094805D02*
X0216958Y0095338D01*
X0215890Y0095338D01*
X0215356Y0094805D01*
X0215356Y0102136D02*
X0216424Y0103203D01*
X0217491Y0102136D01*
X0217491Y0105338D01*
X0218579Y0105338D02*
X0219646Y0104271D01*
X0220714Y0105338D01*
X0220714Y0102136D01*
X0218579Y0102136D02*
X0218579Y0105338D01*
X0215356Y0105338D02*
X0215356Y0102136D01*
X0214269Y0103737D02*
X0213735Y0103203D01*
X0212133Y0103203D01*
X0212133Y0102136D02*
X0212133Y0105338D01*
X0213735Y0105338D01*
X0214269Y0104805D01*
X0214269Y0103737D01*
X0213735Y0112136D02*
X0214269Y0112669D01*
X0214269Y0113737D01*
X0213201Y0113737D01*
X0214269Y0114805D02*
X0213735Y0115338D01*
X0212667Y0115338D01*
X0212133Y0114805D01*
X0212133Y0112669D01*
X0212667Y0112136D01*
X0213735Y0112136D01*
X0215356Y0112136D02*
X0215356Y0115338D01*
X0217491Y0112136D01*
X0217491Y0115338D01*
X0218579Y0115338D02*
X0220180Y0115338D01*
X0220714Y0114805D01*
X0220714Y0112669D01*
X0220180Y0112136D01*
X0218579Y0112136D01*
X0218579Y0115338D01*
X0215512Y0123136D02*
X0214444Y0123136D01*
X0213911Y0123669D01*
X0216046Y0125805D01*
X0216046Y0123669D01*
X0215512Y0123136D01*
X0213911Y0123669D02*
X0213911Y0125805D01*
X0214444Y0126338D01*
X0215512Y0126338D01*
X0216046Y0125805D01*
X0212823Y0125805D02*
X0212823Y0125271D01*
X0210688Y0123136D01*
X0212823Y0123136D01*
X0212823Y0125805D02*
X0212289Y0126338D01*
X0211222Y0126338D01*
X0210688Y0125805D01*
X0212667Y0085338D02*
X0212133Y0084805D01*
X0212133Y0082669D01*
X0212667Y0082136D01*
X0213735Y0082136D01*
X0214269Y0082669D01*
X0214269Y0083737D01*
X0213201Y0083737D01*
X0214269Y0084805D02*
X0213735Y0085338D01*
X0212667Y0085338D01*
D17*
X0146561Y0052687D02*
X0146311Y0052937D01*
X0145810Y0052937D01*
X0145560Y0052687D01*
X0145088Y0052687D02*
X0144838Y0052937D01*
X0144337Y0052937D01*
X0144087Y0052687D01*
X0144087Y0051686D01*
X0144337Y0051436D01*
X0144838Y0051436D01*
X0145088Y0051686D01*
X0145560Y0051436D02*
X0146561Y0052436D01*
X0146561Y0052687D01*
X0146561Y0051436D02*
X0145560Y0051436D01*
X0143605Y0051436D02*
X0143105Y0051436D01*
X0143355Y0051436D02*
X0143355Y0052937D01*
X0143105Y0052937D02*
X0143605Y0052937D01*
X0125061Y0122686D02*
X0124060Y0122686D01*
X0124060Y0124187D01*
X0125061Y0124187D01*
X0124561Y0123436D02*
X0124060Y0123436D01*
X0123588Y0122936D02*
X0123588Y0124187D01*
X0122587Y0124187D02*
X0122587Y0122936D01*
X0122837Y0122686D01*
X0123338Y0122686D01*
X0123588Y0122936D01*
X0122114Y0122686D02*
X0121114Y0122686D01*
X0121114Y0124187D01*
X0120641Y0123937D02*
X0120641Y0123686D01*
X0120391Y0123436D01*
X0119640Y0123436D01*
X0119640Y0122686D02*
X0119640Y0124187D01*
X0120391Y0124187D01*
X0120641Y0123937D01*
X0120391Y0123436D02*
X0120641Y0123186D01*
X0120641Y0122936D01*
X0120391Y0122686D01*
X0119640Y0122686D01*
X0119640Y0133686D02*
X0120641Y0133686D01*
X0121114Y0133686D02*
X0122114Y0133686D01*
X0122587Y0133936D02*
X0122837Y0133686D01*
X0123338Y0133686D01*
X0123588Y0133936D01*
X0123588Y0134937D01*
X0123338Y0135187D01*
X0122837Y0135187D01*
X0122587Y0134937D01*
X0122587Y0133936D01*
X0124060Y0133686D02*
X0124060Y0135187D01*
X0125061Y0135187D02*
X0125061Y0133686D01*
X0124561Y0134186D01*
X0124060Y0133686D01*
X0121114Y0133686D02*
X0121114Y0135187D01*
X0119640Y0135187D02*
X0119640Y0133686D01*
X0119168Y0133686D02*
X0118167Y0133686D01*
X0118167Y0135187D01*
X0119168Y0135187D01*
X0118668Y0134436D02*
X0118167Y0134436D01*
X0117695Y0134937D02*
X0117695Y0135187D01*
X0117695Y0134937D02*
X0117194Y0134436D01*
X0117194Y0133686D01*
X0117194Y0134436D02*
X0116694Y0134937D01*
X0116694Y0135187D01*
X0072533Y0162107D02*
X0072533Y0162607D01*
X0072533Y0162357D02*
X0071032Y0162357D01*
X0071032Y0162107D02*
X0071032Y0162607D01*
X0071282Y0163089D02*
X0072283Y0163089D01*
X0072533Y0163339D01*
X0072533Y0163840D01*
X0072283Y0164090D01*
X0071783Y0164562D02*
X0071783Y0165563D01*
X0072533Y0165313D02*
X0071032Y0165313D01*
X0071783Y0164562D01*
X0071282Y0164090D02*
X0071032Y0163840D01*
X0071032Y0163339D01*
X0071282Y0163089D01*
X0139533Y0244036D02*
X0139533Y0245537D01*
X0140284Y0245537D01*
X0140534Y0245287D01*
X0140534Y0244786D01*
X0140284Y0244536D01*
X0139533Y0244536D01*
X0140034Y0244536D02*
X0140534Y0244036D01*
X0141007Y0244036D02*
X0142008Y0244036D01*
X0141507Y0244036D02*
X0141507Y0245537D01*
X0141007Y0245036D01*
X0142480Y0245287D02*
X0142730Y0245537D01*
X0143231Y0245537D01*
X0143481Y0245287D01*
X0143481Y0245036D01*
X0143231Y0244786D01*
X0143481Y0244536D01*
X0143481Y0244286D01*
X0143231Y0244036D01*
X0142730Y0244036D01*
X0142480Y0244286D01*
X0142980Y0244786D02*
X0143231Y0244786D01*
X0143587Y0247436D02*
X0144588Y0247436D01*
X0144087Y0247436D02*
X0144087Y0248937D01*
X0143587Y0248436D01*
X0143114Y0248687D02*
X0142864Y0248937D01*
X0142364Y0248937D01*
X0142114Y0248687D01*
X0142114Y0247686D01*
X0142364Y0247436D01*
X0142864Y0247436D01*
X0143114Y0247686D01*
X0145060Y0247686D02*
X0145310Y0247436D01*
X0145811Y0247436D01*
X0146061Y0247686D01*
X0146061Y0247936D01*
X0145811Y0248186D01*
X0145060Y0248186D01*
X0145060Y0247686D01*
X0145060Y0248186D02*
X0145561Y0248687D01*
X0146061Y0248937D01*
X0157282Y0197563D02*
X0157533Y0197563D01*
X0157783Y0197313D01*
X0158033Y0197563D01*
X0158283Y0197563D01*
X0158533Y0197313D01*
X0158533Y0196812D01*
X0158283Y0196562D01*
X0158283Y0196090D02*
X0158533Y0195840D01*
X0158533Y0195339D01*
X0158283Y0195089D01*
X0157282Y0195089D01*
X0157032Y0195339D01*
X0157032Y0195840D01*
X0157282Y0196090D01*
X0157282Y0196562D02*
X0157032Y0196812D01*
X0157032Y0197313D01*
X0157282Y0197563D01*
X0157783Y0197313D02*
X0157783Y0197063D01*
X0158533Y0194607D02*
X0158533Y0194107D01*
X0158533Y0194357D02*
X0157032Y0194357D01*
X0157032Y0194107D02*
X0157032Y0194607D01*
D18*
X0142983Y0251865D02*
X0142983Y0252106D01*
X0050103Y0159986D02*
X0049863Y0159986D01*
X0045103Y0183986D02*
X0044863Y0183986D01*
D19*
X0042783Y0163844D02*
X0042783Y0162376D01*
X0042783Y0163110D02*
X0040582Y0163110D01*
X0041316Y0162376D01*
X0040949Y0161634D02*
X0040582Y0161267D01*
X0040582Y0160533D01*
X0040949Y0160166D01*
X0041316Y0160166D01*
X0041682Y0160533D01*
X0041682Y0161267D01*
X0042049Y0161634D01*
X0042416Y0161634D01*
X0042783Y0161267D01*
X0042783Y0160533D01*
X0042416Y0160166D01*
X0041682Y0159424D02*
X0042049Y0159057D01*
X0042049Y0157956D01*
X0042783Y0157956D02*
X0040582Y0157956D01*
X0040582Y0159057D01*
X0040949Y0159424D01*
X0041682Y0159424D01*
X0021971Y0153686D02*
X0020503Y0153686D01*
X0021604Y0154787D01*
X0021604Y0152586D01*
X0019761Y0153686D02*
X0019394Y0153320D01*
X0018293Y0153320D01*
X0018293Y0152586D02*
X0018293Y0154787D01*
X0019394Y0154787D01*
X0019761Y0154420D01*
X0019761Y0153686D01*
X0017551Y0154787D02*
X0016083Y0154787D01*
X0016817Y0154787D02*
X0016817Y0152586D01*
X0061762Y0229906D02*
X0061762Y0232108D01*
X0060661Y0231007D01*
X0062129Y0231007D01*
X0070661Y0231741D02*
X0071028Y0232108D01*
X0071762Y0232108D01*
X0072129Y0231741D01*
X0072129Y0231374D01*
X0071762Y0231007D01*
X0072129Y0230640D01*
X0072129Y0230273D01*
X0071762Y0229906D01*
X0071028Y0229906D01*
X0070661Y0230273D01*
X0071395Y0231007D02*
X0071762Y0231007D01*
X0080661Y0231741D02*
X0081028Y0232108D01*
X0081762Y0232108D01*
X0082129Y0231741D01*
X0082129Y0231374D01*
X0080661Y0229906D01*
X0082129Y0229906D01*
X0090661Y0229906D02*
X0092129Y0229906D01*
X0091395Y0229906D02*
X0091395Y0232108D01*
X0090661Y0231374D01*
X0104617Y0247572D02*
X0104617Y0250033D01*
X0102649Y0250033D01*
X0107078Y0250033D02*
X0107078Y0248064D01*
X0109046Y0248064D02*
X0109046Y0250033D01*
X0107078Y0250033D01*
X0111999Y0250033D02*
X0111999Y0248064D01*
X0113968Y0248064D02*
X0113968Y0250033D01*
X0111999Y0250033D01*
X0116920Y0250033D02*
X0116920Y0248064D01*
X0116920Y0250033D02*
X0118889Y0250033D01*
X0118889Y0248064D01*
X0121350Y0247572D02*
X0121350Y0250033D01*
X0123318Y0250033D01*
X0120365Y0256923D02*
X0120365Y0259383D01*
X0121350Y0259383D01*
X0121350Y0261844D01*
X0122826Y0263320D01*
X0121350Y0261844D02*
X0104617Y0261844D01*
X0103141Y0263320D01*
X0104617Y0261844D02*
X0104617Y0259383D01*
X0105602Y0259383D01*
X0105602Y0256923D01*
X0120365Y0256923D01*
X0121350Y0259383D02*
X0123318Y0259383D01*
X0104617Y0259383D02*
X0102649Y0259383D01*
X0093310Y0211931D02*
X0093310Y0209729D01*
X0091842Y0211931D01*
X0091842Y0209729D01*
X0091100Y0210096D02*
X0091100Y0211564D01*
X0090733Y0211931D01*
X0089999Y0211931D01*
X0089632Y0211564D01*
X0089632Y0210096D01*
X0089999Y0209729D01*
X0090733Y0209729D01*
X0091100Y0210096D01*
X0034857Y0250033D02*
X0032889Y0250033D01*
X0032889Y0247572D01*
X0030428Y0248064D02*
X0030428Y0250033D01*
X0028460Y0250033D01*
X0028460Y0248064D01*
X0025507Y0248064D02*
X0025507Y0250033D01*
X0023539Y0250033D01*
X0023539Y0248064D01*
X0021078Y0247572D02*
X0021078Y0250033D01*
X0019109Y0250033D01*
X0015971Y0249420D02*
X0015971Y0249053D01*
X0015604Y0248686D01*
X0015971Y0248320D01*
X0015971Y0247953D01*
X0015604Y0247586D01*
X0014870Y0247586D01*
X0014503Y0247953D01*
X0015237Y0248686D02*
X0015604Y0248686D01*
X0015971Y0249420D02*
X0015604Y0249787D01*
X0014870Y0249787D01*
X0014503Y0249420D01*
X0013761Y0249420D02*
X0013761Y0248686D01*
X0013394Y0248320D01*
X0012293Y0248320D01*
X0012293Y0247586D02*
X0012293Y0249787D01*
X0013394Y0249787D01*
X0013761Y0249420D01*
X0011551Y0249787D02*
X0010083Y0249787D01*
X0010817Y0249787D02*
X0010817Y0247586D01*
X0019109Y0259383D02*
X0021078Y0259383D01*
X0021078Y0261844D01*
X0019602Y0263320D01*
X0021078Y0261844D02*
X0032889Y0261844D01*
X0034365Y0263320D01*
X0032889Y0261844D02*
X0032889Y0259383D01*
X0034857Y0259383D01*
X0032889Y0259383D02*
X0031905Y0259383D01*
X0031905Y0256923D01*
X0022062Y0256923D01*
X0022062Y0259383D01*
X0021078Y0259383D01*
X0195570Y0151352D02*
X0198031Y0151352D01*
X0198031Y0153320D01*
X0198031Y0148891D02*
X0196062Y0148891D01*
X0196062Y0146923D02*
X0198031Y0146923D01*
X0198031Y0148891D01*
X0198031Y0143970D02*
X0196062Y0143970D01*
X0198031Y0143970D02*
X0198031Y0142001D01*
X0196062Y0142001D01*
X0196062Y0139049D02*
X0198031Y0139049D01*
X0198031Y0137080D01*
X0196062Y0137080D01*
X0195570Y0134619D02*
X0198031Y0134619D01*
X0198031Y0132651D01*
X0204920Y0135604D02*
X0207381Y0135604D01*
X0207381Y0134619D01*
X0209842Y0134619D01*
X0211318Y0133143D01*
X0209842Y0134619D02*
X0209842Y0151352D01*
X0211318Y0152828D01*
X0209842Y0151352D02*
X0207381Y0151352D01*
X0207381Y0150367D01*
X0204920Y0150367D01*
X0204920Y0135604D01*
X0207381Y0134619D02*
X0207381Y0132651D01*
X0207381Y0151352D02*
X0207381Y0153320D01*
X0081779Y0021938D02*
X0079810Y0021938D01*
X0079810Y0024399D01*
X0077350Y0023907D02*
X0077350Y0021938D01*
X0075381Y0021938D01*
X0075381Y0023907D01*
X0072428Y0023907D02*
X0072428Y0021938D01*
X0070460Y0021938D01*
X0070460Y0023907D01*
X0067507Y0023907D02*
X0067507Y0021938D01*
X0065539Y0021938D01*
X0065539Y0023907D01*
X0062586Y0023907D02*
X0062586Y0021938D01*
X0060617Y0021938D01*
X0060617Y0023907D01*
X0058157Y0024399D02*
X0058157Y0021938D01*
X0056188Y0021938D01*
X0059141Y0015049D02*
X0059141Y0012588D01*
X0058157Y0012588D01*
X0058157Y0010127D01*
X0056680Y0008651D01*
X0058157Y0010127D02*
X0079810Y0010127D01*
X0081287Y0008651D01*
X0079810Y0010127D02*
X0079810Y0012588D01*
X0078826Y0012588D01*
X0078826Y0015049D01*
X0059141Y0015049D01*
X0058157Y0012588D02*
X0056188Y0012588D01*
X0079810Y0012588D02*
X0081779Y0012588D01*
D20*
X0025983Y0128986D03*
X0038983Y0239986D03*
X0061983Y0252986D03*
X0071983Y0252986D03*
X0081983Y0252986D03*
D21*
X0108062Y0258645D03*
X0112983Y0258645D03*
X0117905Y0258645D03*
X0029444Y0258645D03*
X0024523Y0258645D03*
X0061602Y0013326D03*
X0066523Y0013326D03*
X0071444Y0013326D03*
X0076365Y0013326D03*
D22*
X0206643Y0138064D03*
X0206643Y0142986D03*
X0206643Y0147907D03*
D23*
X0142983Y0240986D03*
X0108983Y0219986D03*
X0083983Y0175986D03*
D24*
X0081983Y0225907D03*
X0091983Y0225907D03*
X0071983Y0225907D03*
X0061983Y0225907D03*
M02*
