G75*
%MOIN*%
%OFA0B0*%
%FSLAX25Y25*%
%IPPOS*%
%LPD*%
%AMOC8*
5,1,8,0,0,1.08239X$1,22.5*
%
%ADD10C,0.00000*%
%ADD11C,0.00512*%
%ADD12C,0.00600*%
%ADD13C,0.08000*%
%ADD14R,0.07400X0.07400*%
%ADD15C,0.07400*%
%ADD16R,0.03962X0.03962*%
%ADD17C,0.01600*%
D10*
X0019595Y0008986D02*
X0019595Y0140946D01*
X0114296Y0140946D01*
X0114296Y0008986D01*
X0019595Y0008986D01*
D11*
X0012595Y0008986D02*
X0012595Y0008986D01*
X0012595Y0009241D02*
X0013619Y0019222D01*
X0013852Y0019222D02*
X0012595Y0009241D01*
X0011572Y0019222D01*
X0011338Y0019222D02*
X0013852Y0019222D01*
X0013107Y0019222D02*
X0012595Y0009241D01*
X0012083Y0019222D01*
X0011338Y0019222D02*
X0012595Y0009241D01*
X0012595Y0140730D01*
X0013619Y0130749D01*
X0013852Y0130749D02*
X0012595Y0140730D01*
X0011572Y0130749D01*
X0011338Y0130749D02*
X0013852Y0130749D01*
X0013107Y0130749D02*
X0012595Y0140730D01*
X0012083Y0130749D01*
X0011338Y0130749D02*
X0012595Y0140730D01*
X0012595Y0140986D02*
X0012595Y0140986D01*
X0019595Y0143986D02*
X0019595Y0159663D01*
X0019851Y0151986D02*
X0029831Y0150962D01*
X0029831Y0150729D02*
X0019851Y0151986D01*
X0029831Y0153009D01*
X0029831Y0153242D02*
X0029831Y0150729D01*
X0029831Y0151474D02*
X0019851Y0151986D01*
X0029831Y0152497D01*
X0029831Y0153242D02*
X0019851Y0151986D01*
X0114339Y0151986D01*
X0104359Y0150962D01*
X0104359Y0150729D02*
X0114339Y0151986D01*
X0104359Y0153009D01*
X0104359Y0153242D02*
X0104359Y0150729D01*
X0104359Y0151474D02*
X0114339Y0151986D01*
X0104359Y0152497D01*
X0104359Y0153242D02*
X0114339Y0151986D01*
X0114595Y0159663D02*
X0114595Y0143986D01*
D12*
X0081750Y0155615D02*
X0080682Y0154547D01*
X0078547Y0154547D01*
X0077479Y0155615D01*
X0075304Y0154547D02*
X0071034Y0154547D01*
X0073169Y0154547D02*
X0073169Y0160953D01*
X0071034Y0158818D01*
X0068879Y0155615D02*
X0068879Y0154547D01*
X0067811Y0154547D01*
X0067811Y0155615D01*
X0068879Y0155615D01*
X0065636Y0157750D02*
X0061366Y0157750D01*
X0064568Y0160953D01*
X0064568Y0154547D01*
X0059190Y0154547D02*
X0054920Y0154547D01*
X0059190Y0158818D01*
X0059190Y0159885D01*
X0058123Y0160953D01*
X0055988Y0160953D01*
X0054920Y0159885D01*
X0077479Y0159885D02*
X0078547Y0160953D01*
X0080682Y0160953D01*
X0081750Y0159885D01*
X0081750Y0158818D01*
X0080682Y0157750D01*
X0081750Y0156683D01*
X0081750Y0155615D01*
X0080682Y0157750D02*
X0079614Y0157750D01*
X0010033Y0088572D02*
X0010033Y0086437D01*
X0008966Y0085370D01*
X0008966Y0083194D02*
X0010033Y0082127D01*
X0010033Y0079992D01*
X0008966Y0078924D01*
X0008966Y0076769D02*
X0010033Y0076769D01*
X0010033Y0075701D01*
X0008966Y0075701D01*
X0008966Y0076769D01*
X0006831Y0078924D02*
X0005763Y0081059D01*
X0005763Y0082127D01*
X0006831Y0083194D01*
X0008966Y0083194D01*
X0006831Y0078924D02*
X0003628Y0078924D01*
X0003628Y0083194D01*
X0004695Y0085370D02*
X0003628Y0086437D01*
X0003628Y0088572D01*
X0004695Y0089640D01*
X0005763Y0089640D01*
X0006831Y0088572D01*
X0007898Y0089640D01*
X0008966Y0089640D01*
X0010033Y0088572D01*
X0006831Y0088572D02*
X0006831Y0087505D01*
X0007898Y0073526D02*
X0006831Y0072459D01*
X0006831Y0071391D01*
X0006831Y0072459D02*
X0005763Y0073526D01*
X0004695Y0073526D01*
X0003628Y0072459D01*
X0003628Y0070323D01*
X0004695Y0069256D01*
X0004695Y0067081D02*
X0003628Y0066013D01*
X0003628Y0063878D01*
X0004695Y0062810D01*
X0006831Y0064946D02*
X0006831Y0066013D01*
X0007898Y0067081D01*
X0008966Y0067081D01*
X0010033Y0066013D01*
X0010033Y0063878D01*
X0008966Y0062810D01*
X0006831Y0066013D02*
X0005763Y0067081D01*
X0004695Y0067081D01*
X0008966Y0069256D02*
X0010033Y0070323D01*
X0010033Y0072459D01*
X0008966Y0073526D01*
X0007898Y0073526D01*
D13*
X0036095Y0039986D03*
X0047095Y0039986D03*
D14*
X0093654Y0018986D03*
X0094654Y0110986D03*
D15*
X0094654Y0120986D03*
X0094654Y0130986D03*
X0093654Y0038986D03*
X0093654Y0028986D03*
D16*
X0077595Y0070986D03*
D17*
X0077595Y0093927D01*
X0094654Y0110986D01*
M02*
