G75*
%MOIN*%
%OFA0B0*%
%FSLAX25Y25*%
%IPPOS*%
%LPD*%
%AMOC8*
5,1,8,0,0,1.08239X$1,22.5*
%
%ADD10C,0.00000*%
%ADD11C,0.00400*%
%ADD12C,0.00600*%
%ADD13C,0.00800*%
%ADD14C,0.00500*%
%ADD15R,0.00787X0.00787*%
%ADD16C,0.00900*%
%ADD17C,0.00300*%
D10*
X0036217Y0028618D02*
X0036217Y0233579D01*
X0339918Y0233579D01*
X0339918Y0028618D01*
X0036217Y0028618D01*
X0287989Y0169957D02*
X0339367Y0169957D01*
X0339367Y0259720D01*
X0287989Y0259720D01*
X0287989Y0169957D01*
X0307792Y0225862D02*
X0307794Y0226015D01*
X0307800Y0226169D01*
X0307810Y0226322D01*
X0307824Y0226474D01*
X0307842Y0226627D01*
X0307864Y0226778D01*
X0307889Y0226929D01*
X0307919Y0227080D01*
X0307953Y0227230D01*
X0307990Y0227378D01*
X0308031Y0227526D01*
X0308076Y0227672D01*
X0308125Y0227818D01*
X0308178Y0227962D01*
X0308234Y0228104D01*
X0308294Y0228245D01*
X0308358Y0228385D01*
X0308425Y0228523D01*
X0308496Y0228659D01*
X0308571Y0228793D01*
X0308648Y0228925D01*
X0308730Y0229055D01*
X0308814Y0229183D01*
X0308902Y0229309D01*
X0308993Y0229432D01*
X0309087Y0229553D01*
X0309185Y0229671D01*
X0309285Y0229787D01*
X0309389Y0229900D01*
X0309495Y0230011D01*
X0309604Y0230119D01*
X0309716Y0230224D01*
X0309830Y0230325D01*
X0309948Y0230424D01*
X0310067Y0230520D01*
X0310189Y0230613D01*
X0310314Y0230702D01*
X0310441Y0230789D01*
X0310570Y0230871D01*
X0310701Y0230951D01*
X0310834Y0231027D01*
X0310969Y0231100D01*
X0311106Y0231169D01*
X0311245Y0231234D01*
X0311385Y0231296D01*
X0311527Y0231354D01*
X0311670Y0231409D01*
X0311815Y0231460D01*
X0311961Y0231507D01*
X0312108Y0231550D01*
X0312256Y0231589D01*
X0312405Y0231625D01*
X0312555Y0231656D01*
X0312706Y0231684D01*
X0312857Y0231708D01*
X0313010Y0231728D01*
X0313162Y0231744D01*
X0313315Y0231756D01*
X0313468Y0231764D01*
X0313621Y0231768D01*
X0313775Y0231768D01*
X0313928Y0231764D01*
X0314081Y0231756D01*
X0314234Y0231744D01*
X0314386Y0231728D01*
X0314539Y0231708D01*
X0314690Y0231684D01*
X0314841Y0231656D01*
X0314991Y0231625D01*
X0315140Y0231589D01*
X0315288Y0231550D01*
X0315435Y0231507D01*
X0315581Y0231460D01*
X0315726Y0231409D01*
X0315869Y0231354D01*
X0316011Y0231296D01*
X0316151Y0231234D01*
X0316290Y0231169D01*
X0316427Y0231100D01*
X0316562Y0231027D01*
X0316695Y0230951D01*
X0316826Y0230871D01*
X0316955Y0230789D01*
X0317082Y0230702D01*
X0317207Y0230613D01*
X0317329Y0230520D01*
X0317448Y0230424D01*
X0317566Y0230325D01*
X0317680Y0230224D01*
X0317792Y0230119D01*
X0317901Y0230011D01*
X0318007Y0229900D01*
X0318111Y0229787D01*
X0318211Y0229671D01*
X0318309Y0229553D01*
X0318403Y0229432D01*
X0318494Y0229309D01*
X0318582Y0229183D01*
X0318666Y0229055D01*
X0318748Y0228925D01*
X0318825Y0228793D01*
X0318900Y0228659D01*
X0318971Y0228523D01*
X0319038Y0228385D01*
X0319102Y0228245D01*
X0319162Y0228104D01*
X0319218Y0227962D01*
X0319271Y0227818D01*
X0319320Y0227672D01*
X0319365Y0227526D01*
X0319406Y0227378D01*
X0319443Y0227230D01*
X0319477Y0227080D01*
X0319507Y0226929D01*
X0319532Y0226778D01*
X0319554Y0226627D01*
X0319572Y0226474D01*
X0319586Y0226322D01*
X0319596Y0226169D01*
X0319602Y0226015D01*
X0319604Y0225862D01*
X0319602Y0225709D01*
X0319596Y0225555D01*
X0319586Y0225402D01*
X0319572Y0225250D01*
X0319554Y0225097D01*
X0319532Y0224946D01*
X0319507Y0224795D01*
X0319477Y0224644D01*
X0319443Y0224494D01*
X0319406Y0224346D01*
X0319365Y0224198D01*
X0319320Y0224052D01*
X0319271Y0223906D01*
X0319218Y0223762D01*
X0319162Y0223620D01*
X0319102Y0223479D01*
X0319038Y0223339D01*
X0318971Y0223201D01*
X0318900Y0223065D01*
X0318825Y0222931D01*
X0318748Y0222799D01*
X0318666Y0222669D01*
X0318582Y0222541D01*
X0318494Y0222415D01*
X0318403Y0222292D01*
X0318309Y0222171D01*
X0318211Y0222053D01*
X0318111Y0221937D01*
X0318007Y0221824D01*
X0317901Y0221713D01*
X0317792Y0221605D01*
X0317680Y0221500D01*
X0317566Y0221399D01*
X0317448Y0221300D01*
X0317329Y0221204D01*
X0317207Y0221111D01*
X0317082Y0221022D01*
X0316955Y0220935D01*
X0316826Y0220853D01*
X0316695Y0220773D01*
X0316562Y0220697D01*
X0316427Y0220624D01*
X0316290Y0220555D01*
X0316151Y0220490D01*
X0316011Y0220428D01*
X0315869Y0220370D01*
X0315726Y0220315D01*
X0315581Y0220264D01*
X0315435Y0220217D01*
X0315288Y0220174D01*
X0315140Y0220135D01*
X0314991Y0220099D01*
X0314841Y0220068D01*
X0314690Y0220040D01*
X0314539Y0220016D01*
X0314386Y0219996D01*
X0314234Y0219980D01*
X0314081Y0219968D01*
X0313928Y0219960D01*
X0313775Y0219956D01*
X0313621Y0219956D01*
X0313468Y0219960D01*
X0313315Y0219968D01*
X0313162Y0219980D01*
X0313010Y0219996D01*
X0312857Y0220016D01*
X0312706Y0220040D01*
X0312555Y0220068D01*
X0312405Y0220099D01*
X0312256Y0220135D01*
X0312108Y0220174D01*
X0311961Y0220217D01*
X0311815Y0220264D01*
X0311670Y0220315D01*
X0311527Y0220370D01*
X0311385Y0220428D01*
X0311245Y0220490D01*
X0311106Y0220555D01*
X0310969Y0220624D01*
X0310834Y0220697D01*
X0310701Y0220773D01*
X0310570Y0220853D01*
X0310441Y0220935D01*
X0310314Y0221022D01*
X0310189Y0221111D01*
X0310067Y0221204D01*
X0309948Y0221300D01*
X0309830Y0221399D01*
X0309716Y0221500D01*
X0309604Y0221605D01*
X0309495Y0221713D01*
X0309389Y0221824D01*
X0309285Y0221937D01*
X0309185Y0222053D01*
X0309087Y0222171D01*
X0308993Y0222292D01*
X0308902Y0222415D01*
X0308814Y0222541D01*
X0308730Y0222669D01*
X0308648Y0222799D01*
X0308571Y0222931D01*
X0308496Y0223065D01*
X0308425Y0223201D01*
X0308358Y0223339D01*
X0308294Y0223479D01*
X0308234Y0223620D01*
X0308178Y0223762D01*
X0308125Y0223906D01*
X0308076Y0224052D01*
X0308031Y0224198D01*
X0307990Y0224346D01*
X0307953Y0224494D01*
X0307919Y0224644D01*
X0307889Y0224795D01*
X0307864Y0224946D01*
X0307842Y0225097D01*
X0307824Y0225250D01*
X0307810Y0225402D01*
X0307800Y0225555D01*
X0307794Y0225709D01*
X0307792Y0225862D01*
D11*
X0042009Y0052629D02*
X0038939Y0052629D01*
X0040474Y0052629D02*
X0040474Y0057233D01*
X0038939Y0055698D01*
D12*
X0065631Y0052634D02*
X0065635Y0052965D01*
X0065647Y0053296D01*
X0065668Y0053627D01*
X0065696Y0053957D01*
X0065733Y0054287D01*
X0065777Y0054615D01*
X0065830Y0054942D01*
X0065890Y0055268D01*
X0065959Y0055592D01*
X0066036Y0055914D01*
X0066120Y0056235D01*
X0066212Y0056553D01*
X0066312Y0056869D01*
X0066420Y0057182D01*
X0066536Y0057493D01*
X0066659Y0057800D01*
X0066789Y0058105D01*
X0066927Y0058406D01*
X0067072Y0058704D01*
X0067225Y0058998D01*
X0067385Y0059288D01*
X0067552Y0059574D01*
X0067725Y0059856D01*
X0067906Y0060134D01*
X0068094Y0060407D01*
X0068288Y0060676D01*
X0068488Y0060940D01*
X0068695Y0061198D01*
X0068909Y0061452D01*
X0069128Y0061700D01*
X0069354Y0061943D01*
X0069585Y0062180D01*
X0069822Y0062411D01*
X0070065Y0062637D01*
X0070313Y0062856D01*
X0070567Y0063070D01*
X0070825Y0063277D01*
X0071089Y0063477D01*
X0071358Y0063671D01*
X0071631Y0063859D01*
X0071909Y0064040D01*
X0072191Y0064213D01*
X0072477Y0064380D01*
X0072767Y0064540D01*
X0073061Y0064693D01*
X0073359Y0064838D01*
X0073660Y0064976D01*
X0073965Y0065106D01*
X0074272Y0065229D01*
X0074583Y0065345D01*
X0074896Y0065453D01*
X0075212Y0065553D01*
X0075530Y0065645D01*
X0075851Y0065729D01*
X0076173Y0065806D01*
X0076497Y0065875D01*
X0076823Y0065935D01*
X0077150Y0065988D01*
X0077478Y0066032D01*
X0077808Y0066069D01*
X0078138Y0066097D01*
X0078469Y0066118D01*
X0078800Y0066130D01*
X0079131Y0066134D01*
X0079462Y0066130D01*
X0079793Y0066118D01*
X0080124Y0066097D01*
X0080454Y0066069D01*
X0080784Y0066032D01*
X0081112Y0065988D01*
X0081439Y0065935D01*
X0081765Y0065875D01*
X0082089Y0065806D01*
X0082411Y0065729D01*
X0082732Y0065645D01*
X0083050Y0065553D01*
X0083366Y0065453D01*
X0083679Y0065345D01*
X0083990Y0065229D01*
X0084297Y0065106D01*
X0084602Y0064976D01*
X0084903Y0064838D01*
X0085201Y0064693D01*
X0085495Y0064540D01*
X0085785Y0064380D01*
X0086071Y0064213D01*
X0086353Y0064040D01*
X0086631Y0063859D01*
X0086904Y0063671D01*
X0087173Y0063477D01*
X0087437Y0063277D01*
X0087695Y0063070D01*
X0087949Y0062856D01*
X0088197Y0062637D01*
X0088440Y0062411D01*
X0088677Y0062180D01*
X0088908Y0061943D01*
X0089134Y0061700D01*
X0089353Y0061452D01*
X0089567Y0061198D01*
X0089774Y0060940D01*
X0089974Y0060676D01*
X0090168Y0060407D01*
X0090356Y0060134D01*
X0090537Y0059856D01*
X0090710Y0059574D01*
X0090877Y0059288D01*
X0091037Y0058998D01*
X0091190Y0058704D01*
X0091335Y0058406D01*
X0091473Y0058105D01*
X0091603Y0057800D01*
X0091726Y0057493D01*
X0091842Y0057182D01*
X0091950Y0056869D01*
X0092050Y0056553D01*
X0092142Y0056235D01*
X0092226Y0055914D01*
X0092303Y0055592D01*
X0092372Y0055268D01*
X0092432Y0054942D01*
X0092485Y0054615D01*
X0092529Y0054287D01*
X0092566Y0053957D01*
X0092594Y0053627D01*
X0092615Y0053296D01*
X0092627Y0052965D01*
X0092631Y0052634D01*
X0092627Y0052303D01*
X0092615Y0051972D01*
X0092594Y0051641D01*
X0092566Y0051311D01*
X0092529Y0050981D01*
X0092485Y0050653D01*
X0092432Y0050326D01*
X0092372Y0050000D01*
X0092303Y0049676D01*
X0092226Y0049354D01*
X0092142Y0049033D01*
X0092050Y0048715D01*
X0091950Y0048399D01*
X0091842Y0048086D01*
X0091726Y0047775D01*
X0091603Y0047468D01*
X0091473Y0047163D01*
X0091335Y0046862D01*
X0091190Y0046564D01*
X0091037Y0046270D01*
X0090877Y0045980D01*
X0090710Y0045694D01*
X0090537Y0045412D01*
X0090356Y0045134D01*
X0090168Y0044861D01*
X0089974Y0044592D01*
X0089774Y0044328D01*
X0089567Y0044070D01*
X0089353Y0043816D01*
X0089134Y0043568D01*
X0088908Y0043325D01*
X0088677Y0043088D01*
X0088440Y0042857D01*
X0088197Y0042631D01*
X0087949Y0042412D01*
X0087695Y0042198D01*
X0087437Y0041991D01*
X0087173Y0041791D01*
X0086904Y0041597D01*
X0086631Y0041409D01*
X0086353Y0041228D01*
X0086071Y0041055D01*
X0085785Y0040888D01*
X0085495Y0040728D01*
X0085201Y0040575D01*
X0084903Y0040430D01*
X0084602Y0040292D01*
X0084297Y0040162D01*
X0083990Y0040039D01*
X0083679Y0039923D01*
X0083366Y0039815D01*
X0083050Y0039715D01*
X0082732Y0039623D01*
X0082411Y0039539D01*
X0082089Y0039462D01*
X0081765Y0039393D01*
X0081439Y0039333D01*
X0081112Y0039280D01*
X0080784Y0039236D01*
X0080454Y0039199D01*
X0080124Y0039171D01*
X0079793Y0039150D01*
X0079462Y0039138D01*
X0079131Y0039134D01*
X0078800Y0039138D01*
X0078469Y0039150D01*
X0078138Y0039171D01*
X0077808Y0039199D01*
X0077478Y0039236D01*
X0077150Y0039280D01*
X0076823Y0039333D01*
X0076497Y0039393D01*
X0076173Y0039462D01*
X0075851Y0039539D01*
X0075530Y0039623D01*
X0075212Y0039715D01*
X0074896Y0039815D01*
X0074583Y0039923D01*
X0074272Y0040039D01*
X0073965Y0040162D01*
X0073660Y0040292D01*
X0073359Y0040430D01*
X0073061Y0040575D01*
X0072767Y0040728D01*
X0072477Y0040888D01*
X0072191Y0041055D01*
X0071909Y0041228D01*
X0071631Y0041409D01*
X0071358Y0041597D01*
X0071089Y0041791D01*
X0070825Y0041991D01*
X0070567Y0042198D01*
X0070313Y0042412D01*
X0070065Y0042631D01*
X0069822Y0042857D01*
X0069585Y0043088D01*
X0069354Y0043325D01*
X0069128Y0043568D01*
X0068909Y0043816D01*
X0068695Y0044070D01*
X0068488Y0044328D01*
X0068288Y0044592D01*
X0068094Y0044861D01*
X0067906Y0045134D01*
X0067725Y0045412D01*
X0067552Y0045694D01*
X0067385Y0045980D01*
X0067225Y0046270D01*
X0067072Y0046564D01*
X0066927Y0046862D01*
X0066789Y0047163D01*
X0066659Y0047468D01*
X0066536Y0047775D01*
X0066420Y0048086D01*
X0066312Y0048399D01*
X0066212Y0048715D01*
X0066120Y0049033D01*
X0066036Y0049354D01*
X0065959Y0049676D01*
X0065890Y0050000D01*
X0065830Y0050326D01*
X0065777Y0050653D01*
X0065733Y0050981D01*
X0065696Y0051311D01*
X0065668Y0051641D01*
X0065647Y0051972D01*
X0065635Y0052303D01*
X0065631Y0052634D01*
X0104607Y0053028D02*
X0104611Y0053359D01*
X0104623Y0053690D01*
X0104644Y0054021D01*
X0104672Y0054351D01*
X0104709Y0054681D01*
X0104753Y0055009D01*
X0104806Y0055336D01*
X0104866Y0055662D01*
X0104935Y0055986D01*
X0105012Y0056308D01*
X0105096Y0056629D01*
X0105188Y0056947D01*
X0105288Y0057263D01*
X0105396Y0057576D01*
X0105512Y0057887D01*
X0105635Y0058194D01*
X0105765Y0058499D01*
X0105903Y0058800D01*
X0106048Y0059098D01*
X0106201Y0059392D01*
X0106361Y0059682D01*
X0106528Y0059968D01*
X0106701Y0060250D01*
X0106882Y0060528D01*
X0107070Y0060801D01*
X0107264Y0061070D01*
X0107464Y0061334D01*
X0107671Y0061592D01*
X0107885Y0061846D01*
X0108104Y0062094D01*
X0108330Y0062337D01*
X0108561Y0062574D01*
X0108798Y0062805D01*
X0109041Y0063031D01*
X0109289Y0063250D01*
X0109543Y0063464D01*
X0109801Y0063671D01*
X0110065Y0063871D01*
X0110334Y0064065D01*
X0110607Y0064253D01*
X0110885Y0064434D01*
X0111167Y0064607D01*
X0111453Y0064774D01*
X0111743Y0064934D01*
X0112037Y0065087D01*
X0112335Y0065232D01*
X0112636Y0065370D01*
X0112941Y0065500D01*
X0113248Y0065623D01*
X0113559Y0065739D01*
X0113872Y0065847D01*
X0114188Y0065947D01*
X0114506Y0066039D01*
X0114827Y0066123D01*
X0115149Y0066200D01*
X0115473Y0066269D01*
X0115799Y0066329D01*
X0116126Y0066382D01*
X0116454Y0066426D01*
X0116784Y0066463D01*
X0117114Y0066491D01*
X0117445Y0066512D01*
X0117776Y0066524D01*
X0118107Y0066528D01*
X0118438Y0066524D01*
X0118769Y0066512D01*
X0119100Y0066491D01*
X0119430Y0066463D01*
X0119760Y0066426D01*
X0120088Y0066382D01*
X0120415Y0066329D01*
X0120741Y0066269D01*
X0121065Y0066200D01*
X0121387Y0066123D01*
X0121708Y0066039D01*
X0122026Y0065947D01*
X0122342Y0065847D01*
X0122655Y0065739D01*
X0122966Y0065623D01*
X0123273Y0065500D01*
X0123578Y0065370D01*
X0123879Y0065232D01*
X0124177Y0065087D01*
X0124471Y0064934D01*
X0124761Y0064774D01*
X0125047Y0064607D01*
X0125329Y0064434D01*
X0125607Y0064253D01*
X0125880Y0064065D01*
X0126149Y0063871D01*
X0126413Y0063671D01*
X0126671Y0063464D01*
X0126925Y0063250D01*
X0127173Y0063031D01*
X0127416Y0062805D01*
X0127653Y0062574D01*
X0127884Y0062337D01*
X0128110Y0062094D01*
X0128329Y0061846D01*
X0128543Y0061592D01*
X0128750Y0061334D01*
X0128950Y0061070D01*
X0129144Y0060801D01*
X0129332Y0060528D01*
X0129513Y0060250D01*
X0129686Y0059968D01*
X0129853Y0059682D01*
X0130013Y0059392D01*
X0130166Y0059098D01*
X0130311Y0058800D01*
X0130449Y0058499D01*
X0130579Y0058194D01*
X0130702Y0057887D01*
X0130818Y0057576D01*
X0130926Y0057263D01*
X0131026Y0056947D01*
X0131118Y0056629D01*
X0131202Y0056308D01*
X0131279Y0055986D01*
X0131348Y0055662D01*
X0131408Y0055336D01*
X0131461Y0055009D01*
X0131505Y0054681D01*
X0131542Y0054351D01*
X0131570Y0054021D01*
X0131591Y0053690D01*
X0131603Y0053359D01*
X0131607Y0053028D01*
X0131603Y0052697D01*
X0131591Y0052366D01*
X0131570Y0052035D01*
X0131542Y0051705D01*
X0131505Y0051375D01*
X0131461Y0051047D01*
X0131408Y0050720D01*
X0131348Y0050394D01*
X0131279Y0050070D01*
X0131202Y0049748D01*
X0131118Y0049427D01*
X0131026Y0049109D01*
X0130926Y0048793D01*
X0130818Y0048480D01*
X0130702Y0048169D01*
X0130579Y0047862D01*
X0130449Y0047557D01*
X0130311Y0047256D01*
X0130166Y0046958D01*
X0130013Y0046664D01*
X0129853Y0046374D01*
X0129686Y0046088D01*
X0129513Y0045806D01*
X0129332Y0045528D01*
X0129144Y0045255D01*
X0128950Y0044986D01*
X0128750Y0044722D01*
X0128543Y0044464D01*
X0128329Y0044210D01*
X0128110Y0043962D01*
X0127884Y0043719D01*
X0127653Y0043482D01*
X0127416Y0043251D01*
X0127173Y0043025D01*
X0126925Y0042806D01*
X0126671Y0042592D01*
X0126413Y0042385D01*
X0126149Y0042185D01*
X0125880Y0041991D01*
X0125607Y0041803D01*
X0125329Y0041622D01*
X0125047Y0041449D01*
X0124761Y0041282D01*
X0124471Y0041122D01*
X0124177Y0040969D01*
X0123879Y0040824D01*
X0123578Y0040686D01*
X0123273Y0040556D01*
X0122966Y0040433D01*
X0122655Y0040317D01*
X0122342Y0040209D01*
X0122026Y0040109D01*
X0121708Y0040017D01*
X0121387Y0039933D01*
X0121065Y0039856D01*
X0120741Y0039787D01*
X0120415Y0039727D01*
X0120088Y0039674D01*
X0119760Y0039630D01*
X0119430Y0039593D01*
X0119100Y0039565D01*
X0118769Y0039544D01*
X0118438Y0039532D01*
X0118107Y0039528D01*
X0117776Y0039532D01*
X0117445Y0039544D01*
X0117114Y0039565D01*
X0116784Y0039593D01*
X0116454Y0039630D01*
X0116126Y0039674D01*
X0115799Y0039727D01*
X0115473Y0039787D01*
X0115149Y0039856D01*
X0114827Y0039933D01*
X0114506Y0040017D01*
X0114188Y0040109D01*
X0113872Y0040209D01*
X0113559Y0040317D01*
X0113248Y0040433D01*
X0112941Y0040556D01*
X0112636Y0040686D01*
X0112335Y0040824D01*
X0112037Y0040969D01*
X0111743Y0041122D01*
X0111453Y0041282D01*
X0111167Y0041449D01*
X0110885Y0041622D01*
X0110607Y0041803D01*
X0110334Y0041991D01*
X0110065Y0042185D01*
X0109801Y0042385D01*
X0109543Y0042592D01*
X0109289Y0042806D01*
X0109041Y0043025D01*
X0108798Y0043251D01*
X0108561Y0043482D01*
X0108330Y0043719D01*
X0108104Y0043962D01*
X0107885Y0044210D01*
X0107671Y0044464D01*
X0107464Y0044722D01*
X0107264Y0044986D01*
X0107070Y0045255D01*
X0106882Y0045528D01*
X0106701Y0045806D01*
X0106528Y0046088D01*
X0106361Y0046374D01*
X0106201Y0046664D01*
X0106048Y0046958D01*
X0105903Y0047256D01*
X0105765Y0047557D01*
X0105635Y0047862D01*
X0105512Y0048169D01*
X0105396Y0048480D01*
X0105288Y0048793D01*
X0105188Y0049109D01*
X0105096Y0049427D01*
X0105012Y0049748D01*
X0104935Y0050070D01*
X0104866Y0050394D01*
X0104806Y0050720D01*
X0104753Y0051047D01*
X0104709Y0051375D01*
X0104672Y0051705D01*
X0104644Y0052035D01*
X0104623Y0052366D01*
X0104611Y0052697D01*
X0104607Y0053028D01*
X0230749Y0039324D02*
X0230749Y0032918D01*
X0235019Y0032918D02*
X0235019Y0039324D01*
X0232884Y0037188D01*
X0230749Y0039324D01*
X0237195Y0036121D02*
X0237195Y0033986D01*
X0238262Y0032918D01*
X0240397Y0032918D01*
X0241465Y0033986D01*
X0241465Y0036121D01*
X0240397Y0037188D01*
X0238262Y0037188D01*
X0237195Y0036121D01*
X0243640Y0037188D02*
X0245775Y0037188D01*
X0244708Y0038256D02*
X0244708Y0033986D01*
X0245775Y0032918D01*
X0247937Y0033986D02*
X0249005Y0032918D01*
X0251140Y0032918D01*
X0252207Y0033986D01*
X0252207Y0036121D01*
X0251140Y0037188D01*
X0249005Y0037188D01*
X0247937Y0036121D01*
X0247937Y0033986D01*
X0254383Y0035053D02*
X0256518Y0037188D01*
X0257585Y0037188D01*
X0254383Y0037188D02*
X0254383Y0032918D01*
X0266199Y0033986D02*
X0267267Y0032918D01*
X0269402Y0032918D01*
X0270470Y0033986D01*
X0270470Y0035053D01*
X0269402Y0036121D01*
X0267267Y0036121D01*
X0266199Y0037188D01*
X0266199Y0038256D01*
X0267267Y0039324D01*
X0269402Y0039324D01*
X0270470Y0038256D01*
X0272645Y0039324D02*
X0272645Y0032918D01*
X0272645Y0036121D02*
X0273712Y0037188D01*
X0275848Y0037188D01*
X0276915Y0036121D01*
X0276915Y0032918D01*
X0279090Y0032918D02*
X0281225Y0032918D01*
X0280158Y0032918D02*
X0280158Y0037188D01*
X0279090Y0037188D01*
X0280158Y0039324D02*
X0280158Y0040391D01*
X0283387Y0036121D02*
X0284455Y0037188D01*
X0286590Y0037188D01*
X0287658Y0036121D01*
X0287658Y0035053D01*
X0283387Y0035053D01*
X0283387Y0033986D02*
X0283387Y0036121D01*
X0283387Y0033986D02*
X0284455Y0032918D01*
X0286590Y0032918D01*
X0289833Y0032918D02*
X0291968Y0032918D01*
X0290900Y0032918D02*
X0290900Y0039324D01*
X0289833Y0039324D01*
X0294130Y0036121D02*
X0295197Y0037188D01*
X0298400Y0037188D01*
X0298400Y0039324D02*
X0298400Y0032918D01*
X0295197Y0032918D01*
X0294130Y0033986D01*
X0294130Y0036121D01*
X0307021Y0035053D02*
X0309156Y0032918D01*
X0311291Y0035053D01*
X0311291Y0039324D01*
X0313466Y0037188D02*
X0315601Y0039324D01*
X0315601Y0032918D01*
X0313466Y0032918D02*
X0317737Y0032918D01*
X0319912Y0032918D02*
X0320979Y0032918D01*
X0320979Y0033986D01*
X0319912Y0033986D01*
X0319912Y0032918D01*
X0323135Y0032918D02*
X0327405Y0037188D01*
X0327405Y0038256D01*
X0326337Y0039324D01*
X0324202Y0039324D01*
X0323135Y0038256D01*
X0323135Y0032918D02*
X0327405Y0032918D01*
X0307021Y0035053D02*
X0307021Y0039324D01*
D13*
X0307717Y0048618D02*
X0305217Y0051118D01*
X0305217Y0056118D01*
X0307717Y0058618D01*
X0305217Y0061118D01*
X0305217Y0066118D01*
X0307717Y0068618D01*
X0305217Y0071118D01*
X0305217Y0076118D01*
X0307717Y0078618D01*
X0305217Y0081118D01*
X0305217Y0086118D01*
X0307717Y0088618D01*
X0305217Y0091118D01*
X0305217Y0096118D01*
X0307717Y0098618D01*
X0305217Y0101118D01*
X0305217Y0106118D01*
X0307717Y0108618D01*
X0305217Y0111118D01*
X0305217Y0116118D01*
X0307717Y0118618D01*
X0305217Y0121118D01*
X0305217Y0126118D01*
X0307717Y0128618D01*
X0305217Y0131118D01*
X0305217Y0136118D01*
X0307717Y0138618D01*
X0305217Y0141118D01*
X0305217Y0146118D01*
X0307717Y0148618D01*
X0305217Y0151118D01*
X0305217Y0156118D01*
X0307717Y0158618D01*
X0312717Y0158618D01*
X0315217Y0156118D01*
X0315217Y0151118D01*
X0312717Y0148618D01*
X0315217Y0146118D01*
X0315217Y0141118D01*
X0312717Y0138618D01*
X0315217Y0136118D01*
X0315217Y0131118D01*
X0312717Y0128618D01*
X0315217Y0126118D01*
X0315217Y0121118D01*
X0312717Y0118618D01*
X0315217Y0116118D01*
X0315217Y0111118D01*
X0312717Y0108618D01*
X0315217Y0106118D01*
X0315217Y0101118D01*
X0312717Y0098618D01*
X0315217Y0096118D01*
X0315217Y0091118D01*
X0312717Y0088618D01*
X0315217Y0086118D01*
X0315217Y0081118D01*
X0312717Y0078618D01*
X0315217Y0076118D01*
X0315217Y0071118D01*
X0312717Y0068618D01*
X0315217Y0066118D01*
X0315217Y0061118D01*
X0312717Y0058618D01*
X0315217Y0056118D01*
X0315217Y0051118D01*
X0312717Y0048618D01*
X0307717Y0048618D01*
X0305217Y0051118D02*
X0302717Y0048618D01*
X0297717Y0048618D01*
X0295217Y0051118D01*
X0295217Y0056118D01*
X0297717Y0058618D01*
X0295217Y0061118D01*
X0295217Y0066118D01*
X0297717Y0068618D01*
X0295217Y0071118D01*
X0295217Y0076118D01*
X0297717Y0078618D01*
X0295217Y0081118D01*
X0295217Y0086118D01*
X0297717Y0088618D01*
X0295217Y0091118D01*
X0295217Y0096118D01*
X0297717Y0098618D01*
X0295217Y0101118D01*
X0295217Y0106118D01*
X0297717Y0108618D01*
X0295217Y0111118D01*
X0295217Y0116118D01*
X0297717Y0118618D01*
X0295217Y0121118D01*
X0295217Y0126118D01*
X0297717Y0128618D01*
X0295217Y0131118D01*
X0295217Y0136118D01*
X0297717Y0138618D01*
X0295217Y0141118D01*
X0295217Y0146118D01*
X0297717Y0148618D01*
X0295217Y0151118D01*
X0295217Y0156118D01*
X0297717Y0158618D01*
X0302717Y0158618D01*
X0305217Y0156118D01*
X0305217Y0151118D01*
X0302717Y0148618D01*
X0305217Y0146118D01*
X0305217Y0141118D01*
X0302717Y0138618D01*
X0305217Y0136118D01*
X0305217Y0131118D01*
X0302717Y0128618D01*
X0305217Y0126118D01*
X0305217Y0121118D01*
X0302717Y0118618D01*
X0305217Y0116118D01*
X0305217Y0111118D01*
X0302717Y0108618D01*
X0305217Y0106118D01*
X0305217Y0101118D01*
X0302717Y0098618D01*
X0305217Y0096118D01*
X0305217Y0091118D01*
X0302717Y0088618D01*
X0305217Y0086118D01*
X0305217Y0081118D01*
X0302717Y0078618D01*
X0305217Y0076118D01*
X0305217Y0071118D01*
X0302717Y0068618D01*
X0305217Y0066118D01*
X0305217Y0061118D01*
X0302717Y0058618D01*
X0305217Y0056118D01*
X0305217Y0051118D01*
X0275217Y0051118D02*
X0272717Y0048618D01*
X0267717Y0048618D01*
X0265217Y0051118D01*
X0265217Y0056118D01*
X0267717Y0058618D01*
X0265217Y0061118D01*
X0265217Y0066118D01*
X0267717Y0068618D01*
X0265217Y0071118D01*
X0265217Y0076118D01*
X0267717Y0078618D01*
X0265217Y0081118D01*
X0265217Y0086118D01*
X0267717Y0088618D01*
X0265217Y0091118D01*
X0265217Y0096118D01*
X0267717Y0098618D01*
X0265217Y0101118D01*
X0265217Y0106118D01*
X0267717Y0108618D01*
X0265217Y0111118D01*
X0265217Y0116118D01*
X0267717Y0118618D01*
X0265217Y0121118D01*
X0265217Y0126118D01*
X0267717Y0128618D01*
X0265217Y0131118D01*
X0265217Y0136118D01*
X0267717Y0138618D01*
X0265217Y0141118D01*
X0265217Y0146118D01*
X0267717Y0148618D01*
X0265217Y0151118D01*
X0265217Y0156118D01*
X0267717Y0158618D01*
X0272717Y0158618D01*
X0275217Y0156118D01*
X0275217Y0151118D01*
X0272717Y0148618D01*
X0275217Y0146118D01*
X0275217Y0141118D01*
X0272717Y0138618D01*
X0275217Y0136118D01*
X0275217Y0131118D01*
X0272717Y0128618D01*
X0275217Y0126118D01*
X0275217Y0121118D01*
X0272717Y0118618D01*
X0275217Y0116118D01*
X0275217Y0111118D01*
X0272717Y0108618D01*
X0275217Y0106118D01*
X0275217Y0101118D01*
X0272717Y0098618D01*
X0275217Y0096118D01*
X0275217Y0091118D01*
X0272717Y0088618D01*
X0275217Y0086118D01*
X0275217Y0081118D01*
X0272717Y0078618D01*
X0275217Y0076118D01*
X0275217Y0071118D01*
X0272717Y0068618D01*
X0275217Y0066118D01*
X0275217Y0061118D01*
X0272717Y0058618D01*
X0275217Y0056118D01*
X0275217Y0051118D01*
X0265217Y0051118D02*
X0265217Y0056118D01*
X0262717Y0058618D01*
X0265217Y0061118D01*
X0265217Y0066118D01*
X0262717Y0068618D01*
X0265217Y0071118D01*
X0265217Y0076118D01*
X0262717Y0078618D01*
X0265217Y0081118D01*
X0265217Y0086118D01*
X0262717Y0088618D01*
X0265217Y0091118D01*
X0265217Y0096118D01*
X0262717Y0098618D01*
X0265217Y0101118D01*
X0265217Y0106118D01*
X0262717Y0108618D01*
X0265217Y0111118D01*
X0265217Y0116118D01*
X0262717Y0118618D01*
X0265217Y0121118D01*
X0265217Y0126118D01*
X0262717Y0128618D01*
X0265217Y0131118D01*
X0265217Y0136118D01*
X0262717Y0138618D01*
X0265217Y0141118D01*
X0265217Y0146118D01*
X0262717Y0148618D01*
X0265217Y0151118D01*
X0265217Y0156118D01*
X0262717Y0158618D01*
X0257717Y0158618D01*
X0255217Y0156118D01*
X0255217Y0151118D01*
X0257717Y0148618D01*
X0255217Y0146118D01*
X0255217Y0141118D01*
X0257717Y0138618D01*
X0255217Y0136118D01*
X0255217Y0131118D01*
X0257717Y0128618D01*
X0255217Y0126118D01*
X0255217Y0121118D01*
X0257717Y0118618D01*
X0255217Y0116118D01*
X0255217Y0111118D01*
X0257717Y0108618D01*
X0255217Y0106118D01*
X0255217Y0101118D01*
X0257717Y0098618D01*
X0255217Y0096118D01*
X0255217Y0091118D01*
X0257717Y0088618D01*
X0255217Y0086118D01*
X0255217Y0081118D01*
X0257717Y0078618D01*
X0255217Y0076118D01*
X0255217Y0071118D01*
X0257717Y0068618D01*
X0255217Y0066118D01*
X0255217Y0061118D01*
X0257717Y0058618D01*
X0255217Y0056118D01*
X0255217Y0051118D01*
X0257717Y0048618D01*
X0262717Y0048618D01*
X0265217Y0051118D01*
X0240823Y0052260D02*
X0238323Y0049760D01*
X0233323Y0049760D01*
X0230823Y0052260D01*
X0228323Y0049760D01*
X0223323Y0049760D01*
X0220823Y0052260D01*
X0218323Y0049760D01*
X0213323Y0049760D01*
X0210823Y0052260D01*
X0208323Y0049760D01*
X0203323Y0049760D01*
X0200823Y0052260D01*
X0198323Y0049760D01*
X0193323Y0049760D01*
X0190823Y0052260D01*
X0188323Y0049760D01*
X0183323Y0049760D01*
X0180823Y0052260D01*
X0178323Y0049760D01*
X0173323Y0049760D01*
X0170823Y0052260D01*
X0168323Y0049760D01*
X0163323Y0049760D01*
X0160823Y0052260D01*
X0158323Y0049760D01*
X0153323Y0049760D01*
X0150823Y0052260D01*
X0153323Y0049760D02*
X0150823Y0047260D01*
X0150823Y0042260D02*
X0153323Y0039760D01*
X0158323Y0039760D01*
X0160823Y0042260D01*
X0163323Y0039760D01*
X0168323Y0039760D01*
X0170823Y0042260D01*
X0173323Y0039760D01*
X0178323Y0039760D01*
X0180823Y0042260D01*
X0183323Y0039760D01*
X0188323Y0039760D01*
X0190823Y0042260D01*
X0193323Y0039760D01*
X0198323Y0039760D01*
X0200823Y0042260D01*
X0203323Y0039760D01*
X0208323Y0039760D01*
X0210823Y0042260D01*
X0213323Y0039760D01*
X0218323Y0039760D01*
X0220823Y0042260D01*
X0223323Y0039760D01*
X0228323Y0039760D01*
X0230823Y0042260D01*
X0233323Y0039760D01*
X0238323Y0039760D01*
X0240823Y0042260D01*
X0240823Y0047260D01*
X0238323Y0049760D01*
X0240823Y0052260D02*
X0240823Y0057260D01*
X0238323Y0059760D01*
X0233323Y0059760D01*
X0230823Y0057260D01*
X0228323Y0059760D01*
X0223323Y0059760D01*
X0220823Y0057260D01*
X0218323Y0059760D01*
X0213323Y0059760D01*
X0210823Y0057260D01*
X0208323Y0059760D01*
X0203323Y0059760D01*
X0200823Y0057260D01*
X0198323Y0059760D01*
X0193323Y0059760D01*
X0190823Y0057260D01*
X0188323Y0059760D01*
X0183323Y0059760D01*
X0180823Y0057260D01*
X0178323Y0059760D01*
X0173323Y0059760D01*
X0170823Y0057260D01*
X0168323Y0059760D01*
X0163323Y0059760D01*
X0160823Y0057260D01*
X0158323Y0059760D01*
X0153323Y0059760D01*
X0150823Y0057260D01*
X0158323Y0049760D02*
X0160823Y0047260D01*
X0163323Y0049760D01*
X0168323Y0049760D02*
X0170823Y0047260D01*
X0173323Y0049760D01*
X0178323Y0049760D02*
X0180823Y0047260D01*
X0183323Y0049760D01*
X0188323Y0049760D02*
X0190823Y0047260D01*
X0193323Y0049760D01*
X0198323Y0049760D02*
X0200823Y0047260D01*
X0203323Y0049760D01*
X0208323Y0049760D02*
X0210823Y0047260D01*
X0213323Y0049760D01*
X0218323Y0049760D02*
X0220823Y0047260D01*
X0223323Y0049760D01*
X0228323Y0049760D02*
X0230823Y0047260D01*
X0233323Y0049760D01*
X0111808Y0053028D02*
X0111810Y0053186D01*
X0111816Y0053344D01*
X0111826Y0053502D01*
X0111840Y0053660D01*
X0111858Y0053817D01*
X0111879Y0053974D01*
X0111905Y0054130D01*
X0111935Y0054286D01*
X0111968Y0054441D01*
X0112006Y0054594D01*
X0112047Y0054747D01*
X0112092Y0054899D01*
X0112141Y0055050D01*
X0112194Y0055199D01*
X0112250Y0055347D01*
X0112310Y0055493D01*
X0112374Y0055638D01*
X0112442Y0055781D01*
X0112513Y0055923D01*
X0112587Y0056063D01*
X0112665Y0056200D01*
X0112747Y0056336D01*
X0112831Y0056470D01*
X0112920Y0056601D01*
X0113011Y0056730D01*
X0113106Y0056857D01*
X0113203Y0056982D01*
X0113304Y0057104D01*
X0113408Y0057223D01*
X0113515Y0057340D01*
X0113625Y0057454D01*
X0113738Y0057565D01*
X0113853Y0057674D01*
X0113971Y0057779D01*
X0114092Y0057881D01*
X0114215Y0057981D01*
X0114341Y0058077D01*
X0114469Y0058170D01*
X0114599Y0058260D01*
X0114732Y0058346D01*
X0114867Y0058430D01*
X0115003Y0058509D01*
X0115142Y0058586D01*
X0115283Y0058658D01*
X0115425Y0058728D01*
X0115569Y0058793D01*
X0115715Y0058855D01*
X0115862Y0058913D01*
X0116011Y0058968D01*
X0116161Y0059019D01*
X0116312Y0059066D01*
X0116464Y0059109D01*
X0116617Y0059148D01*
X0116772Y0059184D01*
X0116927Y0059215D01*
X0117083Y0059243D01*
X0117239Y0059267D01*
X0117396Y0059287D01*
X0117554Y0059303D01*
X0117711Y0059315D01*
X0117870Y0059323D01*
X0118028Y0059327D01*
X0118186Y0059327D01*
X0118344Y0059323D01*
X0118503Y0059315D01*
X0118660Y0059303D01*
X0118818Y0059287D01*
X0118975Y0059267D01*
X0119131Y0059243D01*
X0119287Y0059215D01*
X0119442Y0059184D01*
X0119597Y0059148D01*
X0119750Y0059109D01*
X0119902Y0059066D01*
X0120053Y0059019D01*
X0120203Y0058968D01*
X0120352Y0058913D01*
X0120499Y0058855D01*
X0120645Y0058793D01*
X0120789Y0058728D01*
X0120931Y0058658D01*
X0121072Y0058586D01*
X0121211Y0058509D01*
X0121347Y0058430D01*
X0121482Y0058346D01*
X0121615Y0058260D01*
X0121745Y0058170D01*
X0121873Y0058077D01*
X0121999Y0057981D01*
X0122122Y0057881D01*
X0122243Y0057779D01*
X0122361Y0057674D01*
X0122476Y0057565D01*
X0122589Y0057454D01*
X0122699Y0057340D01*
X0122806Y0057223D01*
X0122910Y0057104D01*
X0123011Y0056982D01*
X0123108Y0056857D01*
X0123203Y0056730D01*
X0123294Y0056601D01*
X0123383Y0056470D01*
X0123467Y0056336D01*
X0123549Y0056200D01*
X0123627Y0056063D01*
X0123701Y0055923D01*
X0123772Y0055781D01*
X0123840Y0055638D01*
X0123904Y0055493D01*
X0123964Y0055347D01*
X0124020Y0055199D01*
X0124073Y0055050D01*
X0124122Y0054899D01*
X0124167Y0054747D01*
X0124208Y0054594D01*
X0124246Y0054441D01*
X0124279Y0054286D01*
X0124309Y0054130D01*
X0124335Y0053974D01*
X0124356Y0053817D01*
X0124374Y0053660D01*
X0124388Y0053502D01*
X0124398Y0053344D01*
X0124404Y0053186D01*
X0124406Y0053028D01*
X0124404Y0052870D01*
X0124398Y0052712D01*
X0124388Y0052554D01*
X0124374Y0052396D01*
X0124356Y0052239D01*
X0124335Y0052082D01*
X0124309Y0051926D01*
X0124279Y0051770D01*
X0124246Y0051615D01*
X0124208Y0051462D01*
X0124167Y0051309D01*
X0124122Y0051157D01*
X0124073Y0051006D01*
X0124020Y0050857D01*
X0123964Y0050709D01*
X0123904Y0050563D01*
X0123840Y0050418D01*
X0123772Y0050275D01*
X0123701Y0050133D01*
X0123627Y0049993D01*
X0123549Y0049856D01*
X0123467Y0049720D01*
X0123383Y0049586D01*
X0123294Y0049455D01*
X0123203Y0049326D01*
X0123108Y0049199D01*
X0123011Y0049074D01*
X0122910Y0048952D01*
X0122806Y0048833D01*
X0122699Y0048716D01*
X0122589Y0048602D01*
X0122476Y0048491D01*
X0122361Y0048382D01*
X0122243Y0048277D01*
X0122122Y0048175D01*
X0121999Y0048075D01*
X0121873Y0047979D01*
X0121745Y0047886D01*
X0121615Y0047796D01*
X0121482Y0047710D01*
X0121347Y0047626D01*
X0121211Y0047547D01*
X0121072Y0047470D01*
X0120931Y0047398D01*
X0120789Y0047328D01*
X0120645Y0047263D01*
X0120499Y0047201D01*
X0120352Y0047143D01*
X0120203Y0047088D01*
X0120053Y0047037D01*
X0119902Y0046990D01*
X0119750Y0046947D01*
X0119597Y0046908D01*
X0119442Y0046872D01*
X0119287Y0046841D01*
X0119131Y0046813D01*
X0118975Y0046789D01*
X0118818Y0046769D01*
X0118660Y0046753D01*
X0118503Y0046741D01*
X0118344Y0046733D01*
X0118186Y0046729D01*
X0118028Y0046729D01*
X0117870Y0046733D01*
X0117711Y0046741D01*
X0117554Y0046753D01*
X0117396Y0046769D01*
X0117239Y0046789D01*
X0117083Y0046813D01*
X0116927Y0046841D01*
X0116772Y0046872D01*
X0116617Y0046908D01*
X0116464Y0046947D01*
X0116312Y0046990D01*
X0116161Y0047037D01*
X0116011Y0047088D01*
X0115862Y0047143D01*
X0115715Y0047201D01*
X0115569Y0047263D01*
X0115425Y0047328D01*
X0115283Y0047398D01*
X0115142Y0047470D01*
X0115003Y0047547D01*
X0114867Y0047626D01*
X0114732Y0047710D01*
X0114599Y0047796D01*
X0114469Y0047886D01*
X0114341Y0047979D01*
X0114215Y0048075D01*
X0114092Y0048175D01*
X0113971Y0048277D01*
X0113853Y0048382D01*
X0113738Y0048491D01*
X0113625Y0048602D01*
X0113515Y0048716D01*
X0113408Y0048833D01*
X0113304Y0048952D01*
X0113203Y0049074D01*
X0113106Y0049199D01*
X0113011Y0049326D01*
X0112920Y0049455D01*
X0112831Y0049586D01*
X0112747Y0049720D01*
X0112665Y0049856D01*
X0112587Y0049993D01*
X0112513Y0050133D01*
X0112442Y0050275D01*
X0112374Y0050418D01*
X0112310Y0050563D01*
X0112250Y0050709D01*
X0112194Y0050857D01*
X0112141Y0051006D01*
X0112092Y0051157D01*
X0112047Y0051309D01*
X0112006Y0051462D01*
X0111968Y0051615D01*
X0111935Y0051770D01*
X0111905Y0051926D01*
X0111879Y0052082D01*
X0111858Y0052239D01*
X0111840Y0052396D01*
X0111826Y0052554D01*
X0111816Y0052712D01*
X0111810Y0052870D01*
X0111808Y0053028D01*
X0072832Y0052634D02*
X0072834Y0052792D01*
X0072840Y0052950D01*
X0072850Y0053108D01*
X0072864Y0053266D01*
X0072882Y0053423D01*
X0072903Y0053580D01*
X0072929Y0053736D01*
X0072959Y0053892D01*
X0072992Y0054047D01*
X0073030Y0054200D01*
X0073071Y0054353D01*
X0073116Y0054505D01*
X0073165Y0054656D01*
X0073218Y0054805D01*
X0073274Y0054953D01*
X0073334Y0055099D01*
X0073398Y0055244D01*
X0073466Y0055387D01*
X0073537Y0055529D01*
X0073611Y0055669D01*
X0073689Y0055806D01*
X0073771Y0055942D01*
X0073855Y0056076D01*
X0073944Y0056207D01*
X0074035Y0056336D01*
X0074130Y0056463D01*
X0074227Y0056588D01*
X0074328Y0056710D01*
X0074432Y0056829D01*
X0074539Y0056946D01*
X0074649Y0057060D01*
X0074762Y0057171D01*
X0074877Y0057280D01*
X0074995Y0057385D01*
X0075116Y0057487D01*
X0075239Y0057587D01*
X0075365Y0057683D01*
X0075493Y0057776D01*
X0075623Y0057866D01*
X0075756Y0057952D01*
X0075891Y0058036D01*
X0076027Y0058115D01*
X0076166Y0058192D01*
X0076307Y0058264D01*
X0076449Y0058334D01*
X0076593Y0058399D01*
X0076739Y0058461D01*
X0076886Y0058519D01*
X0077035Y0058574D01*
X0077185Y0058625D01*
X0077336Y0058672D01*
X0077488Y0058715D01*
X0077641Y0058754D01*
X0077796Y0058790D01*
X0077951Y0058821D01*
X0078107Y0058849D01*
X0078263Y0058873D01*
X0078420Y0058893D01*
X0078578Y0058909D01*
X0078735Y0058921D01*
X0078894Y0058929D01*
X0079052Y0058933D01*
X0079210Y0058933D01*
X0079368Y0058929D01*
X0079527Y0058921D01*
X0079684Y0058909D01*
X0079842Y0058893D01*
X0079999Y0058873D01*
X0080155Y0058849D01*
X0080311Y0058821D01*
X0080466Y0058790D01*
X0080621Y0058754D01*
X0080774Y0058715D01*
X0080926Y0058672D01*
X0081077Y0058625D01*
X0081227Y0058574D01*
X0081376Y0058519D01*
X0081523Y0058461D01*
X0081669Y0058399D01*
X0081813Y0058334D01*
X0081955Y0058264D01*
X0082096Y0058192D01*
X0082235Y0058115D01*
X0082371Y0058036D01*
X0082506Y0057952D01*
X0082639Y0057866D01*
X0082769Y0057776D01*
X0082897Y0057683D01*
X0083023Y0057587D01*
X0083146Y0057487D01*
X0083267Y0057385D01*
X0083385Y0057280D01*
X0083500Y0057171D01*
X0083613Y0057060D01*
X0083723Y0056946D01*
X0083830Y0056829D01*
X0083934Y0056710D01*
X0084035Y0056588D01*
X0084132Y0056463D01*
X0084227Y0056336D01*
X0084318Y0056207D01*
X0084407Y0056076D01*
X0084491Y0055942D01*
X0084573Y0055806D01*
X0084651Y0055669D01*
X0084725Y0055529D01*
X0084796Y0055387D01*
X0084864Y0055244D01*
X0084928Y0055099D01*
X0084988Y0054953D01*
X0085044Y0054805D01*
X0085097Y0054656D01*
X0085146Y0054505D01*
X0085191Y0054353D01*
X0085232Y0054200D01*
X0085270Y0054047D01*
X0085303Y0053892D01*
X0085333Y0053736D01*
X0085359Y0053580D01*
X0085380Y0053423D01*
X0085398Y0053266D01*
X0085412Y0053108D01*
X0085422Y0052950D01*
X0085428Y0052792D01*
X0085430Y0052634D01*
X0085428Y0052476D01*
X0085422Y0052318D01*
X0085412Y0052160D01*
X0085398Y0052002D01*
X0085380Y0051845D01*
X0085359Y0051688D01*
X0085333Y0051532D01*
X0085303Y0051376D01*
X0085270Y0051221D01*
X0085232Y0051068D01*
X0085191Y0050915D01*
X0085146Y0050763D01*
X0085097Y0050612D01*
X0085044Y0050463D01*
X0084988Y0050315D01*
X0084928Y0050169D01*
X0084864Y0050024D01*
X0084796Y0049881D01*
X0084725Y0049739D01*
X0084651Y0049599D01*
X0084573Y0049462D01*
X0084491Y0049326D01*
X0084407Y0049192D01*
X0084318Y0049061D01*
X0084227Y0048932D01*
X0084132Y0048805D01*
X0084035Y0048680D01*
X0083934Y0048558D01*
X0083830Y0048439D01*
X0083723Y0048322D01*
X0083613Y0048208D01*
X0083500Y0048097D01*
X0083385Y0047988D01*
X0083267Y0047883D01*
X0083146Y0047781D01*
X0083023Y0047681D01*
X0082897Y0047585D01*
X0082769Y0047492D01*
X0082639Y0047402D01*
X0082506Y0047316D01*
X0082371Y0047232D01*
X0082235Y0047153D01*
X0082096Y0047076D01*
X0081955Y0047004D01*
X0081813Y0046934D01*
X0081669Y0046869D01*
X0081523Y0046807D01*
X0081376Y0046749D01*
X0081227Y0046694D01*
X0081077Y0046643D01*
X0080926Y0046596D01*
X0080774Y0046553D01*
X0080621Y0046514D01*
X0080466Y0046478D01*
X0080311Y0046447D01*
X0080155Y0046419D01*
X0079999Y0046395D01*
X0079842Y0046375D01*
X0079684Y0046359D01*
X0079527Y0046347D01*
X0079368Y0046339D01*
X0079210Y0046335D01*
X0079052Y0046335D01*
X0078894Y0046339D01*
X0078735Y0046347D01*
X0078578Y0046359D01*
X0078420Y0046375D01*
X0078263Y0046395D01*
X0078107Y0046419D01*
X0077951Y0046447D01*
X0077796Y0046478D01*
X0077641Y0046514D01*
X0077488Y0046553D01*
X0077336Y0046596D01*
X0077185Y0046643D01*
X0077035Y0046694D01*
X0076886Y0046749D01*
X0076739Y0046807D01*
X0076593Y0046869D01*
X0076449Y0046934D01*
X0076307Y0047004D01*
X0076166Y0047076D01*
X0076027Y0047153D01*
X0075891Y0047232D01*
X0075756Y0047316D01*
X0075623Y0047402D01*
X0075493Y0047492D01*
X0075365Y0047585D01*
X0075239Y0047681D01*
X0075116Y0047781D01*
X0074995Y0047883D01*
X0074877Y0047988D01*
X0074762Y0048097D01*
X0074649Y0048208D01*
X0074539Y0048322D01*
X0074432Y0048439D01*
X0074328Y0048558D01*
X0074227Y0048680D01*
X0074130Y0048805D01*
X0074035Y0048932D01*
X0073944Y0049061D01*
X0073855Y0049192D01*
X0073771Y0049326D01*
X0073689Y0049462D01*
X0073611Y0049599D01*
X0073537Y0049739D01*
X0073466Y0049881D01*
X0073398Y0050024D01*
X0073334Y0050169D01*
X0073274Y0050315D01*
X0073218Y0050463D01*
X0073165Y0050612D01*
X0073116Y0050763D01*
X0073071Y0050915D01*
X0073030Y0051068D01*
X0072992Y0051221D01*
X0072959Y0051376D01*
X0072929Y0051532D01*
X0072903Y0051688D01*
X0072882Y0051845D01*
X0072864Y0052002D01*
X0072850Y0052160D01*
X0072840Y0052318D01*
X0072834Y0052476D01*
X0072832Y0052634D01*
X0056217Y0051118D02*
X0056217Y0056118D01*
X0053717Y0058618D01*
X0056217Y0061118D01*
X0056217Y0066118D01*
X0053717Y0068618D01*
X0056217Y0071118D01*
X0056217Y0076118D01*
X0053717Y0078618D01*
X0056217Y0081118D01*
X0056217Y0086118D01*
X0053717Y0088618D01*
X0056217Y0091118D01*
X0056217Y0096118D01*
X0053717Y0098618D01*
X0056217Y0101118D01*
X0056217Y0106118D01*
X0053717Y0108618D01*
X0056217Y0111118D01*
X0056217Y0116118D01*
X0053717Y0118618D01*
X0056217Y0121118D01*
X0056217Y0126118D01*
X0053717Y0128618D01*
X0056217Y0131118D01*
X0056217Y0136118D01*
X0053717Y0138618D01*
X0056217Y0141118D01*
X0056217Y0146118D01*
X0053717Y0148618D01*
X0056217Y0151118D01*
X0056217Y0156118D01*
X0053717Y0158618D01*
X0056217Y0161118D01*
X0056217Y0166118D01*
X0053717Y0168618D01*
X0056217Y0171118D01*
X0056217Y0176118D01*
X0053717Y0178618D01*
X0056217Y0181118D01*
X0056217Y0186118D01*
X0053717Y0188618D01*
X0056217Y0191118D01*
X0056217Y0196118D01*
X0053717Y0198618D01*
X0056217Y0201118D01*
X0056217Y0206118D01*
X0053717Y0208618D01*
X0048717Y0208618D01*
X0046217Y0206118D01*
X0046217Y0201118D01*
X0048717Y0198618D01*
X0046217Y0196118D01*
X0046217Y0191118D01*
X0048717Y0188618D01*
X0046217Y0186118D01*
X0046217Y0181118D01*
X0048717Y0178618D01*
X0046217Y0176118D01*
X0046217Y0171118D01*
X0048717Y0168618D01*
X0046217Y0166118D01*
X0046217Y0161118D01*
X0048717Y0158618D01*
X0046217Y0156118D01*
X0046217Y0151118D01*
X0048717Y0148618D01*
X0046217Y0146118D01*
X0046217Y0141118D01*
X0048717Y0138618D01*
X0046217Y0136118D01*
X0046217Y0131118D01*
X0048717Y0128618D01*
X0046217Y0126118D01*
X0046217Y0121118D01*
X0048717Y0118618D01*
X0046217Y0116118D01*
X0046217Y0111118D01*
X0048717Y0108618D01*
X0046217Y0106118D01*
X0046217Y0101118D01*
X0048717Y0098618D01*
X0046217Y0096118D01*
X0046217Y0091118D01*
X0048717Y0088618D01*
X0046217Y0086118D01*
X0046217Y0081118D01*
X0048717Y0078618D01*
X0046217Y0076118D01*
X0046217Y0071118D01*
X0048717Y0068618D01*
X0046217Y0066118D01*
X0046217Y0061118D01*
X0048717Y0058618D01*
X0046217Y0056118D01*
X0046217Y0051118D01*
X0048717Y0048618D01*
X0053717Y0048618D01*
X0056217Y0051118D01*
X0153323Y0209760D02*
X0150823Y0212260D01*
X0153323Y0209760D02*
X0158323Y0209760D01*
X0160823Y0212260D01*
X0163323Y0209760D01*
X0168323Y0209760D01*
X0170823Y0212260D01*
X0173323Y0209760D01*
X0178323Y0209760D01*
X0180823Y0212260D01*
X0183323Y0209760D01*
X0188323Y0209760D01*
X0190823Y0212260D01*
X0193323Y0209760D01*
X0198323Y0209760D01*
X0200823Y0212260D01*
X0203323Y0209760D01*
X0208323Y0209760D01*
X0210823Y0212260D01*
X0213323Y0209760D01*
X0218323Y0209760D01*
X0220823Y0212260D01*
X0223323Y0209760D01*
X0228323Y0209760D01*
X0230823Y0212260D01*
X0233323Y0209760D01*
X0238323Y0209760D01*
X0240823Y0212260D01*
X0240823Y0217260D01*
X0238323Y0219760D01*
X0233323Y0219760D01*
X0230823Y0222260D01*
X0228323Y0219760D01*
X0223323Y0219760D01*
X0220823Y0222260D01*
X0218323Y0219760D01*
X0213323Y0219760D01*
X0210823Y0222260D01*
X0208323Y0219760D01*
X0203323Y0219760D01*
X0200823Y0222260D01*
X0198323Y0219760D01*
X0193323Y0219760D01*
X0190823Y0222260D01*
X0188323Y0219760D01*
X0183323Y0219760D01*
X0180823Y0222260D01*
X0178323Y0219760D01*
X0173323Y0219760D01*
X0170823Y0222260D01*
X0168323Y0219760D01*
X0163323Y0219760D01*
X0160823Y0222260D01*
X0158323Y0219760D01*
X0153323Y0219760D01*
X0150823Y0222260D01*
X0153323Y0219760D02*
X0150823Y0217260D01*
X0158323Y0219760D02*
X0160823Y0217260D01*
X0163323Y0219760D01*
X0168323Y0219760D02*
X0170823Y0217260D01*
X0173323Y0219760D01*
X0178323Y0219760D02*
X0180823Y0217260D01*
X0183323Y0219760D01*
X0188323Y0219760D02*
X0190823Y0217260D01*
X0193323Y0219760D01*
X0198323Y0219760D02*
X0200823Y0217260D01*
X0203323Y0219760D01*
X0208323Y0219760D02*
X0210823Y0217260D01*
X0213323Y0219760D01*
X0218323Y0219760D02*
X0220823Y0217260D01*
X0223323Y0219760D01*
X0228323Y0219760D02*
X0230823Y0217260D01*
X0233323Y0219760D01*
X0238323Y0219760D02*
X0240823Y0222260D01*
X0240823Y0227260D01*
X0238323Y0229760D01*
X0233323Y0229760D01*
X0230823Y0227260D01*
X0228323Y0229760D01*
X0223323Y0229760D01*
X0220823Y0227260D01*
X0218323Y0229760D01*
X0213323Y0229760D01*
X0210823Y0227260D01*
X0208323Y0229760D01*
X0203323Y0229760D01*
X0200823Y0227260D01*
X0198323Y0229760D01*
X0193323Y0229760D01*
X0190823Y0227260D01*
X0188323Y0229760D01*
X0183323Y0229760D01*
X0180823Y0227260D01*
X0178323Y0229760D01*
X0173323Y0229760D01*
X0170823Y0227260D01*
X0168323Y0229760D01*
X0163323Y0229760D01*
X0160823Y0227260D01*
X0158323Y0229760D01*
X0153323Y0229760D01*
X0150823Y0227260D01*
D14*
X0128373Y0226314D02*
X0125371Y0229316D01*
X0124620Y0229316D01*
X0123870Y0228566D01*
X0123870Y0227064D01*
X0124620Y0226314D01*
X0123870Y0224712D02*
X0123870Y0223211D01*
X0123870Y0223962D02*
X0127623Y0223962D01*
X0128373Y0223211D01*
X0128373Y0222460D01*
X0127623Y0221710D01*
X0128373Y0226314D02*
X0128373Y0229316D01*
X0126122Y0216316D02*
X0126122Y0213314D01*
X0123870Y0215566D01*
X0128373Y0215566D01*
X0127623Y0210962D02*
X0123870Y0210962D01*
X0123870Y0211712D02*
X0123870Y0210211D01*
X0127623Y0210962D02*
X0128373Y0210211D01*
X0128373Y0209460D01*
X0127623Y0208710D01*
X0265966Y0157292D02*
X0267867Y0157292D01*
X0267867Y0156658D02*
X0267867Y0157926D01*
X0266599Y0156658D02*
X0265966Y0157292D01*
X0268184Y0155716D02*
X0268184Y0154448D01*
X0267550Y0153506D02*
X0267867Y0153189D01*
X0267867Y0152555D01*
X0267550Y0152238D01*
X0266916Y0152872D02*
X0266916Y0153189D01*
X0267233Y0153506D01*
X0267550Y0153506D01*
X0266916Y0153189D02*
X0266599Y0153506D01*
X0266283Y0153506D01*
X0265966Y0153189D01*
X0265966Y0152555D01*
X0266283Y0152238D01*
X0266283Y0151296D02*
X0266916Y0151296D01*
X0267233Y0150979D01*
X0267233Y0150029D01*
X0267867Y0150029D02*
X0265966Y0150029D01*
X0265966Y0150979D01*
X0266283Y0151296D01*
X0275966Y0150979D02*
X0275966Y0150029D01*
X0277867Y0150029D01*
X0277233Y0150029D02*
X0277233Y0150979D01*
X0276916Y0151296D01*
X0276283Y0151296D01*
X0275966Y0150979D01*
X0276283Y0152238D02*
X0275966Y0152555D01*
X0275966Y0153189D01*
X0276283Y0153506D01*
X0276599Y0153506D01*
X0277867Y0152238D01*
X0277867Y0153506D01*
X0278184Y0154448D02*
X0278184Y0155716D01*
X0277867Y0156658D02*
X0276599Y0157926D01*
X0276283Y0157926D01*
X0275966Y0157609D01*
X0275966Y0156975D01*
X0276283Y0156658D01*
X0277867Y0156658D02*
X0277867Y0157926D01*
X0305966Y0157292D02*
X0307867Y0157292D01*
X0307867Y0156658D02*
X0307867Y0157926D01*
X0306599Y0156658D02*
X0305966Y0157292D01*
X0308184Y0155716D02*
X0308184Y0154448D01*
X0307867Y0153506D02*
X0307867Y0152238D01*
X0306599Y0153506D01*
X0306283Y0153506D01*
X0305966Y0153189D01*
X0305966Y0152555D01*
X0306283Y0152238D01*
X0306283Y0151296D02*
X0306916Y0151296D01*
X0307233Y0150979D01*
X0307233Y0150029D01*
X0307867Y0150029D02*
X0305966Y0150029D01*
X0305966Y0150979D01*
X0306283Y0151296D01*
X0315966Y0150979D02*
X0315966Y0150029D01*
X0317867Y0150029D01*
X0317233Y0150029D02*
X0317233Y0150979D01*
X0316916Y0151296D01*
X0316283Y0151296D01*
X0315966Y0150979D01*
X0316283Y0152238D02*
X0315966Y0152555D01*
X0315966Y0153189D01*
X0316283Y0153506D01*
X0316599Y0153506D01*
X0316916Y0153189D01*
X0317233Y0153506D01*
X0317550Y0153506D01*
X0317867Y0153189D01*
X0317867Y0152555D01*
X0317550Y0152238D01*
X0316916Y0152872D02*
X0316916Y0153189D01*
X0318184Y0154448D02*
X0318184Y0155716D01*
X0317867Y0156658D02*
X0316599Y0157926D01*
X0316283Y0157926D01*
X0315966Y0157609D01*
X0315966Y0156975D01*
X0316283Y0156658D01*
X0317867Y0156658D02*
X0317867Y0157926D01*
X0128373Y0058566D02*
X0128373Y0057064D01*
X0127623Y0056314D01*
X0126122Y0057815D02*
X0126122Y0058566D01*
X0126872Y0059316D01*
X0127623Y0059316D01*
X0128373Y0058566D01*
X0126122Y0058566D02*
X0125371Y0059316D01*
X0124620Y0059316D01*
X0123870Y0058566D01*
X0123870Y0057064D01*
X0124620Y0056314D01*
X0123870Y0054712D02*
X0123870Y0053211D01*
X0123870Y0053962D02*
X0127623Y0053962D01*
X0128373Y0053211D01*
X0128373Y0052460D01*
X0127623Y0051710D01*
X0128373Y0047316D02*
X0128373Y0044314D01*
X0128373Y0045815D02*
X0123870Y0045815D01*
X0125371Y0044314D01*
X0123870Y0042712D02*
X0123870Y0041211D01*
X0123870Y0041962D02*
X0127623Y0041962D01*
X0128373Y0041211D01*
X0128373Y0040460D01*
X0127623Y0039710D01*
X0045467Y0048868D02*
X0043566Y0048868D01*
X0043566Y0049819D01*
X0043883Y0050136D01*
X0044516Y0050136D01*
X0044833Y0049819D01*
X0044833Y0048868D01*
X0044199Y0051078D02*
X0043566Y0051712D01*
X0045467Y0051712D01*
X0045467Y0051078D02*
X0045467Y0052346D01*
D15*
X0101154Y0207697D03*
X0112178Y0207618D03*
X0122414Y0207933D03*
X0133044Y0207854D03*
D16*
X0140823Y0209760D02*
X0140823Y0219760D01*
X0140823Y0229760D01*
X0150823Y0229760D01*
X0150823Y0227260D01*
X0150823Y0222260D02*
X0150823Y0219760D01*
X0140823Y0219760D01*
X0150823Y0219760D02*
X0150823Y0217260D01*
X0150823Y0212260D02*
X0150823Y0209760D01*
X0140823Y0209760D01*
X0140823Y0059760D02*
X0150823Y0059760D01*
X0150823Y0057260D01*
X0150823Y0052260D02*
X0150823Y0049760D01*
X0140823Y0049760D01*
X0140823Y0059760D01*
X0140823Y0049760D02*
X0140823Y0039760D01*
X0150823Y0039760D01*
X0150823Y0042260D01*
X0150823Y0047260D02*
X0150823Y0049760D01*
D17*
X0154471Y0034822D02*
X0157673Y0034822D01*
X0154471Y0032687D01*
X0157673Y0032687D01*
X0157673Y0031606D02*
X0157673Y0030539D01*
X0157673Y0031072D02*
X0154471Y0031072D01*
X0154471Y0030539D02*
X0154471Y0031606D01*
X0155538Y0029451D02*
X0154471Y0028383D01*
X0155538Y0027316D01*
X0157673Y0027316D01*
X0156072Y0027316D02*
X0156072Y0029451D01*
X0155538Y0029451D02*
X0157673Y0029451D01*
X0164471Y0029464D02*
X0164471Y0031066D01*
X0165005Y0031599D01*
X0166072Y0031599D01*
X0166606Y0031066D01*
X0166606Y0029464D01*
X0167673Y0029464D02*
X0164471Y0029464D01*
X0166606Y0030532D02*
X0167673Y0031599D01*
X0167673Y0032687D02*
X0164471Y0034822D01*
X0164471Y0032687D02*
X0167673Y0034822D01*
X0173471Y0034822D02*
X0176673Y0032687D01*
X0176673Y0034822D02*
X0173471Y0032687D01*
X0173471Y0031599D02*
X0173471Y0029464D01*
X0173471Y0030532D02*
X0176673Y0030532D01*
X0183471Y0030539D02*
X0183471Y0031606D01*
X0183471Y0031072D02*
X0186673Y0031072D01*
X0186673Y0030539D02*
X0186673Y0031606D01*
X0186140Y0032687D02*
X0184005Y0032687D01*
X0183471Y0033221D01*
X0183471Y0034288D01*
X0184005Y0034822D01*
X0186140Y0034822D01*
X0186673Y0034288D01*
X0186673Y0033221D01*
X0186140Y0032687D01*
X0185072Y0029451D02*
X0185606Y0028917D01*
X0185606Y0027316D01*
X0186673Y0027316D02*
X0183471Y0027316D01*
X0183471Y0028917D01*
X0184005Y0029451D01*
X0185072Y0029451D01*
X0185072Y0026228D02*
X0185072Y0025161D01*
X0185072Y0026228D02*
X0186140Y0026228D01*
X0186673Y0025694D01*
X0186673Y0024627D01*
X0186140Y0024093D01*
X0184005Y0024093D01*
X0183471Y0024627D01*
X0183471Y0025694D01*
X0184005Y0026228D01*
X0193471Y0028383D02*
X0194538Y0029451D01*
X0196673Y0029451D01*
X0196673Y0030539D02*
X0196673Y0031606D01*
X0196673Y0031072D02*
X0193471Y0031072D01*
X0193471Y0030539D02*
X0193471Y0031606D01*
X0193471Y0032687D02*
X0196673Y0034822D01*
X0193471Y0034822D01*
X0193471Y0032687D02*
X0196673Y0032687D01*
X0195072Y0029451D02*
X0195072Y0027316D01*
X0194538Y0027316D02*
X0193471Y0028383D01*
X0194538Y0027316D02*
X0196673Y0027316D01*
X0203471Y0027843D02*
X0203471Y0026775D01*
X0204005Y0026242D01*
X0206140Y0026242D01*
X0206673Y0026775D01*
X0206673Y0027843D01*
X0206140Y0028377D01*
X0206673Y0029464D02*
X0203471Y0029464D01*
X0204005Y0028377D02*
X0203471Y0027843D01*
X0206673Y0029464D02*
X0206673Y0031599D01*
X0206673Y0032687D02*
X0203471Y0032687D01*
X0205072Y0033221D02*
X0206673Y0034822D01*
X0205606Y0032687D02*
X0203471Y0034822D01*
X0213471Y0034288D02*
X0214005Y0034822D01*
X0216140Y0034822D01*
X0216673Y0034288D01*
X0216673Y0033221D01*
X0216140Y0032687D01*
X0214005Y0032687D01*
X0213471Y0033221D01*
X0213471Y0034288D01*
X0213471Y0031606D02*
X0213471Y0030539D01*
X0213471Y0031072D02*
X0216673Y0031072D01*
X0216673Y0030539D02*
X0216673Y0031606D01*
X0215072Y0029451D02*
X0215606Y0028917D01*
X0215606Y0027316D01*
X0216673Y0027316D02*
X0213471Y0027316D01*
X0213471Y0028917D01*
X0214005Y0029451D01*
X0215072Y0029451D01*
X0215072Y0026228D02*
X0215072Y0025161D01*
X0215072Y0026228D02*
X0216140Y0026228D01*
X0216673Y0025694D01*
X0216673Y0024627D01*
X0216140Y0024093D01*
X0214005Y0024093D01*
X0213471Y0024627D01*
X0213471Y0025694D01*
X0214005Y0026228D01*
X0223471Y0026775D02*
X0224005Y0026242D01*
X0224538Y0026242D01*
X0225072Y0026775D01*
X0225072Y0027843D01*
X0225606Y0028377D01*
X0226140Y0028377D01*
X0226673Y0027843D01*
X0226673Y0026775D01*
X0226140Y0026242D01*
X0223471Y0026775D02*
X0223471Y0027843D01*
X0224005Y0028377D01*
X0224005Y0029464D02*
X0223471Y0029998D01*
X0223471Y0031066D01*
X0224005Y0031599D01*
X0223471Y0032687D02*
X0226673Y0032687D01*
X0226673Y0034822D01*
X0226140Y0031599D02*
X0226673Y0031066D01*
X0226673Y0029998D01*
X0226140Y0029464D01*
X0224005Y0029464D01*
X0233471Y0029464D02*
X0233471Y0031066D01*
X0234005Y0031599D01*
X0236140Y0031599D01*
X0236673Y0031066D01*
X0236673Y0029464D01*
X0233471Y0029464D01*
X0234005Y0028377D02*
X0233471Y0027843D01*
X0233471Y0026775D01*
X0234005Y0026242D01*
X0234538Y0026242D01*
X0235072Y0026775D01*
X0235072Y0027843D01*
X0235606Y0028377D01*
X0236140Y0028377D01*
X0236673Y0027843D01*
X0236673Y0026775D01*
X0236140Y0026242D01*
X0236673Y0032687D02*
X0234538Y0032687D01*
X0233471Y0033755D01*
X0234538Y0034822D01*
X0236673Y0034822D01*
X0235072Y0034822D02*
X0235072Y0032687D01*
X0244471Y0033977D02*
X0247673Y0033977D01*
X0247673Y0032910D02*
X0247673Y0035045D01*
X0247140Y0036133D02*
X0245005Y0038268D01*
X0247140Y0038268D01*
X0247673Y0037734D01*
X0247673Y0036666D01*
X0247140Y0036133D01*
X0245005Y0036133D01*
X0244471Y0036666D01*
X0244471Y0037734D01*
X0245005Y0038268D01*
X0244471Y0033977D02*
X0245538Y0032910D01*
X0245005Y0062464D02*
X0244471Y0062998D01*
X0244471Y0064066D01*
X0245005Y0064599D01*
X0245538Y0064599D01*
X0246072Y0064066D01*
X0246606Y0064599D01*
X0247140Y0064599D01*
X0247673Y0064066D01*
X0247673Y0062998D01*
X0247140Y0062464D01*
X0246072Y0063532D02*
X0246072Y0064066D01*
X0245005Y0065687D02*
X0244471Y0066221D01*
X0244471Y0067288D01*
X0245005Y0067822D01*
X0247140Y0065687D01*
X0247673Y0066221D01*
X0247673Y0067288D01*
X0247140Y0067822D01*
X0245005Y0067822D01*
X0245005Y0065687D02*
X0247140Y0065687D01*
X0237673Y0066045D02*
X0235538Y0066045D01*
X0234471Y0064977D01*
X0235538Y0063910D01*
X0237673Y0063910D01*
X0236072Y0063910D02*
X0236072Y0066045D01*
X0235005Y0067133D02*
X0237140Y0067133D01*
X0237673Y0067666D01*
X0237673Y0068734D01*
X0237140Y0069268D01*
X0235005Y0069268D01*
X0234471Y0068734D01*
X0234471Y0067666D01*
X0235005Y0067133D01*
X0234471Y0070355D02*
X0237140Y0070355D01*
X0237673Y0070889D01*
X0237673Y0071957D01*
X0237140Y0072490D01*
X0234471Y0072490D01*
X0234471Y0073578D02*
X0234471Y0075713D01*
X0234471Y0074646D02*
X0237673Y0074646D01*
X0227673Y0074646D02*
X0224471Y0074646D01*
X0224471Y0075713D02*
X0224471Y0073578D01*
X0224471Y0072490D02*
X0227140Y0072490D01*
X0227673Y0071957D01*
X0227673Y0070889D01*
X0227140Y0070355D01*
X0224471Y0070355D01*
X0225005Y0069268D02*
X0224471Y0068734D01*
X0224471Y0067666D01*
X0225005Y0067133D01*
X0227140Y0067133D01*
X0227673Y0067666D01*
X0227673Y0068734D01*
X0227140Y0069268D01*
X0225005Y0069268D01*
X0225538Y0066045D02*
X0227673Y0066045D01*
X0226072Y0066045D02*
X0226072Y0063910D01*
X0225538Y0063910D02*
X0224471Y0064977D01*
X0225538Y0066045D01*
X0225538Y0063910D02*
X0227673Y0063910D01*
X0217673Y0063910D02*
X0215538Y0063910D01*
X0214471Y0064977D01*
X0215538Y0066045D01*
X0217673Y0066045D01*
X0217673Y0067133D02*
X0217673Y0068200D01*
X0217673Y0067666D02*
X0214471Y0067666D01*
X0214471Y0067133D02*
X0214471Y0068200D01*
X0214471Y0069281D02*
X0217673Y0071416D01*
X0214471Y0071416D01*
X0214471Y0069281D02*
X0217673Y0069281D01*
X0216072Y0066045D02*
X0216072Y0063910D01*
X0207673Y0063910D02*
X0205538Y0063910D01*
X0204471Y0064977D01*
X0205538Y0066045D01*
X0207673Y0066045D01*
X0207673Y0067133D02*
X0207673Y0068200D01*
X0207673Y0067666D02*
X0204471Y0067666D01*
X0204471Y0067133D02*
X0204471Y0068200D01*
X0204471Y0069281D02*
X0207673Y0071416D01*
X0204471Y0071416D01*
X0204471Y0069281D02*
X0207673Y0069281D01*
X0206072Y0066045D02*
X0206072Y0063910D01*
X0197673Y0063910D02*
X0195538Y0063910D01*
X0194471Y0064977D01*
X0195538Y0066045D01*
X0197673Y0066045D01*
X0197673Y0067133D02*
X0197673Y0068200D01*
X0197673Y0067666D02*
X0194471Y0067666D01*
X0194471Y0067133D02*
X0194471Y0068200D01*
X0194471Y0069281D02*
X0197673Y0071416D01*
X0194471Y0071416D01*
X0194471Y0069281D02*
X0197673Y0069281D01*
X0196072Y0066045D02*
X0196072Y0063910D01*
X0187673Y0063910D02*
X0185538Y0063910D01*
X0184471Y0064977D01*
X0185538Y0066045D01*
X0187673Y0066045D01*
X0187673Y0067133D02*
X0187673Y0068200D01*
X0187673Y0067666D02*
X0184471Y0067666D01*
X0184471Y0067133D02*
X0184471Y0068200D01*
X0184471Y0069281D02*
X0187673Y0071416D01*
X0184471Y0071416D01*
X0184471Y0069281D02*
X0187673Y0069281D01*
X0186072Y0066045D02*
X0186072Y0063910D01*
X0177673Y0063910D02*
X0175538Y0063910D01*
X0174471Y0064977D01*
X0175538Y0066045D01*
X0177673Y0066045D01*
X0177673Y0067133D02*
X0177673Y0068200D01*
X0177673Y0067666D02*
X0174471Y0067666D01*
X0174471Y0067133D02*
X0174471Y0068200D01*
X0174471Y0069281D02*
X0177673Y0071416D01*
X0174471Y0071416D01*
X0174471Y0069281D02*
X0177673Y0069281D01*
X0176072Y0066045D02*
X0176072Y0063910D01*
X0167673Y0063910D02*
X0165538Y0063910D01*
X0164471Y0064977D01*
X0165538Y0066045D01*
X0167673Y0066045D01*
X0167673Y0067133D02*
X0167673Y0068200D01*
X0167673Y0067666D02*
X0164471Y0067666D01*
X0164471Y0067133D02*
X0164471Y0068200D01*
X0164471Y0069281D02*
X0167673Y0071416D01*
X0164471Y0071416D01*
X0164471Y0069281D02*
X0167673Y0069281D01*
X0166072Y0066045D02*
X0166072Y0063910D01*
X0157673Y0064444D02*
X0157673Y0065511D01*
X0157140Y0066045D01*
X0156072Y0066045D01*
X0156072Y0064977D01*
X0155005Y0063910D02*
X0157140Y0063910D01*
X0157673Y0064444D01*
X0157673Y0067133D02*
X0154471Y0067133D01*
X0157673Y0069268D01*
X0154471Y0069268D01*
X0154471Y0070355D02*
X0154471Y0071957D01*
X0155005Y0072490D01*
X0157140Y0072490D01*
X0157673Y0071957D01*
X0157673Y0070355D01*
X0154471Y0070355D01*
X0155005Y0066045D02*
X0154471Y0065511D01*
X0154471Y0064444D01*
X0155005Y0063910D01*
X0147673Y0064444D02*
X0147140Y0063910D01*
X0147673Y0064444D02*
X0147673Y0065511D01*
X0147140Y0066045D01*
X0146072Y0066045D01*
X0145538Y0065511D01*
X0145538Y0064977D01*
X0146072Y0063910D01*
X0144471Y0063910D01*
X0144471Y0066045D01*
X0144471Y0067133D02*
X0146606Y0067133D01*
X0147673Y0068200D01*
X0146606Y0069268D01*
X0144471Y0069268D01*
X0136673Y0067822D02*
X0136673Y0065687D01*
X0136673Y0066755D02*
X0133471Y0066755D01*
X0134538Y0065687D01*
X0134538Y0064599D02*
X0134005Y0064599D01*
X0133471Y0064066D01*
X0133471Y0062998D01*
X0134005Y0062464D01*
X0134538Y0064599D02*
X0136673Y0062464D01*
X0136673Y0064599D01*
X0136673Y0035045D02*
X0136673Y0032910D01*
X0136673Y0033977D02*
X0133471Y0033977D01*
X0134538Y0032910D01*
X0183471Y0190870D02*
X0183471Y0193005D01*
X0183471Y0191938D02*
X0186673Y0191938D01*
X0186673Y0194093D02*
X0186673Y0195161D01*
X0186673Y0194627D02*
X0183471Y0194627D01*
X0183471Y0194093D02*
X0183471Y0195161D01*
X0183471Y0196242D02*
X0184538Y0197309D01*
X0183471Y0198377D01*
X0186673Y0198377D01*
X0186673Y0199464D02*
X0183471Y0199464D01*
X0183471Y0201599D01*
X0183471Y0202687D02*
X0183471Y0204288D01*
X0184005Y0204822D01*
X0185072Y0204822D01*
X0185606Y0204288D01*
X0185606Y0202687D01*
X0186673Y0202687D02*
X0183471Y0202687D01*
X0185606Y0203755D02*
X0186673Y0204822D01*
X0186673Y0201599D02*
X0186673Y0199464D01*
X0185072Y0199464D02*
X0185072Y0200532D01*
X0186673Y0196242D02*
X0183471Y0196242D01*
X0176673Y0196242D02*
X0173471Y0196242D01*
X0173471Y0197843D01*
X0174005Y0198377D01*
X0175072Y0198377D01*
X0175606Y0197843D01*
X0175606Y0196242D01*
X0176673Y0199464D02*
X0175606Y0200532D01*
X0176673Y0201599D01*
X0173471Y0201599D01*
X0173471Y0202687D02*
X0174538Y0203755D01*
X0173471Y0204822D01*
X0176673Y0204822D01*
X0176673Y0202687D02*
X0173471Y0202687D01*
X0173471Y0199464D02*
X0176673Y0199464D01*
X0167673Y0199464D02*
X0166606Y0200532D01*
X0167673Y0201599D01*
X0164471Y0201599D01*
X0164471Y0202687D02*
X0165538Y0203755D01*
X0164471Y0204822D01*
X0167673Y0204822D01*
X0167673Y0202687D02*
X0164471Y0202687D01*
X0164471Y0199464D02*
X0167673Y0199464D01*
X0166072Y0198377D02*
X0165005Y0198377D01*
X0164471Y0197843D01*
X0164471Y0196242D01*
X0167673Y0196242D01*
X0166606Y0196242D02*
X0166606Y0197843D01*
X0166072Y0198377D01*
X0157673Y0199464D02*
X0156606Y0200532D01*
X0157673Y0201599D01*
X0154471Y0201599D01*
X0154471Y0202687D02*
X0155538Y0203755D01*
X0154471Y0204822D01*
X0157673Y0204822D01*
X0157673Y0202687D02*
X0154471Y0202687D01*
X0154471Y0199464D02*
X0157673Y0199464D01*
X0156072Y0198377D02*
X0156606Y0197843D01*
X0156606Y0196242D01*
X0157673Y0196242D02*
X0154471Y0196242D01*
X0154471Y0197843D01*
X0155005Y0198377D01*
X0156072Y0198377D01*
X0147673Y0199464D02*
X0146606Y0200532D01*
X0147673Y0201599D01*
X0144471Y0201599D01*
X0144471Y0202687D02*
X0145538Y0203755D01*
X0144471Y0204822D01*
X0147673Y0204822D01*
X0147673Y0202687D02*
X0144471Y0202687D01*
X0144471Y0199464D02*
X0147673Y0199464D01*
X0146072Y0198377D02*
X0146606Y0197843D01*
X0146606Y0196242D01*
X0147673Y0196242D02*
X0144471Y0196242D01*
X0144471Y0197843D01*
X0145005Y0198377D01*
X0146072Y0198377D01*
X0136673Y0204511D02*
X0133471Y0204511D01*
X0135072Y0202910D01*
X0135072Y0205045D01*
X0134005Y0206133D02*
X0136140Y0206133D01*
X0134005Y0208268D01*
X0136140Y0208268D01*
X0136673Y0207734D01*
X0136673Y0206666D01*
X0136140Y0206133D01*
X0134005Y0206133D02*
X0133471Y0206666D01*
X0133471Y0207734D01*
X0134005Y0208268D01*
X0134005Y0232464D02*
X0133471Y0232998D01*
X0133471Y0234066D01*
X0134005Y0234599D01*
X0134538Y0234599D01*
X0136673Y0232464D01*
X0136673Y0234599D01*
X0136140Y0235687D02*
X0134005Y0237822D01*
X0136140Y0237822D01*
X0136673Y0237288D01*
X0136673Y0236221D01*
X0136140Y0235687D01*
X0134005Y0235687D01*
X0133471Y0236221D01*
X0133471Y0237288D01*
X0134005Y0237822D01*
X0144471Y0237133D02*
X0147673Y0239268D01*
X0144471Y0239268D01*
X0144471Y0240355D02*
X0144471Y0241957D01*
X0145005Y0242490D01*
X0147140Y0242490D01*
X0147673Y0241957D01*
X0147673Y0240355D01*
X0144471Y0240355D01*
X0144471Y0237133D02*
X0147673Y0237133D01*
X0147140Y0236045D02*
X0146072Y0236045D01*
X0146072Y0234977D01*
X0145005Y0233910D02*
X0147140Y0233910D01*
X0147673Y0234444D01*
X0147673Y0235511D01*
X0147140Y0236045D01*
X0145005Y0236045D02*
X0144471Y0235511D01*
X0144471Y0234444D01*
X0145005Y0233910D01*
X0154471Y0233910D02*
X0154471Y0235511D01*
X0155005Y0236045D01*
X0156072Y0236045D01*
X0156606Y0235511D01*
X0156606Y0233910D01*
X0157673Y0233910D02*
X0154471Y0233910D01*
X0154471Y0237133D02*
X0157673Y0237133D01*
X0156606Y0238200D01*
X0157673Y0239268D01*
X0154471Y0239268D01*
X0154471Y0240355D02*
X0155538Y0241423D01*
X0154471Y0242490D01*
X0157673Y0242490D01*
X0157673Y0240355D02*
X0154471Y0240355D01*
X0164471Y0238734D02*
X0164471Y0237666D01*
X0165005Y0237133D01*
X0165538Y0237133D01*
X0166072Y0237666D01*
X0166072Y0238734D01*
X0166606Y0239268D01*
X0167140Y0239268D01*
X0167673Y0238734D01*
X0167673Y0237666D01*
X0167140Y0237133D01*
X0167140Y0236045D02*
X0167673Y0235511D01*
X0167673Y0234444D01*
X0167140Y0233910D01*
X0165005Y0233910D01*
X0164471Y0234444D01*
X0164471Y0235511D01*
X0165005Y0236045D01*
X0164471Y0238734D02*
X0165005Y0239268D01*
X0174471Y0238734D02*
X0174471Y0237133D01*
X0177673Y0237133D01*
X0176606Y0237133D02*
X0176606Y0238734D01*
X0176072Y0239268D01*
X0175005Y0239268D01*
X0174471Y0238734D01*
X0174471Y0240355D02*
X0174471Y0241423D01*
X0174471Y0240889D02*
X0177673Y0240889D01*
X0177673Y0240355D02*
X0177673Y0241423D01*
X0177140Y0242504D02*
X0177673Y0243038D01*
X0177673Y0244105D01*
X0177140Y0244639D01*
X0175005Y0244639D01*
X0174471Y0244105D01*
X0174471Y0243038D01*
X0175005Y0242504D01*
X0177140Y0242504D01*
X0177140Y0236045D02*
X0176072Y0236045D01*
X0176072Y0234977D01*
X0175005Y0233910D02*
X0177140Y0233910D01*
X0177673Y0234444D01*
X0177673Y0235511D01*
X0177140Y0236045D01*
X0175005Y0236045D02*
X0174471Y0235511D01*
X0174471Y0234444D01*
X0175005Y0233910D01*
X0184471Y0233910D02*
X0184471Y0235511D01*
X0185005Y0236045D01*
X0186072Y0236045D01*
X0186606Y0235511D01*
X0186606Y0233910D01*
X0186606Y0234977D02*
X0187673Y0236045D01*
X0187140Y0237133D02*
X0187673Y0237666D01*
X0187673Y0238734D01*
X0187140Y0239268D01*
X0186606Y0239268D01*
X0186072Y0238734D01*
X0186072Y0237666D01*
X0185538Y0237133D01*
X0185005Y0237133D01*
X0184471Y0237666D01*
X0184471Y0238734D01*
X0185005Y0239268D01*
X0184471Y0240355D02*
X0184471Y0242490D01*
X0184471Y0241423D02*
X0187673Y0241423D01*
X0194471Y0241957D02*
X0194471Y0240889D01*
X0195005Y0240355D01*
X0195538Y0240355D01*
X0196072Y0240889D01*
X0196072Y0241957D01*
X0196606Y0242490D01*
X0197140Y0242490D01*
X0197673Y0241957D01*
X0197673Y0240889D01*
X0197140Y0240355D01*
X0197140Y0239268D02*
X0195005Y0239268D01*
X0194471Y0238734D01*
X0194471Y0237666D01*
X0195005Y0237133D01*
X0197140Y0237133D01*
X0197673Y0237666D01*
X0197673Y0238734D01*
X0197140Y0239268D01*
X0197673Y0236045D02*
X0194471Y0236045D01*
X0195538Y0234977D01*
X0194471Y0233910D01*
X0197673Y0233910D01*
X0204471Y0233910D02*
X0205538Y0234977D01*
X0204471Y0236045D01*
X0207673Y0236045D01*
X0207673Y0237133D02*
X0207673Y0238200D01*
X0207673Y0237666D02*
X0204471Y0237666D01*
X0204471Y0237133D02*
X0204471Y0238200D01*
X0205005Y0239281D02*
X0205538Y0239281D01*
X0206072Y0239815D01*
X0206072Y0240882D01*
X0206606Y0241416D01*
X0207140Y0241416D01*
X0207673Y0240882D01*
X0207673Y0239815D01*
X0207140Y0239281D01*
X0205005Y0239281D02*
X0204471Y0239815D01*
X0204471Y0240882D01*
X0205005Y0241416D01*
X0205005Y0242504D02*
X0207140Y0242504D01*
X0207673Y0243038D01*
X0207673Y0244105D01*
X0207140Y0244639D01*
X0205005Y0244639D01*
X0204471Y0244105D01*
X0204471Y0243038D01*
X0205005Y0242504D01*
X0197673Y0243578D02*
X0197673Y0244646D01*
X0197673Y0244112D02*
X0194471Y0244112D01*
X0194471Y0243578D02*
X0194471Y0244646D01*
X0195005Y0242490D02*
X0194471Y0241957D01*
X0187673Y0233910D02*
X0184471Y0233910D01*
X0204471Y0233910D02*
X0207673Y0233910D01*
X0214471Y0234444D02*
X0215005Y0233910D01*
X0217140Y0233910D01*
X0217673Y0234444D01*
X0217673Y0235511D01*
X0217140Y0236045D01*
X0217140Y0237133D02*
X0217673Y0237666D01*
X0217673Y0238734D01*
X0217140Y0239268D01*
X0216606Y0239268D01*
X0216072Y0238734D01*
X0216072Y0237666D01*
X0215538Y0237133D01*
X0215005Y0237133D01*
X0214471Y0237666D01*
X0214471Y0238734D01*
X0215005Y0239268D01*
X0215005Y0236045D02*
X0214471Y0235511D01*
X0214471Y0234444D01*
X0224471Y0234444D02*
X0225005Y0233910D01*
X0227140Y0233910D01*
X0227673Y0234444D01*
X0227673Y0235511D01*
X0227140Y0236045D01*
X0227140Y0237133D02*
X0227673Y0237666D01*
X0227673Y0238734D01*
X0227140Y0239268D01*
X0226606Y0239268D01*
X0226072Y0238734D01*
X0226072Y0237666D01*
X0225538Y0237133D01*
X0225005Y0237133D01*
X0224471Y0237666D01*
X0224471Y0238734D01*
X0225005Y0239268D01*
X0225005Y0236045D02*
X0224471Y0235511D01*
X0224471Y0234444D01*
X0234471Y0234444D02*
X0235005Y0233910D01*
X0237140Y0233910D01*
X0237673Y0234444D01*
X0237673Y0235511D01*
X0237140Y0236045D01*
X0236072Y0236045D01*
X0236072Y0234977D01*
X0235005Y0236045D02*
X0234471Y0235511D01*
X0234471Y0234444D01*
X0234471Y0237133D02*
X0234471Y0238734D01*
X0235005Y0239268D01*
X0236072Y0239268D01*
X0236606Y0238734D01*
X0236606Y0237133D01*
X0237673Y0237133D02*
X0234471Y0237133D01*
X0234471Y0240355D02*
X0234471Y0241423D01*
X0234471Y0240889D02*
X0237673Y0240889D01*
X0237673Y0240355D02*
X0237673Y0241423D01*
X0237140Y0242504D02*
X0237673Y0243038D01*
X0237673Y0244105D01*
X0237140Y0244639D01*
X0235005Y0244639D01*
X0234471Y0244105D01*
X0234471Y0243038D01*
X0235005Y0242504D01*
X0237140Y0242504D01*
X0244471Y0236755D02*
X0247673Y0236755D01*
X0247673Y0237822D02*
X0247673Y0235687D01*
X0247673Y0234599D02*
X0247673Y0232464D01*
X0247673Y0233532D02*
X0244471Y0233532D01*
X0245538Y0232464D01*
X0245538Y0235687D02*
X0244471Y0236755D01*
X0247673Y0208268D02*
X0247673Y0206133D01*
X0247673Y0207200D02*
X0244471Y0207200D01*
X0245538Y0206133D01*
X0245538Y0205045D02*
X0246072Y0204511D01*
X0246606Y0205045D01*
X0247140Y0205045D01*
X0247673Y0204511D01*
X0247673Y0203444D01*
X0247140Y0202910D01*
X0246072Y0203977D02*
X0246072Y0204511D01*
X0245538Y0205045D02*
X0245005Y0205045D01*
X0244471Y0204511D01*
X0244471Y0203444D01*
X0245005Y0202910D01*
X0236673Y0203221D02*
X0236673Y0204288D01*
X0236140Y0204822D01*
X0234005Y0204822D01*
X0233471Y0204288D01*
X0233471Y0203221D01*
X0234005Y0202687D01*
X0236140Y0202687D01*
X0236673Y0203221D01*
X0236673Y0201606D02*
X0236673Y0200539D01*
X0236673Y0201072D02*
X0233471Y0201072D01*
X0233471Y0200539D02*
X0233471Y0201606D01*
X0234005Y0199451D02*
X0235072Y0199451D01*
X0235606Y0198917D01*
X0235606Y0197316D01*
X0236673Y0197316D02*
X0233471Y0197316D01*
X0233471Y0198917D01*
X0234005Y0199451D01*
X0234005Y0196228D02*
X0233471Y0195694D01*
X0233471Y0194627D01*
X0234005Y0194093D01*
X0236140Y0194093D01*
X0236673Y0194627D01*
X0236673Y0195694D01*
X0236140Y0196228D01*
X0235072Y0196228D01*
X0235072Y0195161D01*
X0226673Y0195694D02*
X0226140Y0196228D01*
X0225072Y0196228D01*
X0225072Y0195161D01*
X0224005Y0196228D02*
X0223471Y0195694D01*
X0223471Y0194627D01*
X0224005Y0194093D01*
X0226140Y0194093D01*
X0226673Y0194627D01*
X0226673Y0195694D01*
X0226673Y0197316D02*
X0223471Y0197316D01*
X0223471Y0198917D01*
X0224005Y0199451D01*
X0225072Y0199451D01*
X0225606Y0198917D01*
X0225606Y0197316D01*
X0226673Y0200539D02*
X0226673Y0201606D01*
X0226673Y0201072D02*
X0223471Y0201072D01*
X0223471Y0200539D02*
X0223471Y0201606D01*
X0224005Y0202687D02*
X0223471Y0203221D01*
X0223471Y0204288D01*
X0224005Y0204822D01*
X0226140Y0204822D01*
X0226673Y0204288D01*
X0226673Y0203221D01*
X0226140Y0202687D01*
X0224005Y0202687D01*
X0216673Y0203221D02*
X0216673Y0204288D01*
X0216140Y0204822D01*
X0214005Y0204822D01*
X0213471Y0204288D01*
X0213471Y0203221D01*
X0214005Y0202687D01*
X0216140Y0202687D01*
X0216673Y0203221D01*
X0216673Y0201606D02*
X0216673Y0200539D01*
X0216673Y0201072D02*
X0213471Y0201072D01*
X0213471Y0200539D02*
X0213471Y0201606D01*
X0214005Y0199451D02*
X0213471Y0198917D01*
X0213471Y0197316D01*
X0216673Y0197316D01*
X0215606Y0197316D02*
X0215606Y0198917D01*
X0215072Y0199451D01*
X0214005Y0199451D01*
X0214005Y0196228D02*
X0213471Y0195694D01*
X0213471Y0194627D01*
X0214005Y0194093D01*
X0216140Y0194093D01*
X0216673Y0194627D01*
X0216673Y0195694D01*
X0216140Y0196228D01*
X0215072Y0196228D01*
X0215072Y0195161D01*
X0206673Y0195694D02*
X0206140Y0196228D01*
X0205072Y0196228D01*
X0205072Y0195161D01*
X0204005Y0196228D02*
X0203471Y0195694D01*
X0203471Y0194627D01*
X0204005Y0194093D01*
X0206140Y0194093D01*
X0206673Y0194627D01*
X0206673Y0195694D01*
X0206673Y0197316D02*
X0203471Y0197316D01*
X0203471Y0198917D01*
X0204005Y0199451D01*
X0205072Y0199451D01*
X0205606Y0198917D01*
X0205606Y0197316D01*
X0206673Y0200539D02*
X0206673Y0201606D01*
X0206673Y0201072D02*
X0203471Y0201072D01*
X0203471Y0200539D02*
X0203471Y0201606D01*
X0204005Y0202687D02*
X0206140Y0202687D01*
X0206673Y0203221D01*
X0206673Y0204288D01*
X0206140Y0204822D01*
X0204005Y0204822D01*
X0203471Y0204288D01*
X0203471Y0203221D01*
X0204005Y0202687D01*
X0196673Y0202687D02*
X0193471Y0202687D01*
X0193471Y0204288D01*
X0194005Y0204822D01*
X0195072Y0204822D01*
X0195606Y0204288D01*
X0195606Y0202687D01*
X0195606Y0203755D02*
X0196673Y0204822D01*
X0196673Y0201599D02*
X0196673Y0199464D01*
X0193471Y0199464D01*
X0193471Y0201599D01*
X0195072Y0200532D02*
X0195072Y0199464D01*
X0193471Y0198377D02*
X0196673Y0198377D01*
X0196673Y0196242D02*
X0193471Y0196242D01*
X0194538Y0197309D01*
X0193471Y0198377D01*
X0193471Y0195161D02*
X0193471Y0194093D01*
X0193471Y0194627D02*
X0196673Y0194627D01*
X0196673Y0194093D02*
X0196673Y0195161D01*
X0196673Y0191938D02*
X0193471Y0191938D01*
X0193471Y0193005D02*
X0193471Y0190870D01*
M02*
