G75*
%MOIN*%
%OFA0B0*%
%FSLAX25Y25*%
%IPPOS*%
%LPD*%
%AMOC8*
5,1,8,0,0,1.08239X$1,22.5*
%
%ADD10C,0.00000*%
%ADD11R,0.03150X0.06299*%
%ADD12R,0.08268X0.11811*%
D10*
X0036217Y0028618D02*
X0036217Y0233579D01*
X0339918Y0233579D01*
X0339918Y0028618D01*
X0036217Y0028618D01*
X0307792Y0225862D02*
X0307794Y0226015D01*
X0307800Y0226169D01*
X0307810Y0226322D01*
X0307824Y0226474D01*
X0307842Y0226627D01*
X0307864Y0226778D01*
X0307889Y0226929D01*
X0307919Y0227080D01*
X0307953Y0227230D01*
X0307990Y0227378D01*
X0308031Y0227526D01*
X0308076Y0227672D01*
X0308125Y0227818D01*
X0308178Y0227962D01*
X0308234Y0228104D01*
X0308294Y0228245D01*
X0308358Y0228385D01*
X0308425Y0228523D01*
X0308496Y0228659D01*
X0308571Y0228793D01*
X0308648Y0228925D01*
X0308730Y0229055D01*
X0308814Y0229183D01*
X0308902Y0229309D01*
X0308993Y0229432D01*
X0309087Y0229553D01*
X0309185Y0229671D01*
X0309285Y0229787D01*
X0309389Y0229900D01*
X0309495Y0230011D01*
X0309604Y0230119D01*
X0309716Y0230224D01*
X0309830Y0230325D01*
X0309948Y0230424D01*
X0310067Y0230520D01*
X0310189Y0230613D01*
X0310314Y0230702D01*
X0310441Y0230789D01*
X0310570Y0230871D01*
X0310701Y0230951D01*
X0310834Y0231027D01*
X0310969Y0231100D01*
X0311106Y0231169D01*
X0311245Y0231234D01*
X0311385Y0231296D01*
X0311527Y0231354D01*
X0311670Y0231409D01*
X0311815Y0231460D01*
X0311961Y0231507D01*
X0312108Y0231550D01*
X0312256Y0231589D01*
X0312405Y0231625D01*
X0312555Y0231656D01*
X0312706Y0231684D01*
X0312857Y0231708D01*
X0313010Y0231728D01*
X0313162Y0231744D01*
X0313315Y0231756D01*
X0313468Y0231764D01*
X0313621Y0231768D01*
X0313775Y0231768D01*
X0313928Y0231764D01*
X0314081Y0231756D01*
X0314234Y0231744D01*
X0314386Y0231728D01*
X0314539Y0231708D01*
X0314690Y0231684D01*
X0314841Y0231656D01*
X0314991Y0231625D01*
X0315140Y0231589D01*
X0315288Y0231550D01*
X0315435Y0231507D01*
X0315581Y0231460D01*
X0315726Y0231409D01*
X0315869Y0231354D01*
X0316011Y0231296D01*
X0316151Y0231234D01*
X0316290Y0231169D01*
X0316427Y0231100D01*
X0316562Y0231027D01*
X0316695Y0230951D01*
X0316826Y0230871D01*
X0316955Y0230789D01*
X0317082Y0230702D01*
X0317207Y0230613D01*
X0317329Y0230520D01*
X0317448Y0230424D01*
X0317566Y0230325D01*
X0317680Y0230224D01*
X0317792Y0230119D01*
X0317901Y0230011D01*
X0318007Y0229900D01*
X0318111Y0229787D01*
X0318211Y0229671D01*
X0318309Y0229553D01*
X0318403Y0229432D01*
X0318494Y0229309D01*
X0318582Y0229183D01*
X0318666Y0229055D01*
X0318748Y0228925D01*
X0318825Y0228793D01*
X0318900Y0228659D01*
X0318971Y0228523D01*
X0319038Y0228385D01*
X0319102Y0228245D01*
X0319162Y0228104D01*
X0319218Y0227962D01*
X0319271Y0227818D01*
X0319320Y0227672D01*
X0319365Y0227526D01*
X0319406Y0227378D01*
X0319443Y0227230D01*
X0319477Y0227080D01*
X0319507Y0226929D01*
X0319532Y0226778D01*
X0319554Y0226627D01*
X0319572Y0226474D01*
X0319586Y0226322D01*
X0319596Y0226169D01*
X0319602Y0226015D01*
X0319604Y0225862D01*
X0319602Y0225709D01*
X0319596Y0225555D01*
X0319586Y0225402D01*
X0319572Y0225250D01*
X0319554Y0225097D01*
X0319532Y0224946D01*
X0319507Y0224795D01*
X0319477Y0224644D01*
X0319443Y0224494D01*
X0319406Y0224346D01*
X0319365Y0224198D01*
X0319320Y0224052D01*
X0319271Y0223906D01*
X0319218Y0223762D01*
X0319162Y0223620D01*
X0319102Y0223479D01*
X0319038Y0223339D01*
X0318971Y0223201D01*
X0318900Y0223065D01*
X0318825Y0222931D01*
X0318748Y0222799D01*
X0318666Y0222669D01*
X0318582Y0222541D01*
X0318494Y0222415D01*
X0318403Y0222292D01*
X0318309Y0222171D01*
X0318211Y0222053D01*
X0318111Y0221937D01*
X0318007Y0221824D01*
X0317901Y0221713D01*
X0317792Y0221605D01*
X0317680Y0221500D01*
X0317566Y0221399D01*
X0317448Y0221300D01*
X0317329Y0221204D01*
X0317207Y0221111D01*
X0317082Y0221022D01*
X0316955Y0220935D01*
X0316826Y0220853D01*
X0316695Y0220773D01*
X0316562Y0220697D01*
X0316427Y0220624D01*
X0316290Y0220555D01*
X0316151Y0220490D01*
X0316011Y0220428D01*
X0315869Y0220370D01*
X0315726Y0220315D01*
X0315581Y0220264D01*
X0315435Y0220217D01*
X0315288Y0220174D01*
X0315140Y0220135D01*
X0314991Y0220099D01*
X0314841Y0220068D01*
X0314690Y0220040D01*
X0314539Y0220016D01*
X0314386Y0219996D01*
X0314234Y0219980D01*
X0314081Y0219968D01*
X0313928Y0219960D01*
X0313775Y0219956D01*
X0313621Y0219956D01*
X0313468Y0219960D01*
X0313315Y0219968D01*
X0313162Y0219980D01*
X0313010Y0219996D01*
X0312857Y0220016D01*
X0312706Y0220040D01*
X0312555Y0220068D01*
X0312405Y0220099D01*
X0312256Y0220135D01*
X0312108Y0220174D01*
X0311961Y0220217D01*
X0311815Y0220264D01*
X0311670Y0220315D01*
X0311527Y0220370D01*
X0311385Y0220428D01*
X0311245Y0220490D01*
X0311106Y0220555D01*
X0310969Y0220624D01*
X0310834Y0220697D01*
X0310701Y0220773D01*
X0310570Y0220853D01*
X0310441Y0220935D01*
X0310314Y0221022D01*
X0310189Y0221111D01*
X0310067Y0221204D01*
X0309948Y0221300D01*
X0309830Y0221399D01*
X0309716Y0221500D01*
X0309604Y0221605D01*
X0309495Y0221713D01*
X0309389Y0221824D01*
X0309285Y0221937D01*
X0309185Y0222053D01*
X0309087Y0222171D01*
X0308993Y0222292D01*
X0308902Y0222415D01*
X0308814Y0222541D01*
X0308730Y0222669D01*
X0308648Y0222799D01*
X0308571Y0222931D01*
X0308496Y0223065D01*
X0308425Y0223201D01*
X0308358Y0223339D01*
X0308294Y0223479D01*
X0308234Y0223620D01*
X0308178Y0223762D01*
X0308125Y0223906D01*
X0308076Y0224052D01*
X0308031Y0224198D01*
X0307990Y0224346D01*
X0307953Y0224494D01*
X0307919Y0224644D01*
X0307889Y0224795D01*
X0307864Y0224946D01*
X0307842Y0225097D01*
X0307824Y0225250D01*
X0307810Y0225402D01*
X0307800Y0225555D01*
X0307794Y0225709D01*
X0307792Y0225862D01*
D11*
X0078257Y0212713D03*
X0073335Y0212713D03*
X0068414Y0212713D03*
X0063493Y0212713D03*
X0058572Y0212713D03*
D12*
X0048532Y0224130D03*
X0088296Y0224130D03*
M02*
