G75*
%MOIN*%
%OFA0B0*%
%FSLAX25Y25*%
%IPPOS*%
%LPD*%
%AMOC8*
5,1,8,0,0,1.08239X$1,22.5*
%
%ADD10C,0.00000*%
%ADD11C,0.00400*%
%ADD12C,0.00600*%
%ADD13C,0.00800*%
%ADD14C,0.00500*%
%ADD15R,0.00787X0.00787*%
%ADD16C,0.00900*%
%ADD17C,0.00300*%
%ADD18C,0.00100*%
D10*
X0002194Y0006842D02*
X0002194Y0211802D01*
X0305894Y0211802D01*
X0305894Y0006842D01*
X0002194Y0006842D01*
X0253965Y0148180D02*
X0305343Y0148180D01*
X0305343Y0237944D01*
X0253965Y0237944D01*
X0253965Y0148180D01*
X0273768Y0204086D02*
X0273770Y0204239D01*
X0273776Y0204393D01*
X0273786Y0204546D01*
X0273800Y0204698D01*
X0273818Y0204851D01*
X0273840Y0205002D01*
X0273865Y0205153D01*
X0273895Y0205304D01*
X0273929Y0205454D01*
X0273966Y0205602D01*
X0274007Y0205750D01*
X0274052Y0205896D01*
X0274101Y0206042D01*
X0274154Y0206186D01*
X0274210Y0206328D01*
X0274270Y0206469D01*
X0274334Y0206609D01*
X0274401Y0206747D01*
X0274472Y0206883D01*
X0274547Y0207017D01*
X0274624Y0207149D01*
X0274706Y0207279D01*
X0274790Y0207407D01*
X0274878Y0207533D01*
X0274969Y0207656D01*
X0275063Y0207777D01*
X0275161Y0207895D01*
X0275261Y0208011D01*
X0275365Y0208124D01*
X0275471Y0208235D01*
X0275580Y0208343D01*
X0275692Y0208448D01*
X0275806Y0208549D01*
X0275924Y0208648D01*
X0276043Y0208744D01*
X0276165Y0208837D01*
X0276290Y0208926D01*
X0276417Y0209013D01*
X0276546Y0209095D01*
X0276677Y0209175D01*
X0276810Y0209251D01*
X0276945Y0209324D01*
X0277082Y0209393D01*
X0277221Y0209458D01*
X0277361Y0209520D01*
X0277503Y0209578D01*
X0277646Y0209633D01*
X0277791Y0209684D01*
X0277937Y0209731D01*
X0278084Y0209774D01*
X0278232Y0209813D01*
X0278381Y0209849D01*
X0278531Y0209880D01*
X0278682Y0209908D01*
X0278833Y0209932D01*
X0278986Y0209952D01*
X0279138Y0209968D01*
X0279291Y0209980D01*
X0279444Y0209988D01*
X0279597Y0209992D01*
X0279751Y0209992D01*
X0279904Y0209988D01*
X0280057Y0209980D01*
X0280210Y0209968D01*
X0280362Y0209952D01*
X0280515Y0209932D01*
X0280666Y0209908D01*
X0280817Y0209880D01*
X0280967Y0209849D01*
X0281116Y0209813D01*
X0281264Y0209774D01*
X0281411Y0209731D01*
X0281557Y0209684D01*
X0281702Y0209633D01*
X0281845Y0209578D01*
X0281987Y0209520D01*
X0282127Y0209458D01*
X0282266Y0209393D01*
X0282403Y0209324D01*
X0282538Y0209251D01*
X0282671Y0209175D01*
X0282802Y0209095D01*
X0282931Y0209013D01*
X0283058Y0208926D01*
X0283183Y0208837D01*
X0283305Y0208744D01*
X0283424Y0208648D01*
X0283542Y0208549D01*
X0283656Y0208448D01*
X0283768Y0208343D01*
X0283877Y0208235D01*
X0283983Y0208124D01*
X0284087Y0208011D01*
X0284187Y0207895D01*
X0284285Y0207777D01*
X0284379Y0207656D01*
X0284470Y0207533D01*
X0284558Y0207407D01*
X0284642Y0207279D01*
X0284724Y0207149D01*
X0284801Y0207017D01*
X0284876Y0206883D01*
X0284947Y0206747D01*
X0285014Y0206609D01*
X0285078Y0206469D01*
X0285138Y0206328D01*
X0285194Y0206186D01*
X0285247Y0206042D01*
X0285296Y0205896D01*
X0285341Y0205750D01*
X0285382Y0205602D01*
X0285419Y0205454D01*
X0285453Y0205304D01*
X0285483Y0205153D01*
X0285508Y0205002D01*
X0285530Y0204851D01*
X0285548Y0204698D01*
X0285562Y0204546D01*
X0285572Y0204393D01*
X0285578Y0204239D01*
X0285580Y0204086D01*
X0285578Y0203933D01*
X0285572Y0203779D01*
X0285562Y0203626D01*
X0285548Y0203474D01*
X0285530Y0203321D01*
X0285508Y0203170D01*
X0285483Y0203019D01*
X0285453Y0202868D01*
X0285419Y0202718D01*
X0285382Y0202570D01*
X0285341Y0202422D01*
X0285296Y0202276D01*
X0285247Y0202130D01*
X0285194Y0201986D01*
X0285138Y0201844D01*
X0285078Y0201703D01*
X0285014Y0201563D01*
X0284947Y0201425D01*
X0284876Y0201289D01*
X0284801Y0201155D01*
X0284724Y0201023D01*
X0284642Y0200893D01*
X0284558Y0200765D01*
X0284470Y0200639D01*
X0284379Y0200516D01*
X0284285Y0200395D01*
X0284187Y0200277D01*
X0284087Y0200161D01*
X0283983Y0200048D01*
X0283877Y0199937D01*
X0283768Y0199829D01*
X0283656Y0199724D01*
X0283542Y0199623D01*
X0283424Y0199524D01*
X0283305Y0199428D01*
X0283183Y0199335D01*
X0283058Y0199246D01*
X0282931Y0199159D01*
X0282802Y0199077D01*
X0282671Y0198997D01*
X0282538Y0198921D01*
X0282403Y0198848D01*
X0282266Y0198779D01*
X0282127Y0198714D01*
X0281987Y0198652D01*
X0281845Y0198594D01*
X0281702Y0198539D01*
X0281557Y0198488D01*
X0281411Y0198441D01*
X0281264Y0198398D01*
X0281116Y0198359D01*
X0280967Y0198323D01*
X0280817Y0198292D01*
X0280666Y0198264D01*
X0280515Y0198240D01*
X0280362Y0198220D01*
X0280210Y0198204D01*
X0280057Y0198192D01*
X0279904Y0198184D01*
X0279751Y0198180D01*
X0279597Y0198180D01*
X0279444Y0198184D01*
X0279291Y0198192D01*
X0279138Y0198204D01*
X0278986Y0198220D01*
X0278833Y0198240D01*
X0278682Y0198264D01*
X0278531Y0198292D01*
X0278381Y0198323D01*
X0278232Y0198359D01*
X0278084Y0198398D01*
X0277937Y0198441D01*
X0277791Y0198488D01*
X0277646Y0198539D01*
X0277503Y0198594D01*
X0277361Y0198652D01*
X0277221Y0198714D01*
X0277082Y0198779D01*
X0276945Y0198848D01*
X0276810Y0198921D01*
X0276677Y0198997D01*
X0276546Y0199077D01*
X0276417Y0199159D01*
X0276290Y0199246D01*
X0276165Y0199335D01*
X0276043Y0199428D01*
X0275924Y0199524D01*
X0275806Y0199623D01*
X0275692Y0199724D01*
X0275580Y0199829D01*
X0275471Y0199937D01*
X0275365Y0200048D01*
X0275261Y0200161D01*
X0275161Y0200277D01*
X0275063Y0200395D01*
X0274969Y0200516D01*
X0274878Y0200639D01*
X0274790Y0200765D01*
X0274706Y0200893D01*
X0274624Y0201023D01*
X0274547Y0201155D01*
X0274472Y0201289D01*
X0274401Y0201425D01*
X0274334Y0201563D01*
X0274270Y0201703D01*
X0274210Y0201844D01*
X0274154Y0201986D01*
X0274101Y0202130D01*
X0274052Y0202276D01*
X0274007Y0202422D01*
X0273966Y0202570D01*
X0273929Y0202718D01*
X0273895Y0202868D01*
X0273865Y0203019D01*
X0273840Y0203170D01*
X0273818Y0203321D01*
X0273800Y0203474D01*
X0273786Y0203626D01*
X0273776Y0203779D01*
X0273770Y0203933D01*
X0273768Y0204086D01*
D11*
X0006450Y0035457D02*
X0006450Y0030853D01*
X0004916Y0030853D02*
X0007985Y0030853D01*
X0004916Y0033922D02*
X0006450Y0035457D01*
D12*
X0031607Y0030857D02*
X0031611Y0031188D01*
X0031623Y0031519D01*
X0031644Y0031850D01*
X0031672Y0032180D01*
X0031709Y0032510D01*
X0031753Y0032838D01*
X0031806Y0033165D01*
X0031866Y0033491D01*
X0031935Y0033815D01*
X0032012Y0034137D01*
X0032096Y0034458D01*
X0032188Y0034776D01*
X0032288Y0035092D01*
X0032396Y0035405D01*
X0032512Y0035716D01*
X0032635Y0036023D01*
X0032765Y0036328D01*
X0032903Y0036629D01*
X0033048Y0036927D01*
X0033201Y0037221D01*
X0033361Y0037511D01*
X0033528Y0037797D01*
X0033701Y0038079D01*
X0033882Y0038357D01*
X0034070Y0038630D01*
X0034264Y0038899D01*
X0034464Y0039163D01*
X0034671Y0039421D01*
X0034885Y0039675D01*
X0035104Y0039923D01*
X0035330Y0040166D01*
X0035561Y0040403D01*
X0035798Y0040634D01*
X0036041Y0040860D01*
X0036289Y0041079D01*
X0036543Y0041293D01*
X0036801Y0041500D01*
X0037065Y0041700D01*
X0037334Y0041894D01*
X0037607Y0042082D01*
X0037885Y0042263D01*
X0038167Y0042436D01*
X0038453Y0042603D01*
X0038743Y0042763D01*
X0039037Y0042916D01*
X0039335Y0043061D01*
X0039636Y0043199D01*
X0039941Y0043329D01*
X0040248Y0043452D01*
X0040559Y0043568D01*
X0040872Y0043676D01*
X0041188Y0043776D01*
X0041506Y0043868D01*
X0041827Y0043952D01*
X0042149Y0044029D01*
X0042473Y0044098D01*
X0042799Y0044158D01*
X0043126Y0044211D01*
X0043454Y0044255D01*
X0043784Y0044292D01*
X0044114Y0044320D01*
X0044445Y0044341D01*
X0044776Y0044353D01*
X0045107Y0044357D01*
X0045438Y0044353D01*
X0045769Y0044341D01*
X0046100Y0044320D01*
X0046430Y0044292D01*
X0046760Y0044255D01*
X0047088Y0044211D01*
X0047415Y0044158D01*
X0047741Y0044098D01*
X0048065Y0044029D01*
X0048387Y0043952D01*
X0048708Y0043868D01*
X0049026Y0043776D01*
X0049342Y0043676D01*
X0049655Y0043568D01*
X0049966Y0043452D01*
X0050273Y0043329D01*
X0050578Y0043199D01*
X0050879Y0043061D01*
X0051177Y0042916D01*
X0051471Y0042763D01*
X0051761Y0042603D01*
X0052047Y0042436D01*
X0052329Y0042263D01*
X0052607Y0042082D01*
X0052880Y0041894D01*
X0053149Y0041700D01*
X0053413Y0041500D01*
X0053671Y0041293D01*
X0053925Y0041079D01*
X0054173Y0040860D01*
X0054416Y0040634D01*
X0054653Y0040403D01*
X0054884Y0040166D01*
X0055110Y0039923D01*
X0055329Y0039675D01*
X0055543Y0039421D01*
X0055750Y0039163D01*
X0055950Y0038899D01*
X0056144Y0038630D01*
X0056332Y0038357D01*
X0056513Y0038079D01*
X0056686Y0037797D01*
X0056853Y0037511D01*
X0057013Y0037221D01*
X0057166Y0036927D01*
X0057311Y0036629D01*
X0057449Y0036328D01*
X0057579Y0036023D01*
X0057702Y0035716D01*
X0057818Y0035405D01*
X0057926Y0035092D01*
X0058026Y0034776D01*
X0058118Y0034458D01*
X0058202Y0034137D01*
X0058279Y0033815D01*
X0058348Y0033491D01*
X0058408Y0033165D01*
X0058461Y0032838D01*
X0058505Y0032510D01*
X0058542Y0032180D01*
X0058570Y0031850D01*
X0058591Y0031519D01*
X0058603Y0031188D01*
X0058607Y0030857D01*
X0058603Y0030526D01*
X0058591Y0030195D01*
X0058570Y0029864D01*
X0058542Y0029534D01*
X0058505Y0029204D01*
X0058461Y0028876D01*
X0058408Y0028549D01*
X0058348Y0028223D01*
X0058279Y0027899D01*
X0058202Y0027577D01*
X0058118Y0027256D01*
X0058026Y0026938D01*
X0057926Y0026622D01*
X0057818Y0026309D01*
X0057702Y0025998D01*
X0057579Y0025691D01*
X0057449Y0025386D01*
X0057311Y0025085D01*
X0057166Y0024787D01*
X0057013Y0024493D01*
X0056853Y0024203D01*
X0056686Y0023917D01*
X0056513Y0023635D01*
X0056332Y0023357D01*
X0056144Y0023084D01*
X0055950Y0022815D01*
X0055750Y0022551D01*
X0055543Y0022293D01*
X0055329Y0022039D01*
X0055110Y0021791D01*
X0054884Y0021548D01*
X0054653Y0021311D01*
X0054416Y0021080D01*
X0054173Y0020854D01*
X0053925Y0020635D01*
X0053671Y0020421D01*
X0053413Y0020214D01*
X0053149Y0020014D01*
X0052880Y0019820D01*
X0052607Y0019632D01*
X0052329Y0019451D01*
X0052047Y0019278D01*
X0051761Y0019111D01*
X0051471Y0018951D01*
X0051177Y0018798D01*
X0050879Y0018653D01*
X0050578Y0018515D01*
X0050273Y0018385D01*
X0049966Y0018262D01*
X0049655Y0018146D01*
X0049342Y0018038D01*
X0049026Y0017938D01*
X0048708Y0017846D01*
X0048387Y0017762D01*
X0048065Y0017685D01*
X0047741Y0017616D01*
X0047415Y0017556D01*
X0047088Y0017503D01*
X0046760Y0017459D01*
X0046430Y0017422D01*
X0046100Y0017394D01*
X0045769Y0017373D01*
X0045438Y0017361D01*
X0045107Y0017357D01*
X0044776Y0017361D01*
X0044445Y0017373D01*
X0044114Y0017394D01*
X0043784Y0017422D01*
X0043454Y0017459D01*
X0043126Y0017503D01*
X0042799Y0017556D01*
X0042473Y0017616D01*
X0042149Y0017685D01*
X0041827Y0017762D01*
X0041506Y0017846D01*
X0041188Y0017938D01*
X0040872Y0018038D01*
X0040559Y0018146D01*
X0040248Y0018262D01*
X0039941Y0018385D01*
X0039636Y0018515D01*
X0039335Y0018653D01*
X0039037Y0018798D01*
X0038743Y0018951D01*
X0038453Y0019111D01*
X0038167Y0019278D01*
X0037885Y0019451D01*
X0037607Y0019632D01*
X0037334Y0019820D01*
X0037065Y0020014D01*
X0036801Y0020214D01*
X0036543Y0020421D01*
X0036289Y0020635D01*
X0036041Y0020854D01*
X0035798Y0021080D01*
X0035561Y0021311D01*
X0035330Y0021548D01*
X0035104Y0021791D01*
X0034885Y0022039D01*
X0034671Y0022293D01*
X0034464Y0022551D01*
X0034264Y0022815D01*
X0034070Y0023084D01*
X0033882Y0023357D01*
X0033701Y0023635D01*
X0033528Y0023917D01*
X0033361Y0024203D01*
X0033201Y0024493D01*
X0033048Y0024787D01*
X0032903Y0025085D01*
X0032765Y0025386D01*
X0032635Y0025691D01*
X0032512Y0025998D01*
X0032396Y0026309D01*
X0032288Y0026622D01*
X0032188Y0026938D01*
X0032096Y0027256D01*
X0032012Y0027577D01*
X0031935Y0027899D01*
X0031866Y0028223D01*
X0031806Y0028549D01*
X0031753Y0028876D01*
X0031709Y0029204D01*
X0031672Y0029534D01*
X0031644Y0029864D01*
X0031623Y0030195D01*
X0031611Y0030526D01*
X0031607Y0030857D01*
X0070583Y0031251D02*
X0070587Y0031582D01*
X0070599Y0031913D01*
X0070620Y0032244D01*
X0070648Y0032574D01*
X0070685Y0032904D01*
X0070729Y0033232D01*
X0070782Y0033559D01*
X0070842Y0033885D01*
X0070911Y0034209D01*
X0070988Y0034531D01*
X0071072Y0034852D01*
X0071164Y0035170D01*
X0071264Y0035486D01*
X0071372Y0035799D01*
X0071488Y0036110D01*
X0071611Y0036417D01*
X0071741Y0036722D01*
X0071879Y0037023D01*
X0072024Y0037321D01*
X0072177Y0037615D01*
X0072337Y0037905D01*
X0072504Y0038191D01*
X0072677Y0038473D01*
X0072858Y0038751D01*
X0073046Y0039024D01*
X0073240Y0039293D01*
X0073440Y0039557D01*
X0073647Y0039815D01*
X0073861Y0040069D01*
X0074080Y0040317D01*
X0074306Y0040560D01*
X0074537Y0040797D01*
X0074774Y0041028D01*
X0075017Y0041254D01*
X0075265Y0041473D01*
X0075519Y0041687D01*
X0075777Y0041894D01*
X0076041Y0042094D01*
X0076310Y0042288D01*
X0076583Y0042476D01*
X0076861Y0042657D01*
X0077143Y0042830D01*
X0077429Y0042997D01*
X0077719Y0043157D01*
X0078013Y0043310D01*
X0078311Y0043455D01*
X0078612Y0043593D01*
X0078917Y0043723D01*
X0079224Y0043846D01*
X0079535Y0043962D01*
X0079848Y0044070D01*
X0080164Y0044170D01*
X0080482Y0044262D01*
X0080803Y0044346D01*
X0081125Y0044423D01*
X0081449Y0044492D01*
X0081775Y0044552D01*
X0082102Y0044605D01*
X0082430Y0044649D01*
X0082760Y0044686D01*
X0083090Y0044714D01*
X0083421Y0044735D01*
X0083752Y0044747D01*
X0084083Y0044751D01*
X0084414Y0044747D01*
X0084745Y0044735D01*
X0085076Y0044714D01*
X0085406Y0044686D01*
X0085736Y0044649D01*
X0086064Y0044605D01*
X0086391Y0044552D01*
X0086717Y0044492D01*
X0087041Y0044423D01*
X0087363Y0044346D01*
X0087684Y0044262D01*
X0088002Y0044170D01*
X0088318Y0044070D01*
X0088631Y0043962D01*
X0088942Y0043846D01*
X0089249Y0043723D01*
X0089554Y0043593D01*
X0089855Y0043455D01*
X0090153Y0043310D01*
X0090447Y0043157D01*
X0090737Y0042997D01*
X0091023Y0042830D01*
X0091305Y0042657D01*
X0091583Y0042476D01*
X0091856Y0042288D01*
X0092125Y0042094D01*
X0092389Y0041894D01*
X0092647Y0041687D01*
X0092901Y0041473D01*
X0093149Y0041254D01*
X0093392Y0041028D01*
X0093629Y0040797D01*
X0093860Y0040560D01*
X0094086Y0040317D01*
X0094305Y0040069D01*
X0094519Y0039815D01*
X0094726Y0039557D01*
X0094926Y0039293D01*
X0095120Y0039024D01*
X0095308Y0038751D01*
X0095489Y0038473D01*
X0095662Y0038191D01*
X0095829Y0037905D01*
X0095989Y0037615D01*
X0096142Y0037321D01*
X0096287Y0037023D01*
X0096425Y0036722D01*
X0096555Y0036417D01*
X0096678Y0036110D01*
X0096794Y0035799D01*
X0096902Y0035486D01*
X0097002Y0035170D01*
X0097094Y0034852D01*
X0097178Y0034531D01*
X0097255Y0034209D01*
X0097324Y0033885D01*
X0097384Y0033559D01*
X0097437Y0033232D01*
X0097481Y0032904D01*
X0097518Y0032574D01*
X0097546Y0032244D01*
X0097567Y0031913D01*
X0097579Y0031582D01*
X0097583Y0031251D01*
X0097579Y0030920D01*
X0097567Y0030589D01*
X0097546Y0030258D01*
X0097518Y0029928D01*
X0097481Y0029598D01*
X0097437Y0029270D01*
X0097384Y0028943D01*
X0097324Y0028617D01*
X0097255Y0028293D01*
X0097178Y0027971D01*
X0097094Y0027650D01*
X0097002Y0027332D01*
X0096902Y0027016D01*
X0096794Y0026703D01*
X0096678Y0026392D01*
X0096555Y0026085D01*
X0096425Y0025780D01*
X0096287Y0025479D01*
X0096142Y0025181D01*
X0095989Y0024887D01*
X0095829Y0024597D01*
X0095662Y0024311D01*
X0095489Y0024029D01*
X0095308Y0023751D01*
X0095120Y0023478D01*
X0094926Y0023209D01*
X0094726Y0022945D01*
X0094519Y0022687D01*
X0094305Y0022433D01*
X0094086Y0022185D01*
X0093860Y0021942D01*
X0093629Y0021705D01*
X0093392Y0021474D01*
X0093149Y0021248D01*
X0092901Y0021029D01*
X0092647Y0020815D01*
X0092389Y0020608D01*
X0092125Y0020408D01*
X0091856Y0020214D01*
X0091583Y0020026D01*
X0091305Y0019845D01*
X0091023Y0019672D01*
X0090737Y0019505D01*
X0090447Y0019345D01*
X0090153Y0019192D01*
X0089855Y0019047D01*
X0089554Y0018909D01*
X0089249Y0018779D01*
X0088942Y0018656D01*
X0088631Y0018540D01*
X0088318Y0018432D01*
X0088002Y0018332D01*
X0087684Y0018240D01*
X0087363Y0018156D01*
X0087041Y0018079D01*
X0086717Y0018010D01*
X0086391Y0017950D01*
X0086064Y0017897D01*
X0085736Y0017853D01*
X0085406Y0017816D01*
X0085076Y0017788D01*
X0084745Y0017767D01*
X0084414Y0017755D01*
X0084083Y0017751D01*
X0083752Y0017755D01*
X0083421Y0017767D01*
X0083090Y0017788D01*
X0082760Y0017816D01*
X0082430Y0017853D01*
X0082102Y0017897D01*
X0081775Y0017950D01*
X0081449Y0018010D01*
X0081125Y0018079D01*
X0080803Y0018156D01*
X0080482Y0018240D01*
X0080164Y0018332D01*
X0079848Y0018432D01*
X0079535Y0018540D01*
X0079224Y0018656D01*
X0078917Y0018779D01*
X0078612Y0018909D01*
X0078311Y0019047D01*
X0078013Y0019192D01*
X0077719Y0019345D01*
X0077429Y0019505D01*
X0077143Y0019672D01*
X0076861Y0019845D01*
X0076583Y0020026D01*
X0076310Y0020214D01*
X0076041Y0020408D01*
X0075777Y0020608D01*
X0075519Y0020815D01*
X0075265Y0021029D01*
X0075017Y0021248D01*
X0074774Y0021474D01*
X0074537Y0021705D01*
X0074306Y0021942D01*
X0074080Y0022185D01*
X0073861Y0022433D01*
X0073647Y0022687D01*
X0073440Y0022945D01*
X0073240Y0023209D01*
X0073046Y0023478D01*
X0072858Y0023751D01*
X0072677Y0024029D01*
X0072504Y0024311D01*
X0072337Y0024597D01*
X0072177Y0024887D01*
X0072024Y0025181D01*
X0071879Y0025479D01*
X0071741Y0025780D01*
X0071611Y0026085D01*
X0071488Y0026392D01*
X0071372Y0026703D01*
X0071264Y0027016D01*
X0071164Y0027332D01*
X0071072Y0027650D01*
X0070988Y0027971D01*
X0070911Y0028293D01*
X0070842Y0028617D01*
X0070782Y0028943D01*
X0070729Y0029270D01*
X0070685Y0029598D01*
X0070648Y0029928D01*
X0070620Y0030258D01*
X0070599Y0030589D01*
X0070587Y0030920D01*
X0070583Y0031251D01*
X0196332Y0019122D02*
X0196332Y0012716D01*
X0200602Y0012716D02*
X0200602Y0019122D01*
X0198467Y0016987D01*
X0196332Y0019122D01*
X0202777Y0015919D02*
X0202777Y0013784D01*
X0203845Y0012716D01*
X0205980Y0012716D01*
X0207048Y0013784D01*
X0207048Y0015919D01*
X0205980Y0016987D01*
X0203845Y0016987D01*
X0202777Y0015919D01*
X0209223Y0016987D02*
X0211358Y0016987D01*
X0210290Y0018054D02*
X0210290Y0013784D01*
X0211358Y0012716D01*
X0213520Y0013784D02*
X0214587Y0012716D01*
X0216723Y0012716D01*
X0217790Y0013784D01*
X0217790Y0015919D01*
X0216723Y0016987D01*
X0214587Y0016987D01*
X0213520Y0015919D01*
X0213520Y0013784D01*
X0219965Y0012716D02*
X0219965Y0016987D01*
X0219965Y0014852D02*
X0222101Y0016987D01*
X0223168Y0016987D01*
X0231782Y0016987D02*
X0232850Y0015919D01*
X0234985Y0015919D01*
X0236052Y0014852D01*
X0236052Y0013784D01*
X0234985Y0012716D01*
X0232850Y0012716D01*
X0231782Y0013784D01*
X0231782Y0016987D02*
X0231782Y0018054D01*
X0232850Y0019122D01*
X0234985Y0019122D01*
X0236052Y0018054D01*
X0238228Y0019122D02*
X0238228Y0012716D01*
X0238228Y0015919D02*
X0239295Y0016987D01*
X0241430Y0016987D01*
X0242498Y0015919D01*
X0242498Y0012716D01*
X0244673Y0012716D02*
X0246808Y0012716D01*
X0245741Y0012716D02*
X0245741Y0016987D01*
X0244673Y0016987D01*
X0245741Y0019122D02*
X0245741Y0020190D01*
X0248970Y0015919D02*
X0250038Y0016987D01*
X0252173Y0016987D01*
X0253240Y0015919D01*
X0253240Y0014852D01*
X0248970Y0014852D01*
X0248970Y0015919D02*
X0248970Y0013784D01*
X0250038Y0012716D01*
X0252173Y0012716D01*
X0255416Y0012716D02*
X0257551Y0012716D01*
X0256483Y0012716D02*
X0256483Y0019122D01*
X0255416Y0019122D01*
X0259713Y0015919D02*
X0260780Y0016987D01*
X0263983Y0016987D01*
X0263983Y0019122D02*
X0263983Y0012716D01*
X0260780Y0012716D01*
X0259713Y0013784D01*
X0259713Y0015919D01*
X0272604Y0014852D02*
X0274739Y0012716D01*
X0276874Y0014852D01*
X0276874Y0019122D01*
X0279049Y0016987D02*
X0281184Y0019122D01*
X0281184Y0012716D01*
X0279049Y0012716D02*
X0283319Y0012716D01*
X0285495Y0012716D02*
X0286562Y0012716D01*
X0286562Y0013784D01*
X0285495Y0013784D01*
X0285495Y0012716D01*
X0288717Y0012716D02*
X0292988Y0016987D01*
X0292988Y0018054D01*
X0291920Y0019122D01*
X0289785Y0019122D01*
X0288717Y0018054D01*
X0288717Y0012716D02*
X0292988Y0012716D01*
X0272604Y0014852D02*
X0272604Y0019122D01*
D13*
X0273694Y0026842D02*
X0271194Y0029342D01*
X0271194Y0034342D01*
X0273694Y0036842D01*
X0271194Y0039342D01*
X0271194Y0044342D01*
X0273694Y0046842D01*
X0271194Y0049342D01*
X0271194Y0054342D01*
X0273694Y0056842D01*
X0271194Y0059342D01*
X0271194Y0064342D01*
X0273694Y0066842D01*
X0271194Y0069342D01*
X0271194Y0074342D01*
X0273694Y0076842D01*
X0271194Y0079342D01*
X0271194Y0084342D01*
X0273694Y0086842D01*
X0271194Y0089342D01*
X0271194Y0094342D01*
X0273694Y0096842D01*
X0271194Y0099342D01*
X0271194Y0104342D01*
X0273694Y0106842D01*
X0271194Y0109342D01*
X0271194Y0114342D01*
X0273694Y0116842D01*
X0271194Y0119342D01*
X0271194Y0124342D01*
X0273694Y0126842D01*
X0271194Y0129342D01*
X0271194Y0134342D01*
X0273694Y0136842D01*
X0278694Y0136842D01*
X0281194Y0134342D01*
X0281194Y0129342D01*
X0278694Y0126842D01*
X0281194Y0124342D01*
X0281194Y0119342D01*
X0278694Y0116842D01*
X0281194Y0114342D01*
X0281194Y0109342D01*
X0278694Y0106842D01*
X0281194Y0104342D01*
X0281194Y0099342D01*
X0278694Y0096842D01*
X0281194Y0094342D01*
X0281194Y0089342D01*
X0278694Y0086842D01*
X0281194Y0084342D01*
X0281194Y0079342D01*
X0278694Y0076842D01*
X0281194Y0074342D01*
X0281194Y0069342D01*
X0278694Y0066842D01*
X0281194Y0064342D01*
X0281194Y0059342D01*
X0278694Y0056842D01*
X0281194Y0054342D01*
X0281194Y0049342D01*
X0278694Y0046842D01*
X0281194Y0044342D01*
X0281194Y0039342D01*
X0278694Y0036842D01*
X0281194Y0034342D01*
X0281194Y0029342D01*
X0278694Y0026842D01*
X0273694Y0026842D01*
X0271194Y0029342D02*
X0268694Y0026842D01*
X0263694Y0026842D01*
X0261194Y0029342D01*
X0261194Y0034342D01*
X0263694Y0036842D01*
X0261194Y0039342D01*
X0261194Y0044342D01*
X0263694Y0046842D01*
X0261194Y0049342D01*
X0261194Y0054342D01*
X0263694Y0056842D01*
X0261194Y0059342D01*
X0261194Y0064342D01*
X0263694Y0066842D01*
X0261194Y0069342D01*
X0261194Y0074342D01*
X0263694Y0076842D01*
X0261194Y0079342D01*
X0261194Y0084342D01*
X0263694Y0086842D01*
X0261194Y0089342D01*
X0261194Y0094342D01*
X0263694Y0096842D01*
X0261194Y0099342D01*
X0261194Y0104342D01*
X0263694Y0106842D01*
X0261194Y0109342D01*
X0261194Y0114342D01*
X0263694Y0116842D01*
X0261194Y0119342D01*
X0261194Y0124342D01*
X0263694Y0126842D01*
X0261194Y0129342D01*
X0261194Y0134342D01*
X0263694Y0136842D01*
X0268694Y0136842D01*
X0271194Y0134342D01*
X0271194Y0129342D01*
X0268694Y0126842D01*
X0271194Y0124342D01*
X0271194Y0119342D01*
X0268694Y0116842D01*
X0271194Y0114342D01*
X0271194Y0109342D01*
X0268694Y0106842D01*
X0271194Y0104342D01*
X0271194Y0099342D01*
X0268694Y0096842D01*
X0271194Y0094342D01*
X0271194Y0089342D01*
X0268694Y0086842D01*
X0271194Y0084342D01*
X0271194Y0079342D01*
X0268694Y0076842D01*
X0271194Y0074342D01*
X0271194Y0069342D01*
X0268694Y0066842D01*
X0271194Y0064342D01*
X0271194Y0059342D01*
X0268694Y0056842D01*
X0271194Y0054342D01*
X0271194Y0049342D01*
X0268694Y0046842D01*
X0271194Y0044342D01*
X0271194Y0039342D01*
X0268694Y0036842D01*
X0271194Y0034342D01*
X0271194Y0029342D01*
X0241194Y0029342D02*
X0238694Y0026842D01*
X0233694Y0026842D01*
X0231194Y0029342D01*
X0231194Y0034342D01*
X0233694Y0036842D01*
X0231194Y0039342D01*
X0231194Y0044342D01*
X0233694Y0046842D01*
X0231194Y0049342D01*
X0231194Y0054342D01*
X0233694Y0056842D01*
X0231194Y0059342D01*
X0231194Y0064342D01*
X0233694Y0066842D01*
X0231194Y0069342D01*
X0231194Y0074342D01*
X0233694Y0076842D01*
X0231194Y0079342D01*
X0231194Y0084342D01*
X0233694Y0086842D01*
X0231194Y0089342D01*
X0231194Y0094342D01*
X0233694Y0096842D01*
X0231194Y0099342D01*
X0231194Y0104342D01*
X0233694Y0106842D01*
X0231194Y0109342D01*
X0231194Y0114342D01*
X0233694Y0116842D01*
X0231194Y0119342D01*
X0231194Y0124342D01*
X0233694Y0126842D01*
X0231194Y0129342D01*
X0231194Y0134342D01*
X0233694Y0136842D01*
X0238694Y0136842D01*
X0241194Y0134342D01*
X0241194Y0129342D01*
X0238694Y0126842D01*
X0241194Y0124342D01*
X0241194Y0119342D01*
X0238694Y0116842D01*
X0241194Y0114342D01*
X0241194Y0109342D01*
X0238694Y0106842D01*
X0241194Y0104342D01*
X0241194Y0099342D01*
X0238694Y0096842D01*
X0241194Y0094342D01*
X0241194Y0089342D01*
X0238694Y0086842D01*
X0241194Y0084342D01*
X0241194Y0079342D01*
X0238694Y0076842D01*
X0241194Y0074342D01*
X0241194Y0069342D01*
X0238694Y0066842D01*
X0241194Y0064342D01*
X0241194Y0059342D01*
X0238694Y0056842D01*
X0241194Y0054342D01*
X0241194Y0049342D01*
X0238694Y0046842D01*
X0241194Y0044342D01*
X0241194Y0039342D01*
X0238694Y0036842D01*
X0241194Y0034342D01*
X0241194Y0029342D01*
X0231194Y0029342D02*
X0228694Y0026842D01*
X0223694Y0026842D01*
X0221194Y0029342D01*
X0221194Y0034342D01*
X0223694Y0036842D01*
X0221194Y0039342D01*
X0221194Y0044342D01*
X0223694Y0046842D01*
X0221194Y0049342D01*
X0221194Y0054342D01*
X0223694Y0056842D01*
X0221194Y0059342D01*
X0221194Y0064342D01*
X0223694Y0066842D01*
X0221194Y0069342D01*
X0221194Y0074342D01*
X0223694Y0076842D01*
X0221194Y0079342D01*
X0221194Y0084342D01*
X0223694Y0086842D01*
X0221194Y0089342D01*
X0221194Y0094342D01*
X0223694Y0096842D01*
X0221194Y0099342D01*
X0221194Y0104342D01*
X0223694Y0106842D01*
X0221194Y0109342D01*
X0221194Y0114342D01*
X0223694Y0116842D01*
X0221194Y0119342D01*
X0221194Y0124342D01*
X0223694Y0126842D01*
X0221194Y0129342D01*
X0221194Y0134342D01*
X0223694Y0136842D01*
X0228694Y0136842D01*
X0231194Y0134342D01*
X0231194Y0129342D01*
X0228694Y0126842D01*
X0231194Y0124342D01*
X0231194Y0119342D01*
X0228694Y0116842D01*
X0231194Y0114342D01*
X0231194Y0109342D01*
X0228694Y0106842D01*
X0231194Y0104342D01*
X0231194Y0099342D01*
X0228694Y0096842D01*
X0231194Y0094342D01*
X0231194Y0089342D01*
X0228694Y0086842D01*
X0231194Y0084342D01*
X0231194Y0079342D01*
X0228694Y0076842D01*
X0231194Y0074342D01*
X0231194Y0069342D01*
X0228694Y0066842D01*
X0231194Y0064342D01*
X0231194Y0059342D01*
X0228694Y0056842D01*
X0231194Y0054342D01*
X0231194Y0049342D01*
X0228694Y0046842D01*
X0231194Y0044342D01*
X0231194Y0039342D01*
X0228694Y0036842D01*
X0231194Y0034342D01*
X0231194Y0029342D01*
X0206800Y0030483D02*
X0204300Y0027983D01*
X0199300Y0027983D01*
X0196800Y0030483D01*
X0194300Y0027983D01*
X0189300Y0027983D01*
X0186800Y0030483D01*
X0184300Y0027983D01*
X0179300Y0027983D01*
X0176800Y0030483D01*
X0174300Y0027983D01*
X0169300Y0027983D01*
X0166800Y0030483D01*
X0164300Y0027983D01*
X0159300Y0027983D01*
X0156800Y0030483D01*
X0154300Y0027983D01*
X0149300Y0027983D01*
X0146800Y0030483D01*
X0144300Y0027983D01*
X0139300Y0027983D01*
X0136800Y0030483D01*
X0134300Y0027983D01*
X0129300Y0027983D01*
X0126800Y0030483D01*
X0124300Y0027983D01*
X0119300Y0027983D01*
X0116800Y0030483D01*
X0119300Y0027983D02*
X0116800Y0025483D01*
X0116800Y0020483D02*
X0119300Y0017983D01*
X0124300Y0017983D01*
X0126800Y0020483D01*
X0129300Y0017983D01*
X0134300Y0017983D01*
X0136800Y0020483D01*
X0139300Y0017983D01*
X0144300Y0017983D01*
X0146800Y0020483D01*
X0149300Y0017983D01*
X0154300Y0017983D01*
X0156800Y0020483D01*
X0159300Y0017983D01*
X0164300Y0017983D01*
X0166800Y0020483D01*
X0169300Y0017983D01*
X0174300Y0017983D01*
X0176800Y0020483D01*
X0179300Y0017983D01*
X0184300Y0017983D01*
X0186800Y0020483D01*
X0189300Y0017983D01*
X0194300Y0017983D01*
X0196800Y0020483D01*
X0199300Y0017983D01*
X0204300Y0017983D01*
X0206800Y0020483D01*
X0206800Y0025483D01*
X0204300Y0027983D01*
X0206800Y0030483D02*
X0206800Y0035483D01*
X0204300Y0037983D01*
X0199300Y0037983D01*
X0196800Y0035483D01*
X0194300Y0037983D01*
X0189300Y0037983D01*
X0186800Y0035483D01*
X0184300Y0037983D01*
X0179300Y0037983D01*
X0176800Y0035483D01*
X0174300Y0037983D01*
X0169300Y0037983D01*
X0166800Y0035483D01*
X0164300Y0037983D01*
X0159300Y0037983D01*
X0156800Y0035483D01*
X0154300Y0037983D01*
X0149300Y0037983D01*
X0146800Y0035483D01*
X0144300Y0037983D01*
X0139300Y0037983D01*
X0136800Y0035483D01*
X0134300Y0037983D01*
X0129300Y0037983D01*
X0126800Y0035483D01*
X0124300Y0037983D01*
X0119300Y0037983D01*
X0116800Y0035483D01*
X0124300Y0027983D02*
X0126800Y0025483D01*
X0129300Y0027983D01*
X0134300Y0027983D02*
X0136800Y0025483D01*
X0139300Y0027983D01*
X0144300Y0027983D02*
X0146800Y0025483D01*
X0149300Y0027983D01*
X0154300Y0027983D02*
X0156800Y0025483D01*
X0159300Y0027983D01*
X0164300Y0027983D02*
X0166800Y0025483D01*
X0169300Y0027983D01*
X0174300Y0027983D02*
X0176800Y0025483D01*
X0179300Y0027983D01*
X0184300Y0027983D02*
X0186800Y0025483D01*
X0189300Y0027983D01*
X0194300Y0027983D02*
X0196800Y0025483D01*
X0199300Y0027983D01*
X0077784Y0031251D02*
X0077786Y0031409D01*
X0077792Y0031567D01*
X0077802Y0031725D01*
X0077816Y0031883D01*
X0077834Y0032040D01*
X0077855Y0032197D01*
X0077881Y0032353D01*
X0077911Y0032509D01*
X0077944Y0032664D01*
X0077982Y0032817D01*
X0078023Y0032970D01*
X0078068Y0033122D01*
X0078117Y0033273D01*
X0078170Y0033422D01*
X0078226Y0033570D01*
X0078286Y0033716D01*
X0078350Y0033861D01*
X0078418Y0034004D01*
X0078489Y0034146D01*
X0078563Y0034286D01*
X0078641Y0034423D01*
X0078723Y0034559D01*
X0078807Y0034693D01*
X0078896Y0034824D01*
X0078987Y0034953D01*
X0079082Y0035080D01*
X0079179Y0035205D01*
X0079280Y0035327D01*
X0079384Y0035446D01*
X0079491Y0035563D01*
X0079601Y0035677D01*
X0079714Y0035788D01*
X0079829Y0035897D01*
X0079947Y0036002D01*
X0080068Y0036104D01*
X0080191Y0036204D01*
X0080317Y0036300D01*
X0080445Y0036393D01*
X0080575Y0036483D01*
X0080708Y0036569D01*
X0080843Y0036653D01*
X0080979Y0036732D01*
X0081118Y0036809D01*
X0081259Y0036881D01*
X0081401Y0036951D01*
X0081545Y0037016D01*
X0081691Y0037078D01*
X0081838Y0037136D01*
X0081987Y0037191D01*
X0082137Y0037242D01*
X0082288Y0037289D01*
X0082440Y0037332D01*
X0082593Y0037371D01*
X0082748Y0037407D01*
X0082903Y0037438D01*
X0083059Y0037466D01*
X0083215Y0037490D01*
X0083372Y0037510D01*
X0083530Y0037526D01*
X0083687Y0037538D01*
X0083846Y0037546D01*
X0084004Y0037550D01*
X0084162Y0037550D01*
X0084320Y0037546D01*
X0084479Y0037538D01*
X0084636Y0037526D01*
X0084794Y0037510D01*
X0084951Y0037490D01*
X0085107Y0037466D01*
X0085263Y0037438D01*
X0085418Y0037407D01*
X0085573Y0037371D01*
X0085726Y0037332D01*
X0085878Y0037289D01*
X0086029Y0037242D01*
X0086179Y0037191D01*
X0086328Y0037136D01*
X0086475Y0037078D01*
X0086621Y0037016D01*
X0086765Y0036951D01*
X0086907Y0036881D01*
X0087048Y0036809D01*
X0087187Y0036732D01*
X0087323Y0036653D01*
X0087458Y0036569D01*
X0087591Y0036483D01*
X0087721Y0036393D01*
X0087849Y0036300D01*
X0087975Y0036204D01*
X0088098Y0036104D01*
X0088219Y0036002D01*
X0088337Y0035897D01*
X0088452Y0035788D01*
X0088565Y0035677D01*
X0088675Y0035563D01*
X0088782Y0035446D01*
X0088886Y0035327D01*
X0088987Y0035205D01*
X0089084Y0035080D01*
X0089179Y0034953D01*
X0089270Y0034824D01*
X0089359Y0034693D01*
X0089443Y0034559D01*
X0089525Y0034423D01*
X0089603Y0034286D01*
X0089677Y0034146D01*
X0089748Y0034004D01*
X0089816Y0033861D01*
X0089880Y0033716D01*
X0089940Y0033570D01*
X0089996Y0033422D01*
X0090049Y0033273D01*
X0090098Y0033122D01*
X0090143Y0032970D01*
X0090184Y0032817D01*
X0090222Y0032664D01*
X0090255Y0032509D01*
X0090285Y0032353D01*
X0090311Y0032197D01*
X0090332Y0032040D01*
X0090350Y0031883D01*
X0090364Y0031725D01*
X0090374Y0031567D01*
X0090380Y0031409D01*
X0090382Y0031251D01*
X0090380Y0031093D01*
X0090374Y0030935D01*
X0090364Y0030777D01*
X0090350Y0030619D01*
X0090332Y0030462D01*
X0090311Y0030305D01*
X0090285Y0030149D01*
X0090255Y0029993D01*
X0090222Y0029838D01*
X0090184Y0029685D01*
X0090143Y0029532D01*
X0090098Y0029380D01*
X0090049Y0029229D01*
X0089996Y0029080D01*
X0089940Y0028932D01*
X0089880Y0028786D01*
X0089816Y0028641D01*
X0089748Y0028498D01*
X0089677Y0028356D01*
X0089603Y0028216D01*
X0089525Y0028079D01*
X0089443Y0027943D01*
X0089359Y0027809D01*
X0089270Y0027678D01*
X0089179Y0027549D01*
X0089084Y0027422D01*
X0088987Y0027297D01*
X0088886Y0027175D01*
X0088782Y0027056D01*
X0088675Y0026939D01*
X0088565Y0026825D01*
X0088452Y0026714D01*
X0088337Y0026605D01*
X0088219Y0026500D01*
X0088098Y0026398D01*
X0087975Y0026298D01*
X0087849Y0026202D01*
X0087721Y0026109D01*
X0087591Y0026019D01*
X0087458Y0025933D01*
X0087323Y0025849D01*
X0087187Y0025770D01*
X0087048Y0025693D01*
X0086907Y0025621D01*
X0086765Y0025551D01*
X0086621Y0025486D01*
X0086475Y0025424D01*
X0086328Y0025366D01*
X0086179Y0025311D01*
X0086029Y0025260D01*
X0085878Y0025213D01*
X0085726Y0025170D01*
X0085573Y0025131D01*
X0085418Y0025095D01*
X0085263Y0025064D01*
X0085107Y0025036D01*
X0084951Y0025012D01*
X0084794Y0024992D01*
X0084636Y0024976D01*
X0084479Y0024964D01*
X0084320Y0024956D01*
X0084162Y0024952D01*
X0084004Y0024952D01*
X0083846Y0024956D01*
X0083687Y0024964D01*
X0083530Y0024976D01*
X0083372Y0024992D01*
X0083215Y0025012D01*
X0083059Y0025036D01*
X0082903Y0025064D01*
X0082748Y0025095D01*
X0082593Y0025131D01*
X0082440Y0025170D01*
X0082288Y0025213D01*
X0082137Y0025260D01*
X0081987Y0025311D01*
X0081838Y0025366D01*
X0081691Y0025424D01*
X0081545Y0025486D01*
X0081401Y0025551D01*
X0081259Y0025621D01*
X0081118Y0025693D01*
X0080979Y0025770D01*
X0080843Y0025849D01*
X0080708Y0025933D01*
X0080575Y0026019D01*
X0080445Y0026109D01*
X0080317Y0026202D01*
X0080191Y0026298D01*
X0080068Y0026398D01*
X0079947Y0026500D01*
X0079829Y0026605D01*
X0079714Y0026714D01*
X0079601Y0026825D01*
X0079491Y0026939D01*
X0079384Y0027056D01*
X0079280Y0027175D01*
X0079179Y0027297D01*
X0079082Y0027422D01*
X0078987Y0027549D01*
X0078896Y0027678D01*
X0078807Y0027809D01*
X0078723Y0027943D01*
X0078641Y0028079D01*
X0078563Y0028216D01*
X0078489Y0028356D01*
X0078418Y0028498D01*
X0078350Y0028641D01*
X0078286Y0028786D01*
X0078226Y0028932D01*
X0078170Y0029080D01*
X0078117Y0029229D01*
X0078068Y0029380D01*
X0078023Y0029532D01*
X0077982Y0029685D01*
X0077944Y0029838D01*
X0077911Y0029993D01*
X0077881Y0030149D01*
X0077855Y0030305D01*
X0077834Y0030462D01*
X0077816Y0030619D01*
X0077802Y0030777D01*
X0077792Y0030935D01*
X0077786Y0031093D01*
X0077784Y0031251D01*
X0038808Y0030857D02*
X0038810Y0031015D01*
X0038816Y0031173D01*
X0038826Y0031331D01*
X0038840Y0031489D01*
X0038858Y0031646D01*
X0038879Y0031803D01*
X0038905Y0031959D01*
X0038935Y0032115D01*
X0038968Y0032270D01*
X0039006Y0032423D01*
X0039047Y0032576D01*
X0039092Y0032728D01*
X0039141Y0032879D01*
X0039194Y0033028D01*
X0039250Y0033176D01*
X0039310Y0033322D01*
X0039374Y0033467D01*
X0039442Y0033610D01*
X0039513Y0033752D01*
X0039587Y0033892D01*
X0039665Y0034029D01*
X0039747Y0034165D01*
X0039831Y0034299D01*
X0039920Y0034430D01*
X0040011Y0034559D01*
X0040106Y0034686D01*
X0040203Y0034811D01*
X0040304Y0034933D01*
X0040408Y0035052D01*
X0040515Y0035169D01*
X0040625Y0035283D01*
X0040738Y0035394D01*
X0040853Y0035503D01*
X0040971Y0035608D01*
X0041092Y0035710D01*
X0041215Y0035810D01*
X0041341Y0035906D01*
X0041469Y0035999D01*
X0041599Y0036089D01*
X0041732Y0036175D01*
X0041867Y0036259D01*
X0042003Y0036338D01*
X0042142Y0036415D01*
X0042283Y0036487D01*
X0042425Y0036557D01*
X0042569Y0036622D01*
X0042715Y0036684D01*
X0042862Y0036742D01*
X0043011Y0036797D01*
X0043161Y0036848D01*
X0043312Y0036895D01*
X0043464Y0036938D01*
X0043617Y0036977D01*
X0043772Y0037013D01*
X0043927Y0037044D01*
X0044083Y0037072D01*
X0044239Y0037096D01*
X0044396Y0037116D01*
X0044554Y0037132D01*
X0044711Y0037144D01*
X0044870Y0037152D01*
X0045028Y0037156D01*
X0045186Y0037156D01*
X0045344Y0037152D01*
X0045503Y0037144D01*
X0045660Y0037132D01*
X0045818Y0037116D01*
X0045975Y0037096D01*
X0046131Y0037072D01*
X0046287Y0037044D01*
X0046442Y0037013D01*
X0046597Y0036977D01*
X0046750Y0036938D01*
X0046902Y0036895D01*
X0047053Y0036848D01*
X0047203Y0036797D01*
X0047352Y0036742D01*
X0047499Y0036684D01*
X0047645Y0036622D01*
X0047789Y0036557D01*
X0047931Y0036487D01*
X0048072Y0036415D01*
X0048211Y0036338D01*
X0048347Y0036259D01*
X0048482Y0036175D01*
X0048615Y0036089D01*
X0048745Y0035999D01*
X0048873Y0035906D01*
X0048999Y0035810D01*
X0049122Y0035710D01*
X0049243Y0035608D01*
X0049361Y0035503D01*
X0049476Y0035394D01*
X0049589Y0035283D01*
X0049699Y0035169D01*
X0049806Y0035052D01*
X0049910Y0034933D01*
X0050011Y0034811D01*
X0050108Y0034686D01*
X0050203Y0034559D01*
X0050294Y0034430D01*
X0050383Y0034299D01*
X0050467Y0034165D01*
X0050549Y0034029D01*
X0050627Y0033892D01*
X0050701Y0033752D01*
X0050772Y0033610D01*
X0050840Y0033467D01*
X0050904Y0033322D01*
X0050964Y0033176D01*
X0051020Y0033028D01*
X0051073Y0032879D01*
X0051122Y0032728D01*
X0051167Y0032576D01*
X0051208Y0032423D01*
X0051246Y0032270D01*
X0051279Y0032115D01*
X0051309Y0031959D01*
X0051335Y0031803D01*
X0051356Y0031646D01*
X0051374Y0031489D01*
X0051388Y0031331D01*
X0051398Y0031173D01*
X0051404Y0031015D01*
X0051406Y0030857D01*
X0051404Y0030699D01*
X0051398Y0030541D01*
X0051388Y0030383D01*
X0051374Y0030225D01*
X0051356Y0030068D01*
X0051335Y0029911D01*
X0051309Y0029755D01*
X0051279Y0029599D01*
X0051246Y0029444D01*
X0051208Y0029291D01*
X0051167Y0029138D01*
X0051122Y0028986D01*
X0051073Y0028835D01*
X0051020Y0028686D01*
X0050964Y0028538D01*
X0050904Y0028392D01*
X0050840Y0028247D01*
X0050772Y0028104D01*
X0050701Y0027962D01*
X0050627Y0027822D01*
X0050549Y0027685D01*
X0050467Y0027549D01*
X0050383Y0027415D01*
X0050294Y0027284D01*
X0050203Y0027155D01*
X0050108Y0027028D01*
X0050011Y0026903D01*
X0049910Y0026781D01*
X0049806Y0026662D01*
X0049699Y0026545D01*
X0049589Y0026431D01*
X0049476Y0026320D01*
X0049361Y0026211D01*
X0049243Y0026106D01*
X0049122Y0026004D01*
X0048999Y0025904D01*
X0048873Y0025808D01*
X0048745Y0025715D01*
X0048615Y0025625D01*
X0048482Y0025539D01*
X0048347Y0025455D01*
X0048211Y0025376D01*
X0048072Y0025299D01*
X0047931Y0025227D01*
X0047789Y0025157D01*
X0047645Y0025092D01*
X0047499Y0025030D01*
X0047352Y0024972D01*
X0047203Y0024917D01*
X0047053Y0024866D01*
X0046902Y0024819D01*
X0046750Y0024776D01*
X0046597Y0024737D01*
X0046442Y0024701D01*
X0046287Y0024670D01*
X0046131Y0024642D01*
X0045975Y0024618D01*
X0045818Y0024598D01*
X0045660Y0024582D01*
X0045503Y0024570D01*
X0045344Y0024562D01*
X0045186Y0024558D01*
X0045028Y0024558D01*
X0044870Y0024562D01*
X0044711Y0024570D01*
X0044554Y0024582D01*
X0044396Y0024598D01*
X0044239Y0024618D01*
X0044083Y0024642D01*
X0043927Y0024670D01*
X0043772Y0024701D01*
X0043617Y0024737D01*
X0043464Y0024776D01*
X0043312Y0024819D01*
X0043161Y0024866D01*
X0043011Y0024917D01*
X0042862Y0024972D01*
X0042715Y0025030D01*
X0042569Y0025092D01*
X0042425Y0025157D01*
X0042283Y0025227D01*
X0042142Y0025299D01*
X0042003Y0025376D01*
X0041867Y0025455D01*
X0041732Y0025539D01*
X0041599Y0025625D01*
X0041469Y0025715D01*
X0041341Y0025808D01*
X0041215Y0025904D01*
X0041092Y0026004D01*
X0040971Y0026106D01*
X0040853Y0026211D01*
X0040738Y0026320D01*
X0040625Y0026431D01*
X0040515Y0026545D01*
X0040408Y0026662D01*
X0040304Y0026781D01*
X0040203Y0026903D01*
X0040106Y0027028D01*
X0040011Y0027155D01*
X0039920Y0027284D01*
X0039831Y0027415D01*
X0039747Y0027549D01*
X0039665Y0027685D01*
X0039587Y0027822D01*
X0039513Y0027962D01*
X0039442Y0028104D01*
X0039374Y0028247D01*
X0039310Y0028392D01*
X0039250Y0028538D01*
X0039194Y0028686D01*
X0039141Y0028835D01*
X0039092Y0028986D01*
X0039047Y0029138D01*
X0039006Y0029291D01*
X0038968Y0029444D01*
X0038935Y0029599D01*
X0038905Y0029755D01*
X0038879Y0029911D01*
X0038858Y0030068D01*
X0038840Y0030225D01*
X0038826Y0030383D01*
X0038816Y0030541D01*
X0038810Y0030699D01*
X0038808Y0030857D01*
X0022194Y0029342D02*
X0022194Y0034342D01*
X0019694Y0036842D01*
X0022194Y0039342D01*
X0022194Y0044342D01*
X0019694Y0046842D01*
X0022194Y0049342D01*
X0022194Y0054342D01*
X0019694Y0056842D01*
X0022194Y0059342D01*
X0022194Y0064342D01*
X0019694Y0066842D01*
X0022194Y0069342D01*
X0022194Y0074342D01*
X0019694Y0076842D01*
X0022194Y0079342D01*
X0022194Y0084342D01*
X0019694Y0086842D01*
X0022194Y0089342D01*
X0022194Y0094342D01*
X0019694Y0096842D01*
X0022194Y0099342D01*
X0022194Y0104342D01*
X0019694Y0106842D01*
X0022194Y0109342D01*
X0022194Y0114342D01*
X0019694Y0116842D01*
X0022194Y0119342D01*
X0022194Y0124342D01*
X0019694Y0126842D01*
X0022194Y0129342D01*
X0022194Y0134342D01*
X0019694Y0136842D01*
X0022194Y0139342D01*
X0022194Y0144342D01*
X0019694Y0146842D01*
X0022194Y0149342D01*
X0022194Y0154342D01*
X0019694Y0156842D01*
X0022194Y0159342D01*
X0022194Y0164342D01*
X0019694Y0166842D01*
X0022194Y0169342D01*
X0022194Y0174342D01*
X0019694Y0176842D01*
X0022194Y0179342D01*
X0022194Y0184342D01*
X0019694Y0186842D01*
X0014694Y0186842D01*
X0012194Y0184342D01*
X0012194Y0179342D01*
X0014694Y0176842D01*
X0012194Y0174342D01*
X0012194Y0169342D01*
X0014694Y0166842D01*
X0012194Y0164342D01*
X0012194Y0159342D01*
X0014694Y0156842D01*
X0012194Y0154342D01*
X0012194Y0149342D01*
X0014694Y0146842D01*
X0012194Y0144342D01*
X0012194Y0139342D01*
X0014694Y0136842D01*
X0012194Y0134342D01*
X0012194Y0129342D01*
X0014694Y0126842D01*
X0012194Y0124342D01*
X0012194Y0119342D01*
X0014694Y0116842D01*
X0012194Y0114342D01*
X0012194Y0109342D01*
X0014694Y0106842D01*
X0012194Y0104342D01*
X0012194Y0099342D01*
X0014694Y0096842D01*
X0012194Y0094342D01*
X0012194Y0089342D01*
X0014694Y0086842D01*
X0012194Y0084342D01*
X0012194Y0079342D01*
X0014694Y0076842D01*
X0012194Y0074342D01*
X0012194Y0069342D01*
X0014694Y0066842D01*
X0012194Y0064342D01*
X0012194Y0059342D01*
X0014694Y0056842D01*
X0012194Y0054342D01*
X0012194Y0049342D01*
X0014694Y0046842D01*
X0012194Y0044342D01*
X0012194Y0039342D01*
X0014694Y0036842D01*
X0012194Y0034342D01*
X0012194Y0029342D01*
X0014694Y0026842D01*
X0019694Y0026842D01*
X0022194Y0029342D01*
X0047863Y0071409D02*
X0051013Y0071409D01*
X0051013Y0073771D01*
X0051013Y0080070D02*
X0051013Y0082432D01*
X0047863Y0082432D01*
X0046682Y0098180D02*
X0049831Y0098180D01*
X0049831Y0100542D01*
X0049831Y0106842D02*
X0049831Y0109204D01*
X0046682Y0109204D01*
X0046682Y0124558D02*
X0049831Y0124558D01*
X0049831Y0126920D01*
X0049831Y0133220D02*
X0049831Y0135582D01*
X0046682Y0135582D01*
X0046288Y0150149D02*
X0049438Y0150149D01*
X0049438Y0152511D01*
X0049438Y0158810D02*
X0049438Y0161172D01*
X0046288Y0161172D01*
X0116800Y0190483D02*
X0119300Y0187983D01*
X0124300Y0187983D01*
X0126800Y0190483D01*
X0129300Y0187983D01*
X0134300Y0187983D01*
X0136800Y0190483D01*
X0139300Y0187983D01*
X0144300Y0187983D01*
X0146800Y0190483D01*
X0149300Y0187983D01*
X0154300Y0187983D01*
X0156800Y0190483D01*
X0159300Y0187983D01*
X0164300Y0187983D01*
X0166800Y0190483D01*
X0169300Y0187983D01*
X0174300Y0187983D01*
X0176800Y0190483D01*
X0179300Y0187983D01*
X0184300Y0187983D01*
X0186800Y0190483D01*
X0189300Y0187983D01*
X0194300Y0187983D01*
X0196800Y0190483D01*
X0199300Y0187983D01*
X0204300Y0187983D01*
X0206800Y0190483D01*
X0206800Y0195483D01*
X0204300Y0197983D01*
X0199300Y0197983D01*
X0196800Y0200483D01*
X0194300Y0197983D01*
X0189300Y0197983D01*
X0186800Y0200483D01*
X0184300Y0197983D01*
X0179300Y0197983D01*
X0176800Y0200483D01*
X0174300Y0197983D01*
X0169300Y0197983D01*
X0166800Y0200483D01*
X0164300Y0197983D01*
X0159300Y0197983D01*
X0156800Y0200483D01*
X0154300Y0197983D01*
X0149300Y0197983D01*
X0146800Y0200483D01*
X0144300Y0197983D01*
X0139300Y0197983D01*
X0136800Y0200483D01*
X0134300Y0197983D01*
X0129300Y0197983D01*
X0126800Y0200483D01*
X0124300Y0197983D01*
X0119300Y0197983D01*
X0116800Y0200483D01*
X0119300Y0197983D02*
X0116800Y0195483D01*
X0124300Y0197983D02*
X0126800Y0195483D01*
X0129300Y0197983D01*
X0134300Y0197983D02*
X0136800Y0195483D01*
X0139300Y0197983D01*
X0144300Y0197983D02*
X0146800Y0195483D01*
X0149300Y0197983D01*
X0154300Y0197983D02*
X0156800Y0195483D01*
X0159300Y0197983D01*
X0164300Y0197983D02*
X0166800Y0195483D01*
X0169300Y0197983D01*
X0174300Y0197983D02*
X0176800Y0195483D01*
X0179300Y0197983D01*
X0184300Y0197983D02*
X0186800Y0195483D01*
X0189300Y0197983D01*
X0194300Y0197983D02*
X0196800Y0195483D01*
X0199300Y0197983D01*
X0204300Y0197983D02*
X0206800Y0200483D01*
X0206800Y0205483D01*
X0204300Y0207983D01*
X0199300Y0207983D01*
X0196800Y0205483D01*
X0194300Y0207983D01*
X0189300Y0207983D01*
X0186800Y0205483D01*
X0184300Y0207983D01*
X0179300Y0207983D01*
X0176800Y0205483D01*
X0174300Y0207983D01*
X0169300Y0207983D01*
X0166800Y0205483D01*
X0164300Y0207983D01*
X0159300Y0207983D01*
X0156800Y0205483D01*
X0154300Y0207983D01*
X0149300Y0207983D01*
X0146800Y0205483D01*
X0144300Y0207983D01*
X0139300Y0207983D01*
X0136800Y0205483D01*
X0134300Y0207983D01*
X0129300Y0207983D01*
X0126800Y0205483D01*
X0124300Y0207983D01*
X0119300Y0207983D01*
X0116800Y0205483D01*
D14*
X0094350Y0204537D02*
X0091347Y0207540D01*
X0090597Y0207540D01*
X0089846Y0206789D01*
X0089846Y0205288D01*
X0090597Y0204537D01*
X0089846Y0202936D02*
X0089846Y0201435D01*
X0089846Y0202185D02*
X0093599Y0202185D01*
X0094350Y0201435D01*
X0094350Y0200684D01*
X0093599Y0199933D01*
X0094350Y0204537D02*
X0094350Y0207540D01*
X0092098Y0194540D02*
X0092098Y0191537D01*
X0089846Y0193789D01*
X0094350Y0193789D01*
X0093599Y0189185D02*
X0089846Y0189185D01*
X0089846Y0188435D02*
X0089846Y0189936D01*
X0093599Y0189185D02*
X0094350Y0188435D01*
X0094350Y0187684D01*
X0093599Y0186933D01*
X0231942Y0135516D02*
X0233844Y0135516D01*
X0233844Y0134882D02*
X0233844Y0136150D01*
X0232576Y0134882D02*
X0231942Y0135516D01*
X0234161Y0133940D02*
X0234161Y0132672D01*
X0233527Y0131730D02*
X0233844Y0131413D01*
X0233844Y0130779D01*
X0233527Y0130462D01*
X0232893Y0131096D02*
X0232893Y0131413D01*
X0233210Y0131730D01*
X0233527Y0131730D01*
X0232893Y0131413D02*
X0232576Y0131730D01*
X0232259Y0131730D01*
X0231942Y0131413D01*
X0231942Y0130779D01*
X0232259Y0130462D01*
X0232259Y0129520D02*
X0232893Y0129520D01*
X0233210Y0129203D01*
X0233210Y0128252D01*
X0233844Y0128252D02*
X0231942Y0128252D01*
X0231942Y0129203D01*
X0232259Y0129520D01*
X0241942Y0129203D02*
X0241942Y0128252D01*
X0243844Y0128252D01*
X0243210Y0128252D02*
X0243210Y0129203D01*
X0242893Y0129520D01*
X0242259Y0129520D01*
X0241942Y0129203D01*
X0242259Y0130462D02*
X0241942Y0130779D01*
X0241942Y0131413D01*
X0242259Y0131730D01*
X0242576Y0131730D01*
X0243844Y0130462D01*
X0243844Y0131730D01*
X0244161Y0132672D02*
X0244161Y0133940D01*
X0243844Y0134882D02*
X0242576Y0136150D01*
X0242259Y0136150D01*
X0241942Y0135833D01*
X0241942Y0135199D01*
X0242259Y0134882D01*
X0243844Y0134882D02*
X0243844Y0136150D01*
X0271942Y0135516D02*
X0273844Y0135516D01*
X0273844Y0134882D02*
X0273844Y0136150D01*
X0272576Y0134882D02*
X0271942Y0135516D01*
X0274161Y0133940D02*
X0274161Y0132672D01*
X0273844Y0131730D02*
X0273844Y0130462D01*
X0272576Y0131730D01*
X0272259Y0131730D01*
X0271942Y0131413D01*
X0271942Y0130779D01*
X0272259Y0130462D01*
X0272259Y0129520D02*
X0272893Y0129520D01*
X0273210Y0129203D01*
X0273210Y0128252D01*
X0273844Y0128252D02*
X0271942Y0128252D01*
X0271942Y0129203D01*
X0272259Y0129520D01*
X0281942Y0129203D02*
X0281942Y0128252D01*
X0283844Y0128252D01*
X0283210Y0128252D02*
X0283210Y0129203D01*
X0282893Y0129520D01*
X0282259Y0129520D01*
X0281942Y0129203D01*
X0282259Y0130462D02*
X0281942Y0130779D01*
X0281942Y0131413D01*
X0282259Y0131730D01*
X0282576Y0131730D01*
X0282893Y0131413D01*
X0283210Y0131730D01*
X0283527Y0131730D01*
X0283844Y0131413D01*
X0283844Y0130779D01*
X0283527Y0130462D01*
X0282893Y0131096D02*
X0282893Y0131413D01*
X0284161Y0132672D02*
X0284161Y0133940D01*
X0283844Y0134882D02*
X0282576Y0136150D01*
X0282259Y0136150D01*
X0281942Y0135833D01*
X0281942Y0135199D01*
X0282259Y0134882D01*
X0283844Y0134882D02*
X0283844Y0136150D01*
X0094350Y0036789D02*
X0094350Y0035288D01*
X0093599Y0034537D01*
X0092098Y0036039D02*
X0092098Y0036789D01*
X0092849Y0037540D01*
X0093599Y0037540D01*
X0094350Y0036789D01*
X0092098Y0036789D02*
X0091347Y0037540D01*
X0090597Y0037540D01*
X0089846Y0036789D01*
X0089846Y0035288D01*
X0090597Y0034537D01*
X0089846Y0032936D02*
X0089846Y0031435D01*
X0089846Y0032185D02*
X0093599Y0032185D01*
X0094350Y0031435D01*
X0094350Y0030684D01*
X0093599Y0029933D01*
X0094350Y0025540D02*
X0094350Y0022537D01*
X0094350Y0024039D02*
X0089846Y0024039D01*
X0091347Y0022537D01*
X0089846Y0020936D02*
X0089846Y0019435D01*
X0089846Y0020185D02*
X0093599Y0020185D01*
X0094350Y0019435D01*
X0094350Y0018684D01*
X0093599Y0017933D01*
X0011444Y0027092D02*
X0009542Y0027092D01*
X0009542Y0028042D01*
X0009859Y0028359D01*
X0010493Y0028359D01*
X0010810Y0028042D01*
X0010810Y0027092D01*
X0011444Y0029302D02*
X0011444Y0030569D01*
X0011444Y0029935D02*
X0009542Y0029935D01*
X0010176Y0029302D01*
D15*
X0067131Y0185920D03*
X0078154Y0185842D03*
X0088391Y0186157D03*
X0099020Y0186078D03*
D16*
X0106800Y0187983D02*
X0106800Y0197983D01*
X0106800Y0207983D01*
X0116800Y0207983D01*
X0116800Y0205483D01*
X0116800Y0200483D02*
X0116800Y0197983D01*
X0106800Y0197983D01*
X0116800Y0197983D02*
X0116800Y0195483D01*
X0116800Y0190483D02*
X0116800Y0187983D01*
X0106800Y0187983D01*
X0106800Y0037983D02*
X0116800Y0037983D01*
X0116800Y0035483D01*
X0116800Y0030483D02*
X0116800Y0027983D01*
X0106800Y0027983D01*
X0106800Y0037983D01*
X0106800Y0027983D02*
X0106800Y0017983D01*
X0116800Y0017983D01*
X0116800Y0020483D01*
X0116800Y0025483D02*
X0116800Y0027983D01*
D17*
X0102650Y0040688D02*
X0100515Y0042823D01*
X0099981Y0042823D01*
X0099447Y0042289D01*
X0099447Y0041222D01*
X0099981Y0040688D01*
X0102650Y0040688D02*
X0102650Y0042823D01*
X0102650Y0043911D02*
X0102650Y0046046D01*
X0102650Y0044978D02*
X0099447Y0044978D01*
X0100515Y0043911D01*
X0110447Y0044269D02*
X0110447Y0042133D01*
X0112049Y0042133D01*
X0111515Y0043201D01*
X0111515Y0043735D01*
X0112049Y0044269D01*
X0113116Y0044269D01*
X0113650Y0043735D01*
X0113650Y0042667D01*
X0113116Y0042133D01*
X0112582Y0045356D02*
X0110447Y0045356D01*
X0110447Y0047491D02*
X0112582Y0047491D01*
X0113650Y0046424D01*
X0112582Y0045356D01*
X0120447Y0045356D02*
X0123650Y0047491D01*
X0120447Y0047491D01*
X0120447Y0048579D02*
X0120447Y0050180D01*
X0120981Y0050714D01*
X0123116Y0050714D01*
X0123650Y0050180D01*
X0123650Y0048579D01*
X0120447Y0048579D01*
X0120447Y0045356D02*
X0123650Y0045356D01*
X0123116Y0044269D02*
X0122049Y0044269D01*
X0122049Y0043201D01*
X0123116Y0044269D02*
X0123650Y0043735D01*
X0123650Y0042667D01*
X0123116Y0042133D01*
X0120981Y0042133D01*
X0120447Y0042667D01*
X0120447Y0043735D01*
X0120981Y0044269D01*
X0130447Y0043201D02*
X0131515Y0044269D01*
X0133650Y0044269D01*
X0133650Y0045356D02*
X0133650Y0046424D01*
X0133650Y0045890D02*
X0130447Y0045890D01*
X0130447Y0045356D02*
X0130447Y0046424D01*
X0130447Y0047505D02*
X0133650Y0049640D01*
X0130447Y0049640D01*
X0130447Y0047505D02*
X0133650Y0047505D01*
X0132049Y0044269D02*
X0132049Y0042133D01*
X0131515Y0042133D02*
X0130447Y0043201D01*
X0131515Y0042133D02*
X0133650Y0042133D01*
X0140447Y0043201D02*
X0141515Y0044269D01*
X0143650Y0044269D01*
X0143650Y0045356D02*
X0143650Y0046424D01*
X0143650Y0045890D02*
X0140447Y0045890D01*
X0140447Y0045356D02*
X0140447Y0046424D01*
X0140447Y0047505D02*
X0143650Y0049640D01*
X0140447Y0049640D01*
X0140447Y0047505D02*
X0143650Y0047505D01*
X0142049Y0044269D02*
X0142049Y0042133D01*
X0141515Y0042133D02*
X0140447Y0043201D01*
X0141515Y0042133D02*
X0143650Y0042133D01*
X0150447Y0043201D02*
X0151515Y0044269D01*
X0153650Y0044269D01*
X0153650Y0045356D02*
X0153650Y0046424D01*
X0153650Y0045890D02*
X0150447Y0045890D01*
X0150447Y0045356D02*
X0150447Y0046424D01*
X0150447Y0047505D02*
X0153650Y0049640D01*
X0150447Y0049640D01*
X0150447Y0047505D02*
X0153650Y0047505D01*
X0152049Y0044269D02*
X0152049Y0042133D01*
X0151515Y0042133D02*
X0150447Y0043201D01*
X0151515Y0042133D02*
X0153650Y0042133D01*
X0160447Y0043201D02*
X0161515Y0044269D01*
X0163650Y0044269D01*
X0163650Y0045356D02*
X0163650Y0046424D01*
X0163650Y0045890D02*
X0160447Y0045890D01*
X0160447Y0045356D02*
X0160447Y0046424D01*
X0160447Y0047505D02*
X0163650Y0049640D01*
X0160447Y0049640D01*
X0160447Y0047505D02*
X0163650Y0047505D01*
X0162049Y0044269D02*
X0162049Y0042133D01*
X0161515Y0042133D02*
X0160447Y0043201D01*
X0161515Y0042133D02*
X0163650Y0042133D01*
X0170447Y0043201D02*
X0171515Y0044269D01*
X0173650Y0044269D01*
X0173650Y0045356D02*
X0173650Y0046424D01*
X0173650Y0045890D02*
X0170447Y0045890D01*
X0170447Y0045356D02*
X0170447Y0046424D01*
X0170447Y0047505D02*
X0173650Y0049640D01*
X0170447Y0049640D01*
X0170447Y0047505D02*
X0173650Y0047505D01*
X0172049Y0044269D02*
X0172049Y0042133D01*
X0171515Y0042133D02*
X0170447Y0043201D01*
X0171515Y0042133D02*
X0173650Y0042133D01*
X0180447Y0043201D02*
X0181515Y0044269D01*
X0183650Y0044269D01*
X0183650Y0045356D02*
X0183650Y0046424D01*
X0183650Y0045890D02*
X0180447Y0045890D01*
X0180447Y0045356D02*
X0180447Y0046424D01*
X0180447Y0047505D02*
X0183650Y0049640D01*
X0180447Y0049640D01*
X0180447Y0047505D02*
X0183650Y0047505D01*
X0182049Y0044269D02*
X0182049Y0042133D01*
X0181515Y0042133D02*
X0180447Y0043201D01*
X0181515Y0042133D02*
X0183650Y0042133D01*
X0190447Y0043201D02*
X0191515Y0044269D01*
X0193650Y0044269D01*
X0193116Y0045356D02*
X0193650Y0045890D01*
X0193650Y0046958D01*
X0193116Y0047491D01*
X0190981Y0047491D01*
X0190447Y0046958D01*
X0190447Y0045890D01*
X0190981Y0045356D01*
X0193116Y0045356D01*
X0192049Y0044269D02*
X0192049Y0042133D01*
X0191515Y0042133D02*
X0190447Y0043201D01*
X0191515Y0042133D02*
X0193650Y0042133D01*
X0193116Y0048579D02*
X0190447Y0048579D01*
X0190447Y0050714D02*
X0193116Y0050714D01*
X0193650Y0050180D01*
X0193650Y0049113D01*
X0193116Y0048579D01*
X0190447Y0051802D02*
X0190447Y0053937D01*
X0190447Y0052869D02*
X0193650Y0052869D01*
X0200447Y0052869D02*
X0203650Y0052869D01*
X0203116Y0050714D02*
X0200447Y0050714D01*
X0200447Y0051802D02*
X0200447Y0053937D01*
X0203116Y0050714D02*
X0203650Y0050180D01*
X0203650Y0049113D01*
X0203116Y0048579D01*
X0200447Y0048579D01*
X0200981Y0047491D02*
X0200447Y0046958D01*
X0200447Y0045890D01*
X0200981Y0045356D01*
X0203116Y0045356D01*
X0203650Y0045890D01*
X0203650Y0046958D01*
X0203116Y0047491D01*
X0200981Y0047491D01*
X0201515Y0044269D02*
X0203650Y0044269D01*
X0202049Y0044269D02*
X0202049Y0042133D01*
X0201515Y0042133D02*
X0203650Y0042133D01*
X0201515Y0042133D02*
X0200447Y0043201D01*
X0201515Y0044269D01*
X0210447Y0044444D02*
X0210447Y0045512D01*
X0210981Y0046046D01*
X0213116Y0043911D01*
X0213650Y0044444D01*
X0213650Y0045512D01*
X0213116Y0046046D01*
X0210981Y0046046D01*
X0210447Y0044444D02*
X0210981Y0043911D01*
X0213116Y0043911D01*
X0213116Y0042823D02*
X0213650Y0042289D01*
X0213650Y0041222D01*
X0213116Y0040688D01*
X0212049Y0041755D02*
X0212049Y0042289D01*
X0212582Y0042823D01*
X0213116Y0042823D01*
X0212049Y0042289D02*
X0211515Y0042823D01*
X0210981Y0042823D01*
X0210447Y0042289D01*
X0210447Y0041222D01*
X0210981Y0040688D01*
X0210981Y0016491D02*
X0213116Y0014356D01*
X0213650Y0014890D01*
X0213650Y0015958D01*
X0213116Y0016491D01*
X0210981Y0016491D01*
X0210447Y0015958D01*
X0210447Y0014890D01*
X0210981Y0014356D01*
X0213116Y0014356D01*
X0213650Y0013269D02*
X0213650Y0011133D01*
X0213650Y0012201D02*
X0210447Y0012201D01*
X0211515Y0011133D01*
X0202650Y0010911D02*
X0200515Y0010911D01*
X0199447Y0011978D01*
X0200515Y0013046D01*
X0202650Y0013046D01*
X0201049Y0013046D02*
X0201049Y0010911D01*
X0202116Y0009823D02*
X0199981Y0009823D01*
X0199447Y0009289D01*
X0199447Y0007688D01*
X0202650Y0007688D01*
X0202650Y0009289D01*
X0202116Y0009823D01*
X0202116Y0006600D02*
X0201582Y0006600D01*
X0201049Y0006067D01*
X0201049Y0004999D01*
X0200515Y0004465D01*
X0199981Y0004465D01*
X0199447Y0004999D01*
X0199447Y0006067D01*
X0199981Y0006600D01*
X0202116Y0006600D02*
X0202650Y0006067D01*
X0202650Y0004999D01*
X0202116Y0004465D01*
X0192650Y0004999D02*
X0192116Y0004465D01*
X0192650Y0004999D02*
X0192650Y0006067D01*
X0192116Y0006600D01*
X0191582Y0006600D01*
X0191049Y0006067D01*
X0191049Y0004999D01*
X0190515Y0004465D01*
X0189981Y0004465D01*
X0189447Y0004999D01*
X0189447Y0006067D01*
X0189981Y0006600D01*
X0189981Y0007688D02*
X0192116Y0007688D01*
X0192650Y0008222D01*
X0192650Y0009289D01*
X0192116Y0009823D01*
X0192650Y0010911D02*
X0189447Y0010911D01*
X0189981Y0009823D02*
X0189447Y0009289D01*
X0189447Y0008222D01*
X0189981Y0007688D01*
X0192650Y0010911D02*
X0192650Y0013046D01*
X0182650Y0012512D02*
X0182650Y0011444D01*
X0182116Y0010911D01*
X0179981Y0010911D01*
X0179447Y0011444D01*
X0179447Y0012512D01*
X0179981Y0013046D01*
X0182116Y0013046D01*
X0182650Y0012512D01*
X0182650Y0009830D02*
X0182650Y0008762D01*
X0182650Y0009296D02*
X0179447Y0009296D01*
X0179447Y0008762D02*
X0179447Y0009830D01*
X0179981Y0007675D02*
X0181049Y0007675D01*
X0181582Y0007141D01*
X0181582Y0005539D01*
X0182650Y0005539D02*
X0179447Y0005539D01*
X0179447Y0007141D01*
X0179981Y0007675D01*
X0179981Y0004452D02*
X0179447Y0003918D01*
X0179447Y0002850D01*
X0179981Y0002317D01*
X0182116Y0002317D01*
X0182650Y0002850D01*
X0182650Y0003918D01*
X0182116Y0004452D01*
X0181049Y0004452D01*
X0181049Y0003384D01*
X0172650Y0004999D02*
X0172116Y0004465D01*
X0169981Y0004465D01*
X0169447Y0004999D01*
X0169447Y0006067D01*
X0169981Y0006600D01*
X0169447Y0007688D02*
X0172650Y0007688D01*
X0172650Y0009823D01*
X0172650Y0010911D02*
X0169447Y0010911D01*
X0171049Y0011444D02*
X0172650Y0013046D01*
X0171582Y0010911D02*
X0169447Y0013046D01*
X0162650Y0013046D02*
X0159447Y0013046D01*
X0159447Y0010911D02*
X0162650Y0013046D01*
X0162650Y0010911D02*
X0159447Y0010911D01*
X0159447Y0009830D02*
X0159447Y0008762D01*
X0159447Y0009296D02*
X0162650Y0009296D01*
X0162650Y0008762D02*
X0162650Y0009830D01*
X0162650Y0007675D02*
X0160515Y0007675D01*
X0159447Y0006607D01*
X0160515Y0005539D01*
X0162650Y0005539D01*
X0161049Y0005539D02*
X0161049Y0007675D01*
X0152650Y0008762D02*
X0152650Y0009830D01*
X0152650Y0009296D02*
X0149447Y0009296D01*
X0149447Y0008762D02*
X0149447Y0009830D01*
X0149981Y0010911D02*
X0152116Y0010911D01*
X0152650Y0011444D01*
X0152650Y0012512D01*
X0152116Y0013046D01*
X0149981Y0013046D01*
X0149447Y0012512D01*
X0149447Y0011444D01*
X0149981Y0010911D01*
X0149981Y0007675D02*
X0151049Y0007675D01*
X0151582Y0007141D01*
X0151582Y0005539D01*
X0152650Y0005539D02*
X0149447Y0005539D01*
X0149447Y0007141D01*
X0149981Y0007675D01*
X0149981Y0004452D02*
X0149447Y0003918D01*
X0149447Y0002850D01*
X0149981Y0002317D01*
X0152116Y0002317D01*
X0152650Y0002850D01*
X0152650Y0003918D01*
X0152116Y0004452D01*
X0151049Y0004452D01*
X0151049Y0003384D01*
X0142650Y0008755D02*
X0139447Y0008755D01*
X0139447Y0007688D02*
X0139447Y0009823D01*
X0139447Y0010911D02*
X0142650Y0013046D01*
X0142650Y0010911D02*
X0139447Y0013046D01*
X0133650Y0013046D02*
X0130447Y0010911D01*
X0130981Y0009823D02*
X0132049Y0009823D01*
X0132582Y0009289D01*
X0132582Y0007688D01*
X0132582Y0008755D02*
X0133650Y0009823D01*
X0133650Y0010911D02*
X0130447Y0013046D01*
X0130981Y0009823D02*
X0130447Y0009289D01*
X0130447Y0007688D01*
X0133650Y0007688D01*
X0123650Y0007675D02*
X0121515Y0007675D01*
X0120447Y0006607D01*
X0121515Y0005539D01*
X0123650Y0005539D01*
X0122049Y0005539D02*
X0122049Y0007675D01*
X0123650Y0008762D02*
X0123650Y0009830D01*
X0123650Y0009296D02*
X0120447Y0009296D01*
X0120447Y0008762D02*
X0120447Y0009830D01*
X0120447Y0010911D02*
X0123650Y0013046D01*
X0120447Y0013046D01*
X0120447Y0010911D02*
X0123650Y0010911D01*
X0102650Y0011133D02*
X0102650Y0013269D01*
X0102650Y0012201D02*
X0099447Y0012201D01*
X0100515Y0011133D01*
X0172116Y0006600D02*
X0172650Y0006067D01*
X0172650Y0004999D01*
X0159447Y0169094D02*
X0159447Y0171229D01*
X0159447Y0170161D02*
X0162650Y0170161D01*
X0162650Y0172317D02*
X0162650Y0173384D01*
X0162650Y0172850D02*
X0159447Y0172850D01*
X0159447Y0172317D02*
X0159447Y0173384D01*
X0159447Y0174465D02*
X0160515Y0175533D01*
X0159447Y0176600D01*
X0162650Y0176600D01*
X0162650Y0177688D02*
X0159447Y0177688D01*
X0159447Y0179823D01*
X0159447Y0180911D02*
X0159447Y0182512D01*
X0159981Y0183046D01*
X0161049Y0183046D01*
X0161582Y0182512D01*
X0161582Y0180911D01*
X0161582Y0181978D02*
X0162650Y0183046D01*
X0162650Y0180911D02*
X0159447Y0180911D01*
X0161049Y0178755D02*
X0161049Y0177688D01*
X0162650Y0177688D02*
X0162650Y0179823D01*
X0169447Y0179830D02*
X0169447Y0178762D01*
X0169447Y0179296D02*
X0172650Y0179296D01*
X0172650Y0178762D02*
X0172650Y0179830D01*
X0172116Y0180911D02*
X0172650Y0181444D01*
X0172650Y0182512D01*
X0172116Y0183046D01*
X0169981Y0183046D01*
X0169447Y0182512D01*
X0169447Y0181444D01*
X0169981Y0180911D01*
X0172116Y0180911D01*
X0171049Y0177675D02*
X0169981Y0177675D01*
X0169447Y0177141D01*
X0169447Y0175539D01*
X0172650Y0175539D01*
X0171582Y0175539D02*
X0171582Y0177141D01*
X0171049Y0177675D01*
X0171049Y0174452D02*
X0171049Y0173384D01*
X0171049Y0174452D02*
X0172116Y0174452D01*
X0172650Y0173918D01*
X0172650Y0172850D01*
X0172116Y0172317D01*
X0169981Y0172317D01*
X0169447Y0172850D01*
X0169447Y0173918D01*
X0169981Y0174452D01*
X0162650Y0174465D02*
X0159447Y0174465D01*
X0152650Y0174465D02*
X0149447Y0174465D01*
X0150515Y0175533D01*
X0149447Y0176600D01*
X0152650Y0176600D01*
X0152650Y0177688D02*
X0149447Y0177688D01*
X0149447Y0179823D01*
X0149447Y0180911D02*
X0149447Y0182512D01*
X0149981Y0183046D01*
X0151049Y0183046D01*
X0151582Y0182512D01*
X0151582Y0180911D01*
X0151582Y0181978D02*
X0152650Y0183046D01*
X0152650Y0180911D02*
X0149447Y0180911D01*
X0151049Y0178755D02*
X0151049Y0177688D01*
X0152650Y0177688D02*
X0152650Y0179823D01*
X0152650Y0173384D02*
X0152650Y0172317D01*
X0152650Y0172850D02*
X0149447Y0172850D01*
X0149447Y0172317D02*
X0149447Y0173384D01*
X0149447Y0171229D02*
X0149447Y0169094D01*
X0149447Y0170161D02*
X0152650Y0170161D01*
X0142650Y0174465D02*
X0139447Y0174465D01*
X0139447Y0176067D01*
X0139981Y0176600D01*
X0141049Y0176600D01*
X0141582Y0176067D01*
X0141582Y0174465D01*
X0142650Y0177688D02*
X0139447Y0177688D01*
X0139447Y0179823D02*
X0142650Y0179823D01*
X0141582Y0178755D01*
X0142650Y0177688D01*
X0142650Y0180911D02*
X0139447Y0180911D01*
X0140515Y0181978D01*
X0139447Y0183046D01*
X0142650Y0183046D01*
X0133650Y0183046D02*
X0130447Y0183046D01*
X0131515Y0181978D01*
X0130447Y0180911D01*
X0133650Y0180911D01*
X0133650Y0179823D02*
X0130447Y0179823D01*
X0130447Y0177688D02*
X0133650Y0177688D01*
X0132582Y0178755D01*
X0133650Y0179823D01*
X0132049Y0176600D02*
X0132582Y0176067D01*
X0132582Y0174465D01*
X0133650Y0174465D02*
X0130447Y0174465D01*
X0130447Y0176067D01*
X0130981Y0176600D01*
X0132049Y0176600D01*
X0123650Y0177688D02*
X0122582Y0178755D01*
X0123650Y0179823D01*
X0120447Y0179823D01*
X0120447Y0180911D02*
X0121515Y0181978D01*
X0120447Y0183046D01*
X0123650Y0183046D01*
X0123650Y0180911D02*
X0120447Y0180911D01*
X0120447Y0177688D02*
X0123650Y0177688D01*
X0122049Y0176600D02*
X0120981Y0176600D01*
X0120447Y0176067D01*
X0120447Y0174465D01*
X0123650Y0174465D01*
X0122582Y0174465D02*
X0122582Y0176067D01*
X0122049Y0176600D01*
X0113650Y0177688D02*
X0112582Y0178755D01*
X0113650Y0179823D01*
X0110447Y0179823D01*
X0110447Y0180911D02*
X0111515Y0181978D01*
X0110447Y0183046D01*
X0113650Y0183046D01*
X0113650Y0180911D02*
X0110447Y0180911D01*
X0110447Y0177688D02*
X0113650Y0177688D01*
X0112049Y0176600D02*
X0110981Y0176600D01*
X0110447Y0176067D01*
X0110447Y0174465D01*
X0113650Y0174465D01*
X0112582Y0174465D02*
X0112582Y0176067D01*
X0112049Y0176600D01*
X0102650Y0182735D02*
X0099447Y0182735D01*
X0101049Y0181133D01*
X0101049Y0183269D01*
X0102116Y0184356D02*
X0099981Y0186491D01*
X0102116Y0186491D01*
X0102650Y0185958D01*
X0102650Y0184890D01*
X0102116Y0184356D01*
X0099981Y0184356D01*
X0099447Y0184890D01*
X0099447Y0185958D01*
X0099981Y0186491D01*
X0099981Y0210688D02*
X0099447Y0211222D01*
X0099447Y0212289D01*
X0099981Y0212823D01*
X0100515Y0212823D01*
X0102650Y0210688D01*
X0102650Y0212823D01*
X0102116Y0213911D02*
X0099981Y0216046D01*
X0102116Y0216046D01*
X0102650Y0215512D01*
X0102650Y0214444D01*
X0102116Y0213911D01*
X0099981Y0213911D01*
X0099447Y0214444D01*
X0099447Y0215512D01*
X0099981Y0216046D01*
X0110447Y0215356D02*
X0113650Y0217491D01*
X0110447Y0217491D01*
X0110447Y0218579D02*
X0110447Y0220180D01*
X0110981Y0220714D01*
X0113116Y0220714D01*
X0113650Y0220180D01*
X0113650Y0218579D01*
X0110447Y0218579D01*
X0110447Y0215356D02*
X0113650Y0215356D01*
X0113116Y0214269D02*
X0112049Y0214269D01*
X0112049Y0213201D01*
X0113116Y0214269D02*
X0113650Y0213735D01*
X0113650Y0212667D01*
X0113116Y0212133D01*
X0110981Y0212133D01*
X0110447Y0212667D01*
X0110447Y0213735D01*
X0110981Y0214269D01*
X0120447Y0213735D02*
X0120981Y0214269D01*
X0122049Y0214269D01*
X0122582Y0213735D01*
X0122582Y0212133D01*
X0123650Y0212133D02*
X0120447Y0212133D01*
X0120447Y0213735D01*
X0120447Y0215356D02*
X0123650Y0215356D01*
X0122582Y0216424D01*
X0123650Y0217491D01*
X0120447Y0217491D01*
X0120447Y0218579D02*
X0121515Y0219646D01*
X0120447Y0220714D01*
X0123650Y0220714D01*
X0123650Y0218579D02*
X0120447Y0218579D01*
X0130447Y0216958D02*
X0130447Y0215890D01*
X0130981Y0215356D01*
X0131515Y0215356D01*
X0132049Y0215890D01*
X0132049Y0216958D01*
X0132582Y0217491D01*
X0133116Y0217491D01*
X0133650Y0216958D01*
X0133650Y0215890D01*
X0133116Y0215356D01*
X0133116Y0214269D02*
X0133650Y0213735D01*
X0133650Y0212667D01*
X0133116Y0212133D01*
X0130981Y0212133D01*
X0130447Y0212667D01*
X0130447Y0213735D01*
X0130981Y0214269D01*
X0130447Y0216958D02*
X0130981Y0217491D01*
X0140447Y0216958D02*
X0140447Y0215356D01*
X0143650Y0215356D01*
X0142582Y0215356D02*
X0142582Y0216958D01*
X0142049Y0217491D01*
X0140981Y0217491D01*
X0140447Y0216958D01*
X0140447Y0218579D02*
X0140447Y0219646D01*
X0140447Y0219113D02*
X0143650Y0219113D01*
X0143650Y0219646D02*
X0143650Y0218579D01*
X0143116Y0220727D02*
X0140981Y0220727D01*
X0140447Y0221261D01*
X0140447Y0222329D01*
X0140981Y0222863D01*
X0143116Y0222863D01*
X0143650Y0222329D01*
X0143650Y0221261D01*
X0143116Y0220727D01*
X0143116Y0214269D02*
X0142049Y0214269D01*
X0142049Y0213201D01*
X0143116Y0214269D02*
X0143650Y0213735D01*
X0143650Y0212667D01*
X0143116Y0212133D01*
X0140981Y0212133D01*
X0140447Y0212667D01*
X0140447Y0213735D01*
X0140981Y0214269D01*
X0150447Y0213735D02*
X0150981Y0214269D01*
X0152049Y0214269D01*
X0152582Y0213735D01*
X0152582Y0212133D01*
X0152582Y0213201D02*
X0153650Y0214269D01*
X0153116Y0215356D02*
X0153650Y0215890D01*
X0153650Y0216958D01*
X0153116Y0217491D01*
X0152582Y0217491D01*
X0152049Y0216958D01*
X0152049Y0215890D01*
X0151515Y0215356D01*
X0150981Y0215356D01*
X0150447Y0215890D01*
X0150447Y0216958D01*
X0150981Y0217491D01*
X0150447Y0218579D02*
X0150447Y0220714D01*
X0150447Y0219646D02*
X0153650Y0219646D01*
X0160447Y0219113D02*
X0160981Y0218579D01*
X0161515Y0218579D01*
X0162049Y0219113D01*
X0162049Y0220180D01*
X0162582Y0220714D01*
X0163116Y0220714D01*
X0163650Y0220180D01*
X0163650Y0219113D01*
X0163116Y0218579D01*
X0163116Y0217491D02*
X0160981Y0217491D01*
X0160447Y0216958D01*
X0160447Y0215890D01*
X0160981Y0215356D01*
X0163116Y0215356D01*
X0163650Y0215890D01*
X0163650Y0216958D01*
X0163116Y0217491D01*
X0160447Y0219113D02*
X0160447Y0220180D01*
X0160981Y0220714D01*
X0160447Y0221802D02*
X0160447Y0222869D01*
X0160447Y0222335D02*
X0163650Y0222335D01*
X0163650Y0221802D02*
X0163650Y0222869D01*
X0170447Y0222329D02*
X0170981Y0222863D01*
X0173116Y0222863D01*
X0173650Y0222329D01*
X0173650Y0221261D01*
X0173116Y0220727D01*
X0170981Y0220727D01*
X0170447Y0221261D01*
X0170447Y0222329D01*
X0170981Y0219640D02*
X0170447Y0219106D01*
X0170447Y0218038D01*
X0170981Y0217505D01*
X0171515Y0217505D01*
X0172049Y0218038D01*
X0172049Y0219106D01*
X0172582Y0219640D01*
X0173116Y0219640D01*
X0173650Y0219106D01*
X0173650Y0218038D01*
X0173116Y0217505D01*
X0173650Y0216424D02*
X0173650Y0215356D01*
X0173650Y0215890D02*
X0170447Y0215890D01*
X0170447Y0215356D02*
X0170447Y0216424D01*
X0170447Y0214269D02*
X0173650Y0214269D01*
X0173650Y0212133D02*
X0170447Y0212133D01*
X0171515Y0213201D01*
X0170447Y0214269D01*
X0163650Y0214269D02*
X0160447Y0214269D01*
X0161515Y0213201D01*
X0160447Y0212133D01*
X0163650Y0212133D01*
X0153650Y0212133D02*
X0150447Y0212133D01*
X0150447Y0213735D01*
X0180447Y0213735D02*
X0180447Y0212667D01*
X0180981Y0212133D01*
X0183116Y0212133D01*
X0183650Y0212667D01*
X0183650Y0213735D01*
X0183116Y0214269D01*
X0183116Y0215356D02*
X0183650Y0215890D01*
X0183650Y0216958D01*
X0183116Y0217491D01*
X0182582Y0217491D01*
X0182049Y0216958D01*
X0182049Y0215890D01*
X0181515Y0215356D01*
X0180981Y0215356D01*
X0180447Y0215890D01*
X0180447Y0216958D01*
X0180981Y0217491D01*
X0180981Y0214269D02*
X0180447Y0213735D01*
X0190447Y0213735D02*
X0190447Y0212667D01*
X0190981Y0212133D01*
X0193116Y0212133D01*
X0193650Y0212667D01*
X0193650Y0213735D01*
X0193116Y0214269D01*
X0193116Y0215356D02*
X0193650Y0215890D01*
X0193650Y0216958D01*
X0193116Y0217491D01*
X0192582Y0217491D01*
X0192049Y0216958D01*
X0192049Y0215890D01*
X0191515Y0215356D01*
X0190981Y0215356D01*
X0190447Y0215890D01*
X0190447Y0216958D01*
X0190981Y0217491D01*
X0190981Y0214269D02*
X0190447Y0213735D01*
X0200447Y0213735D02*
X0200447Y0212667D01*
X0200981Y0212133D01*
X0203116Y0212133D01*
X0203650Y0212667D01*
X0203650Y0213735D01*
X0203116Y0214269D01*
X0202049Y0214269D01*
X0202049Y0213201D01*
X0200981Y0214269D02*
X0200447Y0213735D01*
X0200447Y0215356D02*
X0200447Y0216958D01*
X0200981Y0217491D01*
X0202049Y0217491D01*
X0202582Y0216958D01*
X0202582Y0215356D01*
X0203650Y0215356D02*
X0200447Y0215356D01*
X0200447Y0218579D02*
X0200447Y0219646D01*
X0200447Y0219113D02*
X0203650Y0219113D01*
X0203650Y0219646D02*
X0203650Y0218579D01*
X0203116Y0220727D02*
X0200981Y0220727D01*
X0200447Y0221261D01*
X0200447Y0222329D01*
X0200981Y0222863D01*
X0203116Y0222863D01*
X0203650Y0222329D01*
X0203650Y0221261D01*
X0203116Y0220727D01*
X0210447Y0214978D02*
X0213650Y0214978D01*
X0213650Y0213911D02*
X0213650Y0216046D01*
X0211515Y0213911D02*
X0210447Y0214978D01*
X0210447Y0211755D02*
X0213650Y0211755D01*
X0213650Y0210688D02*
X0213650Y0212823D01*
X0211515Y0210688D02*
X0210447Y0211755D01*
X0213650Y0186491D02*
X0213650Y0184356D01*
X0213650Y0185424D02*
X0210447Y0185424D01*
X0211515Y0184356D01*
X0211515Y0183269D02*
X0212049Y0182735D01*
X0212582Y0183269D01*
X0213116Y0183269D01*
X0213650Y0182735D01*
X0213650Y0181667D01*
X0213116Y0181133D01*
X0212049Y0182201D02*
X0212049Y0182735D01*
X0211515Y0183269D02*
X0210981Y0183269D01*
X0210447Y0182735D01*
X0210447Y0181667D01*
X0210981Y0181133D01*
X0202650Y0181444D02*
X0202650Y0182512D01*
X0202116Y0183046D01*
X0199981Y0183046D01*
X0199447Y0182512D01*
X0199447Y0181444D01*
X0199981Y0180911D01*
X0202116Y0180911D01*
X0202650Y0181444D01*
X0202650Y0179830D02*
X0202650Y0178762D01*
X0202650Y0179296D02*
X0199447Y0179296D01*
X0199447Y0178762D02*
X0199447Y0179830D01*
X0199981Y0177675D02*
X0201049Y0177675D01*
X0201582Y0177141D01*
X0201582Y0175539D01*
X0202650Y0175539D02*
X0199447Y0175539D01*
X0199447Y0177141D01*
X0199981Y0177675D01*
X0199981Y0174452D02*
X0199447Y0173918D01*
X0199447Y0172850D01*
X0199981Y0172317D01*
X0202116Y0172317D01*
X0202650Y0172850D01*
X0202650Y0173918D01*
X0202116Y0174452D01*
X0201049Y0174452D01*
X0201049Y0173384D01*
X0192650Y0172850D02*
X0192650Y0173918D01*
X0192116Y0174452D01*
X0191049Y0174452D01*
X0191049Y0173384D01*
X0192116Y0172317D02*
X0192650Y0172850D01*
X0192116Y0172317D02*
X0189981Y0172317D01*
X0189447Y0172850D01*
X0189447Y0173918D01*
X0189981Y0174452D01*
X0189447Y0175539D02*
X0189447Y0177141D01*
X0189981Y0177675D01*
X0191049Y0177675D01*
X0191582Y0177141D01*
X0191582Y0175539D01*
X0192650Y0175539D02*
X0189447Y0175539D01*
X0189447Y0178762D02*
X0189447Y0179830D01*
X0189447Y0179296D02*
X0192650Y0179296D01*
X0192650Y0178762D02*
X0192650Y0179830D01*
X0192116Y0180911D02*
X0192650Y0181444D01*
X0192650Y0182512D01*
X0192116Y0183046D01*
X0189981Y0183046D01*
X0189447Y0182512D01*
X0189447Y0181444D01*
X0189981Y0180911D01*
X0192116Y0180911D01*
X0182650Y0181444D02*
X0182650Y0182512D01*
X0182116Y0183046D01*
X0179981Y0183046D01*
X0179447Y0182512D01*
X0179447Y0181444D01*
X0179981Y0180911D01*
X0182116Y0180911D01*
X0182650Y0181444D01*
X0182650Y0179830D02*
X0182650Y0178762D01*
X0182650Y0179296D02*
X0179447Y0179296D01*
X0179447Y0178762D02*
X0179447Y0179830D01*
X0179981Y0177675D02*
X0181049Y0177675D01*
X0181582Y0177141D01*
X0181582Y0175539D01*
X0182650Y0175539D02*
X0179447Y0175539D01*
X0179447Y0177141D01*
X0179981Y0177675D01*
X0179981Y0174452D02*
X0179447Y0173918D01*
X0179447Y0172850D01*
X0179981Y0172317D01*
X0182116Y0172317D01*
X0182650Y0172850D01*
X0182650Y0173918D01*
X0182116Y0174452D01*
X0181049Y0174452D01*
X0181049Y0173384D01*
D18*
X0056807Y0079748D02*
X0056807Y0078747D01*
X0056807Y0078275D02*
X0056306Y0077774D01*
X0056556Y0077274D02*
X0055556Y0077274D01*
X0055305Y0077524D01*
X0055305Y0078025D01*
X0055556Y0078275D01*
X0056556Y0078275D01*
X0056807Y0078025D01*
X0056807Y0077524D01*
X0056556Y0077274D01*
X0055806Y0078747D02*
X0055305Y0079248D01*
X0056807Y0079248D01*
X0055375Y0104046D02*
X0055626Y0104296D01*
X0055626Y0104796D01*
X0055375Y0105046D01*
X0054375Y0105046D01*
X0054124Y0104796D01*
X0054124Y0104296D01*
X0054375Y0104046D01*
X0055375Y0104046D01*
X0055125Y0104546D02*
X0055626Y0105046D01*
X0054875Y0105519D02*
X0054875Y0106520D01*
X0055626Y0106269D02*
X0054124Y0106269D01*
X0054875Y0105519D01*
X0055375Y0130424D02*
X0055626Y0130674D01*
X0055626Y0131174D01*
X0055375Y0131424D01*
X0054375Y0131424D01*
X0054124Y0131174D01*
X0054124Y0130674D01*
X0054375Y0130424D01*
X0055375Y0130424D01*
X0055125Y0130924D02*
X0055626Y0131424D01*
X0055375Y0131897D02*
X0055626Y0132147D01*
X0055626Y0132647D01*
X0055375Y0132898D01*
X0055125Y0132898D01*
X0054875Y0132647D01*
X0054875Y0132397D01*
X0054875Y0132647D02*
X0054625Y0132898D01*
X0054375Y0132898D01*
X0054124Y0132647D01*
X0054124Y0132147D01*
X0054375Y0131897D01*
X0053981Y0156014D02*
X0053731Y0156264D01*
X0053731Y0156765D01*
X0053981Y0157015D01*
X0054982Y0157015D01*
X0055232Y0156765D01*
X0055232Y0156264D01*
X0054982Y0156014D01*
X0053981Y0156014D01*
X0054731Y0156514D02*
X0055232Y0157015D01*
X0055232Y0157487D02*
X0054231Y0158488D01*
X0053981Y0158488D01*
X0053731Y0158238D01*
X0053731Y0157738D01*
X0053981Y0157487D01*
X0055232Y0157487D02*
X0055232Y0158488D01*
M02*
