%
M48
M72
T01C0.02362
T02C0.04000
T03C0.07087
T04C0.11811
%
T01
X122044Y147122
X176375Y129012
T02
X51717Y203618
X50717Y193618
X51717Y183618
X50717Y173618
X51717Y163618
X50717Y153618
X51717Y143618
X50717Y133618
X51717Y123618
X50717Y113618
X51717Y103618
X50717Y93618
X51717Y83618
X50717Y73618
X51717Y63618
X50717Y53618
X145823Y54760
X155823Y54760
X165823Y54760
X175823Y54760
X185823Y54760
X195823Y54760
X205823Y54760
X215823Y54760
X225823Y54760
X235823Y54760
X235823Y44760
X225823Y44760
X215823Y44760
X205823Y44760
X195823Y44760
X185823Y44760
X175823Y44760
X165823Y44760
X155823Y44760
X145823Y44760
X260217Y53618
X270217Y53618
X270217Y63618
X260217Y63618
X260217Y73618
X270217Y73618
X270217Y83618
X260217Y83618
X260217Y93618
X270217Y93618
X270217Y103618
X260217Y103618
X260217Y113618
X270217Y113618
X270217Y123618
X260217Y123618
X260217Y133618
X270217Y133618
X270217Y143618
X260217Y143618
X260217Y153618
X270217Y153618
X300217Y153618
X310217Y153618
X310217Y143618
X300217Y143618
X300217Y133618
X310217Y133618
X310217Y123618
X300217Y123618
X300217Y113618
X300217Y103618
X310217Y103618
X310217Y113618
X310217Y93618
X300217Y93618
X300217Y83618
X310217Y83618
X310217Y73618
X300217Y73618
X300217Y63618
X310217Y63618
X310217Y53618
X300217Y53618
X235823Y214760
X225823Y214760
X215823Y214760
X205823Y214760
X195823Y214760
X185823Y214760
X175823Y214760
X165823Y214760
X155823Y214760
X145823Y214760
X145823Y224760
X155823Y224760
X165823Y224760
X175823Y224760
X185823Y224760
X195823Y224760
X205823Y224760
X215823Y224760
X225823Y224760
X235823Y224760
T03
X302477Y197122
X324918Y197122
X324918Y175469
X302477Y175469
T04
X118107Y53028
X79131Y52634
X313698Y225862
M30
