G75*
%MOIN*%
%OFA0B0*%
%FSLAX25Y25*%
%IPPOS*%
%LPD*%
%AMOC8*
5,1,8,0,0,1.08239X$1,22.5*
%
%ADD10C,0.00000*%
%ADD11C,0.00512*%
%ADD12C,0.00600*%
%ADD13R,0.03800X0.06800*%
%ADD14C,0.00500*%
%ADD15R,0.08200X0.08200*%
%ADD16C,0.08200*%
%ADD17C,0.01421*%
%ADD18R,0.04737X0.05131*%
%ADD19R,0.03950X0.08674*%
%ADD20R,0.09068X0.12611*%
%ADD21R,0.08674X0.03950*%
%ADD22R,0.12611X0.09068*%
%ADD23R,0.05131X0.04737*%
%ADD24R,0.04762X0.04762*%
D10*
X0019595Y0008986D02*
X0019595Y0140946D01*
X0114296Y0140946D01*
X0114296Y0008986D01*
X0019595Y0008986D01*
D11*
X0012595Y0008986D02*
X0012595Y0008986D01*
X0012595Y0009241D02*
X0013619Y0019222D01*
X0013852Y0019222D02*
X0012595Y0009241D01*
X0011572Y0019222D01*
X0011338Y0019222D02*
X0013852Y0019222D01*
X0013107Y0019222D02*
X0012595Y0009241D01*
X0012083Y0019222D01*
X0011338Y0019222D02*
X0012595Y0009241D01*
X0012595Y0140730D01*
X0013619Y0130749D01*
X0013852Y0130749D02*
X0012595Y0140730D01*
X0011572Y0130749D01*
X0011338Y0130749D02*
X0013852Y0130749D01*
X0013107Y0130749D02*
X0012595Y0140730D01*
X0012083Y0130749D01*
X0011338Y0130749D02*
X0012595Y0140730D01*
X0012595Y0140986D02*
X0012595Y0140986D01*
X0019595Y0143986D02*
X0019595Y0159663D01*
X0019851Y0151986D02*
X0029831Y0150962D01*
X0029831Y0150729D02*
X0019851Y0151986D01*
X0029831Y0153009D01*
X0029831Y0153242D02*
X0029831Y0150729D01*
X0029831Y0151474D02*
X0019851Y0151986D01*
X0029831Y0152497D01*
X0029831Y0153242D02*
X0019851Y0151986D01*
X0114339Y0151986D01*
X0104359Y0150962D01*
X0104359Y0150729D02*
X0114339Y0151986D01*
X0104359Y0153009D01*
X0104359Y0153242D02*
X0104359Y0150729D01*
X0104359Y0151474D02*
X0114339Y0151986D01*
X0104359Y0152497D01*
X0104359Y0153242D02*
X0114339Y0151986D01*
X0114595Y0159663D02*
X0114595Y0143986D01*
D12*
X0081750Y0155615D02*
X0080682Y0154547D01*
X0078547Y0154547D01*
X0077479Y0155615D01*
X0075304Y0154547D02*
X0071034Y0154547D01*
X0073169Y0154547D02*
X0073169Y0160953D01*
X0071034Y0158818D01*
X0068879Y0155615D02*
X0068879Y0154547D01*
X0067811Y0154547D01*
X0067811Y0155615D01*
X0068879Y0155615D01*
X0065636Y0157750D02*
X0061366Y0157750D01*
X0064568Y0160953D01*
X0064568Y0154547D01*
X0059190Y0154547D02*
X0054920Y0154547D01*
X0059190Y0158818D01*
X0059190Y0159885D01*
X0058123Y0160953D01*
X0055988Y0160953D01*
X0054920Y0159885D01*
X0077479Y0159885D02*
X0078547Y0160953D01*
X0080682Y0160953D01*
X0081750Y0159885D01*
X0081750Y0158818D01*
X0080682Y0157750D01*
X0081750Y0156683D01*
X0081750Y0155615D01*
X0080682Y0157750D02*
X0079614Y0157750D01*
X0010033Y0088572D02*
X0010033Y0086437D01*
X0008966Y0085370D01*
X0008966Y0083194D02*
X0010033Y0082127D01*
X0010033Y0079992D01*
X0008966Y0078924D01*
X0008966Y0076769D02*
X0010033Y0076769D01*
X0010033Y0075701D01*
X0008966Y0075701D01*
X0008966Y0076769D01*
X0006831Y0078924D02*
X0005763Y0081059D01*
X0005763Y0082127D01*
X0006831Y0083194D01*
X0008966Y0083194D01*
X0006831Y0078924D02*
X0003628Y0078924D01*
X0003628Y0083194D01*
X0004695Y0085370D02*
X0003628Y0086437D01*
X0003628Y0088572D01*
X0004695Y0089640D01*
X0005763Y0089640D01*
X0006831Y0088572D01*
X0007898Y0089640D01*
X0008966Y0089640D01*
X0010033Y0088572D01*
X0006831Y0088572D02*
X0006831Y0087505D01*
X0007898Y0073526D02*
X0006831Y0072459D01*
X0006831Y0071391D01*
X0006831Y0072459D02*
X0005763Y0073526D01*
X0004695Y0073526D01*
X0003628Y0072459D01*
X0003628Y0070323D01*
X0004695Y0069256D01*
X0004695Y0067081D02*
X0003628Y0066013D01*
X0003628Y0063878D01*
X0004695Y0062810D01*
X0006831Y0064946D02*
X0006831Y0066013D01*
X0007898Y0067081D01*
X0008966Y0067081D01*
X0010033Y0066013D01*
X0010033Y0063878D01*
X0008966Y0062810D01*
X0006831Y0066013D02*
X0005763Y0067081D01*
X0004695Y0067081D01*
X0008966Y0069256D02*
X0010033Y0070323D01*
X0010033Y0072459D01*
X0008966Y0073526D01*
X0007898Y0073526D01*
D13*
X0030095Y0060186D03*
X0035095Y0060186D03*
X0040095Y0060186D03*
X0045095Y0060186D03*
X0050095Y0060186D03*
X0055095Y0060186D03*
X0060095Y0060186D03*
X0065095Y0060186D03*
X0065095Y0097786D03*
X0060095Y0097786D03*
X0055095Y0097786D03*
X0050095Y0097786D03*
X0045095Y0097786D03*
X0040095Y0097786D03*
X0035095Y0097786D03*
X0030095Y0097786D03*
D14*
X0035721Y0041676D02*
X0036105Y0041716D01*
X0036487Y0041682D01*
X0036851Y0041564D01*
X0037180Y0041368D01*
X0037457Y0041103D01*
X0037668Y0040784D01*
X0037803Y0040425D01*
X0037855Y0040046D01*
X0037820Y0039645D01*
X0037697Y0039263D01*
X0037491Y0038917D01*
X0037214Y0038626D01*
X0036879Y0038403D01*
X0036503Y0038261D01*
X0036105Y0038206D01*
X0035712Y0038257D01*
X0035340Y0038394D01*
X0035008Y0038611D01*
X0034733Y0038896D01*
X0034527Y0039235D01*
X0034403Y0039611D01*
X0034365Y0040006D01*
X0034412Y0040389D01*
X0034542Y0040753D01*
X0034751Y0041078D01*
X0035026Y0041349D01*
X0035355Y0041552D01*
X0035721Y0041676D01*
X0035423Y0041575D02*
X0036818Y0041575D01*
X0037475Y0041076D02*
X0034750Y0041076D01*
X0034479Y0040578D02*
X0037746Y0040578D01*
X0037850Y0040079D02*
X0034374Y0040079D01*
X0034413Y0039581D02*
X0037799Y0039581D01*
X0037590Y0039082D02*
X0034620Y0039082D01*
X0035050Y0038584D02*
X0037151Y0038584D01*
X0045423Y0039611D02*
X0045548Y0039235D01*
X0045753Y0038896D01*
X0046028Y0038611D01*
X0046360Y0038394D01*
X0046732Y0038257D01*
X0047125Y0038206D01*
X0047523Y0038261D01*
X0047899Y0038403D01*
X0048234Y0038626D01*
X0048511Y0038917D01*
X0048717Y0039263D01*
X0048840Y0039645D01*
X0048875Y0040046D01*
X0048823Y0040425D01*
X0048688Y0040784D01*
X0048477Y0041103D01*
X0048200Y0041368D01*
X0047871Y0041564D01*
X0047507Y0041682D01*
X0047125Y0041716D01*
X0046741Y0041676D01*
X0046375Y0041552D01*
X0046046Y0041349D01*
X0045771Y0041078D01*
X0045562Y0040753D01*
X0045432Y0040389D01*
X0045385Y0040006D01*
X0045423Y0039611D01*
X0045433Y0039581D02*
X0048819Y0039581D01*
X0048871Y0040079D02*
X0045394Y0040079D01*
X0045500Y0040578D02*
X0048766Y0040578D01*
X0048495Y0041076D02*
X0045770Y0041076D01*
X0046443Y0041575D02*
X0047838Y0041575D01*
X0048610Y0039082D02*
X0045640Y0039082D01*
X0046070Y0038584D02*
X0048171Y0038584D01*
D15*
X0093654Y0018986D03*
X0094654Y0110986D03*
D16*
X0094654Y0120986D03*
X0094654Y0130986D03*
X0093654Y0038986D03*
X0093654Y0028986D03*
D17*
X0026253Y0032191D02*
X0022937Y0032191D01*
X0026253Y0032191D02*
X0026253Y0028875D01*
X0022937Y0028875D01*
X0022937Y0032191D01*
X0022937Y0030295D02*
X0026253Y0030295D01*
X0026253Y0031715D02*
X0022937Y0031715D01*
X0022937Y0039096D02*
X0026253Y0039096D01*
X0026253Y0035780D01*
X0022937Y0035780D01*
X0022937Y0039096D01*
X0022937Y0037200D02*
X0026253Y0037200D01*
X0026253Y0038620D02*
X0022937Y0038620D01*
D18*
X0024595Y0045639D03*
X0024595Y0052332D03*
X0067595Y0042332D03*
X0067595Y0035639D03*
D19*
X0042056Y0028828D03*
X0037135Y0028828D03*
X0035135Y0120143D03*
X0040056Y0120143D03*
D20*
X0049898Y0132446D03*
X0025292Y0132446D03*
X0027292Y0016525D03*
X0051898Y0016525D03*
D21*
X0092753Y0070604D03*
X0092753Y0075525D03*
X0092753Y0080446D03*
X0092753Y0085367D03*
D22*
X0105056Y0095210D03*
X0105056Y0060761D03*
D23*
X0073942Y0051986D03*
X0067249Y0051986D03*
X0068942Y0016986D03*
X0062249Y0016986D03*
D24*
X0077595Y0070986D03*
M02*
