G75*
%MOIN*%
%OFA0B0*%
%FSLAX25Y25*%
%IPPOS*%
%LPD*%
%AMOC8*
5,1,8,0,0,1.08239X$1,22.5*
%
%ADD10C,0.00000*%
%ADD11C,0.00300*%
%ADD12C,0.00512*%
%ADD13C,0.00600*%
%ADD14C,0.00500*%
%ADD15C,0.01000*%
%ADD16C,0.00800*%
%ADD17C,0.00200*%
%ADD18C,0.00400*%
%ADD19R,0.01969X0.03445*%
%ADD20R,0.03445X0.01969*%
D10*
X0019595Y0008986D02*
X0019595Y0140946D01*
X0114296Y0140946D01*
X0114296Y0008986D01*
X0019595Y0008986D01*
D11*
X0048607Y0024136D02*
X0049841Y0024136D01*
X0049224Y0024136D02*
X0049224Y0027839D01*
X0048607Y0027839D02*
X0049841Y0027839D01*
X0051062Y0027839D02*
X0053531Y0024136D01*
X0053531Y0027839D01*
X0051062Y0027839D02*
X0051062Y0024136D01*
X0089745Y0050370D02*
X0090980Y0049136D01*
X0092214Y0050370D01*
X0092214Y0052839D01*
X0094045Y0051604D02*
X0093428Y0050987D01*
X0093428Y0049753D01*
X0094045Y0049136D01*
X0095280Y0049136D01*
X0095897Y0049753D01*
X0095897Y0050987D01*
X0095280Y0051604D01*
X0094045Y0051604D01*
X0097111Y0052839D02*
X0097729Y0052839D01*
X0097729Y0049136D01*
X0098346Y0049136D02*
X0097111Y0049136D01*
X0103250Y0052839D02*
X0105719Y0052839D01*
X0104484Y0052839D02*
X0104484Y0049136D01*
X0106933Y0049136D02*
X0106933Y0051604D01*
X0106933Y0050370D02*
X0108168Y0051604D01*
X0108785Y0051604D01*
X0110002Y0051604D02*
X0110620Y0051604D01*
X0110620Y0049136D01*
X0111237Y0049136D02*
X0110002Y0049136D01*
X0112458Y0049136D02*
X0112458Y0051604D01*
X0113075Y0051604D01*
X0113692Y0050987D01*
X0114309Y0051604D01*
X0114927Y0050987D01*
X0114927Y0049136D01*
X0113692Y0049136D02*
X0113692Y0050987D01*
X0110620Y0052839D02*
X0110620Y0053456D01*
X0089745Y0052839D02*
X0089745Y0050370D01*
X0090742Y0092136D02*
X0094445Y0092136D01*
X0094445Y0094604D01*
X0093828Y0095819D02*
X0094445Y0096436D01*
X0094445Y0097670D01*
X0093828Y0098287D01*
X0093828Y0095819D02*
X0091359Y0095819D01*
X0090742Y0096436D01*
X0090742Y0097670D01*
X0091359Y0098287D01*
X0072828Y0127136D02*
X0070359Y0127136D01*
X0069742Y0127753D01*
X0069742Y0128987D01*
X0070359Y0129604D01*
X0071594Y0129604D02*
X0071594Y0128370D01*
X0071594Y0129604D02*
X0072828Y0129604D01*
X0073445Y0128987D01*
X0073445Y0127753D01*
X0072828Y0127136D01*
X0072828Y0130819D02*
X0072211Y0131436D01*
X0072211Y0133287D01*
X0071594Y0133287D02*
X0073445Y0133287D01*
X0073445Y0131436D01*
X0072828Y0130819D01*
X0070976Y0131436D02*
X0070976Y0132670D01*
X0071594Y0133287D01*
X0070976Y0134502D02*
X0070976Y0135119D01*
X0073445Y0135119D01*
X0073445Y0134502D02*
X0073445Y0135736D01*
X0073445Y0136957D02*
X0070976Y0136957D01*
X0070976Y0138809D01*
X0071594Y0139426D01*
X0073445Y0139426D01*
X0069742Y0135119D02*
X0069125Y0135119D01*
X0057914Y0122839D02*
X0058531Y0122222D01*
X0057914Y0122839D02*
X0056679Y0122839D01*
X0056062Y0122222D01*
X0056062Y0119753D01*
X0056679Y0119136D01*
X0057914Y0119136D01*
X0058531Y0119753D01*
X0054848Y0119753D02*
X0054848Y0122222D01*
X0054230Y0122839D01*
X0052379Y0122839D01*
X0052379Y0119136D01*
X0054230Y0119136D01*
X0054848Y0119753D01*
X0051164Y0119136D02*
X0051164Y0121604D01*
X0049930Y0122839D01*
X0048696Y0121604D01*
X0048696Y0119136D01*
X0048696Y0120987D02*
X0051164Y0120987D01*
X0026680Y0119878D02*
X0022976Y0119878D01*
X0022976Y0121729D01*
X0023594Y0122347D01*
X0024828Y0122347D01*
X0025445Y0121729D01*
X0025445Y0119878D01*
X0025445Y0118663D02*
X0023594Y0118663D01*
X0022976Y0118046D01*
X0023594Y0117429D01*
X0025445Y0117429D01*
X0025445Y0116195D02*
X0022976Y0116195D01*
X0022976Y0116812D01*
X0023594Y0117429D01*
X0023594Y0114980D02*
X0023594Y0112512D01*
X0022976Y0112512D02*
X0021742Y0113746D01*
X0022976Y0114980D01*
X0025445Y0114980D01*
X0025445Y0112512D02*
X0022976Y0112512D01*
X0025445Y0107607D02*
X0025445Y0106373D01*
X0025445Y0106990D02*
X0021742Y0106990D01*
X0021742Y0106373D01*
X0021742Y0104535D02*
X0025445Y0104535D01*
X0025445Y0103918D02*
X0025445Y0105152D01*
X0024211Y0102703D02*
X0024211Y0100234D01*
X0024828Y0100234D02*
X0023594Y0100234D01*
X0022976Y0100852D01*
X0022976Y0102086D01*
X0023594Y0102703D01*
X0024211Y0102703D01*
X0025445Y0102086D02*
X0025445Y0100852D01*
X0024828Y0100234D01*
X0024828Y0099020D02*
X0025445Y0098403D01*
X0025445Y0097168D01*
X0024828Y0096551D01*
X0022359Y0096551D01*
X0021742Y0097168D01*
X0021742Y0098403D01*
X0022359Y0099020D01*
X0021742Y0103918D02*
X0021742Y0104535D01*
X0021742Y0091654D02*
X0025445Y0091654D01*
X0025445Y0089802D01*
X0024828Y0089185D01*
X0023594Y0089185D01*
X0022976Y0089802D01*
X0022976Y0091654D01*
X0023594Y0087971D02*
X0022976Y0087353D01*
X0022976Y0086119D01*
X0024211Y0086119D02*
X0024211Y0087971D01*
X0023594Y0087971D02*
X0025445Y0087971D01*
X0025445Y0086119D01*
X0024828Y0085502D01*
X0024211Y0086119D01*
X0024828Y0084287D02*
X0023594Y0084287D01*
X0022976Y0083670D01*
X0022976Y0082436D01*
X0023594Y0081819D01*
X0024828Y0081819D01*
X0025445Y0082436D01*
X0025445Y0083670D01*
X0024828Y0084287D01*
X0025445Y0080604D02*
X0025445Y0078136D01*
X0021742Y0078136D01*
X0021742Y0123561D02*
X0021742Y0124178D01*
X0025445Y0124178D01*
X0025445Y0123561D02*
X0025445Y0124795D01*
X0025445Y0126016D02*
X0025445Y0127251D01*
X0025445Y0126634D02*
X0022976Y0126634D01*
X0022976Y0126016D01*
X0021742Y0126634D02*
X0021125Y0126634D01*
X0022359Y0129089D02*
X0021742Y0129706D01*
X0022359Y0129089D02*
X0025445Y0129089D01*
X0025445Y0130927D02*
X0025445Y0132162D01*
X0025445Y0131544D02*
X0022976Y0131544D01*
X0022976Y0130927D01*
X0023594Y0129706D02*
X0023594Y0128472D01*
X0021742Y0131544D02*
X0021125Y0131544D01*
X0022976Y0134000D02*
X0022976Y0135234D01*
X0023594Y0135851D01*
X0024211Y0135851D01*
X0024211Y0133383D01*
X0024828Y0133383D02*
X0023594Y0133383D01*
X0022976Y0134000D01*
X0024828Y0133383D02*
X0025445Y0134000D01*
X0025445Y0135234D01*
X0025445Y0137066D02*
X0022976Y0137066D01*
X0022976Y0138300D02*
X0022976Y0138917D01*
X0022976Y0138300D02*
X0024211Y0137066D01*
D12*
X0012595Y0008986D02*
X0012595Y0008986D01*
X0012595Y0009241D02*
X0013619Y0019222D01*
X0013852Y0019222D02*
X0012595Y0009241D01*
X0011572Y0019222D01*
X0011338Y0019222D02*
X0013852Y0019222D01*
X0013107Y0019222D02*
X0012595Y0009241D01*
X0012083Y0019222D01*
X0011338Y0019222D02*
X0012595Y0009241D01*
X0012595Y0140730D01*
X0013619Y0130749D01*
X0013852Y0130749D02*
X0012595Y0140730D01*
X0011572Y0130749D01*
X0011338Y0130749D02*
X0013852Y0130749D01*
X0013107Y0130749D02*
X0012595Y0140730D01*
X0012083Y0130749D01*
X0011338Y0130749D02*
X0012595Y0140730D01*
X0012595Y0140986D02*
X0012595Y0140986D01*
X0019595Y0143986D02*
X0019595Y0159663D01*
X0019851Y0151986D02*
X0029831Y0150962D01*
X0029831Y0150729D02*
X0019851Y0151986D01*
X0029831Y0153009D01*
X0029831Y0153242D02*
X0029831Y0150729D01*
X0029831Y0151474D02*
X0019851Y0151986D01*
X0029831Y0152497D01*
X0029831Y0153242D02*
X0019851Y0151986D01*
X0114339Y0151986D01*
X0104359Y0150962D01*
X0104359Y0150729D02*
X0114339Y0151986D01*
X0104359Y0153009D01*
X0104359Y0153242D02*
X0104359Y0150729D01*
X0104359Y0151474D02*
X0114339Y0151986D01*
X0104359Y0152497D01*
X0104359Y0153242D02*
X0114339Y0151986D01*
X0114595Y0159663D02*
X0114595Y0143986D01*
D13*
X0081750Y0155615D02*
X0080682Y0154547D01*
X0078547Y0154547D01*
X0077479Y0155615D01*
X0075304Y0154547D02*
X0071034Y0154547D01*
X0073169Y0154547D02*
X0073169Y0160953D01*
X0071034Y0158818D01*
X0068879Y0155615D02*
X0068879Y0154547D01*
X0067811Y0154547D01*
X0067811Y0155615D01*
X0068879Y0155615D01*
X0065636Y0157750D02*
X0061366Y0157750D01*
X0064568Y0160953D01*
X0064568Y0154547D01*
X0059190Y0154547D02*
X0054920Y0154547D01*
X0059190Y0158818D01*
X0059190Y0159885D01*
X0058123Y0160953D01*
X0055988Y0160953D01*
X0054920Y0159885D01*
X0077479Y0159885D02*
X0078547Y0160953D01*
X0080682Y0160953D01*
X0081750Y0159885D01*
X0081750Y0158818D01*
X0080682Y0157750D01*
X0081750Y0156683D01*
X0081750Y0155615D01*
X0080682Y0157750D02*
X0079614Y0157750D01*
X0067497Y0093584D02*
X0027394Y0093584D01*
X0027394Y0064387D01*
X0067497Y0064387D01*
X0067497Y0093584D01*
X0028895Y0067886D02*
X0028897Y0067978D01*
X0028903Y0068069D01*
X0028913Y0068160D01*
X0028927Y0068251D01*
X0028945Y0068341D01*
X0028967Y0068430D01*
X0028992Y0068517D01*
X0029022Y0068604D01*
X0029055Y0068690D01*
X0029092Y0068773D01*
X0029132Y0068856D01*
X0029176Y0068936D01*
X0029224Y0069014D01*
X0029275Y0069091D01*
X0029329Y0069164D01*
X0029386Y0069236D01*
X0029447Y0069305D01*
X0029510Y0069371D01*
X0029576Y0069434D01*
X0029645Y0069495D01*
X0029717Y0069552D01*
X0029790Y0069606D01*
X0029867Y0069657D01*
X0029945Y0069705D01*
X0030025Y0069749D01*
X0030108Y0069789D01*
X0030191Y0069826D01*
X0030277Y0069859D01*
X0030364Y0069889D01*
X0030451Y0069914D01*
X0030540Y0069936D01*
X0030630Y0069954D01*
X0030721Y0069968D01*
X0030812Y0069978D01*
X0030903Y0069984D01*
X0030995Y0069986D01*
X0031087Y0069984D01*
X0031178Y0069978D01*
X0031269Y0069968D01*
X0031360Y0069954D01*
X0031450Y0069936D01*
X0031539Y0069914D01*
X0031626Y0069889D01*
X0031713Y0069859D01*
X0031799Y0069826D01*
X0031882Y0069789D01*
X0031965Y0069749D01*
X0032045Y0069705D01*
X0032123Y0069657D01*
X0032200Y0069606D01*
X0032273Y0069552D01*
X0032345Y0069495D01*
X0032414Y0069434D01*
X0032480Y0069371D01*
X0032543Y0069305D01*
X0032604Y0069236D01*
X0032661Y0069164D01*
X0032715Y0069091D01*
X0032766Y0069014D01*
X0032814Y0068936D01*
X0032858Y0068856D01*
X0032898Y0068773D01*
X0032935Y0068690D01*
X0032968Y0068604D01*
X0032998Y0068517D01*
X0033023Y0068430D01*
X0033045Y0068341D01*
X0033063Y0068251D01*
X0033077Y0068160D01*
X0033087Y0068069D01*
X0033093Y0067978D01*
X0033095Y0067886D01*
X0033093Y0067794D01*
X0033087Y0067703D01*
X0033077Y0067612D01*
X0033063Y0067521D01*
X0033045Y0067431D01*
X0033023Y0067342D01*
X0032998Y0067255D01*
X0032968Y0067168D01*
X0032935Y0067082D01*
X0032898Y0066999D01*
X0032858Y0066916D01*
X0032814Y0066836D01*
X0032766Y0066758D01*
X0032715Y0066681D01*
X0032661Y0066608D01*
X0032604Y0066536D01*
X0032543Y0066467D01*
X0032480Y0066401D01*
X0032414Y0066338D01*
X0032345Y0066277D01*
X0032273Y0066220D01*
X0032200Y0066166D01*
X0032123Y0066115D01*
X0032045Y0066067D01*
X0031965Y0066023D01*
X0031882Y0065983D01*
X0031799Y0065946D01*
X0031713Y0065913D01*
X0031626Y0065883D01*
X0031539Y0065858D01*
X0031450Y0065836D01*
X0031360Y0065818D01*
X0031269Y0065804D01*
X0031178Y0065794D01*
X0031087Y0065788D01*
X0030995Y0065786D01*
X0030903Y0065788D01*
X0030812Y0065794D01*
X0030721Y0065804D01*
X0030630Y0065818D01*
X0030540Y0065836D01*
X0030451Y0065858D01*
X0030364Y0065883D01*
X0030277Y0065913D01*
X0030191Y0065946D01*
X0030108Y0065983D01*
X0030025Y0066023D01*
X0029945Y0066067D01*
X0029867Y0066115D01*
X0029790Y0066166D01*
X0029717Y0066220D01*
X0029645Y0066277D01*
X0029576Y0066338D01*
X0029510Y0066401D01*
X0029447Y0066467D01*
X0029386Y0066536D01*
X0029329Y0066608D01*
X0029275Y0066681D01*
X0029224Y0066758D01*
X0029176Y0066836D01*
X0029132Y0066916D01*
X0029092Y0066999D01*
X0029055Y0067082D01*
X0029022Y0067168D01*
X0028992Y0067255D01*
X0028967Y0067342D01*
X0028945Y0067431D01*
X0028927Y0067521D01*
X0028913Y0067612D01*
X0028903Y0067703D01*
X0028897Y0067794D01*
X0028895Y0067886D01*
X0010033Y0066013D02*
X0010033Y0063878D01*
X0008966Y0062810D01*
X0006831Y0064946D02*
X0006831Y0066013D01*
X0007898Y0067081D01*
X0008966Y0067081D01*
X0010033Y0066013D01*
X0008966Y0069256D02*
X0010033Y0070323D01*
X0010033Y0072459D01*
X0008966Y0073526D01*
X0007898Y0073526D01*
X0006831Y0072459D01*
X0006831Y0071391D01*
X0006831Y0072459D02*
X0005763Y0073526D01*
X0004695Y0073526D01*
X0003628Y0072459D01*
X0003628Y0070323D01*
X0004695Y0069256D01*
X0004695Y0067081D02*
X0003628Y0066013D01*
X0003628Y0063878D01*
X0004695Y0062810D01*
X0006831Y0066013D02*
X0005763Y0067081D01*
X0004695Y0067081D01*
X0008966Y0075701D02*
X0008966Y0076769D01*
X0010033Y0076769D01*
X0010033Y0075701D01*
X0008966Y0075701D01*
X0008966Y0078924D02*
X0010033Y0079992D01*
X0010033Y0082127D01*
X0008966Y0083194D01*
X0006831Y0083194D01*
X0005763Y0082127D01*
X0005763Y0081059D01*
X0006831Y0078924D01*
X0003628Y0078924D01*
X0003628Y0083194D01*
X0004695Y0085370D02*
X0003628Y0086437D01*
X0003628Y0088572D01*
X0004695Y0089640D01*
X0005763Y0089640D01*
X0006831Y0088572D01*
X0007898Y0089640D01*
X0008966Y0089640D01*
X0010033Y0088572D01*
X0010033Y0086437D01*
X0008966Y0085370D01*
X0006831Y0087505D02*
X0006831Y0088572D01*
D14*
X0020841Y0073410D02*
X0025345Y0073410D01*
X0025345Y0071909D02*
X0025345Y0074911D01*
X0022343Y0071909D02*
X0020841Y0073410D01*
X0021592Y0070307D02*
X0020841Y0069557D01*
X0020841Y0068055D01*
X0021592Y0067305D01*
X0024595Y0067305D01*
X0025345Y0068055D01*
X0025345Y0069557D01*
X0024595Y0070307D01*
X0025345Y0065737D02*
X0025345Y0064236D01*
X0025345Y0064986D02*
X0020841Y0064986D01*
X0020841Y0064236D02*
X0020841Y0065737D01*
X0027844Y0049869D02*
X0029745Y0049869D01*
X0029745Y0049236D02*
X0029745Y0050503D01*
X0028477Y0049236D02*
X0027844Y0049869D01*
X0028160Y0048293D02*
X0027844Y0047976D01*
X0027844Y0047026D01*
X0029745Y0047026D01*
X0029111Y0047026D02*
X0029111Y0047976D01*
X0028794Y0048293D01*
X0028160Y0048293D01*
X0029111Y0047660D02*
X0029745Y0048293D01*
X0029245Y0035503D02*
X0029245Y0034236D01*
X0029245Y0034869D02*
X0027344Y0034869D01*
X0027977Y0034236D01*
X0027660Y0033293D02*
X0028928Y0033293D01*
X0029245Y0032976D01*
X0029245Y0032026D01*
X0027344Y0032026D01*
X0027344Y0032976D01*
X0027660Y0033293D01*
X0026470Y0027736D02*
X0022720Y0027736D01*
X0063635Y0013737D02*
X0063635Y0011836D01*
X0063635Y0012469D02*
X0064586Y0012469D01*
X0064903Y0012786D01*
X0064903Y0013420D01*
X0064586Y0013737D01*
X0063635Y0013737D01*
X0064269Y0012469D02*
X0064903Y0011836D01*
X0065845Y0011836D02*
X0065845Y0012152D01*
X0067113Y0013420D01*
X0067113Y0013737D01*
X0065845Y0013737D01*
X0071944Y0025184D02*
X0071944Y0026135D01*
X0072260Y0026452D01*
X0072577Y0026452D01*
X0072894Y0026135D01*
X0072894Y0025184D01*
X0071944Y0025184D02*
X0073845Y0025184D01*
X0073845Y0026135D01*
X0073528Y0026452D01*
X0073211Y0026452D01*
X0072894Y0026135D01*
X0071944Y0027394D02*
X0071944Y0028028D01*
X0071944Y0027711D02*
X0073845Y0027711D01*
X0073845Y0027394D02*
X0073845Y0028028D01*
X0073845Y0028867D02*
X0072577Y0028867D01*
X0071944Y0029501D01*
X0072577Y0030135D01*
X0073845Y0030135D01*
X0072894Y0030135D02*
X0072894Y0028867D01*
X0072577Y0031077D02*
X0072894Y0031394D01*
X0072894Y0032028D01*
X0073211Y0032345D01*
X0073528Y0032345D01*
X0073845Y0032028D01*
X0073845Y0031394D01*
X0073528Y0031077D01*
X0072577Y0031077D02*
X0072260Y0031077D01*
X0071944Y0031394D01*
X0071944Y0032028D01*
X0072260Y0032345D01*
X0072111Y0037026D02*
X0072111Y0037976D01*
X0071794Y0038293D01*
X0071160Y0038293D01*
X0070844Y0037976D01*
X0070844Y0037026D01*
X0072745Y0037026D01*
X0072111Y0037660D02*
X0072745Y0038293D01*
X0072428Y0039236D02*
X0072745Y0039552D01*
X0072745Y0040186D01*
X0072428Y0040503D01*
X0072111Y0040503D01*
X0071794Y0040186D01*
X0071794Y0039236D01*
X0072428Y0039236D01*
X0071794Y0039236D02*
X0071160Y0039869D01*
X0070844Y0040503D01*
X0070845Y0046836D02*
X0072113Y0048103D01*
X0072113Y0048420D01*
X0071796Y0048737D01*
X0071162Y0048737D01*
X0070845Y0048420D01*
X0069903Y0048420D02*
X0069903Y0047786D01*
X0069586Y0047469D01*
X0068635Y0047469D01*
X0068635Y0046836D02*
X0068635Y0048737D01*
X0069586Y0048737D01*
X0069903Y0048420D01*
X0069269Y0047469D02*
X0069903Y0046836D01*
X0070845Y0046836D02*
X0072113Y0046836D01*
X0072944Y0119026D02*
X0072944Y0119976D01*
X0073260Y0120293D01*
X0073894Y0120293D01*
X0074211Y0119976D01*
X0074211Y0119026D01*
X0074211Y0119660D02*
X0074845Y0120293D01*
X0074528Y0121236D02*
X0074845Y0121552D01*
X0074845Y0122186D01*
X0074528Y0122503D01*
X0073894Y0122503D01*
X0073894Y0121869D01*
X0073260Y0121236D02*
X0072944Y0121552D01*
X0072944Y0122186D01*
X0073260Y0122503D01*
X0073260Y0121236D02*
X0074528Y0121236D01*
X0074845Y0119026D02*
X0072944Y0119026D01*
D15*
X0052095Y0044986D02*
X0031095Y0044986D01*
X0031095Y0034986D01*
X0052095Y0034986D01*
X0052095Y0044986D01*
X0041595Y0042486D02*
X0041595Y0037486D01*
D16*
X0045501Y0024399D02*
X0033690Y0024399D01*
X0031623Y0024399D01*
X0031623Y0008651D01*
X0032213Y0008651D01*
X0046977Y0008651D01*
X0047568Y0008651D01*
X0047568Y0024399D01*
X0045501Y0024399D01*
X0074835Y0010226D02*
X0112355Y0010226D01*
X0112355Y0013238D01*
X0110780Y0013238D01*
X0110780Y0044734D01*
X0112355Y0044734D01*
X0112355Y0047745D01*
X0074835Y0047745D01*
X0074835Y0010226D01*
X0097182Y0065092D02*
X0112930Y0065092D01*
X0112930Y0065682D01*
X0112930Y0090289D01*
X0112930Y0090879D01*
X0097182Y0090879D01*
X0097182Y0088812D01*
X0097182Y0067159D01*
X0097182Y0065092D01*
X0113355Y0102226D02*
X0075835Y0102226D01*
X0075835Y0139745D01*
X0113355Y0139745D01*
X0113355Y0136734D01*
X0111780Y0136734D01*
X0111780Y0105238D01*
X0113355Y0105238D01*
X0113355Y0102226D01*
X0045568Y0124572D02*
X0045568Y0140320D01*
X0044977Y0140320D01*
X0030213Y0140320D01*
X0029623Y0140320D01*
X0029623Y0124572D01*
X0031690Y0124572D01*
X0043501Y0124572D01*
X0045568Y0124572D01*
D17*
X0043501Y0124572D02*
X0043501Y0127033D01*
X0045469Y0127033D01*
X0041040Y0127033D02*
X0041040Y0125064D01*
X0039072Y0125064D02*
X0039072Y0127033D01*
X0041040Y0127033D01*
X0036119Y0127033D02*
X0036119Y0125064D01*
X0034150Y0125064D02*
X0034150Y0127033D01*
X0036119Y0127033D01*
X0031690Y0127033D02*
X0031690Y0124572D01*
X0031690Y0127033D02*
X0029721Y0127033D01*
X0032674Y0133923D02*
X0042516Y0133923D01*
X0042516Y0136383D01*
X0043501Y0136383D01*
X0043501Y0138844D01*
X0044977Y0140320D01*
X0043501Y0138844D02*
X0031690Y0138844D01*
X0030213Y0140320D01*
X0031690Y0138844D02*
X0031690Y0136383D01*
X0032674Y0136383D01*
X0032674Y0133923D01*
X0031690Y0136383D02*
X0029721Y0136383D01*
X0043501Y0136383D02*
X0045469Y0136383D01*
X0097182Y0088812D02*
X0099642Y0088812D01*
X0099642Y0090781D01*
X0099642Y0086352D02*
X0097674Y0086352D01*
X0099642Y0086352D02*
X0099642Y0084383D01*
X0097674Y0084383D01*
X0097674Y0081430D02*
X0099642Y0081430D01*
X0099642Y0079462D01*
X0097674Y0079462D01*
X0097674Y0076509D02*
X0099642Y0076509D01*
X0099642Y0074541D01*
X0097674Y0074541D01*
X0097674Y0071588D02*
X0099642Y0071588D01*
X0099642Y0069619D01*
X0097674Y0069619D01*
X0097182Y0067159D02*
X0099642Y0067159D01*
X0099642Y0065190D01*
X0106532Y0068143D02*
X0108993Y0068143D01*
X0108993Y0067159D01*
X0111453Y0067159D01*
X0112930Y0065682D01*
X0111453Y0067159D02*
X0111453Y0088812D01*
X0112930Y0090289D01*
X0111453Y0088812D02*
X0108993Y0088812D01*
X0108993Y0087828D01*
X0106532Y0087828D01*
X0106532Y0068143D01*
X0108993Y0067159D02*
X0108993Y0065190D01*
X0108993Y0088812D02*
X0108993Y0090781D01*
X0047469Y0021938D02*
X0045501Y0021938D01*
X0045501Y0024399D01*
X0043040Y0023907D02*
X0043040Y0021938D01*
X0041072Y0021938D01*
X0041072Y0023907D01*
X0038119Y0023907D02*
X0038119Y0021938D01*
X0036150Y0021938D01*
X0036150Y0023907D01*
X0033690Y0024399D02*
X0033690Y0021938D01*
X0031721Y0021938D01*
X0034674Y0015049D02*
X0034674Y0012588D01*
X0033690Y0012588D01*
X0033690Y0010127D01*
X0032213Y0008651D01*
X0033690Y0010127D02*
X0045501Y0010127D01*
X0046977Y0008651D01*
X0045501Y0010127D02*
X0045501Y0012588D01*
X0044516Y0012588D01*
X0044516Y0015049D01*
X0034674Y0015049D01*
X0033690Y0012588D02*
X0031721Y0012588D01*
X0045501Y0012588D02*
X0047469Y0012588D01*
D18*
X0042573Y0007471D02*
X0042573Y0002867D01*
X0045642Y0002867D01*
X0041038Y0003634D02*
X0040271Y0002867D01*
X0038736Y0002867D01*
X0037969Y0003634D01*
X0037969Y0006703D01*
X0038736Y0007471D01*
X0040271Y0007471D01*
X0041038Y0006703D01*
X0041038Y0003634D01*
X0036435Y0004401D02*
X0036435Y0007471D01*
X0036435Y0004401D02*
X0034900Y0002867D01*
X0033365Y0004401D01*
X0033365Y0007471D01*
X0114110Y0053657D02*
X0118714Y0053657D01*
X0118714Y0056727D01*
X0117947Y0058261D02*
X0118714Y0059028D01*
X0118714Y0060563D01*
X0117947Y0061330D01*
X0114877Y0061330D01*
X0114110Y0060563D01*
X0114110Y0059028D01*
X0114877Y0058261D01*
X0117947Y0058261D01*
X0118714Y0062865D02*
X0115645Y0062865D01*
X0114110Y0064400D01*
X0115645Y0065934D01*
X0118714Y0065934D01*
X0118714Y0067469D02*
X0118714Y0069771D01*
X0117947Y0070538D01*
X0114877Y0070538D01*
X0114110Y0069771D01*
X0114110Y0067469D01*
X0118714Y0067469D01*
X0116412Y0065934D02*
X0116412Y0062865D01*
X0114877Y0072073D02*
X0117947Y0072073D01*
X0118714Y0072840D01*
X0118714Y0074375D01*
X0117947Y0075142D01*
X0118714Y0076677D02*
X0118714Y0079746D01*
X0118714Y0081281D02*
X0118714Y0084350D01*
X0118714Y0085885D02*
X0118714Y0088954D01*
X0118714Y0085885D02*
X0114110Y0085885D01*
X0114110Y0081281D02*
X0118714Y0081281D01*
X0116412Y0078211D02*
X0116412Y0076677D01*
X0114877Y0075142D02*
X0114110Y0074375D01*
X0114110Y0072840D01*
X0114877Y0072073D01*
X0114110Y0076677D02*
X0118714Y0076677D01*
X0114110Y0076677D02*
X0114110Y0079746D01*
X0042690Y0142272D02*
X0041923Y0141504D01*
X0040388Y0141504D01*
X0039621Y0142272D01*
X0039621Y0145341D01*
X0040388Y0146108D01*
X0041923Y0146108D01*
X0042690Y0145341D01*
X0038086Y0145341D02*
X0038086Y0142272D01*
X0037319Y0141504D01*
X0035017Y0141504D01*
X0035017Y0146108D01*
X0037319Y0146108D01*
X0038086Y0145341D01*
X0033483Y0144574D02*
X0033483Y0141504D01*
X0033483Y0143806D02*
X0030413Y0143806D01*
X0030413Y0144574D02*
X0031948Y0146108D01*
X0033483Y0144574D01*
X0030413Y0144574D02*
X0030413Y0141504D01*
D19*
X0035135Y0135645D03*
X0040056Y0135645D03*
X0042056Y0013326D03*
X0037135Y0013326D03*
D20*
X0108255Y0070604D03*
X0108255Y0075525D03*
X0108255Y0080446D03*
X0108255Y0085367D03*
M02*
