%
M48
M72
T01C0.02362
T02C0.03150
T03C0.04000
T04C0.06000
%
T01
X51983Y32986
X71983Y54986
X67983Y67986
X66983Y76986
X84983Y76986
X102983Y66986
X84983Y51986
X129983Y52986
X144983Y71986
X132983Y73986
X128983Y115986
X145983Y156986
X138983Y184986
X113983Y184986
X109983Y193986
X106983Y232986
X139983Y232986
X171983Y205986
X179483Y185486
X187983Y165986
X190983Y128986
X182983Y48986
X50983Y203986
X21983Y203986
X13983Y118986
T02
X32983Y171986
X32983Y191986
X32983Y211986
X32983Y221986
T03
X57983Y124045
X67983Y124045
X77983Y124045
X32983Y113986
X32983Y103986
X22983Y103986
X22983Y113986
X22983Y93986
X32983Y93986
X32983Y83986
X32983Y73986
X22983Y73986
X22983Y83986
X22983Y63986
X32983Y63986
X32983Y53986
X32983Y43986
X22983Y43986
X22983Y53986
X22983Y33986
X32983Y33986
X32983Y23986
X22983Y23986
X192983Y23986
X192983Y33986
X192983Y43986
X192983Y53986
X192983Y63986
X192983Y73986
X192983Y83986
X192983Y93986
X192983Y103986
X192983Y113986
X202983Y113986
X202983Y103986
X202983Y93986
X202983Y83986
X202983Y73986
X202983Y63986
X202983Y53986
X202983Y43986
X202983Y33986
X202983Y23986
X181783Y237086
X181783Y254886
X156183Y254886
X156183Y237086
T04
X14983Y239986
X20983Y144986
M30
