G75*
%MOIN*%
%OFA0B0*%
%FSLAX25Y25*%
%IPPOS*%
%LPD*%
%AMOC8*
5,1,8,0,0,1.08239X$1,22.5*
%
%ADD10C,0.00000*%
%ADD11R,0.07400X0.07400*%
%ADD12C,0.07400*%
%ADD13C,0.01181*%
%ADD14R,0.03937X0.04331*%
%ADD15C,0.05150*%
%ADD16C,0.09000*%
%ADD17R,0.03150X0.07874*%
%ADD18R,0.08268X0.11811*%
%ADD19R,0.06000X0.03000*%
%ADD20R,0.07874X0.03150*%
%ADD21R,0.11811X0.08268*%
%ADD22R,0.02400X0.08700*%
%ADD23R,0.03150X0.06299*%
%ADD24R,0.08700X0.02400*%
%ADD25R,0.06299X0.03150*%
%ADD26R,0.04331X0.03937*%
%ADD27R,0.04449X0.09606*%
%ADD28C,0.01200*%
%ADD29C,0.03200*%
%ADD30C,0.01600*%
%ADD31R,0.03562X0.03562*%
D10*
X0007983Y0008986D02*
X0007983Y0263946D01*
X0211684Y0263946D01*
X0211684Y0008986D01*
X0007983Y0008986D01*
D11*
X0022983Y0113986D03*
X0032983Y0113986D03*
X0077983Y0124045D03*
X0192983Y0113986D03*
X0202983Y0113986D03*
D12*
X0202983Y0103986D03*
X0192983Y0103986D03*
X0192983Y0093986D03*
X0202983Y0093986D03*
X0202983Y0083986D03*
X0202983Y0073986D03*
X0192983Y0073986D03*
X0192983Y0083986D03*
X0192983Y0063986D03*
X0202983Y0063986D03*
X0202983Y0053986D03*
X0202983Y0043986D03*
X0192983Y0043986D03*
X0192983Y0053986D03*
X0192983Y0033986D03*
X0202983Y0033986D03*
X0202983Y0023986D03*
X0192983Y0023986D03*
X0067983Y0124045D03*
X0057983Y0124045D03*
X0032983Y0103986D03*
X0022983Y0103986D03*
X0022983Y0093986D03*
X0032983Y0093986D03*
X0032983Y0083986D03*
X0032983Y0073986D03*
X0022983Y0073986D03*
X0022983Y0083986D03*
X0022983Y0063986D03*
X0032983Y0063986D03*
X0032983Y0053986D03*
X0032983Y0043986D03*
X0022983Y0043986D03*
X0022983Y0053986D03*
X0022983Y0033986D03*
X0032983Y0033986D03*
X0032983Y0023986D03*
X0022983Y0023986D03*
X0156183Y0237086D03*
X0156183Y0254886D03*
X0181783Y0254886D03*
X0181783Y0237086D03*
D13*
X0126814Y0139364D02*
X0126814Y0136608D01*
X0124058Y0136608D01*
X0124058Y0139364D01*
X0126814Y0139364D01*
X0126814Y0137788D02*
X0124058Y0137788D01*
X0124058Y0138968D02*
X0126814Y0138968D01*
X0119909Y0139364D02*
X0119909Y0136608D01*
X0117153Y0136608D01*
X0117153Y0139364D01*
X0119909Y0139364D01*
X0119909Y0137788D02*
X0117153Y0137788D01*
X0117153Y0138968D02*
X0119909Y0138968D01*
X0119909Y0128364D02*
X0119909Y0125608D01*
X0117153Y0125608D01*
X0117153Y0128364D01*
X0119909Y0128364D01*
X0119909Y0126788D02*
X0117153Y0126788D01*
X0117153Y0127968D02*
X0119909Y0127968D01*
X0126814Y0128364D02*
X0126814Y0125608D01*
X0124058Y0125608D01*
X0124058Y0128364D01*
X0126814Y0128364D01*
X0126814Y0126788D02*
X0124058Y0126788D01*
X0124058Y0127968D02*
X0126814Y0127968D01*
X0049361Y0235155D02*
X0046605Y0235155D01*
X0046605Y0237911D01*
X0049361Y0237911D01*
X0049361Y0235155D01*
X0049361Y0236335D02*
X0046605Y0236335D01*
X0046605Y0237515D02*
X0049361Y0237515D01*
X0049361Y0242060D02*
X0046605Y0242060D01*
X0046605Y0244816D01*
X0049361Y0244816D01*
X0049361Y0242060D01*
X0049361Y0243240D02*
X0046605Y0243240D01*
X0046605Y0244420D02*
X0049361Y0244420D01*
X0019361Y0133816D02*
X0016605Y0133816D01*
X0019361Y0133816D02*
X0019361Y0131060D01*
X0016605Y0131060D01*
X0016605Y0133816D01*
X0016605Y0132240D02*
X0019361Y0132240D01*
X0019361Y0133420D02*
X0016605Y0133420D01*
X0016605Y0126911D02*
X0019361Y0126911D01*
X0019361Y0124155D01*
X0016605Y0124155D01*
X0016605Y0126911D01*
X0016605Y0125335D02*
X0019361Y0125335D01*
X0019361Y0126515D02*
X0016605Y0126515D01*
D14*
X0025983Y0125639D03*
X0025983Y0132332D03*
X0049983Y0156639D03*
X0049983Y0163332D03*
X0053983Y0180639D03*
X0053983Y0187332D03*
X0044983Y0187332D03*
X0044983Y0180639D03*
X0038983Y0236639D03*
X0038983Y0243332D03*
X0061983Y0249639D03*
X0061983Y0256332D03*
X0071983Y0256332D03*
X0071983Y0249639D03*
X0081983Y0249639D03*
X0081983Y0256332D03*
X0101637Y0137986D03*
X0108330Y0137986D03*
X0108330Y0125986D03*
X0101637Y0125986D03*
X0093983Y0055332D03*
X0093983Y0048639D03*
X0071983Y0046332D03*
X0071983Y0039639D03*
X0064983Y0039639D03*
X0064983Y0046332D03*
D15*
X0032983Y0171986D03*
X0032983Y0191986D03*
X0032983Y0211986D03*
X0032983Y0221986D03*
D16*
X0014983Y0239986D03*
X0020983Y0144986D03*
D17*
X0024523Y0243143D03*
X0029444Y0243143D03*
X0108062Y0243143D03*
X0112983Y0243143D03*
X0117905Y0243143D03*
X0076365Y0028828D03*
X0071444Y0028828D03*
X0066523Y0028828D03*
X0061602Y0028828D03*
D18*
X0051759Y0016525D03*
X0086208Y0016525D03*
X0116720Y0014899D03*
X0171247Y0014899D03*
X0127747Y0255446D03*
X0098220Y0255446D03*
X0039287Y0255446D03*
X0014680Y0255446D03*
D19*
X0056183Y0097486D03*
X0056183Y0092486D03*
X0056183Y0087486D03*
X0056183Y0082486D03*
X0056183Y0077486D03*
X0056183Y0072486D03*
X0056183Y0067486D03*
X0056183Y0062486D03*
X0093783Y0062486D03*
X0093783Y0067486D03*
X0093783Y0072486D03*
X0093783Y0077486D03*
X0093783Y0082486D03*
X0093783Y0087486D03*
X0093783Y0092486D03*
X0093783Y0097486D03*
D20*
X0191141Y0138064D03*
X0191141Y0142986D03*
X0191141Y0147907D03*
D21*
X0203444Y0157749D03*
X0204070Y0168801D03*
X0203444Y0128222D03*
X0204070Y0233171D03*
D22*
X0149483Y0063286D03*
X0144483Y0063286D03*
X0139483Y0063286D03*
X0134483Y0063286D03*
X0134483Y0042686D03*
X0139483Y0042686D03*
X0144483Y0042686D03*
X0149483Y0042686D03*
D23*
X0151365Y0026316D03*
X0146444Y0026316D03*
X0141523Y0026316D03*
X0136602Y0026316D03*
X0131680Y0026316D03*
X0126759Y0026316D03*
X0156287Y0026316D03*
X0161208Y0026316D03*
D24*
X0081283Y0153486D03*
X0081283Y0158486D03*
X0081283Y0163486D03*
X0081283Y0168486D03*
X0060683Y0168486D03*
X0060683Y0163486D03*
X0060683Y0158486D03*
X0060683Y0153486D03*
X0146683Y0165486D03*
X0146683Y0170486D03*
X0146683Y0175486D03*
X0146683Y0180486D03*
X0146683Y0185486D03*
X0146683Y0190486D03*
X0146683Y0195486D03*
X0146683Y0200486D03*
X0167283Y0200486D03*
X0167283Y0195486D03*
X0167283Y0190486D03*
X0167283Y0185486D03*
X0167283Y0180486D03*
X0167283Y0175486D03*
X0167283Y0170486D03*
X0167283Y0165486D03*
D25*
X0192653Y0178840D03*
X0192653Y0183761D03*
X0192653Y0188682D03*
X0192653Y0193604D03*
X0192653Y0198525D03*
X0192653Y0203446D03*
X0192653Y0208367D03*
X0192653Y0213289D03*
X0192653Y0218210D03*
X0192653Y0223131D03*
D26*
X0146330Y0240986D03*
X0139637Y0240986D03*
X0139637Y0251986D03*
X0146330Y0251986D03*
X0112330Y0219986D03*
X0105637Y0219986D03*
X0087330Y0175986D03*
X0080637Y0175986D03*
D27*
X0081983Y0204056D03*
X0091983Y0204056D03*
X0071983Y0204056D03*
X0061983Y0204056D03*
X0061983Y0237915D03*
X0071983Y0237915D03*
X0081983Y0237915D03*
X0091983Y0237915D03*
D28*
X0088559Y0237996D02*
X0085408Y0237996D01*
X0085408Y0239194D02*
X0088559Y0239194D01*
X0088559Y0240393D02*
X0085408Y0240393D01*
X0085408Y0241591D02*
X0088559Y0241591D01*
X0088559Y0242790D02*
X0085408Y0242790D01*
X0085408Y0243215D02*
X0084705Y0243918D01*
X0083983Y0243918D01*
X0083983Y0246274D01*
X0084449Y0246274D01*
X0085152Y0246977D01*
X0085152Y0252302D01*
X0084701Y0252752D01*
X0084934Y0252886D01*
X0085232Y0253184D01*
X0085443Y0253549D01*
X0085552Y0253956D01*
X0085552Y0255948D01*
X0082368Y0255948D01*
X0082368Y0256716D01*
X0085552Y0256716D01*
X0085552Y0258708D01*
X0085443Y0259115D01*
X0085232Y0259480D01*
X0084934Y0259778D01*
X0084569Y0259988D01*
X0084163Y0260097D01*
X0082368Y0260097D01*
X0082368Y0256716D01*
X0081599Y0256716D01*
X0081599Y0255948D01*
X0078415Y0255948D01*
X0078415Y0253956D01*
X0078524Y0253549D01*
X0078735Y0253184D01*
X0079032Y0252886D01*
X0079265Y0252752D01*
X0078815Y0252302D01*
X0078815Y0246977D01*
X0079518Y0246274D01*
X0079983Y0246274D01*
X0079983Y0243918D01*
X0079262Y0243918D01*
X0078559Y0243215D01*
X0078559Y0232614D01*
X0079262Y0231912D01*
X0084705Y0231912D01*
X0085408Y0232614D01*
X0085408Y0243215D01*
X0083983Y0243988D02*
X0095228Y0243988D01*
X0094932Y0243691D02*
X0094705Y0243918D01*
X0089262Y0243918D01*
X0088559Y0243215D01*
X0088559Y0232614D01*
X0089262Y0231912D01*
X0094705Y0231912D01*
X0095408Y0232614D01*
X0095408Y0238511D01*
X0102883Y0245986D01*
X0103812Y0245986D01*
X0104887Y0247061D01*
X0104887Y0243330D01*
X0107875Y0243330D01*
X0107875Y0242956D01*
X0104887Y0242956D01*
X0104887Y0238995D01*
X0104996Y0238588D01*
X0105207Y0238224D01*
X0105505Y0237926D01*
X0105870Y0237715D01*
X0106277Y0237606D01*
X0107875Y0237606D01*
X0107875Y0242956D01*
X0108250Y0242956D01*
X0108250Y0237606D01*
X0109848Y0237606D01*
X0110255Y0237715D01*
X0110619Y0237926D01*
X0110806Y0238112D01*
X0110912Y0238006D01*
X0110983Y0238006D01*
X0110983Y0223154D01*
X0109667Y0223154D01*
X0108983Y0222470D01*
X0108299Y0223154D01*
X0102975Y0223154D01*
X0102272Y0222451D01*
X0102272Y0217520D01*
X0102975Y0216817D01*
X0103983Y0216817D01*
X0103983Y0212814D01*
X0097226Y0206056D01*
X0095408Y0206056D01*
X0095408Y0209357D01*
X0094705Y0210060D01*
X0089262Y0210060D01*
X0088559Y0209357D01*
X0088559Y0198756D01*
X0089262Y0198053D01*
X0094705Y0198053D01*
X0095408Y0198756D01*
X0095408Y0202056D01*
X0098883Y0202056D01*
X0106812Y0209986D01*
X0107983Y0211157D01*
X0107983Y0216817D01*
X0108299Y0216817D01*
X0108983Y0217501D01*
X0109667Y0216817D01*
X0112670Y0216817D01*
X0113155Y0216332D01*
X0114812Y0216332D01*
X0115810Y0217330D01*
X0115983Y0217157D01*
X0115983Y0187967D01*
X0111705Y0187967D01*
X0111002Y0187264D01*
X0111002Y0186786D01*
X0062238Y0186786D01*
X0061183Y0185731D01*
X0057891Y0182439D01*
X0057152Y0182439D01*
X0057152Y0183302D01*
X0056701Y0183752D01*
X0056934Y0183886D01*
X0057232Y0184184D01*
X0057443Y0184549D01*
X0057552Y0184956D01*
X0057552Y0186948D01*
X0054368Y0186948D01*
X0054368Y0187716D01*
X0057552Y0187716D01*
X0057552Y0189708D01*
X0057443Y0190115D01*
X0057232Y0190480D01*
X0056934Y0190778D01*
X0056569Y0190988D01*
X0056163Y0191097D01*
X0054368Y0191097D01*
X0054368Y0187716D01*
X0053599Y0187716D01*
X0053599Y0186948D01*
X0050415Y0186948D01*
X0050415Y0184956D01*
X0050524Y0184549D01*
X0050735Y0184184D01*
X0051032Y0183886D01*
X0051265Y0183752D01*
X0050815Y0183302D01*
X0050815Y0182639D01*
X0048152Y0182639D01*
X0048152Y0183302D01*
X0047701Y0183752D01*
X0047934Y0183886D01*
X0048232Y0184184D01*
X0048443Y0184549D01*
X0048552Y0184956D01*
X0048552Y0186948D01*
X0045368Y0186948D01*
X0045368Y0187716D01*
X0048552Y0187716D01*
X0048552Y0189708D01*
X0048443Y0190115D01*
X0048232Y0190480D01*
X0047934Y0190778D01*
X0047569Y0190988D01*
X0047163Y0191097D01*
X0045368Y0191097D01*
X0045368Y0187716D01*
X0044599Y0187716D01*
X0044599Y0186948D01*
X0041415Y0186948D01*
X0041415Y0184956D01*
X0041524Y0184549D01*
X0041735Y0184184D01*
X0042032Y0183886D01*
X0042265Y0183752D01*
X0041815Y0183302D01*
X0041815Y0180299D01*
X0035912Y0174396D01*
X0035122Y0175186D01*
X0033734Y0175760D01*
X0032233Y0175760D01*
X0030845Y0175186D01*
X0029783Y0174124D01*
X0029209Y0172736D01*
X0029209Y0171235D01*
X0029783Y0169847D01*
X0030183Y0169447D01*
X0030183Y0152145D01*
X0025944Y0147905D01*
X0025816Y0148214D01*
X0024212Y0149818D01*
X0022117Y0150686D01*
X0019850Y0150686D01*
X0017755Y0149818D01*
X0016151Y0148214D01*
X0015283Y0146119D01*
X0015283Y0143852D01*
X0016151Y0141757D01*
X0017755Y0140153D01*
X0019850Y0139286D01*
X0022117Y0139286D01*
X0024212Y0140153D01*
X0025816Y0141757D01*
X0025993Y0142186D01*
X0027540Y0142186D01*
X0028569Y0142612D01*
X0030183Y0144226D01*
X0030183Y0127439D01*
X0029152Y0127439D01*
X0029152Y0128302D01*
X0028468Y0128986D01*
X0029152Y0129670D01*
X0029152Y0134994D01*
X0028449Y0135697D01*
X0023518Y0135697D01*
X0022815Y0134994D01*
X0022815Y0134132D01*
X0021152Y0134132D01*
X0021152Y0134558D01*
X0020103Y0135607D01*
X0015864Y0135607D01*
X0014815Y0134558D01*
X0014815Y0130319D01*
X0015864Y0129270D01*
X0020103Y0129270D01*
X0021152Y0130319D01*
X0021152Y0130532D01*
X0022815Y0130532D01*
X0022815Y0129670D01*
X0023499Y0128986D01*
X0022815Y0128302D01*
X0022815Y0122977D01*
X0023518Y0122274D01*
X0028449Y0122274D01*
X0029152Y0122977D01*
X0029152Y0123839D01*
X0030183Y0123839D01*
X0030183Y0118886D01*
X0028786Y0118886D01*
X0028083Y0118183D01*
X0028083Y0110786D01*
X0027883Y0110786D01*
X0027883Y0118183D01*
X0027180Y0118886D01*
X0018786Y0118886D01*
X0018083Y0118183D01*
X0018083Y0115986D01*
X0016155Y0115986D01*
X0015955Y0115786D01*
X0011783Y0115786D01*
X0011783Y0190957D01*
X0021831Y0201004D01*
X0024262Y0201004D01*
X0024965Y0201707D01*
X0024965Y0206264D01*
X0024262Y0206967D01*
X0019705Y0206967D01*
X0019002Y0206264D01*
X0019002Y0203833D01*
X0009583Y0194414D01*
X0009583Y0237147D01*
X0009766Y0236788D01*
X0010331Y0236012D01*
X0011010Y0235333D01*
X0011786Y0234768D01*
X0012642Y0234332D01*
X0013555Y0234036D01*
X0014383Y0233905D01*
X0014383Y0239385D01*
X0015583Y0239385D01*
X0015583Y0233905D01*
X0016412Y0234036D01*
X0017325Y0234332D01*
X0018181Y0234768D01*
X0018957Y0235333D01*
X0019636Y0236012D01*
X0020201Y0236788D01*
X0020636Y0237644D01*
X0020933Y0238557D01*
X0021064Y0239386D01*
X0015583Y0239386D01*
X0015583Y0240586D01*
X0014383Y0240586D01*
X0014383Y0246067D01*
X0013555Y0245935D01*
X0012642Y0245639D01*
X0011786Y0245203D01*
X0011010Y0244638D01*
X0010331Y0243959D01*
X0009766Y0243183D01*
X0009583Y0242824D01*
X0009583Y0248807D01*
X0010049Y0248341D01*
X0019311Y0248341D01*
X0020014Y0249044D01*
X0020014Y0261849D01*
X0019517Y0262346D01*
X0034450Y0262346D01*
X0033953Y0261849D01*
X0033953Y0249044D01*
X0034656Y0248341D01*
X0043917Y0248341D01*
X0044620Y0249044D01*
X0044620Y0261849D01*
X0044123Y0262346D01*
X0093383Y0262346D01*
X0092886Y0261849D01*
X0092886Y0249044D01*
X0093589Y0248341D01*
X0099581Y0248341D01*
X0094932Y0243691D01*
X0096427Y0245187D02*
X0083983Y0245187D01*
X0084560Y0246385D02*
X0097625Y0246385D01*
X0098824Y0247584D02*
X0085152Y0247584D01*
X0085152Y0248782D02*
X0093147Y0248782D01*
X0092886Y0249981D02*
X0085152Y0249981D01*
X0085152Y0251179D02*
X0092886Y0251179D01*
X0092886Y0252378D02*
X0085076Y0252378D01*
X0085450Y0253576D02*
X0092886Y0253576D01*
X0092886Y0254775D02*
X0085552Y0254775D01*
X0085552Y0257172D02*
X0092886Y0257172D01*
X0092886Y0258370D02*
X0085552Y0258370D01*
X0085143Y0259569D02*
X0092886Y0259569D01*
X0092886Y0260767D02*
X0044620Y0260767D01*
X0044620Y0259569D02*
X0058824Y0259569D01*
X0058735Y0259480D02*
X0059032Y0259778D01*
X0059397Y0259988D01*
X0059804Y0260097D01*
X0061599Y0260097D01*
X0061599Y0256716D01*
X0061599Y0255948D01*
X0058415Y0255948D01*
X0058415Y0253956D01*
X0058524Y0253549D01*
X0058735Y0253184D01*
X0059032Y0252886D01*
X0059265Y0252752D01*
X0058815Y0252302D01*
X0058815Y0246977D01*
X0059518Y0246274D01*
X0059983Y0246274D01*
X0059983Y0243918D01*
X0059262Y0243918D01*
X0058559Y0243215D01*
X0058559Y0232614D01*
X0059262Y0231912D01*
X0064705Y0231912D01*
X0065408Y0232614D01*
X0065408Y0243215D01*
X0064705Y0243918D01*
X0063983Y0243918D01*
X0063983Y0246274D01*
X0064449Y0246274D01*
X0065152Y0246977D01*
X0065152Y0252302D01*
X0064701Y0252752D01*
X0064934Y0252886D01*
X0065232Y0253184D01*
X0065443Y0253549D01*
X0065552Y0253956D01*
X0065552Y0255948D01*
X0062368Y0255948D01*
X0062368Y0256716D01*
X0065552Y0256716D01*
X0065552Y0258708D01*
X0065443Y0259115D01*
X0065232Y0259480D01*
X0064934Y0259778D01*
X0064569Y0259988D01*
X0064163Y0260097D01*
X0062368Y0260097D01*
X0062368Y0256716D01*
X0061599Y0256716D01*
X0058415Y0256716D01*
X0058415Y0258708D01*
X0058524Y0259115D01*
X0058735Y0259480D01*
X0058415Y0258370D02*
X0044620Y0258370D01*
X0044620Y0257172D02*
X0058415Y0257172D01*
X0058415Y0254775D02*
X0044620Y0254775D01*
X0044620Y0255973D02*
X0061599Y0255973D01*
X0062368Y0255973D02*
X0071599Y0255973D01*
X0071599Y0255948D02*
X0068415Y0255948D01*
X0068415Y0253956D01*
X0068524Y0253549D01*
X0068735Y0253184D01*
X0069032Y0252886D01*
X0069265Y0252752D01*
X0068815Y0252302D01*
X0068815Y0246977D01*
X0069518Y0246274D01*
X0069983Y0246274D01*
X0069983Y0243918D01*
X0069262Y0243918D01*
X0068559Y0243215D01*
X0068559Y0232614D01*
X0069262Y0231912D01*
X0074705Y0231912D01*
X0075408Y0232614D01*
X0075408Y0243215D01*
X0074705Y0243918D01*
X0073983Y0243918D01*
X0073983Y0246274D01*
X0074449Y0246274D01*
X0075152Y0246977D01*
X0075152Y0252302D01*
X0074701Y0252752D01*
X0074934Y0252886D01*
X0075232Y0253184D01*
X0075443Y0253549D01*
X0075552Y0253956D01*
X0075552Y0255948D01*
X0072368Y0255948D01*
X0072368Y0256716D01*
X0075552Y0256716D01*
X0075552Y0258708D01*
X0075443Y0259115D01*
X0075232Y0259480D01*
X0074934Y0259778D01*
X0074569Y0259988D01*
X0074163Y0260097D01*
X0072368Y0260097D01*
X0072368Y0256716D01*
X0071599Y0256716D01*
X0071599Y0255948D01*
X0071599Y0256716D02*
X0068415Y0256716D01*
X0068415Y0258708D01*
X0068524Y0259115D01*
X0068735Y0259480D01*
X0069032Y0259778D01*
X0069397Y0259988D01*
X0069804Y0260097D01*
X0071599Y0260097D01*
X0071599Y0256716D01*
X0071599Y0257172D02*
X0072368Y0257172D01*
X0072368Y0258370D02*
X0071599Y0258370D01*
X0071599Y0259569D02*
X0072368Y0259569D01*
X0075143Y0259569D02*
X0078824Y0259569D01*
X0078735Y0259480D02*
X0078524Y0259115D01*
X0078415Y0258708D01*
X0078415Y0256716D01*
X0081599Y0256716D01*
X0081599Y0260097D01*
X0079804Y0260097D01*
X0079397Y0259988D01*
X0079032Y0259778D01*
X0078735Y0259480D01*
X0078415Y0258370D02*
X0075552Y0258370D01*
X0075552Y0257172D02*
X0078415Y0257172D01*
X0078415Y0254775D02*
X0075552Y0254775D01*
X0075450Y0253576D02*
X0078517Y0253576D01*
X0078891Y0252378D02*
X0075076Y0252378D01*
X0075152Y0251179D02*
X0078815Y0251179D01*
X0078815Y0249981D02*
X0075152Y0249981D01*
X0075152Y0248782D02*
X0078815Y0248782D01*
X0078815Y0247584D02*
X0075152Y0247584D01*
X0074560Y0246385D02*
X0079406Y0246385D01*
X0079983Y0245187D02*
X0073983Y0245187D01*
X0073983Y0243988D02*
X0079983Y0243988D01*
X0078559Y0242790D02*
X0075408Y0242790D01*
X0075408Y0241591D02*
X0078559Y0241591D01*
X0078559Y0240393D02*
X0075408Y0240393D01*
X0075408Y0239194D02*
X0078559Y0239194D01*
X0078559Y0237996D02*
X0075408Y0237996D01*
X0075408Y0236797D02*
X0078559Y0236797D01*
X0078559Y0235598D02*
X0075408Y0235598D01*
X0075408Y0234400D02*
X0078559Y0234400D01*
X0078559Y0233201D02*
X0075408Y0233201D01*
X0074796Y0232003D02*
X0079171Y0232003D01*
X0082860Y0228407D02*
X0032244Y0228407D01*
X0032244Y0227209D02*
X0081661Y0227209D01*
X0082183Y0227731D02*
X0080183Y0225731D01*
X0080183Y0210060D01*
X0079262Y0210060D01*
X0078559Y0209357D01*
X0078559Y0206056D01*
X0075408Y0206056D01*
X0075408Y0209357D01*
X0074705Y0210060D01*
X0069262Y0210060D01*
X0068559Y0209357D01*
X0068559Y0206056D01*
X0065408Y0206056D01*
X0065408Y0209357D01*
X0064705Y0210060D01*
X0059262Y0210060D01*
X0058559Y0209357D01*
X0058559Y0205986D01*
X0053965Y0205986D01*
X0053965Y0206264D01*
X0053262Y0206967D01*
X0048705Y0206967D01*
X0048002Y0206264D01*
X0048002Y0201707D01*
X0048705Y0201004D01*
X0053262Y0201004D01*
X0053965Y0201707D01*
X0053965Y0201986D01*
X0058559Y0201986D01*
X0058559Y0198756D01*
X0059262Y0198053D01*
X0064705Y0198053D01*
X0065408Y0198756D01*
X0065408Y0202056D01*
X0068559Y0202056D01*
X0068559Y0198756D01*
X0069262Y0198053D01*
X0074705Y0198053D01*
X0075408Y0198756D01*
X0075408Y0202056D01*
X0078559Y0202056D01*
X0078559Y0198756D01*
X0079262Y0198053D01*
X0084705Y0198053D01*
X0085408Y0198756D01*
X0085408Y0209357D01*
X0084705Y0210060D01*
X0083783Y0210060D01*
X0083783Y0224240D01*
X0084729Y0225186D01*
X0101729Y0225186D01*
X0106548Y0230004D01*
X0109262Y0230004D01*
X0109965Y0230707D01*
X0109965Y0235264D01*
X0109262Y0235967D01*
X0104705Y0235967D01*
X0104002Y0235264D01*
X0104002Y0232550D01*
X0100238Y0228786D01*
X0083238Y0228786D01*
X0082183Y0227731D01*
X0083983Y0226986D02*
X0081983Y0224986D01*
X0081983Y0204056D01*
X0085408Y0204437D02*
X0088559Y0204437D01*
X0088559Y0203239D02*
X0085408Y0203239D01*
X0085408Y0202040D02*
X0088559Y0202040D01*
X0088559Y0200842D02*
X0085408Y0200842D01*
X0085408Y0199643D02*
X0088559Y0199643D01*
X0088871Y0198445D02*
X0085096Y0198445D01*
X0078871Y0198445D02*
X0075096Y0198445D01*
X0075408Y0199643D02*
X0078559Y0199643D01*
X0078559Y0200842D02*
X0075408Y0200842D01*
X0075408Y0202040D02*
X0078559Y0202040D01*
X0078559Y0206834D02*
X0075408Y0206834D01*
X0075408Y0208033D02*
X0078559Y0208033D01*
X0078559Y0209231D02*
X0075408Y0209231D01*
X0080183Y0210430D02*
X0043983Y0210430D01*
X0043983Y0211628D02*
X0080183Y0211628D01*
X0080183Y0212827D02*
X0043983Y0212827D01*
X0043983Y0214025D02*
X0080183Y0214025D01*
X0080183Y0215224D02*
X0043983Y0215224D01*
X0043983Y0216422D02*
X0080183Y0216422D01*
X0080183Y0217621D02*
X0043983Y0217621D01*
X0043983Y0218814D02*
X0042812Y0219986D01*
X0038812Y0223986D01*
X0036241Y0223986D01*
X0036184Y0224124D01*
X0035122Y0225186D01*
X0033734Y0225760D01*
X0033168Y0225760D01*
X0032244Y0226685D01*
X0032244Y0240550D01*
X0035815Y0236979D01*
X0035815Y0233977D01*
X0036518Y0233274D01*
X0041449Y0233274D01*
X0042152Y0233977D01*
X0042152Y0239302D01*
X0041468Y0239986D01*
X0041585Y0240103D01*
X0044815Y0236873D01*
X0044815Y0234413D01*
X0045864Y0233364D01*
X0050103Y0233364D01*
X0051152Y0234413D01*
X0051152Y0238652D01*
X0050103Y0239701D01*
X0047643Y0239701D01*
X0047475Y0239870D01*
X0047599Y0239870D01*
X0047599Y0243054D01*
X0044415Y0243054D01*
X0044415Y0242930D01*
X0042152Y0245193D01*
X0042152Y0245994D01*
X0041449Y0246697D01*
X0036518Y0246697D01*
X0035815Y0245994D01*
X0035815Y0242636D01*
X0033308Y0245143D01*
X0032219Y0245143D01*
X0032219Y0247577D01*
X0031516Y0248280D01*
X0027372Y0248280D01*
X0027266Y0248174D01*
X0027080Y0248360D01*
X0026715Y0248571D01*
X0026308Y0248680D01*
X0024710Y0248680D01*
X0024710Y0243331D01*
X0024335Y0243331D01*
X0024335Y0248680D01*
X0022737Y0248680D01*
X0022330Y0248571D01*
X0021966Y0248360D01*
X0021668Y0248062D01*
X0021457Y0247698D01*
X0021348Y0247291D01*
X0021348Y0243330D01*
X0024335Y0243330D01*
X0024335Y0242956D01*
X0021348Y0242956D01*
X0021348Y0238995D01*
X0021457Y0238588D01*
X0021668Y0238224D01*
X0021966Y0237926D01*
X0022330Y0237715D01*
X0022737Y0237606D01*
X0024335Y0237606D01*
X0024335Y0242956D01*
X0024710Y0242956D01*
X0024710Y0237606D01*
X0026308Y0237606D01*
X0026644Y0237696D01*
X0026644Y0224968D01*
X0027070Y0223939D01*
X0029209Y0221801D01*
X0029209Y0221235D01*
X0029783Y0219847D01*
X0030845Y0218785D01*
X0032233Y0218211D01*
X0033734Y0218211D01*
X0035122Y0218785D01*
X0036184Y0219847D01*
X0036241Y0219986D01*
X0037155Y0219986D01*
X0039983Y0217157D01*
X0039983Y0198157D01*
X0044983Y0193157D01*
X0046155Y0191986D01*
X0107002Y0191986D01*
X0107002Y0191707D01*
X0107705Y0191004D01*
X0112262Y0191004D01*
X0112965Y0191707D01*
X0112965Y0196264D01*
X0112262Y0196967D01*
X0107705Y0196967D01*
X0107002Y0196264D01*
X0107002Y0195986D01*
X0047812Y0195986D01*
X0043983Y0199814D01*
X0043983Y0218814D01*
X0043978Y0218819D02*
X0080183Y0218819D01*
X0080183Y0220018D02*
X0042780Y0220018D01*
X0041581Y0221216D02*
X0080183Y0221216D01*
X0080183Y0222415D02*
X0040383Y0222415D01*
X0039184Y0223613D02*
X0080183Y0223613D01*
X0080183Y0224812D02*
X0035495Y0224812D01*
X0032918Y0226010D02*
X0080463Y0226010D01*
X0083983Y0226986D02*
X0100983Y0226986D01*
X0106983Y0232986D01*
X0104002Y0233201D02*
X0095408Y0233201D01*
X0095408Y0234400D02*
X0104002Y0234400D01*
X0104337Y0235598D02*
X0095408Y0235598D01*
X0095408Y0236797D02*
X0110983Y0236797D01*
X0110983Y0235598D02*
X0109630Y0235598D01*
X0109965Y0234400D02*
X0110983Y0234400D01*
X0110983Y0233201D02*
X0109965Y0233201D01*
X0109965Y0232003D02*
X0110983Y0232003D01*
X0110983Y0230804D02*
X0109965Y0230804D01*
X0110983Y0229606D02*
X0106149Y0229606D01*
X0104951Y0228407D02*
X0110983Y0228407D01*
X0110983Y0227209D02*
X0103752Y0227209D01*
X0102554Y0226010D02*
X0110983Y0226010D01*
X0110983Y0224812D02*
X0084355Y0224812D01*
X0083783Y0223613D02*
X0110983Y0223613D01*
X0113065Y0216422D02*
X0107983Y0216422D01*
X0107983Y0215224D02*
X0115983Y0215224D01*
X0115983Y0216422D02*
X0114902Y0216422D01*
X0115983Y0214025D02*
X0107983Y0214025D01*
X0107983Y0212827D02*
X0115983Y0212827D01*
X0115983Y0211628D02*
X0107983Y0211628D01*
X0107256Y0210430D02*
X0115983Y0210430D01*
X0115983Y0209231D02*
X0106058Y0209231D01*
X0104859Y0208033D02*
X0115983Y0208033D01*
X0115983Y0206834D02*
X0103661Y0206834D01*
X0102462Y0205636D02*
X0115983Y0205636D01*
X0115983Y0204437D02*
X0101263Y0204437D01*
X0100065Y0203239D02*
X0115983Y0203239D01*
X0115983Y0202040D02*
X0095408Y0202040D01*
X0095408Y0200842D02*
X0115983Y0200842D01*
X0115983Y0199643D02*
X0095408Y0199643D01*
X0095096Y0198445D02*
X0115983Y0198445D01*
X0115983Y0197246D02*
X0046551Y0197246D01*
X0045353Y0198445D02*
X0058871Y0198445D01*
X0058559Y0199643D02*
X0044154Y0199643D01*
X0043983Y0200842D02*
X0058559Y0200842D01*
X0058559Y0206834D02*
X0053394Y0206834D01*
X0048573Y0206834D02*
X0043983Y0206834D01*
X0043983Y0205636D02*
X0048002Y0205636D01*
X0048002Y0204437D02*
X0043983Y0204437D01*
X0043983Y0203239D02*
X0048002Y0203239D01*
X0048002Y0202040D02*
X0043983Y0202040D01*
X0039983Y0202040D02*
X0024965Y0202040D01*
X0024965Y0203239D02*
X0039983Y0203239D01*
X0039983Y0204437D02*
X0024965Y0204437D01*
X0024965Y0205636D02*
X0039983Y0205636D01*
X0039983Y0206834D02*
X0024394Y0206834D01*
X0019573Y0206834D02*
X0009583Y0206834D01*
X0009583Y0205636D02*
X0019002Y0205636D01*
X0019002Y0204437D02*
X0009583Y0204437D01*
X0009583Y0203239D02*
X0018408Y0203239D01*
X0017210Y0202040D02*
X0009583Y0202040D01*
X0009583Y0200842D02*
X0016011Y0200842D01*
X0014813Y0199643D02*
X0009583Y0199643D01*
X0009583Y0198445D02*
X0013614Y0198445D01*
X0012416Y0197246D02*
X0009583Y0197246D01*
X0009583Y0196048D02*
X0011217Y0196048D01*
X0010019Y0194849D02*
X0009583Y0194849D01*
X0009983Y0191986D02*
X0009983Y0114986D01*
X0010983Y0113986D01*
X0016983Y0113986D01*
X0015955Y0112186D02*
X0016155Y0111986D01*
X0018083Y0111986D01*
X0018083Y0109788D01*
X0018786Y0109086D01*
X0025538Y0109086D01*
X0024934Y0108481D01*
X0023958Y0108886D01*
X0022009Y0108886D01*
X0020208Y0108140D01*
X0018829Y0106761D01*
X0018083Y0104960D01*
X0018083Y0103011D01*
X0018829Y0101210D01*
X0020208Y0099832D01*
X0022009Y0099086D01*
X0023958Y0099086D01*
X0025759Y0099832D01*
X0027137Y0101210D01*
X0027803Y0102816D01*
X0027814Y0102744D01*
X0028072Y0101951D01*
X0028450Y0101208D01*
X0028941Y0100533D01*
X0029531Y0099943D01*
X0030206Y0099453D01*
X0030949Y0099074D01*
X0031742Y0098816D01*
X0031814Y0098805D01*
X0030208Y0098140D01*
X0028829Y0096761D01*
X0028083Y0094960D01*
X0028083Y0093011D01*
X0028829Y0091210D01*
X0030208Y0089832D01*
X0032009Y0089086D01*
X0033958Y0089086D01*
X0035759Y0089832D01*
X0037137Y0091210D01*
X0037883Y0093011D01*
X0037883Y0094960D01*
X0037137Y0096761D01*
X0035759Y0098140D01*
X0034153Y0098805D01*
X0034224Y0098816D01*
X0035018Y0099074D01*
X0035761Y0099453D01*
X0036436Y0099943D01*
X0037026Y0100533D01*
X0037516Y0101208D01*
X0037895Y0101951D01*
X0038153Y0102744D01*
X0038283Y0103568D01*
X0038283Y0103586D01*
X0033383Y0103586D01*
X0033383Y0104386D01*
X0038283Y0104386D01*
X0038283Y0104403D01*
X0038153Y0105227D01*
X0037895Y0106020D01*
X0037516Y0106763D01*
X0037210Y0107186D01*
X0039729Y0107186D01*
X0040783Y0108240D01*
X0043783Y0111240D01*
X0043783Y0165240D01*
X0045229Y0166686D01*
X0046940Y0166686D01*
X0046735Y0166480D01*
X0046524Y0166115D01*
X0046415Y0165708D01*
X0046415Y0163716D01*
X0049599Y0163716D01*
X0049599Y0162948D01*
X0046415Y0162948D01*
X0046415Y0160956D01*
X0046524Y0160549D01*
X0046735Y0160184D01*
X0047032Y0159886D01*
X0047265Y0159752D01*
X0046815Y0159302D01*
X0046815Y0153977D01*
X0047518Y0153274D01*
X0052449Y0153274D01*
X0053152Y0153977D01*
X0053152Y0156686D01*
X0055236Y0156686D01*
X0055836Y0156086D01*
X0065530Y0156086D01*
X0066130Y0156686D01*
X0067229Y0156686D01*
X0071729Y0161186D01*
X0072783Y0162240D01*
X0072783Y0183186D01*
X0111002Y0183186D01*
X0111002Y0182707D01*
X0111705Y0182004D01*
X0115983Y0182004D01*
X0115983Y0173814D01*
X0108155Y0165986D01*
X0089155Y0165986D01*
X0088655Y0165486D01*
X0086530Y0165486D01*
X0086130Y0165886D01*
X0076436Y0165886D01*
X0075733Y0165183D01*
X0075733Y0161788D01*
X0076436Y0161086D01*
X0086130Y0161086D01*
X0086530Y0161486D01*
X0090312Y0161486D01*
X0090812Y0161986D01*
X0109812Y0161986D01*
X0110983Y0163157D01*
X0118812Y0170986D01*
X0118983Y0171157D01*
X0118983Y0169814D01*
X0111155Y0161986D01*
X0093155Y0161986D01*
X0091655Y0160486D01*
X0086530Y0160486D01*
X0086130Y0160886D01*
X0076436Y0160886D01*
X0075733Y0160183D01*
X0075733Y0156788D01*
X0076436Y0156086D01*
X0086130Y0156086D01*
X0086530Y0156486D01*
X0093312Y0156486D01*
X0094812Y0157986D01*
X0112812Y0157986D01*
X0113983Y0159157D01*
X0121812Y0166986D01*
X0122983Y0168157D01*
X0122983Y0220814D01*
X0121812Y0221986D01*
X0119905Y0223893D01*
X0119905Y0238006D01*
X0119977Y0238006D01*
X0120679Y0238709D01*
X0120679Y0240932D01*
X0120983Y0241236D01*
X0120983Y0242893D01*
X0120679Y0243197D01*
X0120679Y0247577D01*
X0119977Y0248280D01*
X0119905Y0248280D01*
X0119905Y0251893D01*
X0116983Y0254814D01*
X0115812Y0255986D01*
X0106155Y0255986D01*
X0104155Y0253986D01*
X0103553Y0253384D01*
X0103553Y0261849D01*
X0103056Y0262346D01*
X0122911Y0262346D01*
X0122413Y0261849D01*
X0122413Y0249044D01*
X0123116Y0248341D01*
X0132378Y0248341D01*
X0133081Y0249044D01*
X0133081Y0261849D01*
X0132584Y0262346D01*
X0210084Y0262346D01*
X0210084Y0238504D01*
X0197667Y0238504D01*
X0196965Y0237802D01*
X0196965Y0228540D01*
X0197667Y0227837D01*
X0210084Y0227837D01*
X0210084Y0174134D01*
X0197667Y0174134D01*
X0196965Y0173431D01*
X0196965Y0164170D01*
X0197667Y0163467D01*
X0210084Y0163467D01*
X0210084Y0162846D01*
X0209847Y0163083D01*
X0197041Y0163083D01*
X0196339Y0162380D01*
X0196339Y0153118D01*
X0197041Y0152415D01*
X0209847Y0152415D01*
X0210084Y0152653D01*
X0210084Y0133318D01*
X0209847Y0133556D01*
X0197041Y0133556D01*
X0196339Y0132853D01*
X0196339Y0123591D01*
X0197041Y0122888D01*
X0209847Y0122888D01*
X0210084Y0123126D01*
X0210084Y0075430D01*
X0209729Y0075786D01*
X0207542Y0075786D01*
X0207137Y0076761D01*
X0205759Y0078140D01*
X0203958Y0078886D01*
X0202009Y0078886D01*
X0200208Y0078140D01*
X0198829Y0076761D01*
X0198083Y0074960D01*
X0198083Y0073011D01*
X0198829Y0071210D01*
X0200208Y0069832D01*
X0202009Y0069086D01*
X0203958Y0069086D01*
X0205759Y0069832D01*
X0207137Y0071210D01*
X0207542Y0072186D01*
X0208183Y0072186D01*
X0208183Y0060786D01*
X0206713Y0060786D01*
X0207137Y0061210D01*
X0207883Y0063011D01*
X0207883Y0064960D01*
X0207137Y0066761D01*
X0205759Y0068140D01*
X0203958Y0068886D01*
X0202009Y0068886D01*
X0200208Y0068140D01*
X0198829Y0066761D01*
X0198083Y0064960D01*
X0198083Y0063011D01*
X0198829Y0061210D01*
X0199254Y0060786D01*
X0196713Y0060786D01*
X0197137Y0061210D01*
X0197883Y0063011D01*
X0197883Y0064960D01*
X0197137Y0066761D01*
X0195759Y0068140D01*
X0193958Y0068886D01*
X0192009Y0068886D01*
X0190208Y0068140D01*
X0188829Y0066761D01*
X0188425Y0065786D01*
X0187729Y0065786D01*
X0154783Y0098731D01*
X0154783Y0109640D01*
X0188488Y0075936D01*
X0188083Y0074960D01*
X0188083Y0073011D01*
X0188829Y0071210D01*
X0190208Y0069832D01*
X0192009Y0069086D01*
X0193958Y0069086D01*
X0195759Y0069832D01*
X0197137Y0071210D01*
X0197883Y0073011D01*
X0197883Y0074960D01*
X0197137Y0076761D01*
X0195759Y0078140D01*
X0193958Y0078886D01*
X0192009Y0078886D01*
X0191033Y0078481D01*
X0156783Y0112731D01*
X0156783Y0188731D01*
X0155729Y0189786D01*
X0153229Y0192286D01*
X0152130Y0192286D01*
X0151530Y0192886D01*
X0141836Y0192886D01*
X0141133Y0192183D01*
X0141133Y0188788D01*
X0141836Y0188086D01*
X0151530Y0188086D01*
X0151934Y0188489D01*
X0153183Y0187240D01*
X0153183Y0182286D01*
X0152130Y0182286D01*
X0151530Y0182886D01*
X0141965Y0182886D01*
X0141965Y0183086D01*
X0151530Y0183086D01*
X0152233Y0183788D01*
X0152233Y0187183D01*
X0151530Y0187886D01*
X0141836Y0187886D01*
X0141590Y0187639D01*
X0141262Y0187967D01*
X0136705Y0187967D01*
X0136002Y0187264D01*
X0136002Y0183512D01*
X0135783Y0183731D01*
X0135783Y0197640D01*
X0136238Y0197186D01*
X0139738Y0193686D01*
X0141236Y0193686D01*
X0141836Y0193086D01*
X0151530Y0193086D01*
X0152233Y0193788D01*
X0152233Y0197183D01*
X0151530Y0197886D01*
X0141836Y0197886D01*
X0141236Y0197286D01*
X0141229Y0197286D01*
X0138783Y0199731D01*
X0138783Y0200640D01*
X0140738Y0198686D01*
X0141236Y0198686D01*
X0141836Y0198086D01*
X0151530Y0198086D01*
X0152233Y0198788D01*
X0152233Y0202183D01*
X0151530Y0202886D01*
X0141836Y0202886D01*
X0141783Y0202833D01*
X0141783Y0212240D01*
X0142729Y0213186D01*
X0173238Y0213186D01*
X0187183Y0199240D01*
X0188238Y0198186D01*
X0188303Y0198186D01*
X0188303Y0196986D01*
X0185812Y0196986D01*
X0180312Y0202486D01*
X0179529Y0202486D01*
X0174965Y0207050D01*
X0174965Y0208264D01*
X0174262Y0208967D01*
X0169705Y0208967D01*
X0169002Y0208264D01*
X0169002Y0203707D01*
X0169705Y0203004D01*
X0173919Y0203004D01*
X0174438Y0202486D01*
X0172530Y0202486D01*
X0172130Y0202886D01*
X0162436Y0202886D01*
X0161733Y0202183D01*
X0161733Y0198788D01*
X0162436Y0198086D01*
X0172130Y0198086D01*
X0172530Y0198486D01*
X0178655Y0198486D01*
X0182983Y0194157D01*
X0182983Y0191814D01*
X0179636Y0188467D01*
X0177205Y0188467D01*
X0176502Y0187764D01*
X0176502Y0185333D01*
X0173655Y0182486D01*
X0172530Y0182486D01*
X0172130Y0182886D01*
X0162436Y0182886D01*
X0161733Y0182183D01*
X0161733Y0178788D01*
X0162436Y0178086D01*
X0172130Y0178086D01*
X0172530Y0178486D01*
X0175312Y0178486D01*
X0179331Y0182504D01*
X0181762Y0182504D01*
X0182465Y0183207D01*
X0182465Y0185638D01*
X0185812Y0188986D01*
X0186983Y0190157D01*
X0186983Y0192986D01*
X0188303Y0192986D01*
X0188303Y0191532D01*
X0188409Y0191426D01*
X0188223Y0191240D01*
X0188012Y0190875D01*
X0187903Y0190468D01*
X0187903Y0188870D01*
X0192465Y0188870D01*
X0192465Y0188495D01*
X0187903Y0188495D01*
X0187903Y0186897D01*
X0188012Y0186490D01*
X0188223Y0186125D01*
X0188362Y0185986D01*
X0187155Y0185986D01*
X0185983Y0184814D01*
X0173655Y0172486D01*
X0172530Y0172486D01*
X0172130Y0172886D01*
X0162436Y0172886D01*
X0161733Y0172183D01*
X0161733Y0168788D01*
X0162436Y0168086D01*
X0172130Y0168086D01*
X0172530Y0168486D01*
X0174655Y0168486D01*
X0173655Y0167486D01*
X0172530Y0167486D01*
X0172130Y0167886D01*
X0162436Y0167886D01*
X0161733Y0167183D01*
X0161733Y0163788D01*
X0162436Y0163086D01*
X0172130Y0163086D01*
X0172530Y0163486D01*
X0175312Y0163486D01*
X0188449Y0176622D01*
X0189006Y0176065D01*
X0196299Y0176065D01*
X0197002Y0176768D01*
X0197002Y0180912D01*
X0196614Y0181301D01*
X0197002Y0181689D01*
X0197002Y0185833D01*
X0196896Y0185939D01*
X0197083Y0186125D01*
X0197293Y0186490D01*
X0197402Y0186897D01*
X0197402Y0188495D01*
X0192840Y0188495D01*
X0192840Y0188870D01*
X0197402Y0188870D01*
X0197402Y0190468D01*
X0197293Y0190875D01*
X0197083Y0191240D01*
X0196896Y0191426D01*
X0197002Y0191532D01*
X0197002Y0195676D01*
X0196614Y0196064D01*
X0197002Y0196453D01*
X0197002Y0200597D01*
X0196614Y0200986D01*
X0197002Y0201374D01*
X0197002Y0205518D01*
X0196614Y0205907D01*
X0197002Y0206296D01*
X0197002Y0210439D01*
X0196614Y0210828D01*
X0197002Y0211217D01*
X0197002Y0215361D01*
X0196614Y0215749D01*
X0197002Y0216138D01*
X0197002Y0220282D01*
X0196614Y0220671D01*
X0197002Y0221059D01*
X0197002Y0225203D01*
X0196299Y0225906D01*
X0189006Y0225906D01*
X0188303Y0225203D01*
X0188303Y0222211D01*
X0187729Y0222786D01*
X0184729Y0225786D01*
X0153329Y0225786D01*
X0153783Y0226240D01*
X0157983Y0230440D01*
X0157983Y0232527D01*
X0158959Y0232932D01*
X0160337Y0234310D01*
X0160659Y0235086D01*
X0177308Y0235086D01*
X0177629Y0234310D01*
X0179008Y0232932D01*
X0180809Y0232186D01*
X0182758Y0232186D01*
X0184559Y0232932D01*
X0185937Y0234310D01*
X0186683Y0236111D01*
X0186683Y0238060D01*
X0185937Y0239861D01*
X0184559Y0241240D01*
X0182758Y0241986D01*
X0180809Y0241986D01*
X0179008Y0241240D01*
X0177629Y0239861D01*
X0177308Y0239086D01*
X0160659Y0239086D01*
X0160337Y0239861D01*
X0158959Y0241240D01*
X0157158Y0241986D01*
X0155209Y0241986D01*
X0154433Y0241664D01*
X0153112Y0242986D01*
X0149695Y0242986D01*
X0149695Y0243451D01*
X0148992Y0244154D01*
X0145990Y0244154D01*
X0141637Y0248507D01*
X0141637Y0248817D01*
X0142299Y0248817D01*
X0142750Y0249267D01*
X0142884Y0249035D01*
X0143182Y0248737D01*
X0143547Y0248526D01*
X0143954Y0248417D01*
X0145946Y0248417D01*
X0145946Y0251601D01*
X0146714Y0251601D01*
X0146714Y0248417D01*
X0148706Y0248417D01*
X0149113Y0248526D01*
X0149478Y0248737D01*
X0149776Y0249035D01*
X0149986Y0249399D01*
X0150095Y0249806D01*
X0150095Y0251601D01*
X0146714Y0251601D01*
X0146714Y0252370D01*
X0145946Y0252370D01*
X0145946Y0255554D01*
X0143954Y0255554D01*
X0143547Y0255445D01*
X0143182Y0255234D01*
X0142884Y0254936D01*
X0142750Y0254704D01*
X0142299Y0255154D01*
X0136975Y0255154D01*
X0136272Y0254451D01*
X0136272Y0249520D01*
X0136975Y0248817D01*
X0137637Y0248817D01*
X0137637Y0246850D01*
X0140333Y0244154D01*
X0136975Y0244154D01*
X0136272Y0243451D01*
X0136272Y0238520D01*
X0136975Y0237817D01*
X0138183Y0237817D01*
X0138183Y0235967D01*
X0137705Y0235967D01*
X0137002Y0235264D01*
X0137002Y0230707D01*
X0137705Y0230004D01*
X0142262Y0230004D01*
X0142965Y0230707D01*
X0142965Y0235264D01*
X0142262Y0235967D01*
X0141783Y0235967D01*
X0141783Y0237817D01*
X0142299Y0237817D01*
X0142983Y0238501D01*
X0143667Y0237817D01*
X0148992Y0237817D01*
X0149695Y0238520D01*
X0149695Y0238986D01*
X0151455Y0238986D01*
X0151605Y0238836D01*
X0151283Y0238060D01*
X0151283Y0236111D01*
X0152029Y0234310D01*
X0153408Y0232932D01*
X0154383Y0232527D01*
X0154383Y0231931D01*
X0151238Y0228786D01*
X0133238Y0228786D01*
X0125238Y0220786D01*
X0124183Y0219731D01*
X0124183Y0155240D01*
X0125238Y0154186D01*
X0144183Y0135240D01*
X0144183Y0096240D01*
X0145238Y0095186D01*
X0182183Y0058240D01*
X0183238Y0057186D01*
X0189254Y0057186D01*
X0188829Y0056761D01*
X0188425Y0055786D01*
X0183729Y0055786D01*
X0142783Y0096731D01*
X0142783Y0135731D01*
X0141729Y0136786D01*
X0139783Y0138731D01*
X0138729Y0139786D01*
X0128605Y0139786D01*
X0128605Y0140105D01*
X0127556Y0141154D01*
X0123317Y0141154D01*
X0122268Y0140105D01*
X0122268Y0135866D01*
X0123317Y0134817D01*
X0127556Y0134817D01*
X0128605Y0135866D01*
X0128605Y0136186D01*
X0137238Y0136186D01*
X0139183Y0134240D01*
X0139183Y0095240D01*
X0181183Y0053240D01*
X0182238Y0052186D01*
X0188425Y0052186D01*
X0188829Y0051210D01*
X0189254Y0050786D01*
X0185965Y0050786D01*
X0185965Y0051264D01*
X0185262Y0051967D01*
X0180705Y0051967D01*
X0180002Y0051264D01*
X0180002Y0046707D01*
X0180705Y0046004D01*
X0185262Y0046004D01*
X0185965Y0046707D01*
X0185965Y0047186D01*
X0189254Y0047186D01*
X0188829Y0046761D01*
X0188083Y0044960D01*
X0188083Y0043011D01*
X0188829Y0041210D01*
X0190208Y0039832D01*
X0192009Y0039086D01*
X0193958Y0039086D01*
X0195759Y0039832D01*
X0197137Y0041210D01*
X0197883Y0043011D01*
X0197883Y0044960D01*
X0197137Y0046761D01*
X0196713Y0047186D01*
X0197238Y0047186D01*
X0198488Y0045936D01*
X0198083Y0044960D01*
X0198083Y0043011D01*
X0198829Y0041210D01*
X0200208Y0039832D01*
X0202009Y0039086D01*
X0203958Y0039086D01*
X0205759Y0039832D01*
X0207137Y0041210D01*
X0207883Y0043011D01*
X0207883Y0044960D01*
X0207137Y0046761D01*
X0205759Y0048140D01*
X0203958Y0048886D01*
X0202009Y0048886D01*
X0201033Y0048481D01*
X0198729Y0050786D01*
X0196713Y0050786D01*
X0197137Y0051210D01*
X0197883Y0053011D01*
X0197883Y0054960D01*
X0197137Y0056761D01*
X0196713Y0057186D01*
X0199254Y0057186D01*
X0198829Y0056761D01*
X0198083Y0054960D01*
X0198083Y0053011D01*
X0198829Y0051210D01*
X0200208Y0049832D01*
X0202009Y0049086D01*
X0203958Y0049086D01*
X0205759Y0049832D01*
X0207137Y0051210D01*
X0207883Y0053011D01*
X0207883Y0054960D01*
X0207137Y0056761D01*
X0206713Y0057186D01*
X0209729Y0057186D01*
X0210084Y0057541D01*
X0210084Y0010586D01*
X0176581Y0010586D01*
X0176581Y0021302D01*
X0175878Y0022004D01*
X0166616Y0022004D01*
X0165913Y0021302D01*
X0165913Y0010586D01*
X0122053Y0010586D01*
X0122053Y0021302D01*
X0121351Y0022004D01*
X0112089Y0022004D01*
X0111386Y0021302D01*
X0111386Y0010586D01*
X0091542Y0010586D01*
X0091542Y0022927D01*
X0090839Y0023630D01*
X0081577Y0023630D01*
X0080874Y0022927D01*
X0080874Y0010586D01*
X0057093Y0010586D01*
X0057093Y0022927D01*
X0056390Y0023630D01*
X0047128Y0023630D01*
X0046425Y0022927D01*
X0046425Y0010586D01*
X0009583Y0010586D01*
X0009583Y0112840D01*
X0010238Y0112186D01*
X0015955Y0112186D01*
X0015989Y0112152D02*
X0009583Y0112152D01*
X0009583Y0110953D02*
X0018083Y0110953D01*
X0018117Y0109755D02*
X0009583Y0109755D01*
X0009583Y0108556D02*
X0021214Y0108556D01*
X0019426Y0107358D02*
X0009583Y0107358D01*
X0009583Y0106159D02*
X0018580Y0106159D01*
X0018084Y0104961D02*
X0009583Y0104961D01*
X0009583Y0103762D02*
X0018083Y0103762D01*
X0018269Y0102564D02*
X0009583Y0102564D01*
X0009583Y0101365D02*
X0018765Y0101365D01*
X0019873Y0100167D02*
X0009583Y0100167D01*
X0009583Y0098968D02*
X0031274Y0098968D01*
X0029838Y0097770D02*
X0026129Y0097770D01*
X0025759Y0098140D02*
X0023958Y0098886D01*
X0022009Y0098886D01*
X0020208Y0098140D01*
X0018829Y0096761D01*
X0018083Y0094960D01*
X0018083Y0093011D01*
X0018829Y0091210D01*
X0020208Y0089832D01*
X0022009Y0089086D01*
X0023958Y0089086D01*
X0025759Y0089832D01*
X0027137Y0091210D01*
X0027883Y0093011D01*
X0027883Y0094960D01*
X0027137Y0096761D01*
X0025759Y0098140D01*
X0026094Y0100167D02*
X0029307Y0100167D01*
X0028370Y0101365D02*
X0027202Y0101365D01*
X0027698Y0102564D02*
X0027873Y0102564D01*
X0022983Y0103986D02*
X0027983Y0108986D01*
X0038983Y0108986D01*
X0041983Y0111986D01*
X0041983Y0165986D01*
X0044483Y0168486D01*
X0060683Y0168486D01*
X0060683Y0163486D02*
X0054733Y0163486D01*
X0054733Y0164896D01*
X0054842Y0165303D01*
X0055053Y0165668D01*
X0055351Y0165966D01*
X0055716Y0166177D01*
X0055739Y0166183D01*
X0055236Y0166686D01*
X0053026Y0166686D01*
X0053232Y0166480D01*
X0053443Y0166115D01*
X0053552Y0165708D01*
X0053552Y0163716D01*
X0050368Y0163716D01*
X0050368Y0162948D01*
X0053552Y0162948D01*
X0053552Y0160956D01*
X0053443Y0160549D01*
X0053291Y0160286D01*
X0055236Y0160286D01*
X0055739Y0160788D01*
X0055716Y0160795D01*
X0055351Y0161005D01*
X0055053Y0161303D01*
X0054842Y0161668D01*
X0054733Y0162075D01*
X0054733Y0163485D01*
X0060683Y0163485D01*
X0060683Y0163486D01*
X0060684Y0163486D02*
X0066633Y0163486D01*
X0066633Y0164896D01*
X0066524Y0165303D01*
X0066314Y0165668D01*
X0066016Y0165966D01*
X0065651Y0166177D01*
X0065628Y0166183D01*
X0066233Y0166788D01*
X0066233Y0170183D01*
X0065530Y0170886D01*
X0055836Y0170886D01*
X0055236Y0170286D01*
X0043738Y0170286D01*
X0041238Y0167786D01*
X0040183Y0166731D01*
X0040183Y0112731D01*
X0038238Y0110786D01*
X0037883Y0110786D01*
X0037883Y0118183D01*
X0037180Y0118886D01*
X0035783Y0118886D01*
X0035783Y0169447D01*
X0036184Y0169847D01*
X0036241Y0169986D01*
X0037158Y0169986D01*
X0044446Y0177274D01*
X0047449Y0177274D01*
X0048152Y0177977D01*
X0048152Y0178639D01*
X0050815Y0178639D01*
X0050815Y0177977D01*
X0051518Y0177274D01*
X0056449Y0177274D01*
X0057152Y0177977D01*
X0057152Y0178839D01*
X0059383Y0178839D01*
X0063729Y0183186D01*
X0068238Y0183186D01*
X0069183Y0182240D01*
X0069183Y0163731D01*
X0065934Y0160482D01*
X0065628Y0160788D01*
X0065651Y0160795D01*
X0066016Y0161005D01*
X0066314Y0161303D01*
X0066524Y0161668D01*
X0066633Y0162075D01*
X0066633Y0163485D01*
X0060684Y0163485D01*
X0060684Y0163486D01*
X0060683Y0158486D02*
X0066483Y0158486D01*
X0070983Y0162986D01*
X0070983Y0182986D01*
X0068983Y0184986D01*
X0113983Y0184986D01*
X0111002Y0182864D02*
X0072783Y0182864D01*
X0072783Y0181665D02*
X0115983Y0181665D01*
X0115983Y0180467D02*
X0072783Y0180467D01*
X0072783Y0179268D02*
X0084241Y0179268D01*
X0084182Y0179234D02*
X0083884Y0178936D01*
X0083750Y0178704D01*
X0083299Y0179154D01*
X0077975Y0179154D01*
X0077272Y0178451D01*
X0077272Y0173520D01*
X0077975Y0172817D01*
X0079283Y0172817D01*
X0079283Y0170886D01*
X0076436Y0170886D01*
X0075733Y0170183D01*
X0075733Y0166788D01*
X0076436Y0166086D01*
X0086130Y0166086D01*
X0086833Y0166788D01*
X0086833Y0170183D01*
X0086130Y0170886D01*
X0083283Y0170886D01*
X0083283Y0172817D01*
X0083299Y0172817D01*
X0083750Y0173267D01*
X0083884Y0173035D01*
X0084182Y0172737D01*
X0084547Y0172526D01*
X0084954Y0172417D01*
X0086946Y0172417D01*
X0086946Y0175601D01*
X0087714Y0175601D01*
X0087714Y0172417D01*
X0089706Y0172417D01*
X0090113Y0172526D01*
X0090478Y0172737D01*
X0090776Y0173035D01*
X0090986Y0173399D01*
X0091095Y0173806D01*
X0091095Y0175601D01*
X0087714Y0175601D01*
X0087714Y0176370D01*
X0086946Y0176370D01*
X0086946Y0179554D01*
X0084954Y0179554D01*
X0084547Y0179445D01*
X0084182Y0179234D01*
X0086946Y0179268D02*
X0087714Y0179268D01*
X0087714Y0179554D02*
X0087714Y0176370D01*
X0091095Y0176370D01*
X0091095Y0178165D01*
X0090986Y0178572D01*
X0090776Y0178936D01*
X0090478Y0179234D01*
X0090113Y0179445D01*
X0089706Y0179554D01*
X0087714Y0179554D01*
X0087714Y0178070D02*
X0086946Y0178070D01*
X0086946Y0176871D02*
X0087714Y0176871D01*
X0087714Y0175673D02*
X0115983Y0175673D01*
X0115983Y0176871D02*
X0091095Y0176871D01*
X0091095Y0178070D02*
X0115983Y0178070D01*
X0115983Y0179268D02*
X0090419Y0179268D01*
X0091095Y0174474D02*
X0115983Y0174474D01*
X0115445Y0173276D02*
X0090915Y0173276D01*
X0087714Y0173276D02*
X0086946Y0173276D01*
X0086946Y0174474D02*
X0087714Y0174474D01*
X0086137Y0170879D02*
X0113048Y0170879D01*
X0111850Y0169680D02*
X0086833Y0169680D01*
X0086833Y0168482D02*
X0110651Y0168482D01*
X0109453Y0167283D02*
X0086833Y0167283D01*
X0083283Y0172077D02*
X0114247Y0172077D01*
X0117507Y0169680D02*
X0118850Y0169680D01*
X0118983Y0170879D02*
X0118705Y0170879D01*
X0118812Y0170986D02*
X0118812Y0170986D01*
X0117651Y0168482D02*
X0116308Y0168482D01*
X0116453Y0167283D02*
X0115110Y0167283D01*
X0115254Y0166085D02*
X0113911Y0166085D01*
X0114056Y0164886D02*
X0112713Y0164886D01*
X0112857Y0163688D02*
X0111514Y0163688D01*
X0111659Y0162489D02*
X0110316Y0162489D01*
X0108254Y0166085D02*
X0072783Y0166085D01*
X0072783Y0167283D02*
X0075733Y0167283D01*
X0075733Y0168482D02*
X0072783Y0168482D01*
X0072783Y0169680D02*
X0075733Y0169680D01*
X0076430Y0170879D02*
X0072783Y0170879D01*
X0072783Y0172077D02*
X0079283Y0172077D01*
X0077516Y0173276D02*
X0072783Y0173276D01*
X0072783Y0174474D02*
X0077272Y0174474D01*
X0077272Y0175673D02*
X0072783Y0175673D01*
X0072783Y0176871D02*
X0077272Y0176871D01*
X0077272Y0178070D02*
X0072783Y0178070D01*
X0069183Y0178070D02*
X0057152Y0178070D01*
X0059812Y0179268D02*
X0069183Y0179268D01*
X0069183Y0180467D02*
X0061010Y0180467D01*
X0062209Y0181665D02*
X0069183Y0181665D01*
X0068559Y0182864D02*
X0063407Y0182864D01*
X0062983Y0184986D02*
X0068983Y0184986D01*
X0062983Y0184986D02*
X0058637Y0180639D01*
X0053983Y0180639D01*
X0050815Y0182864D02*
X0048152Y0182864D01*
X0048111Y0184063D02*
X0050856Y0184063D01*
X0050415Y0185261D02*
X0048552Y0185261D01*
X0048552Y0186460D02*
X0050415Y0186460D01*
X0050415Y0187716D02*
X0053599Y0187716D01*
X0053599Y0191097D01*
X0051804Y0191097D01*
X0051397Y0190988D01*
X0051032Y0190778D01*
X0050735Y0190480D01*
X0050524Y0190115D01*
X0050415Y0189708D01*
X0050415Y0187716D01*
X0050415Y0188857D02*
X0048552Y0188857D01*
X0048459Y0190055D02*
X0050508Y0190055D01*
X0053599Y0190055D02*
X0054368Y0190055D01*
X0054368Y0188857D02*
X0053599Y0188857D01*
X0053599Y0187658D02*
X0045368Y0187658D01*
X0044599Y0187658D02*
X0011783Y0187658D01*
X0011783Y0186460D02*
X0041415Y0186460D01*
X0041415Y0185261D02*
X0011783Y0185261D01*
X0011783Y0184063D02*
X0041856Y0184063D01*
X0041815Y0182864D02*
X0011783Y0182864D01*
X0011783Y0181665D02*
X0041815Y0181665D01*
X0041815Y0180467D02*
X0011783Y0180467D01*
X0011783Y0179268D02*
X0040784Y0179268D01*
X0039586Y0178070D02*
X0011783Y0178070D01*
X0011783Y0176871D02*
X0038387Y0176871D01*
X0037189Y0175673D02*
X0033945Y0175673D01*
X0032022Y0175673D02*
X0011783Y0175673D01*
X0011783Y0174474D02*
X0030134Y0174474D01*
X0029432Y0173276D02*
X0011783Y0173276D01*
X0011783Y0172077D02*
X0029209Y0172077D01*
X0029356Y0170879D02*
X0011783Y0170879D01*
X0011783Y0169680D02*
X0029950Y0169680D01*
X0030183Y0168482D02*
X0011783Y0168482D01*
X0011783Y0167283D02*
X0030183Y0167283D01*
X0030183Y0166085D02*
X0011783Y0166085D01*
X0011783Y0164886D02*
X0030183Y0164886D01*
X0030183Y0163688D02*
X0011783Y0163688D01*
X0011783Y0162489D02*
X0030183Y0162489D01*
X0030183Y0161291D02*
X0011783Y0161291D01*
X0011783Y0160092D02*
X0030183Y0160092D01*
X0030183Y0158894D02*
X0011783Y0158894D01*
X0011783Y0157695D02*
X0030183Y0157695D01*
X0030183Y0156497D02*
X0011783Y0156497D01*
X0011783Y0155298D02*
X0030183Y0155298D01*
X0030183Y0154100D02*
X0011783Y0154100D01*
X0011783Y0152901D02*
X0030183Y0152901D01*
X0029741Y0151703D02*
X0011783Y0151703D01*
X0011783Y0150504D02*
X0019412Y0150504D01*
X0017243Y0149306D02*
X0011783Y0149306D01*
X0011783Y0148107D02*
X0016107Y0148107D01*
X0015610Y0146909D02*
X0011783Y0146909D01*
X0011783Y0145710D02*
X0015283Y0145710D01*
X0015283Y0144512D02*
X0011783Y0144512D01*
X0011783Y0143313D02*
X0015507Y0143313D01*
X0016003Y0142115D02*
X0011783Y0142115D01*
X0011783Y0140916D02*
X0016992Y0140916D01*
X0018807Y0139718D02*
X0011783Y0139718D01*
X0011783Y0138519D02*
X0030183Y0138519D01*
X0030183Y0137321D02*
X0011783Y0137321D01*
X0011783Y0136122D02*
X0030183Y0136122D01*
X0030183Y0134924D02*
X0029152Y0134924D01*
X0029152Y0133725D02*
X0030183Y0133725D01*
X0030183Y0132527D02*
X0029152Y0132527D01*
X0029152Y0131328D02*
X0030183Y0131328D01*
X0030183Y0130130D02*
X0029152Y0130130D01*
X0028522Y0128931D02*
X0030183Y0128931D01*
X0030183Y0127732D02*
X0029152Y0127732D01*
X0025983Y0125639D02*
X0032637Y0125639D01*
X0032983Y0125986D01*
X0035783Y0126534D02*
X0040183Y0126534D01*
X0040183Y0127732D02*
X0035783Y0127732D01*
X0035783Y0128931D02*
X0040183Y0128931D01*
X0040183Y0130130D02*
X0035783Y0130130D01*
X0035783Y0131328D02*
X0040183Y0131328D01*
X0040183Y0132527D02*
X0035783Y0132527D01*
X0035783Y0133725D02*
X0040183Y0133725D01*
X0040183Y0134924D02*
X0035783Y0134924D01*
X0035783Y0136122D02*
X0040183Y0136122D01*
X0040183Y0137321D02*
X0035783Y0137321D01*
X0035783Y0138519D02*
X0040183Y0138519D01*
X0040183Y0139718D02*
X0035783Y0139718D01*
X0035783Y0140916D02*
X0040183Y0140916D01*
X0040183Y0142115D02*
X0035783Y0142115D01*
X0035783Y0143313D02*
X0040183Y0143313D01*
X0040183Y0144512D02*
X0035783Y0144512D01*
X0035783Y0145710D02*
X0040183Y0145710D01*
X0040183Y0146909D02*
X0035783Y0146909D01*
X0035783Y0148107D02*
X0040183Y0148107D01*
X0040183Y0149306D02*
X0035783Y0149306D01*
X0035783Y0150504D02*
X0040183Y0150504D01*
X0040183Y0151703D02*
X0035783Y0151703D01*
X0035783Y0152901D02*
X0040183Y0152901D01*
X0040183Y0154100D02*
X0035783Y0154100D01*
X0035783Y0155298D02*
X0040183Y0155298D01*
X0040183Y0156497D02*
X0035783Y0156497D01*
X0035783Y0157695D02*
X0040183Y0157695D01*
X0040183Y0158894D02*
X0035783Y0158894D01*
X0035783Y0160092D02*
X0040183Y0160092D01*
X0040183Y0161291D02*
X0035783Y0161291D01*
X0035783Y0162489D02*
X0040183Y0162489D01*
X0040183Y0163688D02*
X0035783Y0163688D01*
X0035783Y0164886D02*
X0040183Y0164886D01*
X0040183Y0166085D02*
X0035783Y0166085D01*
X0035783Y0167283D02*
X0040736Y0167283D01*
X0041934Y0168482D02*
X0035783Y0168482D01*
X0036017Y0169680D02*
X0043133Y0169680D01*
X0041647Y0174474D02*
X0069183Y0174474D01*
X0069183Y0173276D02*
X0040449Y0173276D01*
X0039250Y0172077D02*
X0069183Y0172077D01*
X0069183Y0170879D02*
X0065537Y0170879D01*
X0066233Y0169680D02*
X0069183Y0169680D01*
X0069183Y0168482D02*
X0066233Y0168482D01*
X0066233Y0167283D02*
X0069183Y0167283D01*
X0069183Y0166085D02*
X0065810Y0166085D01*
X0066633Y0164886D02*
X0069183Y0164886D01*
X0069140Y0163688D02*
X0066633Y0163688D01*
X0066633Y0162489D02*
X0067942Y0162489D01*
X0066743Y0161291D02*
X0066301Y0161291D01*
X0069437Y0158894D02*
X0075733Y0158894D01*
X0075733Y0160092D02*
X0070636Y0160092D01*
X0071834Y0161291D02*
X0076231Y0161291D01*
X0075733Y0162489D02*
X0072783Y0162489D01*
X0072783Y0163688D02*
X0075733Y0163688D01*
X0075733Y0164886D02*
X0072783Y0164886D01*
X0075733Y0157695D02*
X0068239Y0157695D01*
X0065942Y0156497D02*
X0076025Y0156497D01*
X0076436Y0155886D02*
X0075733Y0155183D01*
X0075733Y0151788D01*
X0076436Y0151086D01*
X0086130Y0151086D01*
X0086833Y0151788D01*
X0086833Y0155183D01*
X0086130Y0155886D01*
X0076436Y0155886D01*
X0075849Y0155298D02*
X0066118Y0155298D01*
X0066233Y0155183D02*
X0065530Y0155886D01*
X0055836Y0155886D01*
X0055133Y0155183D01*
X0055133Y0151788D01*
X0055836Y0151086D01*
X0058883Y0151086D01*
X0058883Y0147431D01*
X0056238Y0144786D01*
X0048238Y0144786D01*
X0047238Y0143786D01*
X0046183Y0142731D01*
X0046183Y0089731D01*
X0044238Y0087786D01*
X0043183Y0086731D01*
X0043183Y0066731D01*
X0037238Y0060786D01*
X0036713Y0060786D01*
X0037137Y0061210D01*
X0037883Y0063011D01*
X0037883Y0064960D01*
X0037137Y0066761D01*
X0035759Y0068140D01*
X0033958Y0068886D01*
X0032009Y0068886D01*
X0030208Y0068140D01*
X0028829Y0066761D01*
X0028083Y0064960D01*
X0028083Y0063011D01*
X0028829Y0061210D01*
X0029254Y0060786D01*
X0027238Y0060786D01*
X0024934Y0058481D01*
X0023958Y0058886D01*
X0022009Y0058886D01*
X0020208Y0058140D01*
X0018829Y0056761D01*
X0018083Y0054960D01*
X0018083Y0053011D01*
X0018829Y0051210D01*
X0020208Y0049832D01*
X0022009Y0049086D01*
X0023958Y0049086D01*
X0025759Y0049832D01*
X0027137Y0051210D01*
X0027883Y0053011D01*
X0027883Y0054960D01*
X0027479Y0055936D01*
X0028729Y0057186D01*
X0029254Y0057186D01*
X0028829Y0056761D01*
X0028083Y0054960D01*
X0028083Y0053011D01*
X0028829Y0051210D01*
X0030208Y0049832D01*
X0032009Y0049086D01*
X0033958Y0049086D01*
X0035759Y0049832D01*
X0037137Y0051210D01*
X0037883Y0053011D01*
X0037883Y0054960D01*
X0037137Y0056761D01*
X0036713Y0057186D01*
X0038729Y0057186D01*
X0039783Y0058240D01*
X0046783Y0065240D01*
X0046783Y0085240D01*
X0049783Y0088240D01*
X0049783Y0141186D01*
X0057729Y0141186D01*
X0058783Y0142240D01*
X0062483Y0145940D01*
X0062483Y0151086D01*
X0065530Y0151086D01*
X0066233Y0151788D01*
X0066233Y0155183D01*
X0066233Y0154100D02*
X0075733Y0154100D01*
X0075733Y0152901D02*
X0066233Y0152901D01*
X0066148Y0151703D02*
X0075819Y0151703D01*
X0086748Y0151703D02*
X0127721Y0151703D01*
X0128919Y0150504D02*
X0062483Y0150504D01*
X0062483Y0149306D02*
X0130118Y0149306D01*
X0131316Y0148107D02*
X0062483Y0148107D01*
X0062483Y0146909D02*
X0132515Y0146909D01*
X0133713Y0145710D02*
X0062254Y0145710D01*
X0061055Y0144512D02*
X0134912Y0144512D01*
X0136110Y0143313D02*
X0059857Y0143313D01*
X0058658Y0142115D02*
X0137309Y0142115D01*
X0138507Y0140916D02*
X0127794Y0140916D01*
X0125436Y0137986D02*
X0137983Y0137986D01*
X0140983Y0134986D01*
X0140983Y0095986D01*
X0182983Y0053986D01*
X0192983Y0053986D01*
X0188440Y0055822D02*
X0183693Y0055822D01*
X0182494Y0057020D02*
X0189089Y0057020D01*
X0189254Y0060786D02*
X0184729Y0060786D01*
X0147783Y0097731D01*
X0147783Y0136731D01*
X0146729Y0137786D01*
X0127783Y0156731D01*
X0127783Y0218240D01*
X0128183Y0218640D01*
X0128183Y0181240D01*
X0129238Y0180186D01*
X0140738Y0168686D01*
X0141236Y0168686D01*
X0141739Y0168183D01*
X0141716Y0168177D01*
X0141351Y0167966D01*
X0141053Y0167668D01*
X0140842Y0167303D01*
X0140733Y0166896D01*
X0140733Y0165486D01*
X0146683Y0165486D01*
X0146683Y0165485D01*
X0146683Y0165485D01*
X0146683Y0162686D01*
X0142123Y0162686D01*
X0141716Y0162795D01*
X0141351Y0163005D01*
X0141053Y0163303D01*
X0140842Y0163668D01*
X0140733Y0164075D01*
X0140733Y0165485D01*
X0146683Y0165485D01*
X0146683Y0162686D01*
X0151183Y0162686D01*
X0151183Y0097240D01*
X0185183Y0063240D01*
X0186238Y0062186D01*
X0188425Y0062186D01*
X0188829Y0061210D01*
X0189254Y0060786D01*
X0188579Y0061814D02*
X0183700Y0061814D01*
X0182502Y0063013D02*
X0185411Y0063013D01*
X0184212Y0064211D02*
X0181303Y0064211D01*
X0180105Y0065410D02*
X0183013Y0065410D01*
X0181815Y0066608D02*
X0178906Y0066608D01*
X0177708Y0067807D02*
X0180616Y0067807D01*
X0179418Y0069005D02*
X0176509Y0069005D01*
X0175311Y0070204D02*
X0178219Y0070204D01*
X0177021Y0071402D02*
X0174112Y0071402D01*
X0172914Y0072601D02*
X0175822Y0072601D01*
X0174624Y0073799D02*
X0171715Y0073799D01*
X0170517Y0074998D02*
X0173425Y0074998D01*
X0172227Y0076196D02*
X0169318Y0076196D01*
X0168120Y0077395D02*
X0171028Y0077395D01*
X0169830Y0078594D02*
X0166921Y0078594D01*
X0165723Y0079792D02*
X0168631Y0079792D01*
X0167433Y0080991D02*
X0164524Y0080991D01*
X0163325Y0082189D02*
X0166234Y0082189D01*
X0165036Y0083388D02*
X0162127Y0083388D01*
X0160928Y0084586D02*
X0163837Y0084586D01*
X0162639Y0085785D02*
X0159730Y0085785D01*
X0158531Y0086983D02*
X0161440Y0086983D01*
X0160242Y0088182D02*
X0157333Y0088182D01*
X0156134Y0089380D02*
X0159043Y0089380D01*
X0157845Y0090579D02*
X0154936Y0090579D01*
X0153737Y0091777D02*
X0156646Y0091777D01*
X0155448Y0092976D02*
X0152539Y0092976D01*
X0151340Y0094174D02*
X0154249Y0094174D01*
X0153051Y0095373D02*
X0150142Y0095373D01*
X0148943Y0096571D02*
X0151852Y0096571D01*
X0151183Y0097770D02*
X0147783Y0097770D01*
X0147783Y0098968D02*
X0151183Y0098968D01*
X0151183Y0100167D02*
X0147783Y0100167D01*
X0147783Y0101365D02*
X0151183Y0101365D01*
X0151183Y0102564D02*
X0147783Y0102564D01*
X0147783Y0103762D02*
X0151183Y0103762D01*
X0151183Y0104961D02*
X0147783Y0104961D01*
X0147783Y0106159D02*
X0151183Y0106159D01*
X0151183Y0107358D02*
X0147783Y0107358D01*
X0147783Y0108556D02*
X0151183Y0108556D01*
X0151183Y0109755D02*
X0147783Y0109755D01*
X0147783Y0110953D02*
X0151183Y0110953D01*
X0151183Y0112152D02*
X0147783Y0112152D01*
X0147783Y0113350D02*
X0151183Y0113350D01*
X0151183Y0114549D02*
X0147783Y0114549D01*
X0147783Y0115747D02*
X0151183Y0115747D01*
X0151183Y0116946D02*
X0147783Y0116946D01*
X0147783Y0118144D02*
X0151183Y0118144D01*
X0151183Y0119343D02*
X0147783Y0119343D01*
X0147783Y0120541D02*
X0151183Y0120541D01*
X0151183Y0121740D02*
X0147783Y0121740D01*
X0147783Y0122938D02*
X0151183Y0122938D01*
X0151183Y0124137D02*
X0147783Y0124137D01*
X0147783Y0125335D02*
X0151183Y0125335D01*
X0151183Y0126534D02*
X0147783Y0126534D01*
X0147783Y0127732D02*
X0151183Y0127732D01*
X0151183Y0128931D02*
X0147783Y0128931D01*
X0147783Y0130130D02*
X0151183Y0130130D01*
X0151183Y0131328D02*
X0147783Y0131328D01*
X0147783Y0132527D02*
X0151183Y0132527D01*
X0151183Y0133725D02*
X0147783Y0133725D01*
X0147783Y0134924D02*
X0151183Y0134924D01*
X0151183Y0136122D02*
X0147783Y0136122D01*
X0147194Y0137321D02*
X0151183Y0137321D01*
X0151183Y0138519D02*
X0145995Y0138519D01*
X0144797Y0139718D02*
X0151183Y0139718D01*
X0151183Y0140916D02*
X0143598Y0140916D01*
X0142400Y0142115D02*
X0151183Y0142115D01*
X0151183Y0143313D02*
X0141201Y0143313D01*
X0140003Y0144512D02*
X0151183Y0144512D01*
X0151183Y0145710D02*
X0138804Y0145710D01*
X0137606Y0146909D02*
X0151183Y0146909D01*
X0151183Y0148107D02*
X0136407Y0148107D01*
X0135209Y0149306D02*
X0151183Y0149306D01*
X0151183Y0150504D02*
X0134010Y0150504D01*
X0132812Y0151703D02*
X0151183Y0151703D01*
X0151183Y0152901D02*
X0131613Y0152901D01*
X0130415Y0154100D02*
X0151183Y0154100D01*
X0151183Y0155298D02*
X0129216Y0155298D01*
X0128018Y0156497D02*
X0151183Y0156497D01*
X0151183Y0157695D02*
X0127783Y0157695D01*
X0127783Y0158894D02*
X0151183Y0158894D01*
X0151183Y0160092D02*
X0127783Y0160092D01*
X0127783Y0161291D02*
X0151183Y0161291D01*
X0151183Y0162489D02*
X0127783Y0162489D01*
X0127783Y0163688D02*
X0140837Y0163688D01*
X0140733Y0164886D02*
X0127783Y0164886D01*
X0127783Y0166085D02*
X0140733Y0166085D01*
X0140837Y0167283D02*
X0127783Y0167283D01*
X0127783Y0168482D02*
X0141440Y0168482D01*
X0141483Y0170486D02*
X0129983Y0181986D01*
X0129983Y0217986D01*
X0135983Y0223986D01*
X0183983Y0223986D01*
X0186983Y0220986D01*
X0186983Y0215986D01*
X0188983Y0213986D01*
X0192350Y0213986D01*
X0192653Y0213289D01*
X0192271Y0208986D02*
X0188983Y0208986D01*
X0183983Y0213986D01*
X0183983Y0218986D01*
X0181983Y0220986D01*
X0137983Y0220986D01*
X0133983Y0216986D01*
X0133983Y0206986D01*
X0133983Y0205986D01*
X0133983Y0182986D01*
X0141483Y0175486D01*
X0146683Y0175486D01*
X0146683Y0180486D02*
X0152483Y0180486D01*
X0152983Y0179986D01*
X0152983Y0097986D01*
X0186983Y0063986D01*
X0192983Y0063986D01*
X0189875Y0067807D02*
X0185708Y0067807D01*
X0186906Y0066608D02*
X0188766Y0066608D01*
X0189835Y0070204D02*
X0183311Y0070204D01*
X0184509Y0069005D02*
X0208183Y0069005D01*
X0208183Y0067807D02*
X0206092Y0067807D01*
X0207201Y0066608D02*
X0208183Y0066608D01*
X0208183Y0065410D02*
X0207697Y0065410D01*
X0207883Y0064211D02*
X0208183Y0064211D01*
X0208183Y0063013D02*
X0207883Y0063013D01*
X0208183Y0061814D02*
X0207388Y0061814D01*
X0209983Y0059986D02*
X0209983Y0072986D01*
X0208983Y0073986D01*
X0202983Y0073986D01*
X0199463Y0077395D02*
X0196504Y0077395D01*
X0197371Y0076196D02*
X0198595Y0076196D01*
X0198099Y0074998D02*
X0197868Y0074998D01*
X0197883Y0073799D02*
X0198083Y0073799D01*
X0198253Y0072601D02*
X0197714Y0072601D01*
X0197217Y0071402D02*
X0198750Y0071402D01*
X0199835Y0070204D02*
X0196131Y0070204D01*
X0196092Y0067807D02*
X0199875Y0067807D01*
X0198766Y0066608D02*
X0197201Y0066608D01*
X0197697Y0065410D02*
X0198270Y0065410D01*
X0198083Y0064211D02*
X0197883Y0064211D01*
X0197883Y0063013D02*
X0198083Y0063013D01*
X0198579Y0061814D02*
X0197388Y0061814D01*
X0196878Y0057020D02*
X0199089Y0057020D01*
X0198440Y0055822D02*
X0197527Y0055822D01*
X0197883Y0054623D02*
X0198083Y0054623D01*
X0198083Y0053425D02*
X0197883Y0053425D01*
X0197558Y0052226D02*
X0198408Y0052226D01*
X0199012Y0051028D02*
X0196955Y0051028D01*
X0197983Y0048986D02*
X0202983Y0043986D01*
X0201394Y0048631D02*
X0200884Y0048631D01*
X0200213Y0049829D02*
X0199685Y0049829D01*
X0197983Y0048986D02*
X0182983Y0048986D01*
X0180002Y0048631D02*
X0177884Y0048631D01*
X0177783Y0048731D02*
X0177783Y0055731D01*
X0137783Y0095731D01*
X0137783Y0124731D01*
X0136729Y0125786D01*
X0133729Y0128786D01*
X0128605Y0128786D01*
X0128605Y0129105D01*
X0127556Y0130154D01*
X0123317Y0130154D01*
X0122268Y0129105D01*
X0122268Y0124866D01*
X0123317Y0123817D01*
X0127556Y0123817D01*
X0128605Y0124866D01*
X0128605Y0125186D01*
X0132238Y0125186D01*
X0134183Y0123240D01*
X0134183Y0094240D01*
X0146638Y0081786D01*
X0130783Y0081786D01*
X0130783Y0113004D01*
X0131262Y0113004D01*
X0131965Y0113707D01*
X0131965Y0118264D01*
X0131262Y0118967D01*
X0126705Y0118967D01*
X0126002Y0118264D01*
X0126002Y0113707D01*
X0126705Y0113004D01*
X0127183Y0113004D01*
X0127183Y0080731D01*
X0124238Y0077786D01*
X0123183Y0076731D01*
X0123183Y0027346D01*
X0123984Y0026545D01*
X0123984Y0022670D01*
X0124687Y0021967D01*
X0128831Y0021967D01*
X0129220Y0022355D01*
X0129608Y0021967D01*
X0133752Y0021967D01*
X0134141Y0022355D01*
X0134530Y0021967D01*
X0138673Y0021967D01*
X0139062Y0022355D01*
X0139451Y0021967D01*
X0143595Y0021967D01*
X0143983Y0022355D01*
X0144372Y0021967D01*
X0148516Y0021967D01*
X0148905Y0022355D01*
X0149293Y0021967D01*
X0153437Y0021967D01*
X0153826Y0022355D01*
X0154215Y0021967D01*
X0158358Y0021967D01*
X0158464Y0022073D01*
X0158651Y0021886D01*
X0159015Y0021676D01*
X0159422Y0021567D01*
X0161020Y0021567D01*
X0161020Y0026129D01*
X0161395Y0026129D01*
X0161395Y0021567D01*
X0162993Y0021567D01*
X0163400Y0021676D01*
X0163765Y0021886D01*
X0164063Y0022184D01*
X0164274Y0022549D01*
X0164383Y0022956D01*
X0164383Y0026129D01*
X0161395Y0026129D01*
X0161395Y0026504D01*
X0161020Y0026504D01*
X0161020Y0031066D01*
X0159422Y0031066D01*
X0159015Y0030957D01*
X0158651Y0030746D01*
X0158464Y0030560D01*
X0158358Y0030666D01*
X0154215Y0030666D01*
X0153826Y0030277D01*
X0153437Y0030666D01*
X0149492Y0030666D01*
X0157983Y0039157D01*
X0157983Y0048814D01*
X0156812Y0049986D01*
X0153812Y0052986D01*
X0146155Y0052986D01*
X0144983Y0051814D01*
X0142483Y0049314D01*
X0142483Y0047933D01*
X0142083Y0047533D01*
X0142083Y0037838D01*
X0142786Y0037136D01*
X0144305Y0037136D01*
X0143983Y0036814D01*
X0139523Y0032353D01*
X0139523Y0030666D01*
X0139451Y0030666D01*
X0139062Y0030277D01*
X0138673Y0030666D01*
X0138602Y0030666D01*
X0138602Y0033775D01*
X0140812Y0035986D01*
X0141983Y0037157D01*
X0141983Y0043014D01*
X0141883Y0043114D01*
X0141883Y0047533D01*
X0141180Y0048236D01*
X0137786Y0048236D01*
X0137083Y0047533D01*
X0137083Y0037914D01*
X0134602Y0035432D01*
X0134602Y0030666D01*
X0134530Y0030666D01*
X0134141Y0030277D01*
X0133752Y0030666D01*
X0133680Y0030666D01*
X0133680Y0037136D01*
X0136180Y0037136D01*
X0136883Y0037838D01*
X0136883Y0047533D01*
X0136180Y0048236D01*
X0132786Y0048236D01*
X0132083Y0047533D01*
X0132083Y0043114D01*
X0129680Y0040711D01*
X0129680Y0030666D01*
X0129608Y0030666D01*
X0129220Y0030277D01*
X0128831Y0030666D01*
X0126783Y0030666D01*
X0126783Y0075240D01*
X0129729Y0078186D01*
X0145238Y0078186D01*
X0147683Y0075740D01*
X0147683Y0074545D01*
X0147262Y0074967D01*
X0142705Y0074967D01*
X0142002Y0074264D01*
X0142002Y0069707D01*
X0142483Y0069226D01*
X0142483Y0068533D01*
X0142083Y0068133D01*
X0142083Y0058438D01*
X0142786Y0057736D01*
X0146180Y0057736D01*
X0146883Y0058438D01*
X0146883Y0068133D01*
X0146483Y0068533D01*
X0146483Y0069004D01*
X0147262Y0069004D01*
X0147683Y0069426D01*
X0147683Y0068733D01*
X0147083Y0068133D01*
X0147083Y0058438D01*
X0147786Y0057736D01*
X0151180Y0057736D01*
X0151883Y0058438D01*
X0151883Y0068133D01*
X0151283Y0068733D01*
X0151283Y0077140D01*
X0174183Y0054240D01*
X0174183Y0047240D01*
X0184183Y0037240D01*
X0185238Y0036186D01*
X0188238Y0036186D01*
X0188488Y0035936D01*
X0188083Y0034960D01*
X0188083Y0033011D01*
X0188829Y0031210D01*
X0190208Y0029832D01*
X0192009Y0029086D01*
X0193958Y0029086D01*
X0195759Y0029832D01*
X0197137Y0031210D01*
X0197883Y0033011D01*
X0197883Y0034960D01*
X0197137Y0036761D01*
X0195759Y0038140D01*
X0193958Y0038886D01*
X0192009Y0038886D01*
X0191033Y0038481D01*
X0189729Y0039786D01*
X0186729Y0039786D01*
X0177783Y0048731D01*
X0177783Y0049829D02*
X0180002Y0049829D01*
X0180002Y0051028D02*
X0177783Y0051028D01*
X0177783Y0052226D02*
X0182197Y0052226D01*
X0180999Y0053425D02*
X0177783Y0053425D01*
X0177783Y0054623D02*
X0179800Y0054623D01*
X0178602Y0055822D02*
X0177693Y0055822D01*
X0177403Y0057020D02*
X0176494Y0057020D01*
X0176205Y0058219D02*
X0175296Y0058219D01*
X0175006Y0059417D02*
X0174097Y0059417D01*
X0173808Y0060616D02*
X0172899Y0060616D01*
X0172609Y0061814D02*
X0171700Y0061814D01*
X0171411Y0063013D02*
X0170502Y0063013D01*
X0170212Y0064211D02*
X0169303Y0064211D01*
X0169013Y0065410D02*
X0168105Y0065410D01*
X0167815Y0066608D02*
X0166906Y0066608D01*
X0166616Y0067807D02*
X0165708Y0067807D01*
X0165418Y0069005D02*
X0164509Y0069005D01*
X0164219Y0070204D02*
X0163311Y0070204D01*
X0163021Y0071402D02*
X0162112Y0071402D01*
X0161822Y0072601D02*
X0160914Y0072601D01*
X0160624Y0073799D02*
X0159715Y0073799D01*
X0159425Y0074998D02*
X0158517Y0074998D01*
X0158227Y0076196D02*
X0157318Y0076196D01*
X0157028Y0077395D02*
X0156120Y0077395D01*
X0155830Y0078594D02*
X0154921Y0078594D01*
X0154631Y0079792D02*
X0153723Y0079792D01*
X0153433Y0080991D02*
X0152524Y0080991D01*
X0152234Y0082189D02*
X0151325Y0082189D01*
X0151036Y0083388D02*
X0150127Y0083388D01*
X0149837Y0084586D02*
X0148928Y0084586D01*
X0148639Y0085785D02*
X0147730Y0085785D01*
X0147440Y0086983D02*
X0146531Y0086983D01*
X0146242Y0088182D02*
X0145333Y0088182D01*
X0145043Y0089380D02*
X0144134Y0089380D01*
X0143845Y0090579D02*
X0142936Y0090579D01*
X0142646Y0091777D02*
X0141737Y0091777D01*
X0141448Y0092976D02*
X0140539Y0092976D01*
X0140249Y0094174D02*
X0139340Y0094174D01*
X0139183Y0095373D02*
X0138142Y0095373D01*
X0137783Y0096571D02*
X0139183Y0096571D01*
X0139183Y0097770D02*
X0137783Y0097770D01*
X0137783Y0098968D02*
X0139183Y0098968D01*
X0139183Y0100167D02*
X0137783Y0100167D01*
X0137783Y0101365D02*
X0139183Y0101365D01*
X0139183Y0102564D02*
X0137783Y0102564D01*
X0137783Y0103762D02*
X0139183Y0103762D01*
X0139183Y0104961D02*
X0137783Y0104961D01*
X0137783Y0106159D02*
X0139183Y0106159D01*
X0139183Y0107358D02*
X0137783Y0107358D01*
X0137783Y0108556D02*
X0139183Y0108556D01*
X0139183Y0109755D02*
X0137783Y0109755D01*
X0137783Y0110953D02*
X0139183Y0110953D01*
X0139183Y0112152D02*
X0137783Y0112152D01*
X0137783Y0113350D02*
X0139183Y0113350D01*
X0139183Y0114549D02*
X0137783Y0114549D01*
X0137783Y0115747D02*
X0139183Y0115747D01*
X0139183Y0116946D02*
X0137783Y0116946D01*
X0137783Y0118144D02*
X0139183Y0118144D01*
X0139183Y0119343D02*
X0137783Y0119343D01*
X0137783Y0120541D02*
X0139183Y0120541D01*
X0139183Y0121740D02*
X0137783Y0121740D01*
X0137783Y0122938D02*
X0139183Y0122938D01*
X0139183Y0124137D02*
X0137783Y0124137D01*
X0137179Y0125335D02*
X0139183Y0125335D01*
X0139183Y0126534D02*
X0135981Y0126534D01*
X0136729Y0125786D02*
X0136729Y0125786D01*
X0135983Y0123986D02*
X0135983Y0094986D01*
X0175983Y0054986D01*
X0175983Y0047986D01*
X0185983Y0037986D01*
X0188983Y0037986D01*
X0192983Y0033986D01*
X0196581Y0030653D02*
X0199386Y0030653D01*
X0198829Y0031210D02*
X0198083Y0033011D01*
X0198083Y0034960D01*
X0198829Y0036761D01*
X0200208Y0038140D01*
X0202009Y0038886D01*
X0203958Y0038886D01*
X0205759Y0038140D01*
X0207137Y0036761D01*
X0207883Y0034960D01*
X0207883Y0033011D01*
X0207137Y0031210D01*
X0205759Y0029832D01*
X0203958Y0029086D01*
X0202009Y0029086D01*
X0200208Y0029832D01*
X0198829Y0031210D01*
X0198564Y0031852D02*
X0197403Y0031852D01*
X0197883Y0033050D02*
X0198083Y0033050D01*
X0198083Y0034249D02*
X0197883Y0034249D01*
X0197682Y0035447D02*
X0198285Y0035447D01*
X0198782Y0036646D02*
X0197185Y0036646D01*
X0196054Y0037844D02*
X0199912Y0037844D01*
X0199798Y0040241D02*
X0196169Y0040241D01*
X0197233Y0041440D02*
X0198734Y0041440D01*
X0198238Y0042638D02*
X0197729Y0042638D01*
X0197883Y0043837D02*
X0198083Y0043837D01*
X0198114Y0045035D02*
X0197852Y0045035D01*
X0198190Y0046234D02*
X0197356Y0046234D01*
X0204573Y0048631D02*
X0210084Y0048631D01*
X0210084Y0049829D02*
X0205753Y0049829D01*
X0206955Y0051028D02*
X0210084Y0051028D01*
X0210084Y0052226D02*
X0207558Y0052226D01*
X0207883Y0053425D02*
X0210084Y0053425D01*
X0210084Y0054623D02*
X0207883Y0054623D01*
X0207527Y0055822D02*
X0210084Y0055822D01*
X0210084Y0057020D02*
X0206878Y0057020D01*
X0208983Y0058986D02*
X0209983Y0059986D01*
X0208983Y0058986D02*
X0183983Y0058986D01*
X0145983Y0096986D01*
X0145983Y0135986D01*
X0125983Y0155986D01*
X0125983Y0218986D01*
X0133983Y0226986D01*
X0151983Y0226986D01*
X0156183Y0231186D01*
X0156183Y0237086D01*
X0159229Y0233201D02*
X0178738Y0233201D01*
X0177592Y0234400D02*
X0160375Y0234400D01*
X0157983Y0232003D02*
X0196965Y0232003D01*
X0196965Y0233201D02*
X0184829Y0233201D01*
X0185975Y0234400D02*
X0196965Y0234400D01*
X0196965Y0235598D02*
X0186471Y0235598D01*
X0186683Y0236797D02*
X0196965Y0236797D01*
X0197159Y0237996D02*
X0186683Y0237996D01*
X0186214Y0239194D02*
X0210084Y0239194D01*
X0210084Y0240393D02*
X0185406Y0240393D01*
X0183710Y0241591D02*
X0210084Y0241591D01*
X0210084Y0242790D02*
X0153308Y0242790D01*
X0149158Y0243988D02*
X0210084Y0243988D01*
X0210084Y0245187D02*
X0144957Y0245187D01*
X0143759Y0246385D02*
X0210084Y0246385D01*
X0210084Y0247584D02*
X0142560Y0247584D01*
X0143137Y0248782D02*
X0141637Y0248782D01*
X0138102Y0246385D02*
X0120679Y0246385D01*
X0120679Y0245187D02*
X0139300Y0245187D01*
X0136809Y0243988D02*
X0120679Y0243988D01*
X0120983Y0242790D02*
X0136272Y0242790D01*
X0136272Y0241591D02*
X0120983Y0241591D01*
X0120679Y0240393D02*
X0136272Y0240393D01*
X0136272Y0239194D02*
X0120679Y0239194D01*
X0119905Y0237996D02*
X0136796Y0237996D01*
X0138183Y0236797D02*
X0119905Y0236797D01*
X0119905Y0235598D02*
X0137337Y0235598D01*
X0137002Y0234400D02*
X0119905Y0234400D01*
X0119905Y0233201D02*
X0137002Y0233201D01*
X0137002Y0232003D02*
X0119905Y0232003D01*
X0119905Y0230804D02*
X0137002Y0230804D01*
X0139983Y0232986D02*
X0139983Y0240639D01*
X0139637Y0240986D01*
X0142478Y0237996D02*
X0143489Y0237996D01*
X0141783Y0236797D02*
X0151283Y0236797D01*
X0151283Y0237996D02*
X0149171Y0237996D01*
X0151496Y0235598D02*
X0142630Y0235598D01*
X0142965Y0234400D02*
X0151992Y0234400D01*
X0153138Y0233201D02*
X0142965Y0233201D01*
X0142965Y0232003D02*
X0154383Y0232003D01*
X0153257Y0230804D02*
X0142965Y0230804D01*
X0152058Y0229606D02*
X0119905Y0229606D01*
X0119905Y0228407D02*
X0132860Y0228407D01*
X0131661Y0227209D02*
X0119905Y0227209D01*
X0119905Y0226010D02*
X0130463Y0226010D01*
X0129264Y0224812D02*
X0119905Y0224812D01*
X0120184Y0223613D02*
X0128066Y0223613D01*
X0126867Y0222415D02*
X0121383Y0222415D01*
X0122581Y0221216D02*
X0125669Y0221216D01*
X0124470Y0220018D02*
X0122983Y0220018D01*
X0122983Y0218819D02*
X0124183Y0218819D01*
X0124183Y0217621D02*
X0122983Y0217621D01*
X0122983Y0216422D02*
X0124183Y0216422D01*
X0124183Y0215224D02*
X0122983Y0215224D01*
X0122983Y0214025D02*
X0124183Y0214025D01*
X0124183Y0212827D02*
X0122983Y0212827D01*
X0122983Y0211628D02*
X0124183Y0211628D01*
X0124183Y0210430D02*
X0122983Y0210430D01*
X0122983Y0209231D02*
X0124183Y0209231D01*
X0124183Y0208033D02*
X0122983Y0208033D01*
X0122983Y0206834D02*
X0124183Y0206834D01*
X0124183Y0205636D02*
X0122983Y0205636D01*
X0122983Y0204437D02*
X0124183Y0204437D01*
X0124183Y0203239D02*
X0122983Y0203239D01*
X0122983Y0202040D02*
X0124183Y0202040D01*
X0124183Y0200842D02*
X0122983Y0200842D01*
X0122983Y0199643D02*
X0124183Y0199643D01*
X0124183Y0198445D02*
X0122983Y0198445D01*
X0122983Y0197246D02*
X0124183Y0197246D01*
X0124183Y0196048D02*
X0122983Y0196048D01*
X0122983Y0194849D02*
X0124183Y0194849D01*
X0124183Y0193651D02*
X0122983Y0193651D01*
X0122983Y0192452D02*
X0124183Y0192452D01*
X0124183Y0191254D02*
X0122983Y0191254D01*
X0122983Y0190055D02*
X0124183Y0190055D01*
X0124183Y0188857D02*
X0122983Y0188857D01*
X0122983Y0187658D02*
X0124183Y0187658D01*
X0124183Y0186460D02*
X0122983Y0186460D01*
X0122983Y0185261D02*
X0124183Y0185261D01*
X0124183Y0184063D02*
X0122983Y0184063D01*
X0122983Y0182864D02*
X0124183Y0182864D01*
X0124183Y0181665D02*
X0122983Y0181665D01*
X0122983Y0180467D02*
X0124183Y0180467D01*
X0124183Y0179268D02*
X0122983Y0179268D01*
X0122983Y0178070D02*
X0124183Y0178070D01*
X0124183Y0176871D02*
X0122983Y0176871D01*
X0122983Y0175673D02*
X0124183Y0175673D01*
X0124183Y0174474D02*
X0122983Y0174474D01*
X0122983Y0173276D02*
X0124183Y0173276D01*
X0124183Y0172077D02*
X0122983Y0172077D01*
X0122983Y0170879D02*
X0124183Y0170879D01*
X0124183Y0169680D02*
X0122983Y0169680D01*
X0122983Y0168482D02*
X0124183Y0168482D01*
X0124183Y0167283D02*
X0122110Y0167283D01*
X0120911Y0166085D02*
X0124183Y0166085D01*
X0124183Y0164886D02*
X0119713Y0164886D01*
X0118514Y0163688D02*
X0124183Y0163688D01*
X0124183Y0162489D02*
X0117316Y0162489D01*
X0116117Y0161291D02*
X0124183Y0161291D01*
X0124183Y0160092D02*
X0114919Y0160092D01*
X0113720Y0158894D02*
X0124183Y0158894D01*
X0124183Y0157695D02*
X0094522Y0157695D01*
X0093323Y0156497D02*
X0124183Y0156497D01*
X0124183Y0155298D02*
X0086718Y0155298D01*
X0086833Y0154100D02*
X0125324Y0154100D01*
X0126522Y0152901D02*
X0086833Y0152901D01*
X0086336Y0161291D02*
X0092460Y0161291D01*
X0099051Y0141642D02*
X0098686Y0141431D01*
X0098388Y0141133D01*
X0098177Y0140768D01*
X0098068Y0140362D01*
X0098068Y0138370D01*
X0101253Y0138370D01*
X0101253Y0141751D01*
X0099458Y0141751D01*
X0099051Y0141642D01*
X0098263Y0140916D02*
X0049783Y0140916D01*
X0049783Y0139718D02*
X0098068Y0139718D01*
X0098068Y0138519D02*
X0049783Y0138519D01*
X0049783Y0137321D02*
X0098068Y0137321D01*
X0098068Y0137601D02*
X0098068Y0135610D01*
X0098177Y0135203D01*
X0098388Y0134838D01*
X0098686Y0134540D01*
X0099051Y0134329D01*
X0099458Y0134220D01*
X0101253Y0134220D01*
X0101253Y0137601D01*
X0102021Y0137601D01*
X0102021Y0134220D01*
X0103816Y0134220D01*
X0104223Y0134329D01*
X0104588Y0134540D01*
X0104886Y0134838D01*
X0105096Y0135203D01*
X0105161Y0135445D01*
X0105161Y0135323D01*
X0105864Y0134620D01*
X0110795Y0134620D01*
X0111498Y0135323D01*
X0111498Y0136186D01*
X0115362Y0136186D01*
X0115362Y0135866D01*
X0116411Y0134817D01*
X0120650Y0134817D01*
X0121699Y0135866D01*
X0121699Y0140105D01*
X0120650Y0141154D01*
X0116411Y0141154D01*
X0115362Y0140105D01*
X0115362Y0139786D01*
X0111498Y0139786D01*
X0111498Y0140648D01*
X0110795Y0141351D01*
X0105864Y0141351D01*
X0105161Y0140648D01*
X0105161Y0140526D01*
X0105096Y0140768D01*
X0104886Y0141133D01*
X0104588Y0141431D01*
X0104223Y0141642D01*
X0103816Y0141751D01*
X0102021Y0141751D01*
X0102021Y0138370D01*
X0101253Y0138370D01*
X0101253Y0137601D01*
X0098068Y0137601D01*
X0098068Y0136122D02*
X0049783Y0136122D01*
X0049783Y0134924D02*
X0098339Y0134924D01*
X0101253Y0134924D02*
X0102021Y0134924D01*
X0102021Y0136122D02*
X0101253Y0136122D01*
X0101253Y0137321D02*
X0102021Y0137321D01*
X0102021Y0138519D02*
X0101253Y0138519D01*
X0101253Y0139718D02*
X0102021Y0139718D01*
X0102021Y0140916D02*
X0101253Y0140916D01*
X0105011Y0140916D02*
X0105430Y0140916D01*
X0108330Y0137986D02*
X0118531Y0137986D01*
X0121699Y0138519D02*
X0122268Y0138519D01*
X0122268Y0137321D02*
X0121699Y0137321D01*
X0121699Y0136122D02*
X0122268Y0136122D01*
X0123210Y0134924D02*
X0120757Y0134924D01*
X0116305Y0134924D02*
X0111099Y0134924D01*
X0111498Y0136122D02*
X0115362Y0136122D01*
X0116173Y0140916D02*
X0111230Y0140916D01*
X0105561Y0134924D02*
X0104935Y0134924D01*
X0103816Y0129751D02*
X0102021Y0129751D01*
X0102021Y0126370D01*
X0101253Y0126370D01*
X0101253Y0129751D01*
X0099458Y0129751D01*
X0099051Y0129642D01*
X0098686Y0129431D01*
X0098388Y0129133D01*
X0098177Y0128768D01*
X0098068Y0128362D01*
X0098068Y0126370D01*
X0101253Y0126370D01*
X0101253Y0125601D01*
X0102021Y0125601D01*
X0102021Y0122220D01*
X0103816Y0122220D01*
X0104223Y0122329D01*
X0104588Y0122540D01*
X0104886Y0122838D01*
X0105096Y0123203D01*
X0105161Y0123445D01*
X0105161Y0123323D01*
X0105864Y0122620D01*
X0110795Y0122620D01*
X0111498Y0123323D01*
X0111498Y0124186D01*
X0116043Y0124186D01*
X0116411Y0123817D01*
X0120650Y0123817D01*
X0121699Y0124866D01*
X0121699Y0129105D01*
X0120650Y0130154D01*
X0116411Y0130154D01*
X0115362Y0129105D01*
X0115362Y0127786D01*
X0111498Y0127786D01*
X0111498Y0128648D01*
X0110795Y0129351D01*
X0105864Y0129351D01*
X0105161Y0128648D01*
X0105161Y0128526D01*
X0105096Y0128768D01*
X0104886Y0129133D01*
X0104588Y0129431D01*
X0104223Y0129642D01*
X0103816Y0129751D01*
X0105003Y0128931D02*
X0105444Y0128931D01*
X0102021Y0128931D02*
X0101253Y0128931D01*
X0101253Y0127732D02*
X0102021Y0127732D01*
X0102021Y0126534D02*
X0101253Y0126534D01*
X0101253Y0125601D02*
X0098068Y0125601D01*
X0098068Y0123610D01*
X0098177Y0123203D01*
X0098388Y0122838D01*
X0098686Y0122540D01*
X0099051Y0122329D01*
X0099458Y0122220D01*
X0101253Y0122220D01*
X0101253Y0125601D01*
X0101253Y0125335D02*
X0102021Y0125335D01*
X0102021Y0124137D02*
X0101253Y0124137D01*
X0101253Y0122938D02*
X0102021Y0122938D01*
X0104944Y0122938D02*
X0105546Y0122938D01*
X0108330Y0125986D02*
X0117531Y0125986D01*
X0118531Y0126986D01*
X0121699Y0126534D02*
X0122268Y0126534D01*
X0122268Y0127732D02*
X0121699Y0127732D01*
X0121699Y0128931D02*
X0122268Y0128931D01*
X0123292Y0130130D02*
X0120675Y0130130D01*
X0116386Y0130130D02*
X0049783Y0130130D01*
X0049783Y0131328D02*
X0139183Y0131328D01*
X0139183Y0130130D02*
X0127580Y0130130D01*
X0128605Y0128931D02*
X0139183Y0128931D01*
X0139183Y0127732D02*
X0134782Y0127732D01*
X0132983Y0126986D02*
X0135983Y0123986D01*
X0134183Y0122938D02*
X0111114Y0122938D01*
X0111498Y0124137D02*
X0116091Y0124137D01*
X0115362Y0128931D02*
X0111215Y0128931D01*
X0120970Y0124137D02*
X0122997Y0124137D01*
X0122268Y0125335D02*
X0121699Y0125335D01*
X0125436Y0126986D02*
X0132983Y0126986D01*
X0133286Y0124137D02*
X0127876Y0124137D01*
X0126002Y0118144D02*
X0086712Y0118144D01*
X0087911Y0116946D02*
X0126002Y0116946D01*
X0126002Y0115747D02*
X0089109Y0115747D01*
X0090308Y0114549D02*
X0126002Y0114549D01*
X0126359Y0113350D02*
X0091506Y0113350D01*
X0092705Y0112152D02*
X0127183Y0112152D01*
X0127183Y0110953D02*
X0093903Y0110953D01*
X0095102Y0109755D02*
X0127183Y0109755D01*
X0127183Y0108556D02*
X0095783Y0108556D01*
X0095783Y0109073D02*
X0082883Y0121973D01*
X0082883Y0128242D01*
X0082180Y0128945D01*
X0073786Y0128945D01*
X0073083Y0128242D01*
X0073083Y0119848D01*
X0073786Y0119145D01*
X0080055Y0119145D01*
X0091783Y0107416D01*
X0091783Y0100186D01*
X0090286Y0100186D01*
X0089583Y0099483D01*
X0089583Y0095488D01*
X0090086Y0094986D01*
X0089583Y0094483D01*
X0089583Y0094286D01*
X0079738Y0094286D01*
X0073238Y0087786D01*
X0072183Y0086731D01*
X0072183Y0068731D01*
X0056238Y0052786D01*
X0056238Y0052786D01*
X0055183Y0051731D01*
X0055183Y0041240D01*
X0058183Y0038240D01*
X0059238Y0037186D01*
X0061815Y0037186D01*
X0061815Y0036977D01*
X0062518Y0036274D01*
X0062983Y0036274D01*
X0062983Y0034365D01*
X0061789Y0034365D01*
X0061789Y0029016D01*
X0061414Y0029016D01*
X0061414Y0034365D01*
X0059816Y0034365D01*
X0059409Y0034256D01*
X0059044Y0034045D01*
X0058746Y0033748D01*
X0058536Y0033383D01*
X0058427Y0032976D01*
X0058427Y0029015D01*
X0061414Y0029015D01*
X0061414Y0028641D01*
X0058427Y0028641D01*
X0058427Y0024680D01*
X0058536Y0024273D01*
X0058746Y0023909D01*
X0059044Y0023611D01*
X0059409Y0023400D01*
X0059816Y0023291D01*
X0061414Y0023291D01*
X0061414Y0028641D01*
X0061789Y0028641D01*
X0061789Y0023291D01*
X0063387Y0023291D01*
X0063794Y0023400D01*
X0064159Y0023611D01*
X0064345Y0023797D01*
X0064451Y0023691D01*
X0068595Y0023691D01*
X0068983Y0024080D01*
X0069372Y0023691D01*
X0073516Y0023691D01*
X0073905Y0024080D01*
X0074293Y0023691D01*
X0078437Y0023691D01*
X0079140Y0024394D01*
X0079140Y0033262D01*
X0079114Y0033288D01*
X0085812Y0039986D01*
X0103812Y0039986D01*
X0104983Y0041157D01*
X0111983Y0048157D01*
X0111983Y0076814D01*
X0110812Y0077986D01*
X0109983Y0078814D01*
X0108812Y0079986D01*
X0097480Y0079986D01*
X0097983Y0080488D01*
X0097983Y0084483D01*
X0097480Y0084986D01*
X0097983Y0085488D01*
X0097983Y0089483D01*
X0097480Y0089986D01*
X0097983Y0090488D01*
X0097983Y0094483D01*
X0097480Y0094986D01*
X0097983Y0095488D01*
X0097983Y0099483D01*
X0097280Y0100186D01*
X0095783Y0100186D01*
X0095783Y0109073D01*
X0095783Y0107358D02*
X0127183Y0107358D01*
X0127183Y0106159D02*
X0095783Y0106159D01*
X0095783Y0104961D02*
X0127183Y0104961D01*
X0127183Y0103762D02*
X0095783Y0103762D01*
X0095783Y0102564D02*
X0127183Y0102564D01*
X0127183Y0101365D02*
X0095783Y0101365D01*
X0097299Y0100167D02*
X0127183Y0100167D01*
X0127183Y0098968D02*
X0097983Y0098968D01*
X0097983Y0097770D02*
X0127183Y0097770D01*
X0127183Y0096571D02*
X0097983Y0096571D01*
X0097868Y0095373D02*
X0127183Y0095373D01*
X0127183Y0094174D02*
X0097983Y0094174D01*
X0097983Y0092976D02*
X0127183Y0092976D01*
X0127183Y0091777D02*
X0097983Y0091777D01*
X0097983Y0090579D02*
X0127183Y0090579D01*
X0127183Y0089380D02*
X0097983Y0089380D01*
X0097983Y0088182D02*
X0127183Y0088182D01*
X0127183Y0086983D02*
X0097983Y0086983D01*
X0097983Y0085785D02*
X0127183Y0085785D01*
X0127183Y0084586D02*
X0097880Y0084586D01*
X0097983Y0083388D02*
X0127183Y0083388D01*
X0127183Y0082189D02*
X0097983Y0082189D01*
X0097983Y0080991D02*
X0127183Y0080991D01*
X0126244Y0079792D02*
X0109005Y0079792D01*
X0110204Y0078594D02*
X0125046Y0078594D01*
X0123847Y0077395D02*
X0111402Y0077395D01*
X0111983Y0076196D02*
X0123183Y0076196D01*
X0123183Y0074998D02*
X0111983Y0074998D01*
X0111983Y0073799D02*
X0123183Y0073799D01*
X0123183Y0072601D02*
X0111983Y0072601D01*
X0111983Y0071402D02*
X0123183Y0071402D01*
X0123183Y0070204D02*
X0111983Y0070204D01*
X0111983Y0069005D02*
X0123183Y0069005D01*
X0123183Y0067807D02*
X0111983Y0067807D01*
X0111983Y0066608D02*
X0123183Y0066608D01*
X0123183Y0065410D02*
X0111983Y0065410D01*
X0111983Y0064211D02*
X0123183Y0064211D01*
X0123183Y0063013D02*
X0111983Y0063013D01*
X0111983Y0061814D02*
X0123183Y0061814D01*
X0123183Y0060616D02*
X0111983Y0060616D01*
X0111983Y0059417D02*
X0123183Y0059417D01*
X0123183Y0058219D02*
X0111983Y0058219D01*
X0111983Y0057020D02*
X0123183Y0057020D01*
X0123183Y0055822D02*
X0111983Y0055822D01*
X0111983Y0054623D02*
X0123183Y0054623D01*
X0123183Y0053425D02*
X0111983Y0053425D01*
X0111983Y0052226D02*
X0123183Y0052226D01*
X0123183Y0051028D02*
X0111983Y0051028D01*
X0111983Y0049829D02*
X0123183Y0049829D01*
X0123183Y0048631D02*
X0111983Y0048631D01*
X0111259Y0047432D02*
X0123183Y0047432D01*
X0123183Y0046234D02*
X0110060Y0046234D01*
X0108861Y0045035D02*
X0123183Y0045035D01*
X0123183Y0043837D02*
X0107663Y0043837D01*
X0106464Y0042638D02*
X0123183Y0042638D01*
X0123183Y0041440D02*
X0105266Y0041440D01*
X0104067Y0040241D02*
X0123183Y0040241D01*
X0123183Y0039043D02*
X0084869Y0039043D01*
X0083670Y0037844D02*
X0123183Y0037844D01*
X0123183Y0036646D02*
X0082472Y0036646D01*
X0081273Y0035447D02*
X0123183Y0035447D01*
X0123183Y0034249D02*
X0080075Y0034249D01*
X0079140Y0033050D02*
X0123183Y0033050D01*
X0123183Y0031852D02*
X0079140Y0031852D01*
X0079140Y0030653D02*
X0123183Y0030653D01*
X0123183Y0029455D02*
X0079140Y0029455D01*
X0079140Y0028256D02*
X0123183Y0028256D01*
X0123472Y0027058D02*
X0079140Y0027058D01*
X0079140Y0025859D02*
X0123984Y0025859D01*
X0123984Y0024661D02*
X0079140Y0024661D01*
X0081408Y0023462D02*
X0063901Y0023462D01*
X0061789Y0023462D02*
X0061414Y0023462D01*
X0061414Y0024661D02*
X0061789Y0024661D01*
X0061789Y0025859D02*
X0061414Y0025859D01*
X0061414Y0027058D02*
X0061789Y0027058D01*
X0061789Y0028256D02*
X0061414Y0028256D01*
X0061602Y0028828D02*
X0060759Y0027986D01*
X0052983Y0027986D01*
X0051983Y0028986D01*
X0051983Y0032986D01*
X0058447Y0033050D02*
X0037883Y0033050D01*
X0037883Y0033011D02*
X0037137Y0031210D01*
X0035759Y0029832D01*
X0033958Y0029086D01*
X0032009Y0029086D01*
X0030208Y0029832D01*
X0028829Y0031210D01*
X0028083Y0033011D01*
X0028083Y0034960D01*
X0028829Y0036761D01*
X0030208Y0038140D01*
X0032009Y0038886D01*
X0033958Y0038886D01*
X0034734Y0038564D01*
X0047983Y0051814D01*
X0047983Y0085814D01*
X0049155Y0086986D01*
X0051655Y0089486D01*
X0051986Y0089486D01*
X0052486Y0089986D01*
X0051983Y0090488D01*
X0051983Y0094483D01*
X0052486Y0094986D01*
X0051983Y0095488D01*
X0051983Y0099483D01*
X0052686Y0100186D01*
X0054183Y0100186D01*
X0054183Y0113073D01*
X0063405Y0122294D01*
X0063083Y0123070D01*
X0063083Y0125019D01*
X0063829Y0126820D01*
X0065208Y0128199D01*
X0067009Y0128945D01*
X0068958Y0128945D01*
X0070759Y0128199D01*
X0072137Y0126820D01*
X0072883Y0125019D01*
X0072883Y0123070D01*
X0072137Y0121269D01*
X0070759Y0119891D01*
X0068958Y0119145D01*
X0067009Y0119145D01*
X0066233Y0119466D01*
X0058183Y0111416D01*
X0058183Y0100186D01*
X0059680Y0100186D01*
X0060383Y0099483D01*
X0060383Y0095488D01*
X0059880Y0094986D01*
X0060383Y0094483D01*
X0060383Y0090488D01*
X0059880Y0089986D01*
X0060383Y0089483D01*
X0060383Y0085488D01*
X0060163Y0085268D01*
X0060166Y0085266D01*
X0060464Y0084968D01*
X0060674Y0084603D01*
X0060783Y0084196D01*
X0060783Y0082636D01*
X0056333Y0082636D01*
X0056333Y0082336D01*
X0060783Y0082336D01*
X0060783Y0080775D01*
X0060674Y0080368D01*
X0060464Y0080003D01*
X0060166Y0079705D01*
X0060163Y0079703D01*
X0060383Y0079483D01*
X0060383Y0075488D01*
X0059880Y0074986D01*
X0060380Y0074486D01*
X0061655Y0074486D01*
X0064002Y0076833D01*
X0064002Y0079264D01*
X0064705Y0079967D01*
X0069262Y0079967D01*
X0069965Y0079264D01*
X0069965Y0074707D01*
X0069262Y0074004D01*
X0066831Y0074004D01*
X0063312Y0070486D01*
X0060380Y0070486D01*
X0059880Y0069986D01*
X0060383Y0069483D01*
X0060383Y0065488D01*
X0059880Y0064986D01*
X0060383Y0064483D01*
X0060383Y0060488D01*
X0059680Y0059786D01*
X0052686Y0059786D01*
X0051983Y0060488D01*
X0051983Y0064483D01*
X0052486Y0064986D01*
X0051983Y0065488D01*
X0051983Y0069483D01*
X0052486Y0069986D01*
X0051983Y0070488D01*
X0051983Y0074483D01*
X0052486Y0074986D01*
X0051983Y0075488D01*
X0051983Y0079483D01*
X0052204Y0079703D01*
X0052201Y0079705D01*
X0051983Y0079923D01*
X0051983Y0050157D01*
X0037562Y0035736D01*
X0037883Y0034960D01*
X0037883Y0033011D01*
X0037883Y0034249D02*
X0059396Y0034249D01*
X0061414Y0034249D02*
X0061789Y0034249D01*
X0061789Y0033050D02*
X0061414Y0033050D01*
X0061414Y0031852D02*
X0061789Y0031852D01*
X0061789Y0030653D02*
X0061414Y0030653D01*
X0061414Y0029455D02*
X0061789Y0029455D01*
X0058427Y0029455D02*
X0034849Y0029455D01*
X0033958Y0028886D02*
X0032009Y0028886D01*
X0030208Y0028140D01*
X0028829Y0026761D01*
X0028083Y0024960D01*
X0028083Y0023011D01*
X0028829Y0021210D01*
X0030208Y0019832D01*
X0032009Y0019086D01*
X0033958Y0019086D01*
X0035759Y0019832D01*
X0037137Y0021210D01*
X0037883Y0023011D01*
X0037883Y0024960D01*
X0037137Y0026761D01*
X0035759Y0028140D01*
X0033958Y0028886D01*
X0035478Y0028256D02*
X0058427Y0028256D01*
X0058427Y0027058D02*
X0036841Y0027058D01*
X0037511Y0025859D02*
X0058427Y0025859D01*
X0058432Y0024661D02*
X0037883Y0024661D01*
X0037883Y0023462D02*
X0046960Y0023462D01*
X0046425Y0022263D02*
X0037574Y0022263D01*
X0036992Y0021065D02*
X0046425Y0021065D01*
X0046425Y0019866D02*
X0035794Y0019866D01*
X0030173Y0019866D02*
X0025794Y0019866D01*
X0025759Y0019832D02*
X0027137Y0021210D01*
X0027883Y0023011D01*
X0027883Y0024960D01*
X0027137Y0026761D01*
X0025759Y0028140D01*
X0023958Y0028886D01*
X0022009Y0028886D01*
X0020208Y0028140D01*
X0018829Y0026761D01*
X0018083Y0024960D01*
X0018083Y0023011D01*
X0018829Y0021210D01*
X0020208Y0019832D01*
X0022009Y0019086D01*
X0023958Y0019086D01*
X0025759Y0019832D01*
X0026992Y0021065D02*
X0028974Y0021065D01*
X0028393Y0022263D02*
X0027574Y0022263D01*
X0027883Y0023462D02*
X0028083Y0023462D01*
X0028083Y0024661D02*
X0027883Y0024661D01*
X0027511Y0025859D02*
X0028456Y0025859D01*
X0029126Y0027058D02*
X0026841Y0027058D01*
X0025478Y0028256D02*
X0030489Y0028256D01*
X0031118Y0029455D02*
X0024849Y0029455D01*
X0023958Y0029086D02*
X0025759Y0029832D01*
X0027137Y0031210D01*
X0027883Y0033011D01*
X0027883Y0034960D01*
X0027137Y0036761D01*
X0025759Y0038140D01*
X0023958Y0038886D01*
X0022009Y0038886D01*
X0020208Y0038140D01*
X0018829Y0036761D01*
X0018083Y0034960D01*
X0018083Y0033011D01*
X0018829Y0031210D01*
X0020208Y0029832D01*
X0022009Y0029086D01*
X0023958Y0029086D01*
X0021118Y0029455D02*
X0009583Y0029455D01*
X0009583Y0030653D02*
X0019386Y0030653D01*
X0018564Y0031852D02*
X0009583Y0031852D01*
X0009583Y0033050D02*
X0018083Y0033050D01*
X0018083Y0034249D02*
X0009583Y0034249D01*
X0009583Y0035447D02*
X0018285Y0035447D01*
X0018782Y0036646D02*
X0009583Y0036646D01*
X0009583Y0037844D02*
X0019912Y0037844D01*
X0020208Y0039832D02*
X0022009Y0039086D01*
X0023958Y0039086D01*
X0025759Y0039832D01*
X0027137Y0041210D01*
X0027883Y0043011D01*
X0027883Y0044960D01*
X0027137Y0046761D01*
X0025759Y0048140D01*
X0023958Y0048886D01*
X0022009Y0048886D01*
X0020208Y0048140D01*
X0018829Y0046761D01*
X0018083Y0044960D01*
X0018083Y0043011D01*
X0018829Y0041210D01*
X0020208Y0039832D01*
X0019798Y0040241D02*
X0009583Y0040241D01*
X0009583Y0039043D02*
X0035212Y0039043D01*
X0035759Y0039832D02*
X0037137Y0041210D01*
X0037883Y0043011D01*
X0037883Y0044960D01*
X0037137Y0046761D01*
X0035759Y0048140D01*
X0033958Y0048886D01*
X0032009Y0048886D01*
X0030208Y0048140D01*
X0028829Y0046761D01*
X0028083Y0044960D01*
X0028083Y0043011D01*
X0028829Y0041210D01*
X0030208Y0039832D01*
X0032009Y0039086D01*
X0033958Y0039086D01*
X0035759Y0039832D01*
X0036169Y0040241D02*
X0036411Y0040241D01*
X0037233Y0041440D02*
X0037609Y0041440D01*
X0037729Y0042638D02*
X0038808Y0042638D01*
X0037883Y0043837D02*
X0040006Y0043837D01*
X0041205Y0045035D02*
X0037852Y0045035D01*
X0037356Y0046234D02*
X0042403Y0046234D01*
X0043602Y0047432D02*
X0036466Y0047432D01*
X0034573Y0048631D02*
X0044800Y0048631D01*
X0045999Y0049829D02*
X0035753Y0049829D01*
X0036955Y0051028D02*
X0047197Y0051028D01*
X0047983Y0052226D02*
X0037558Y0052226D01*
X0037883Y0053425D02*
X0047983Y0053425D01*
X0047983Y0054623D02*
X0037883Y0054623D01*
X0037527Y0055822D02*
X0047983Y0055822D01*
X0047983Y0057020D02*
X0036878Y0057020D01*
X0037983Y0058986D02*
X0027983Y0058986D01*
X0022983Y0053986D01*
X0026955Y0051028D02*
X0029012Y0051028D01*
X0028408Y0052226D02*
X0027558Y0052226D01*
X0027883Y0053425D02*
X0028083Y0053425D01*
X0028083Y0054623D02*
X0027883Y0054623D01*
X0027527Y0055822D02*
X0028440Y0055822D01*
X0028564Y0057020D02*
X0029089Y0057020D01*
X0025870Y0059417D02*
X0024759Y0059417D01*
X0023958Y0059086D02*
X0025759Y0059832D01*
X0027137Y0061210D01*
X0027883Y0063011D01*
X0027883Y0064960D01*
X0027137Y0066761D01*
X0025759Y0068140D01*
X0023958Y0068886D01*
X0022009Y0068886D01*
X0020208Y0068140D01*
X0018829Y0066761D01*
X0018083Y0064960D01*
X0018083Y0063011D01*
X0018829Y0061210D01*
X0020208Y0059832D01*
X0022009Y0059086D01*
X0023958Y0059086D01*
X0021208Y0059417D02*
X0009583Y0059417D01*
X0009583Y0058219D02*
X0020399Y0058219D01*
X0019089Y0057020D02*
X0009583Y0057020D01*
X0009583Y0055822D02*
X0018440Y0055822D01*
X0018083Y0054623D02*
X0009583Y0054623D01*
X0009583Y0053425D02*
X0018083Y0053425D01*
X0018408Y0052226D02*
X0009583Y0052226D01*
X0009583Y0051028D02*
X0019012Y0051028D01*
X0020213Y0049829D02*
X0009583Y0049829D01*
X0009583Y0048631D02*
X0021394Y0048631D01*
X0019500Y0047432D02*
X0009583Y0047432D01*
X0009583Y0046234D02*
X0018611Y0046234D01*
X0018114Y0045035D02*
X0009583Y0045035D01*
X0009583Y0043837D02*
X0018083Y0043837D01*
X0018238Y0042638D02*
X0009583Y0042638D01*
X0009583Y0041440D02*
X0018734Y0041440D01*
X0024573Y0048631D02*
X0031394Y0048631D01*
X0030213Y0049829D02*
X0025753Y0049829D01*
X0026466Y0047432D02*
X0029500Y0047432D01*
X0028611Y0046234D02*
X0027356Y0046234D01*
X0027852Y0045035D02*
X0028114Y0045035D01*
X0028083Y0043837D02*
X0027883Y0043837D01*
X0027729Y0042638D02*
X0028238Y0042638D01*
X0028734Y0041440D02*
X0027233Y0041440D01*
X0026169Y0040241D02*
X0029798Y0040241D01*
X0029912Y0037844D02*
X0026054Y0037844D01*
X0027185Y0036646D02*
X0028782Y0036646D01*
X0028285Y0035447D02*
X0027682Y0035447D01*
X0027883Y0034249D02*
X0028083Y0034249D01*
X0028083Y0033050D02*
X0027883Y0033050D01*
X0027403Y0031852D02*
X0028564Y0031852D01*
X0029386Y0030653D02*
X0026581Y0030653D01*
X0020489Y0028256D02*
X0009583Y0028256D01*
X0009583Y0027058D02*
X0019126Y0027058D01*
X0018456Y0025859D02*
X0009583Y0025859D01*
X0009583Y0024661D02*
X0018083Y0024661D01*
X0018083Y0023462D02*
X0009583Y0023462D01*
X0009583Y0022263D02*
X0018393Y0022263D01*
X0018974Y0021065D02*
X0009583Y0021065D01*
X0009583Y0019866D02*
X0020173Y0019866D01*
X0009583Y0018668D02*
X0046425Y0018668D01*
X0046425Y0017469D02*
X0009583Y0017469D01*
X0009583Y0016271D02*
X0046425Y0016271D01*
X0046425Y0015072D02*
X0009583Y0015072D01*
X0009583Y0013874D02*
X0046425Y0013874D01*
X0046425Y0012675D02*
X0009583Y0012675D01*
X0009583Y0011477D02*
X0046425Y0011477D01*
X0057093Y0011477D02*
X0080874Y0011477D01*
X0080874Y0012675D02*
X0057093Y0012675D01*
X0057093Y0013874D02*
X0080874Y0013874D01*
X0080874Y0015072D02*
X0057093Y0015072D01*
X0057093Y0016271D02*
X0080874Y0016271D01*
X0080874Y0017469D02*
X0057093Y0017469D01*
X0057093Y0018668D02*
X0080874Y0018668D01*
X0080874Y0019866D02*
X0057093Y0019866D01*
X0057093Y0021065D02*
X0080874Y0021065D01*
X0080874Y0022263D02*
X0057093Y0022263D01*
X0056558Y0023462D02*
X0059302Y0023462D01*
X0058427Y0030653D02*
X0036581Y0030653D01*
X0037403Y0031852D02*
X0058427Y0031852D01*
X0062983Y0035447D02*
X0037682Y0035447D01*
X0038472Y0036646D02*
X0062146Y0036646D01*
X0059983Y0038986D02*
X0064330Y0038986D01*
X0064983Y0039639D01*
X0061815Y0040786D02*
X0061815Y0042302D01*
X0062265Y0042752D01*
X0062032Y0042886D01*
X0061735Y0043184D01*
X0061524Y0043549D01*
X0061415Y0043956D01*
X0061415Y0045948D01*
X0064599Y0045948D01*
X0064599Y0046716D01*
X0061415Y0046716D01*
X0061415Y0048708D01*
X0061524Y0049115D01*
X0061735Y0049480D01*
X0062032Y0049778D01*
X0062397Y0049988D01*
X0062804Y0050097D01*
X0064599Y0050097D01*
X0064599Y0046716D01*
X0065368Y0046716D01*
X0071599Y0046716D01*
X0071599Y0045948D01*
X0068415Y0045948D01*
X0065368Y0045948D01*
X0065368Y0046716D01*
X0065368Y0050097D01*
X0067163Y0050097D01*
X0067569Y0049988D01*
X0067934Y0049778D01*
X0068232Y0049480D01*
X0068443Y0049115D01*
X0068483Y0048964D01*
X0068524Y0049115D01*
X0068735Y0049480D01*
X0069032Y0049778D01*
X0069397Y0049988D01*
X0069804Y0050097D01*
X0071599Y0050097D01*
X0071599Y0046716D01*
X0072368Y0046716D01*
X0075552Y0046716D01*
X0075552Y0048708D01*
X0075443Y0049115D01*
X0075232Y0049480D01*
X0074934Y0049778D01*
X0074569Y0049988D01*
X0074163Y0050097D01*
X0072368Y0050097D01*
X0072368Y0046716D01*
X0072368Y0045948D01*
X0075552Y0045948D01*
X0075552Y0043956D01*
X0075443Y0043549D01*
X0075232Y0043184D01*
X0074934Y0042886D01*
X0074701Y0042752D01*
X0075152Y0042302D01*
X0075152Y0041639D01*
X0075809Y0041639D01*
X0075983Y0041814D01*
X0075983Y0081814D01*
X0081983Y0087814D01*
X0083155Y0088986D01*
X0089583Y0088986D01*
X0089583Y0089483D01*
X0090086Y0089986D01*
X0089583Y0090488D01*
X0089583Y0090686D01*
X0081229Y0090686D01*
X0075783Y0085240D01*
X0075783Y0067240D01*
X0074729Y0066186D01*
X0074729Y0066186D01*
X0058783Y0050240D01*
X0058783Y0042731D01*
X0060729Y0040786D01*
X0061815Y0040786D01*
X0061815Y0041440D02*
X0060075Y0041440D01*
X0058876Y0042638D02*
X0062152Y0042638D01*
X0061447Y0043837D02*
X0058783Y0043837D01*
X0058783Y0045035D02*
X0061415Y0045035D01*
X0061415Y0047432D02*
X0058783Y0047432D01*
X0058783Y0046234D02*
X0064599Y0046234D01*
X0064983Y0046332D02*
X0064983Y0052986D01*
X0066983Y0054986D01*
X0071983Y0054986D01*
X0075983Y0059417D02*
X0067961Y0059417D01*
X0066762Y0058219D02*
X0075983Y0058219D01*
X0075983Y0057020D02*
X0065564Y0057020D01*
X0064365Y0055822D02*
X0075983Y0055822D01*
X0075983Y0054623D02*
X0063167Y0054623D01*
X0061968Y0053425D02*
X0075983Y0053425D01*
X0075983Y0052226D02*
X0060770Y0052226D01*
X0059571Y0051028D02*
X0075983Y0051028D01*
X0075983Y0049829D02*
X0074845Y0049829D01*
X0075552Y0048631D02*
X0075983Y0048631D01*
X0075983Y0047432D02*
X0075552Y0047432D01*
X0075983Y0046234D02*
X0072368Y0046234D01*
X0071599Y0046234D02*
X0065368Y0046234D01*
X0065368Y0047432D02*
X0064599Y0047432D01*
X0064599Y0048631D02*
X0065368Y0048631D01*
X0065368Y0049829D02*
X0064599Y0049829D01*
X0062122Y0049829D02*
X0058783Y0049829D01*
X0058783Y0048631D02*
X0061415Y0048631D01*
X0056983Y0050986D02*
X0056983Y0041986D01*
X0059983Y0038986D01*
X0058579Y0037844D02*
X0039670Y0037844D01*
X0040869Y0039043D02*
X0057381Y0039043D01*
X0056182Y0040241D02*
X0042067Y0040241D01*
X0043266Y0041440D02*
X0055183Y0041440D01*
X0055183Y0042638D02*
X0044464Y0042638D01*
X0045663Y0043837D02*
X0055183Y0043837D01*
X0055183Y0045035D02*
X0046861Y0045035D01*
X0048060Y0046234D02*
X0055183Y0046234D01*
X0055183Y0047432D02*
X0049258Y0047432D01*
X0050457Y0048631D02*
X0055183Y0048631D01*
X0055183Y0049829D02*
X0051656Y0049829D01*
X0051983Y0051028D02*
X0055183Y0051028D01*
X0055679Y0052226D02*
X0051983Y0052226D01*
X0051983Y0053425D02*
X0056877Y0053425D01*
X0058076Y0054623D02*
X0051983Y0054623D01*
X0051983Y0055822D02*
X0059274Y0055822D01*
X0060473Y0057020D02*
X0051983Y0057020D01*
X0051983Y0058219D02*
X0061671Y0058219D01*
X0062870Y0059417D02*
X0051983Y0059417D01*
X0051983Y0060616D02*
X0051983Y0060616D01*
X0051983Y0061814D02*
X0051983Y0061814D01*
X0051983Y0063013D02*
X0051983Y0063013D01*
X0051983Y0064211D02*
X0051983Y0064211D01*
X0051983Y0065410D02*
X0052062Y0065410D01*
X0051983Y0066608D02*
X0051983Y0066608D01*
X0051983Y0067807D02*
X0051983Y0067807D01*
X0051983Y0069005D02*
X0051983Y0069005D01*
X0051983Y0070204D02*
X0052268Y0070204D01*
X0051983Y0071402D02*
X0051983Y0071402D01*
X0051983Y0072601D02*
X0051983Y0072601D01*
X0051983Y0073799D02*
X0051983Y0073799D01*
X0051983Y0074998D02*
X0052474Y0074998D01*
X0051983Y0076196D02*
X0051983Y0076196D01*
X0051983Y0077395D02*
X0051983Y0077395D01*
X0051983Y0078594D02*
X0051983Y0078594D01*
X0051983Y0079792D02*
X0052114Y0079792D01*
X0056183Y0082486D02*
X0070483Y0082486D01*
X0070983Y0081986D01*
X0070983Y0070986D01*
X0067983Y0067986D01*
X0070061Y0066608D02*
X0060383Y0066608D01*
X0060383Y0067807D02*
X0071259Y0067807D01*
X0072183Y0069005D02*
X0060383Y0069005D01*
X0060099Y0070204D02*
X0072183Y0070204D01*
X0072183Y0071402D02*
X0064229Y0071402D01*
X0065427Y0072601D02*
X0072183Y0072601D01*
X0072183Y0073799D02*
X0066626Y0073799D01*
X0069965Y0074998D02*
X0072183Y0074998D01*
X0072183Y0076196D02*
X0069965Y0076196D01*
X0069965Y0077395D02*
X0072183Y0077395D01*
X0072183Y0078594D02*
X0069965Y0078594D01*
X0069436Y0079792D02*
X0072183Y0079792D01*
X0072183Y0080991D02*
X0060783Y0080991D01*
X0060783Y0082189D02*
X0072183Y0082189D01*
X0072183Y0083388D02*
X0060783Y0083388D01*
X0060679Y0084586D02*
X0072183Y0084586D01*
X0072183Y0085785D02*
X0060383Y0085785D01*
X0060383Y0086983D02*
X0072435Y0086983D01*
X0073634Y0088182D02*
X0060383Y0088182D01*
X0060383Y0089380D02*
X0074832Y0089380D01*
X0076031Y0090579D02*
X0060383Y0090579D01*
X0060383Y0091777D02*
X0077229Y0091777D01*
X0078428Y0092976D02*
X0060383Y0092976D01*
X0060383Y0094174D02*
X0079626Y0094174D01*
X0080483Y0092486D02*
X0073983Y0085986D01*
X0073983Y0067986D01*
X0056983Y0050986D01*
X0060383Y0060616D02*
X0064068Y0060616D01*
X0065267Y0061814D02*
X0060383Y0061814D01*
X0060383Y0063013D02*
X0066465Y0063013D01*
X0067664Y0064211D02*
X0060383Y0064211D01*
X0060305Y0065410D02*
X0068862Y0065410D01*
X0071556Y0063013D02*
X0075983Y0063013D01*
X0075983Y0064211D02*
X0072755Y0064211D01*
X0073953Y0065410D02*
X0075983Y0065410D01*
X0075983Y0066608D02*
X0075152Y0066608D01*
X0075783Y0067807D02*
X0075983Y0067807D01*
X0075983Y0069005D02*
X0075783Y0069005D01*
X0075783Y0070204D02*
X0075983Y0070204D01*
X0075983Y0071402D02*
X0075783Y0071402D01*
X0075783Y0072601D02*
X0075983Y0072601D01*
X0075983Y0073799D02*
X0075783Y0073799D01*
X0075783Y0074998D02*
X0075983Y0074998D01*
X0075983Y0076196D02*
X0075783Y0076196D01*
X0075783Y0077395D02*
X0075983Y0077395D01*
X0075983Y0078594D02*
X0075783Y0078594D01*
X0075783Y0079792D02*
X0075983Y0079792D01*
X0075983Y0080991D02*
X0075783Y0080991D01*
X0075783Y0082189D02*
X0076358Y0082189D01*
X0075783Y0083388D02*
X0077557Y0083388D01*
X0078756Y0084586D02*
X0075783Y0084586D01*
X0076328Y0085785D02*
X0079954Y0085785D01*
X0081153Y0086983D02*
X0077527Y0086983D01*
X0078725Y0088182D02*
X0082351Y0088182D01*
X0081122Y0090579D02*
X0089583Y0090579D01*
X0089583Y0089380D02*
X0079924Y0089380D01*
X0080483Y0092486D02*
X0093783Y0092486D01*
X0089699Y0095373D02*
X0060268Y0095373D01*
X0060383Y0096571D02*
X0089583Y0096571D01*
X0089583Y0097770D02*
X0060383Y0097770D01*
X0060383Y0098968D02*
X0089583Y0098968D01*
X0090268Y0100167D02*
X0059699Y0100167D01*
X0058183Y0101365D02*
X0091783Y0101365D01*
X0091783Y0102564D02*
X0058183Y0102564D01*
X0058183Y0103762D02*
X0091783Y0103762D01*
X0091783Y0104961D02*
X0058183Y0104961D01*
X0058183Y0106159D02*
X0091783Y0106159D01*
X0091783Y0107358D02*
X0058183Y0107358D01*
X0058183Y0108556D02*
X0090643Y0108556D01*
X0089445Y0109755D02*
X0058183Y0109755D01*
X0058183Y0110953D02*
X0088246Y0110953D01*
X0087048Y0112152D02*
X0058919Y0112152D01*
X0060118Y0113350D02*
X0085849Y0113350D01*
X0084651Y0114549D02*
X0061316Y0114549D01*
X0062515Y0115747D02*
X0083452Y0115747D01*
X0082254Y0116946D02*
X0063713Y0116946D01*
X0064912Y0118144D02*
X0081055Y0118144D01*
X0083117Y0121740D02*
X0134183Y0121740D01*
X0134183Y0120541D02*
X0084315Y0120541D01*
X0085514Y0119343D02*
X0134183Y0119343D01*
X0134183Y0118144D02*
X0131965Y0118144D01*
X0131965Y0116946D02*
X0134183Y0116946D01*
X0134183Y0115747D02*
X0131965Y0115747D01*
X0131965Y0114549D02*
X0134183Y0114549D01*
X0134183Y0113350D02*
X0131607Y0113350D01*
X0130783Y0112152D02*
X0134183Y0112152D01*
X0134183Y0110953D02*
X0130783Y0110953D01*
X0130783Y0109755D02*
X0134183Y0109755D01*
X0134183Y0108556D02*
X0130783Y0108556D01*
X0130783Y0107358D02*
X0134183Y0107358D01*
X0134183Y0106159D02*
X0130783Y0106159D01*
X0130783Y0104961D02*
X0134183Y0104961D01*
X0134183Y0103762D02*
X0130783Y0103762D01*
X0130783Y0102564D02*
X0134183Y0102564D01*
X0134183Y0101365D02*
X0130783Y0101365D01*
X0130783Y0100167D02*
X0134183Y0100167D01*
X0134183Y0098968D02*
X0130783Y0098968D01*
X0130783Y0097770D02*
X0134183Y0097770D01*
X0134183Y0096571D02*
X0130783Y0096571D01*
X0130783Y0095373D02*
X0134183Y0095373D01*
X0134249Y0094174D02*
X0130783Y0094174D01*
X0130783Y0092976D02*
X0135448Y0092976D01*
X0136646Y0091777D02*
X0130783Y0091777D01*
X0130783Y0090579D02*
X0137845Y0090579D01*
X0139043Y0089380D02*
X0130783Y0089380D01*
X0130783Y0088182D02*
X0140242Y0088182D01*
X0141440Y0086983D02*
X0130783Y0086983D01*
X0130783Y0085785D02*
X0142639Y0085785D01*
X0143837Y0084586D02*
X0130783Y0084586D01*
X0130783Y0083388D02*
X0145036Y0083388D01*
X0146234Y0082189D02*
X0130783Y0082189D01*
X0128983Y0079986D02*
X0128983Y0115986D01*
X0142783Y0115747D02*
X0144183Y0115747D01*
X0144183Y0114549D02*
X0142783Y0114549D01*
X0142783Y0113350D02*
X0144183Y0113350D01*
X0144183Y0112152D02*
X0142783Y0112152D01*
X0142783Y0110953D02*
X0144183Y0110953D01*
X0144183Y0109755D02*
X0142783Y0109755D01*
X0142783Y0108556D02*
X0144183Y0108556D01*
X0144183Y0107358D02*
X0142783Y0107358D01*
X0142783Y0106159D02*
X0144183Y0106159D01*
X0144183Y0104961D02*
X0142783Y0104961D01*
X0142783Y0103762D02*
X0144183Y0103762D01*
X0144183Y0102564D02*
X0142783Y0102564D01*
X0142783Y0101365D02*
X0144183Y0101365D01*
X0144183Y0100167D02*
X0142783Y0100167D01*
X0142783Y0098968D02*
X0144183Y0098968D01*
X0144183Y0097770D02*
X0142783Y0097770D01*
X0142943Y0096571D02*
X0144183Y0096571D01*
X0144142Y0095373D02*
X0145051Y0095373D01*
X0145340Y0094174D02*
X0146249Y0094174D01*
X0146539Y0092976D02*
X0147448Y0092976D01*
X0147737Y0091777D02*
X0148646Y0091777D01*
X0148936Y0090579D02*
X0149845Y0090579D01*
X0150134Y0089380D02*
X0151043Y0089380D01*
X0151333Y0088182D02*
X0152242Y0088182D01*
X0152531Y0086983D02*
X0153440Y0086983D01*
X0153730Y0085785D02*
X0154639Y0085785D01*
X0154928Y0084586D02*
X0155837Y0084586D01*
X0156127Y0083388D02*
X0157036Y0083388D01*
X0157325Y0082189D02*
X0158234Y0082189D01*
X0158524Y0080991D02*
X0159433Y0080991D01*
X0159723Y0079792D02*
X0160631Y0079792D01*
X0160921Y0078594D02*
X0161830Y0078594D01*
X0162120Y0077395D02*
X0163028Y0077395D01*
X0163318Y0076196D02*
X0164227Y0076196D01*
X0164517Y0074998D02*
X0165425Y0074998D01*
X0165715Y0073799D02*
X0166624Y0073799D01*
X0166914Y0072601D02*
X0167822Y0072601D01*
X0168112Y0071402D02*
X0169021Y0071402D01*
X0169311Y0070204D02*
X0170219Y0070204D01*
X0170509Y0069005D02*
X0171418Y0069005D01*
X0171708Y0067807D02*
X0172616Y0067807D01*
X0172906Y0066608D02*
X0173815Y0066608D01*
X0174105Y0065410D02*
X0175013Y0065410D01*
X0175303Y0064211D02*
X0176212Y0064211D01*
X0176502Y0063013D02*
X0177411Y0063013D01*
X0177700Y0061814D02*
X0178609Y0061814D01*
X0178899Y0060616D02*
X0179808Y0060616D01*
X0180097Y0059417D02*
X0181006Y0059417D01*
X0181296Y0058219D02*
X0182205Y0058219D01*
X0185965Y0051028D02*
X0189012Y0051028D01*
X0188611Y0046234D02*
X0185491Y0046234D01*
X0188114Y0045035D02*
X0181479Y0045035D01*
X0180476Y0046234D02*
X0180281Y0046234D01*
X0180002Y0047432D02*
X0179082Y0047432D01*
X0176388Y0045035D02*
X0157983Y0045035D01*
X0157983Y0043837D02*
X0177587Y0043837D01*
X0178785Y0042638D02*
X0157983Y0042638D01*
X0157983Y0041440D02*
X0179984Y0041440D01*
X0181182Y0040241D02*
X0157983Y0040241D01*
X0157869Y0039043D02*
X0182381Y0039043D01*
X0183579Y0037844D02*
X0156670Y0037844D01*
X0155472Y0036646D02*
X0184778Y0036646D01*
X0186273Y0040241D02*
X0189798Y0040241D01*
X0190472Y0039043D02*
X0210084Y0039043D01*
X0210084Y0040241D02*
X0206169Y0040241D01*
X0207233Y0041440D02*
X0210084Y0041440D01*
X0210084Y0042638D02*
X0207729Y0042638D01*
X0207883Y0043837D02*
X0210084Y0043837D01*
X0210084Y0045035D02*
X0207852Y0045035D01*
X0207356Y0046234D02*
X0210084Y0046234D01*
X0210084Y0047432D02*
X0206466Y0047432D01*
X0206054Y0037844D02*
X0210084Y0037844D01*
X0210084Y0036646D02*
X0207185Y0036646D01*
X0207682Y0035447D02*
X0210084Y0035447D01*
X0210084Y0034249D02*
X0207883Y0034249D01*
X0207883Y0033050D02*
X0210084Y0033050D01*
X0210084Y0031852D02*
X0207403Y0031852D01*
X0206581Y0030653D02*
X0210084Y0030653D01*
X0210084Y0029455D02*
X0204849Y0029455D01*
X0203958Y0028886D02*
X0202009Y0028886D01*
X0200208Y0028140D01*
X0198829Y0026761D01*
X0198083Y0024960D01*
X0198083Y0023011D01*
X0198829Y0021210D01*
X0200208Y0019832D01*
X0202009Y0019086D01*
X0203958Y0019086D01*
X0205759Y0019832D01*
X0207137Y0021210D01*
X0207883Y0023011D01*
X0207883Y0024960D01*
X0207137Y0026761D01*
X0205759Y0028140D01*
X0203958Y0028886D01*
X0205478Y0028256D02*
X0210084Y0028256D01*
X0210084Y0027058D02*
X0206841Y0027058D01*
X0207511Y0025859D02*
X0210084Y0025859D01*
X0210084Y0024661D02*
X0207883Y0024661D01*
X0207883Y0023462D02*
X0210084Y0023462D01*
X0210084Y0022263D02*
X0207574Y0022263D01*
X0206992Y0021065D02*
X0210084Y0021065D01*
X0210084Y0019866D02*
X0205794Y0019866D01*
X0210084Y0018668D02*
X0176581Y0018668D01*
X0176581Y0019866D02*
X0190173Y0019866D01*
X0190208Y0019832D02*
X0192009Y0019086D01*
X0193958Y0019086D01*
X0195759Y0019832D01*
X0197137Y0021210D01*
X0197883Y0023011D01*
X0197883Y0024960D01*
X0197137Y0026761D01*
X0195759Y0028140D01*
X0193958Y0028886D01*
X0192009Y0028886D01*
X0190208Y0028140D01*
X0188829Y0026761D01*
X0188083Y0024960D01*
X0188083Y0023011D01*
X0188829Y0021210D01*
X0190208Y0019832D01*
X0188974Y0021065D02*
X0176581Y0021065D01*
X0176581Y0017469D02*
X0210084Y0017469D01*
X0210084Y0016271D02*
X0176581Y0016271D01*
X0176581Y0015072D02*
X0210084Y0015072D01*
X0210084Y0013874D02*
X0176581Y0013874D01*
X0176581Y0012675D02*
X0210084Y0012675D01*
X0210084Y0011477D02*
X0176581Y0011477D01*
X0165913Y0011477D02*
X0122053Y0011477D01*
X0122053Y0012675D02*
X0165913Y0012675D01*
X0165913Y0013874D02*
X0122053Y0013874D01*
X0122053Y0015072D02*
X0165913Y0015072D01*
X0165913Y0016271D02*
X0122053Y0016271D01*
X0122053Y0017469D02*
X0165913Y0017469D01*
X0165913Y0018668D02*
X0122053Y0018668D01*
X0122053Y0019866D02*
X0165913Y0019866D01*
X0165913Y0021065D02*
X0122053Y0021065D01*
X0124390Y0022263D02*
X0091542Y0022263D01*
X0091542Y0021065D02*
X0111386Y0021065D01*
X0111386Y0019866D02*
X0091542Y0019866D01*
X0091542Y0018668D02*
X0111386Y0018668D01*
X0111386Y0017469D02*
X0091542Y0017469D01*
X0091542Y0016271D02*
X0111386Y0016271D01*
X0111386Y0015072D02*
X0091542Y0015072D01*
X0091542Y0013874D02*
X0111386Y0013874D01*
X0111386Y0012675D02*
X0091542Y0012675D01*
X0091542Y0011477D02*
X0111386Y0011477D01*
X0123984Y0023462D02*
X0091007Y0023462D01*
X0078014Y0037844D02*
X0077670Y0037844D01*
X0077465Y0037639D02*
X0078812Y0038986D01*
X0079983Y0040157D01*
X0079983Y0080157D01*
X0084812Y0084986D01*
X0090086Y0084986D01*
X0090086Y0084986D01*
X0089583Y0084483D01*
X0089583Y0080488D01*
X0090086Y0079986D01*
X0089583Y0079483D01*
X0089583Y0078986D01*
X0087965Y0078986D01*
X0087965Y0079264D01*
X0087262Y0079967D01*
X0082705Y0079967D01*
X0082002Y0079264D01*
X0082002Y0074707D01*
X0082705Y0074004D01*
X0087262Y0074004D01*
X0087965Y0074707D01*
X0087965Y0074986D01*
X0089521Y0074986D01*
X0089503Y0074968D01*
X0089292Y0074603D01*
X0089183Y0074196D01*
X0089183Y0072636D01*
X0093633Y0072636D01*
X0093633Y0072336D01*
X0089183Y0072336D01*
X0089183Y0070775D01*
X0089292Y0070368D01*
X0089503Y0070003D01*
X0089801Y0069705D01*
X0089804Y0069703D01*
X0089583Y0069483D01*
X0089583Y0065488D01*
X0090086Y0064986D01*
X0089583Y0064483D01*
X0089583Y0060488D01*
X0090286Y0059786D01*
X0091783Y0059786D01*
X0091783Y0058697D01*
X0091518Y0058697D01*
X0090815Y0057994D01*
X0090815Y0052670D01*
X0091265Y0052219D01*
X0091032Y0052085D01*
X0090735Y0051787D01*
X0090524Y0051422D01*
X0090415Y0051015D01*
X0090415Y0049023D01*
X0093599Y0049023D01*
X0093599Y0048255D01*
X0090415Y0048255D01*
X0090415Y0046263D01*
X0090524Y0045856D01*
X0090735Y0045491D01*
X0091032Y0045193D01*
X0091397Y0044983D01*
X0091804Y0044874D01*
X0093599Y0044874D01*
X0093599Y0048255D01*
X0094368Y0048255D01*
X0094368Y0049023D01*
X0097552Y0049023D01*
X0097552Y0051015D01*
X0097443Y0051422D01*
X0097232Y0051787D01*
X0096934Y0052085D01*
X0096701Y0052219D01*
X0097152Y0052670D01*
X0097152Y0057994D01*
X0096449Y0058697D01*
X0095783Y0058697D01*
X0095783Y0059786D01*
X0097280Y0059786D01*
X0097983Y0060488D01*
X0097983Y0064483D01*
X0097480Y0064986D01*
X0100002Y0064986D01*
X0100002Y0064707D01*
X0100705Y0064004D01*
X0105262Y0064004D01*
X0105965Y0064707D01*
X0105965Y0069264D01*
X0105262Y0069967D01*
X0100705Y0069967D01*
X0100002Y0069264D01*
X0100002Y0068986D01*
X0097983Y0068986D01*
X0097983Y0069483D01*
X0097763Y0069703D01*
X0097766Y0069705D01*
X0098064Y0070003D01*
X0098274Y0070368D01*
X0098383Y0070775D01*
X0098383Y0072336D01*
X0093933Y0072336D01*
X0093933Y0072636D01*
X0098383Y0072636D01*
X0098383Y0074196D01*
X0098274Y0074603D01*
X0098064Y0074968D01*
X0097766Y0075266D01*
X0097763Y0075268D01*
X0097983Y0075488D01*
X0097983Y0075986D01*
X0107155Y0075986D01*
X0107983Y0075157D01*
X0107983Y0049814D01*
X0102155Y0043986D01*
X0084155Y0043986D01*
X0082983Y0042814D01*
X0074365Y0034196D01*
X0074365Y0033965D01*
X0074293Y0033965D01*
X0073983Y0033655D01*
X0073983Y0036274D01*
X0074449Y0036274D01*
X0075152Y0036977D01*
X0075152Y0037639D01*
X0077465Y0037639D01*
X0076815Y0036646D02*
X0074821Y0036646D01*
X0075617Y0035447D02*
X0073983Y0035447D01*
X0073983Y0034249D02*
X0074418Y0034249D01*
X0078869Y0039043D02*
X0079212Y0039043D01*
X0079983Y0040241D02*
X0080411Y0040241D01*
X0079983Y0041440D02*
X0081609Y0041440D01*
X0082808Y0042638D02*
X0079983Y0042638D01*
X0079983Y0043837D02*
X0084006Y0043837D01*
X0082983Y0042814D02*
X0082983Y0042814D01*
X0079983Y0045035D02*
X0091307Y0045035D01*
X0090423Y0046234D02*
X0079983Y0046234D01*
X0079983Y0047432D02*
X0090415Y0047432D01*
X0090415Y0049829D02*
X0079983Y0049829D01*
X0079983Y0048631D02*
X0093599Y0048631D01*
X0093983Y0048639D02*
X0088330Y0048639D01*
X0084983Y0051986D01*
X0079983Y0052226D02*
X0091258Y0052226D01*
X0090815Y0053425D02*
X0079983Y0053425D01*
X0079983Y0054623D02*
X0090815Y0054623D01*
X0090815Y0055822D02*
X0079983Y0055822D01*
X0079983Y0057020D02*
X0090815Y0057020D01*
X0091039Y0058219D02*
X0079983Y0058219D01*
X0079983Y0059417D02*
X0091783Y0059417D01*
X0089583Y0060616D02*
X0079983Y0060616D01*
X0079983Y0061814D02*
X0089583Y0061814D01*
X0089583Y0063013D02*
X0079983Y0063013D01*
X0079983Y0064211D02*
X0089583Y0064211D01*
X0089662Y0065410D02*
X0079983Y0065410D01*
X0079983Y0066608D02*
X0089583Y0066608D01*
X0089583Y0067807D02*
X0079983Y0067807D01*
X0079983Y0069005D02*
X0089583Y0069005D01*
X0089387Y0070204D02*
X0079983Y0070204D01*
X0079983Y0071402D02*
X0089183Y0071402D01*
X0089183Y0073799D02*
X0079983Y0073799D01*
X0079983Y0072601D02*
X0093633Y0072601D01*
X0093933Y0072601D02*
X0107983Y0072601D01*
X0107983Y0073799D02*
X0098383Y0073799D01*
X0098034Y0074998D02*
X0107983Y0074998D01*
X0107983Y0071402D02*
X0098383Y0071402D01*
X0098180Y0070204D02*
X0107983Y0070204D01*
X0107983Y0069005D02*
X0105965Y0069005D01*
X0105965Y0067807D02*
X0107983Y0067807D01*
X0107983Y0066608D02*
X0105965Y0066608D01*
X0105965Y0065410D02*
X0107983Y0065410D01*
X0107983Y0064211D02*
X0105468Y0064211D01*
X0107983Y0063013D02*
X0097983Y0063013D01*
X0097983Y0064211D02*
X0100498Y0064211D01*
X0097480Y0064986D02*
X0097480Y0064986D01*
X0097983Y0061814D02*
X0107983Y0061814D01*
X0107983Y0060616D02*
X0097983Y0060616D01*
X0095783Y0059417D02*
X0107983Y0059417D01*
X0107983Y0058219D02*
X0096927Y0058219D01*
X0097152Y0057020D02*
X0107983Y0057020D01*
X0107983Y0055822D02*
X0097152Y0055822D01*
X0097152Y0054623D02*
X0107983Y0054623D01*
X0107983Y0053425D02*
X0097152Y0053425D01*
X0096709Y0052226D02*
X0107983Y0052226D01*
X0107983Y0051028D02*
X0097549Y0051028D01*
X0097552Y0049829D02*
X0107983Y0049829D01*
X0106800Y0048631D02*
X0094368Y0048631D01*
X0094368Y0048255D02*
X0097552Y0048255D01*
X0097552Y0046263D01*
X0097443Y0045856D01*
X0097232Y0045491D01*
X0096934Y0045193D01*
X0096569Y0044983D01*
X0096163Y0044874D01*
X0094368Y0044874D01*
X0094368Y0048255D01*
X0094368Y0047432D02*
X0093599Y0047432D01*
X0093599Y0046234D02*
X0094368Y0046234D01*
X0094368Y0045035D02*
X0093599Y0045035D01*
X0096660Y0045035D02*
X0103205Y0045035D01*
X0104403Y0046234D02*
X0097544Y0046234D01*
X0097552Y0047432D02*
X0105602Y0047432D01*
X0090418Y0051028D02*
X0079983Y0051028D01*
X0075983Y0045035D02*
X0075552Y0045035D01*
X0075520Y0043837D02*
X0075983Y0043837D01*
X0075983Y0042638D02*
X0074815Y0042638D01*
X0072368Y0047432D02*
X0071599Y0047432D01*
X0071599Y0048631D02*
X0072368Y0048631D01*
X0072368Y0049829D02*
X0071599Y0049829D01*
X0069122Y0049829D02*
X0067845Y0049829D01*
X0069159Y0060616D02*
X0075983Y0060616D01*
X0075983Y0061814D02*
X0070358Y0061814D01*
X0062167Y0074998D02*
X0059893Y0074998D01*
X0060383Y0076196D02*
X0063366Y0076196D01*
X0064002Y0077395D02*
X0060383Y0077395D01*
X0060383Y0078594D02*
X0064002Y0078594D01*
X0064531Y0079792D02*
X0060253Y0079792D01*
X0051550Y0089380D02*
X0049783Y0089380D01*
X0049783Y0090579D02*
X0051983Y0090579D01*
X0051983Y0091777D02*
X0049783Y0091777D01*
X0049783Y0092976D02*
X0051983Y0092976D01*
X0051983Y0094174D02*
X0049783Y0094174D01*
X0049783Y0095373D02*
X0052099Y0095373D01*
X0051983Y0096571D02*
X0049783Y0096571D01*
X0049783Y0097770D02*
X0051983Y0097770D01*
X0051983Y0098968D02*
X0049783Y0098968D01*
X0049783Y0100167D02*
X0052668Y0100167D01*
X0054183Y0101365D02*
X0049783Y0101365D01*
X0049783Y0102564D02*
X0054183Y0102564D01*
X0054183Y0103762D02*
X0049783Y0103762D01*
X0049783Y0104961D02*
X0054183Y0104961D01*
X0054183Y0106159D02*
X0049783Y0106159D01*
X0049783Y0107358D02*
X0054183Y0107358D01*
X0054183Y0108556D02*
X0049783Y0108556D01*
X0049783Y0109755D02*
X0054183Y0109755D01*
X0054183Y0110953D02*
X0049783Y0110953D01*
X0049783Y0112152D02*
X0054183Y0112152D01*
X0054461Y0113350D02*
X0049783Y0113350D01*
X0049783Y0114549D02*
X0055659Y0114549D01*
X0056858Y0115747D02*
X0049783Y0115747D01*
X0049783Y0116946D02*
X0058056Y0116946D01*
X0059255Y0118144D02*
X0049783Y0118144D01*
X0049783Y0119343D02*
X0056530Y0119343D01*
X0057009Y0119145D02*
X0058958Y0119145D01*
X0060759Y0119891D01*
X0062137Y0121269D01*
X0062883Y0123070D01*
X0062883Y0125019D01*
X0062137Y0126820D01*
X0060759Y0128199D01*
X0058958Y0128945D01*
X0057009Y0128945D01*
X0055208Y0128199D01*
X0053829Y0126820D01*
X0053083Y0125019D01*
X0053083Y0123070D01*
X0053829Y0121269D01*
X0055208Y0119891D01*
X0057009Y0119145D01*
X0059437Y0119343D02*
X0060453Y0119343D01*
X0061410Y0120541D02*
X0061652Y0120541D01*
X0062332Y0121740D02*
X0062850Y0121740D01*
X0062829Y0122938D02*
X0063138Y0122938D01*
X0063083Y0124137D02*
X0062883Y0124137D01*
X0062752Y0125335D02*
X0063214Y0125335D01*
X0063711Y0126534D02*
X0062256Y0126534D01*
X0061225Y0127732D02*
X0064742Y0127732D01*
X0066976Y0128931D02*
X0058991Y0128931D01*
X0056976Y0128931D02*
X0049783Y0128931D01*
X0049783Y0127732D02*
X0054742Y0127732D01*
X0053711Y0126534D02*
X0049783Y0126534D01*
X0049783Y0125335D02*
X0053214Y0125335D01*
X0053083Y0124137D02*
X0049783Y0124137D01*
X0049783Y0122938D02*
X0053138Y0122938D01*
X0053634Y0121740D02*
X0049783Y0121740D01*
X0049783Y0120541D02*
X0054557Y0120541D01*
X0046183Y0120541D02*
X0043783Y0120541D01*
X0043783Y0119343D02*
X0046183Y0119343D01*
X0046183Y0118144D02*
X0043783Y0118144D01*
X0043783Y0116946D02*
X0046183Y0116946D01*
X0046183Y0115747D02*
X0043783Y0115747D01*
X0043783Y0114549D02*
X0046183Y0114549D01*
X0046183Y0113350D02*
X0043783Y0113350D01*
X0043783Y0112152D02*
X0046183Y0112152D01*
X0046183Y0110953D02*
X0043497Y0110953D01*
X0042298Y0109755D02*
X0046183Y0109755D01*
X0046183Y0108556D02*
X0041100Y0108556D01*
X0039901Y0107358D02*
X0046183Y0107358D01*
X0046183Y0106159D02*
X0037824Y0106159D01*
X0038195Y0104961D02*
X0046183Y0104961D01*
X0046183Y0103762D02*
X0033383Y0103762D01*
X0037597Y0101365D02*
X0046183Y0101365D01*
X0046183Y0100167D02*
X0036660Y0100167D01*
X0034693Y0098968D02*
X0046183Y0098968D01*
X0046183Y0097770D02*
X0036129Y0097770D01*
X0037216Y0096571D02*
X0046183Y0096571D01*
X0046183Y0095373D02*
X0037713Y0095373D01*
X0037883Y0094174D02*
X0046183Y0094174D01*
X0046183Y0092976D02*
X0037869Y0092976D01*
X0037372Y0091777D02*
X0046183Y0091777D01*
X0046183Y0090579D02*
X0036506Y0090579D01*
X0034669Y0089380D02*
X0045832Y0089380D01*
X0044634Y0088182D02*
X0035658Y0088182D01*
X0035759Y0088140D02*
X0033958Y0088886D01*
X0032009Y0088886D01*
X0030208Y0088140D01*
X0028829Y0086761D01*
X0028083Y0084960D01*
X0028083Y0083011D01*
X0028829Y0081210D01*
X0030208Y0079832D01*
X0032009Y0079086D01*
X0033958Y0079086D01*
X0035759Y0079832D01*
X0037137Y0081210D01*
X0037883Y0083011D01*
X0037883Y0084960D01*
X0037137Y0086761D01*
X0035759Y0088140D01*
X0036916Y0086983D02*
X0043435Y0086983D01*
X0043183Y0085785D02*
X0037542Y0085785D01*
X0037883Y0084586D02*
X0043183Y0084586D01*
X0043183Y0083388D02*
X0037883Y0083388D01*
X0037543Y0082189D02*
X0043183Y0082189D01*
X0043183Y0080991D02*
X0036918Y0080991D01*
X0035664Y0079792D02*
X0043183Y0079792D01*
X0043183Y0078594D02*
X0034663Y0078594D01*
X0033958Y0078886D02*
X0032009Y0078886D01*
X0030208Y0078140D01*
X0028829Y0076761D01*
X0028083Y0074960D01*
X0028083Y0073011D01*
X0028829Y0071210D01*
X0030208Y0069832D01*
X0032009Y0069086D01*
X0033958Y0069086D01*
X0035759Y0069832D01*
X0037137Y0071210D01*
X0037883Y0073011D01*
X0037883Y0074960D01*
X0037137Y0076761D01*
X0035759Y0078140D01*
X0033958Y0078886D01*
X0036504Y0077395D02*
X0043183Y0077395D01*
X0043183Y0076196D02*
X0037371Y0076196D01*
X0037868Y0074998D02*
X0043183Y0074998D01*
X0043183Y0073799D02*
X0037883Y0073799D01*
X0037714Y0072601D02*
X0043183Y0072601D01*
X0043183Y0071402D02*
X0037217Y0071402D01*
X0036131Y0070204D02*
X0043183Y0070204D01*
X0043183Y0069005D02*
X0009583Y0069005D01*
X0009583Y0067807D02*
X0019875Y0067807D01*
X0018766Y0066608D02*
X0009583Y0066608D01*
X0009583Y0065410D02*
X0018270Y0065410D01*
X0018083Y0064211D02*
X0009583Y0064211D01*
X0009583Y0063013D02*
X0018083Y0063013D01*
X0018579Y0061814D02*
X0009583Y0061814D01*
X0009583Y0060616D02*
X0019423Y0060616D01*
X0026543Y0060616D02*
X0027068Y0060616D01*
X0027388Y0061814D02*
X0028579Y0061814D01*
X0028083Y0063013D02*
X0027883Y0063013D01*
X0027883Y0064211D02*
X0028083Y0064211D01*
X0028270Y0065410D02*
X0027697Y0065410D01*
X0027201Y0066608D02*
X0028766Y0066608D01*
X0029875Y0067807D02*
X0026092Y0067807D01*
X0025759Y0069832D02*
X0023958Y0069086D01*
X0022009Y0069086D01*
X0020208Y0069832D01*
X0018829Y0071210D01*
X0018083Y0073011D01*
X0018083Y0074960D01*
X0018829Y0076761D01*
X0020208Y0078140D01*
X0022009Y0078886D01*
X0023958Y0078886D01*
X0025759Y0078140D01*
X0027137Y0076761D01*
X0027883Y0074960D01*
X0027883Y0073011D01*
X0027137Y0071210D01*
X0025759Y0069832D01*
X0026131Y0070204D02*
X0029835Y0070204D01*
X0028750Y0071402D02*
X0027217Y0071402D01*
X0027714Y0072601D02*
X0028253Y0072601D01*
X0028083Y0073799D02*
X0027883Y0073799D01*
X0027868Y0074998D02*
X0028099Y0074998D01*
X0028595Y0076196D02*
X0027371Y0076196D01*
X0026504Y0077395D02*
X0029463Y0077395D01*
X0031304Y0078594D02*
X0024663Y0078594D01*
X0023958Y0079086D02*
X0025759Y0079832D01*
X0027137Y0081210D01*
X0027883Y0083011D01*
X0027883Y0084960D01*
X0027137Y0086761D01*
X0025759Y0088140D01*
X0023958Y0088886D01*
X0022009Y0088886D01*
X0020208Y0088140D01*
X0018829Y0086761D01*
X0018083Y0084960D01*
X0018083Y0083011D01*
X0018829Y0081210D01*
X0020208Y0079832D01*
X0022009Y0079086D01*
X0023958Y0079086D01*
X0025664Y0079792D02*
X0030303Y0079792D01*
X0029049Y0080991D02*
X0026918Y0080991D01*
X0027543Y0082189D02*
X0028424Y0082189D01*
X0028083Y0083388D02*
X0027883Y0083388D01*
X0027883Y0084586D02*
X0028083Y0084586D01*
X0028425Y0085785D02*
X0027542Y0085785D01*
X0026916Y0086983D02*
X0029051Y0086983D01*
X0030309Y0088182D02*
X0025658Y0088182D01*
X0024669Y0089380D02*
X0031298Y0089380D01*
X0029461Y0090579D02*
X0026506Y0090579D01*
X0027372Y0091777D02*
X0028594Y0091777D01*
X0028098Y0092976D02*
X0027869Y0092976D01*
X0027883Y0094174D02*
X0028083Y0094174D01*
X0028254Y0095373D02*
X0027713Y0095373D01*
X0027216Y0096571D02*
X0028751Y0096571D01*
X0021298Y0089380D02*
X0009583Y0089380D01*
X0009583Y0088182D02*
X0020309Y0088182D01*
X0019051Y0086983D02*
X0009583Y0086983D01*
X0009583Y0085785D02*
X0018425Y0085785D01*
X0018083Y0084586D02*
X0009583Y0084586D01*
X0009583Y0083388D02*
X0018083Y0083388D01*
X0018424Y0082189D02*
X0009583Y0082189D01*
X0009583Y0080991D02*
X0019049Y0080991D01*
X0020303Y0079792D02*
X0009583Y0079792D01*
X0009583Y0078594D02*
X0021304Y0078594D01*
X0019463Y0077395D02*
X0009583Y0077395D01*
X0009583Y0076196D02*
X0018595Y0076196D01*
X0018099Y0074998D02*
X0009583Y0074998D01*
X0009583Y0073799D02*
X0018083Y0073799D01*
X0018253Y0072601D02*
X0009583Y0072601D01*
X0009583Y0071402D02*
X0018750Y0071402D01*
X0019835Y0070204D02*
X0009583Y0070204D01*
X0009583Y0090579D02*
X0019461Y0090579D01*
X0018594Y0091777D02*
X0009583Y0091777D01*
X0009583Y0092976D02*
X0018098Y0092976D01*
X0018083Y0094174D02*
X0009583Y0094174D01*
X0009583Y0095373D02*
X0018254Y0095373D01*
X0018751Y0096571D02*
X0009583Y0096571D01*
X0009583Y0097770D02*
X0019838Y0097770D01*
X0024753Y0108556D02*
X0025009Y0108556D01*
X0027883Y0110953D02*
X0028083Y0110953D01*
X0028083Y0112152D02*
X0027883Y0112152D01*
X0027883Y0113350D02*
X0028083Y0113350D01*
X0028083Y0114549D02*
X0027883Y0114549D01*
X0027883Y0115747D02*
X0028083Y0115747D01*
X0028083Y0116946D02*
X0027883Y0116946D01*
X0027883Y0118144D02*
X0028083Y0118144D01*
X0030183Y0119343D02*
X0011783Y0119343D01*
X0011783Y0120541D02*
X0030183Y0120541D01*
X0030183Y0121740D02*
X0011783Y0121740D01*
X0011783Y0122938D02*
X0014778Y0122938D01*
X0014853Y0122810D02*
X0014564Y0123309D01*
X0014415Y0123866D01*
X0014415Y0125149D01*
X0017599Y0125149D01*
X0017599Y0125917D01*
X0014415Y0125917D01*
X0014415Y0127199D01*
X0014564Y0127756D01*
X0014853Y0128256D01*
X0015260Y0128664D01*
X0015760Y0128952D01*
X0016317Y0129101D01*
X0017599Y0129101D01*
X0017599Y0125917D01*
X0018368Y0125917D01*
X0021552Y0125917D01*
X0021552Y0127199D01*
X0021403Y0127756D01*
X0021114Y0128256D01*
X0020706Y0128664D01*
X0020207Y0128952D01*
X0019650Y0129101D01*
X0018368Y0129101D01*
X0018368Y0125917D01*
X0018368Y0125149D01*
X0021552Y0125149D01*
X0021552Y0123866D01*
X0021403Y0123309D01*
X0021114Y0122810D01*
X0020706Y0122402D01*
X0020207Y0122114D01*
X0019650Y0121964D01*
X0018368Y0121964D01*
X0018368Y0125148D01*
X0017599Y0125148D01*
X0017599Y0121964D01*
X0016317Y0121964D01*
X0015760Y0122114D01*
X0015260Y0122402D01*
X0014853Y0122810D01*
X0014415Y0124137D02*
X0011783Y0124137D01*
X0011783Y0125335D02*
X0017599Y0125335D01*
X0017983Y0125533D02*
X0017983Y0122986D01*
X0013983Y0118986D01*
X0011783Y0118144D02*
X0018083Y0118144D01*
X0018083Y0116946D02*
X0011783Y0116946D01*
X0017599Y0122938D02*
X0018368Y0122938D01*
X0018368Y0124137D02*
X0017599Y0124137D01*
X0018368Y0125335D02*
X0022815Y0125335D01*
X0022815Y0124137D02*
X0021552Y0124137D01*
X0021188Y0122938D02*
X0022853Y0122938D01*
X0022815Y0126534D02*
X0021552Y0126534D01*
X0021409Y0127732D02*
X0022815Y0127732D01*
X0023444Y0128931D02*
X0020243Y0128931D01*
X0020963Y0130130D02*
X0022815Y0130130D01*
X0025983Y0132332D02*
X0018090Y0132332D01*
X0017983Y0132438D01*
X0014815Y0132527D02*
X0011783Y0132527D01*
X0011783Y0133725D02*
X0014815Y0133725D01*
X0015181Y0134924D02*
X0011783Y0134924D01*
X0011783Y0131328D02*
X0014815Y0131328D01*
X0015004Y0130130D02*
X0011783Y0130130D01*
X0011783Y0128931D02*
X0015724Y0128931D01*
X0014558Y0127732D02*
X0011783Y0127732D01*
X0011783Y0126534D02*
X0014415Y0126534D01*
X0017599Y0126534D02*
X0018368Y0126534D01*
X0018368Y0127732D02*
X0017599Y0127732D01*
X0017599Y0128931D02*
X0018368Y0128931D01*
X0020786Y0134924D02*
X0022815Y0134924D01*
X0023160Y0139718D02*
X0030183Y0139718D01*
X0030183Y0140916D02*
X0024975Y0140916D01*
X0025964Y0142115D02*
X0030183Y0142115D01*
X0030183Y0143313D02*
X0029271Y0143313D01*
X0026145Y0148107D02*
X0025860Y0148107D01*
X0024724Y0149306D02*
X0027344Y0149306D01*
X0028542Y0150504D02*
X0022555Y0150504D01*
X0038052Y0170879D02*
X0055830Y0170879D01*
X0055557Y0166085D02*
X0053451Y0166085D01*
X0053552Y0164886D02*
X0054733Y0164886D01*
X0054733Y0163688D02*
X0050368Y0163688D01*
X0049599Y0163688D02*
X0043783Y0163688D01*
X0043783Y0164886D02*
X0046415Y0164886D01*
X0046516Y0166085D02*
X0044628Y0166085D01*
X0043783Y0162489D02*
X0046415Y0162489D01*
X0046415Y0161291D02*
X0043783Y0161291D01*
X0043783Y0160092D02*
X0046827Y0160092D01*
X0046815Y0158894D02*
X0043783Y0158894D01*
X0043783Y0157695D02*
X0046815Y0157695D01*
X0046815Y0156497D02*
X0043783Y0156497D01*
X0043783Y0155298D02*
X0046815Y0155298D01*
X0046815Y0154100D02*
X0043783Y0154100D01*
X0043783Y0152901D02*
X0055133Y0152901D01*
X0055133Y0154100D02*
X0053152Y0154100D01*
X0053152Y0155298D02*
X0055249Y0155298D01*
X0055425Y0156497D02*
X0053152Y0156497D01*
X0051830Y0158486D02*
X0049983Y0156639D01*
X0051830Y0158486D02*
X0060683Y0158486D01*
X0060683Y0153486D02*
X0060683Y0146686D01*
X0056983Y0142986D01*
X0048983Y0142986D01*
X0047983Y0141986D01*
X0047983Y0088986D01*
X0044983Y0085986D01*
X0044983Y0065986D01*
X0037983Y0058986D01*
X0039762Y0058219D02*
X0047983Y0058219D01*
X0047983Y0059417D02*
X0040961Y0059417D01*
X0042159Y0060616D02*
X0047983Y0060616D01*
X0047983Y0061814D02*
X0043358Y0061814D01*
X0044556Y0063013D02*
X0047983Y0063013D01*
X0047983Y0064211D02*
X0045755Y0064211D01*
X0046783Y0065410D02*
X0047983Y0065410D01*
X0047983Y0066608D02*
X0046783Y0066608D01*
X0046783Y0067807D02*
X0047983Y0067807D01*
X0047983Y0069005D02*
X0046783Y0069005D01*
X0046783Y0070204D02*
X0047983Y0070204D01*
X0047983Y0071402D02*
X0046783Y0071402D01*
X0046783Y0072601D02*
X0047983Y0072601D01*
X0047983Y0073799D02*
X0046783Y0073799D01*
X0046783Y0074998D02*
X0047983Y0074998D01*
X0047983Y0076196D02*
X0046783Y0076196D01*
X0046783Y0077395D02*
X0047983Y0077395D01*
X0047983Y0078594D02*
X0046783Y0078594D01*
X0046783Y0079792D02*
X0047983Y0079792D01*
X0047983Y0080991D02*
X0046783Y0080991D01*
X0046783Y0082189D02*
X0047983Y0082189D01*
X0047983Y0083388D02*
X0046783Y0083388D01*
X0046783Y0084586D02*
X0047983Y0084586D01*
X0047983Y0085785D02*
X0047328Y0085785D01*
X0048527Y0086983D02*
X0049153Y0086983D01*
X0049725Y0088182D02*
X0050351Y0088182D01*
X0046183Y0102564D02*
X0038094Y0102564D01*
X0037883Y0110953D02*
X0038406Y0110953D01*
X0037883Y0112152D02*
X0039604Y0112152D01*
X0040183Y0113350D02*
X0037883Y0113350D01*
X0037883Y0114549D02*
X0040183Y0114549D01*
X0040183Y0115747D02*
X0037883Y0115747D01*
X0037883Y0116946D02*
X0040183Y0116946D01*
X0040183Y0118144D02*
X0037883Y0118144D01*
X0035783Y0119343D02*
X0040183Y0119343D01*
X0040183Y0120541D02*
X0035783Y0120541D01*
X0035783Y0121740D02*
X0040183Y0121740D01*
X0040183Y0122938D02*
X0035783Y0122938D01*
X0035783Y0124137D02*
X0040183Y0124137D01*
X0040183Y0125335D02*
X0035783Y0125335D01*
X0030183Y0122938D02*
X0029114Y0122938D01*
X0043783Y0122938D02*
X0046183Y0122938D01*
X0046183Y0121740D02*
X0043783Y0121740D01*
X0043783Y0124137D02*
X0046183Y0124137D01*
X0046183Y0125335D02*
X0043783Y0125335D01*
X0043783Y0126534D02*
X0046183Y0126534D01*
X0046183Y0127732D02*
X0043783Y0127732D01*
X0043783Y0128931D02*
X0046183Y0128931D01*
X0046183Y0130130D02*
X0043783Y0130130D01*
X0043783Y0131328D02*
X0046183Y0131328D01*
X0046183Y0132527D02*
X0043783Y0132527D01*
X0043783Y0133725D02*
X0046183Y0133725D01*
X0046183Y0134924D02*
X0043783Y0134924D01*
X0043783Y0136122D02*
X0046183Y0136122D01*
X0046183Y0137321D02*
X0043783Y0137321D01*
X0043783Y0138519D02*
X0046183Y0138519D01*
X0046183Y0139718D02*
X0043783Y0139718D01*
X0043783Y0140916D02*
X0046183Y0140916D01*
X0046183Y0142115D02*
X0043783Y0142115D01*
X0043783Y0143313D02*
X0046765Y0143313D01*
X0047964Y0144512D02*
X0043783Y0144512D01*
X0043783Y0145710D02*
X0057162Y0145710D01*
X0058361Y0146909D02*
X0043783Y0146909D01*
X0043783Y0148107D02*
X0058883Y0148107D01*
X0058883Y0149306D02*
X0043783Y0149306D01*
X0043783Y0150504D02*
X0058883Y0150504D01*
X0055219Y0151703D02*
X0043783Y0151703D01*
X0053552Y0161291D02*
X0055065Y0161291D01*
X0054733Y0162489D02*
X0053552Y0162489D01*
X0042846Y0175673D02*
X0069183Y0175673D01*
X0069183Y0176871D02*
X0044044Y0176871D01*
X0048152Y0178070D02*
X0050815Y0178070D01*
X0057152Y0182864D02*
X0058316Y0182864D01*
X0059515Y0184063D02*
X0057111Y0184063D01*
X0057552Y0185261D02*
X0060713Y0185261D01*
X0061912Y0186460D02*
X0057552Y0186460D01*
X0057552Y0188857D02*
X0115983Y0188857D01*
X0115983Y0190055D02*
X0057459Y0190055D01*
X0054368Y0187658D02*
X0111397Y0187658D01*
X0112511Y0191254D02*
X0115983Y0191254D01*
X0115983Y0192452D02*
X0112965Y0192452D01*
X0112965Y0193651D02*
X0115983Y0193651D01*
X0115983Y0194849D02*
X0112965Y0194849D01*
X0112965Y0196048D02*
X0115983Y0196048D01*
X0107002Y0196048D02*
X0047750Y0196048D01*
X0045688Y0192452D02*
X0037136Y0192452D01*
X0037158Y0192314D02*
X0037055Y0192963D01*
X0036852Y0193588D01*
X0036554Y0194174D01*
X0036168Y0194705D01*
X0035703Y0195170D01*
X0035171Y0195556D01*
X0034586Y0195854D01*
X0033961Y0196058D01*
X0033312Y0196160D01*
X0033171Y0196160D01*
X0033171Y0192173D01*
X0037158Y0192173D01*
X0037158Y0192314D01*
X0037158Y0191798D02*
X0033171Y0191798D01*
X0033171Y0192173D01*
X0032796Y0192173D01*
X0032796Y0196160D01*
X0032655Y0196160D01*
X0032006Y0196058D01*
X0031381Y0195854D01*
X0030795Y0195556D01*
X0030264Y0195170D01*
X0029799Y0194705D01*
X0029413Y0194174D01*
X0029114Y0193588D01*
X0028911Y0192963D01*
X0028809Y0192314D01*
X0028809Y0192173D01*
X0032796Y0192173D01*
X0032796Y0191798D01*
X0033171Y0191798D01*
X0033171Y0187811D01*
X0033312Y0187811D01*
X0033961Y0187914D01*
X0034586Y0188117D01*
X0035171Y0188415D01*
X0035703Y0188801D01*
X0036168Y0189266D01*
X0036554Y0189797D01*
X0036852Y0190383D01*
X0037055Y0191008D01*
X0037158Y0191657D01*
X0037158Y0191798D01*
X0037094Y0191254D02*
X0107456Y0191254D01*
X0098004Y0206834D02*
X0095408Y0206834D01*
X0095408Y0208033D02*
X0099202Y0208033D01*
X0100401Y0209231D02*
X0095408Y0209231D01*
X0101599Y0210430D02*
X0083783Y0210430D01*
X0083783Y0211628D02*
X0102798Y0211628D01*
X0103983Y0212827D02*
X0083783Y0212827D01*
X0083783Y0214025D02*
X0103983Y0214025D01*
X0103983Y0215224D02*
X0083783Y0215224D01*
X0083783Y0216422D02*
X0103983Y0216422D01*
X0102272Y0217621D02*
X0083783Y0217621D01*
X0083783Y0218819D02*
X0102272Y0218819D01*
X0102272Y0220018D02*
X0083783Y0220018D01*
X0083783Y0221216D02*
X0102272Y0221216D01*
X0102272Y0222415D02*
X0083783Y0222415D01*
X0084796Y0232003D02*
X0089171Y0232003D01*
X0088559Y0233201D02*
X0085408Y0233201D01*
X0085408Y0234400D02*
X0088559Y0234400D01*
X0088559Y0235598D02*
X0085408Y0235598D01*
X0085408Y0236797D02*
X0088559Y0236797D01*
X0094796Y0232003D02*
X0103455Y0232003D01*
X0102257Y0230804D02*
X0032244Y0230804D01*
X0032244Y0229606D02*
X0101058Y0229606D01*
X0105435Y0237996D02*
X0095408Y0237996D01*
X0096091Y0239194D02*
X0104887Y0239194D01*
X0104887Y0240393D02*
X0097290Y0240393D01*
X0098488Y0241591D02*
X0104887Y0241591D01*
X0104887Y0242790D02*
X0099687Y0242790D01*
X0100885Y0243988D02*
X0104887Y0243988D01*
X0104887Y0245187D02*
X0102084Y0245187D01*
X0104211Y0246385D02*
X0104887Y0246385D01*
X0106506Y0248680D02*
X0106983Y0249157D01*
X0106983Y0251157D01*
X0107812Y0251986D01*
X0114155Y0251986D01*
X0115905Y0250236D01*
X0115905Y0248280D01*
X0115833Y0248280D01*
X0115444Y0247891D01*
X0115055Y0248280D01*
X0110912Y0248280D01*
X0110806Y0248174D01*
X0110619Y0248360D01*
X0110255Y0248571D01*
X0109848Y0248680D01*
X0108250Y0248680D01*
X0108250Y0243331D01*
X0107875Y0243331D01*
X0107875Y0248680D01*
X0106506Y0248680D01*
X0106608Y0248782D02*
X0115905Y0248782D01*
X0115905Y0249981D02*
X0106983Y0249981D01*
X0107005Y0251179D02*
X0114961Y0251179D01*
X0117023Y0254775D02*
X0122413Y0254775D01*
X0122413Y0255973D02*
X0115824Y0255973D01*
X0118221Y0253576D02*
X0122413Y0253576D01*
X0122413Y0252378D02*
X0119420Y0252378D01*
X0119905Y0251179D02*
X0122413Y0251179D01*
X0122413Y0249981D02*
X0119905Y0249981D01*
X0119905Y0248782D02*
X0122675Y0248782D01*
X0120673Y0247584D02*
X0137637Y0247584D01*
X0137637Y0248782D02*
X0132820Y0248782D01*
X0133081Y0249981D02*
X0136272Y0249981D01*
X0136272Y0251179D02*
X0133081Y0251179D01*
X0133081Y0252378D02*
X0136272Y0252378D01*
X0136272Y0253576D02*
X0133081Y0253576D01*
X0133081Y0254775D02*
X0136595Y0254775D01*
X0133081Y0255973D02*
X0150990Y0255973D01*
X0151014Y0256127D02*
X0150883Y0255303D01*
X0150883Y0255286D01*
X0155783Y0255286D01*
X0155783Y0260186D01*
X0155766Y0260186D01*
X0154942Y0260055D01*
X0154149Y0259797D01*
X0153406Y0259419D01*
X0152731Y0258928D01*
X0152141Y0258338D01*
X0151650Y0257663D01*
X0151272Y0256920D01*
X0151014Y0256127D01*
X0151400Y0257172D02*
X0133081Y0257172D01*
X0133081Y0258370D02*
X0152173Y0258370D01*
X0153700Y0259569D02*
X0133081Y0259569D01*
X0133081Y0260767D02*
X0210084Y0260767D01*
X0210084Y0259569D02*
X0184266Y0259569D01*
X0184561Y0259419D02*
X0183818Y0259797D01*
X0183024Y0260055D01*
X0182201Y0260186D01*
X0182183Y0260186D01*
X0182183Y0255286D01*
X0181383Y0255286D01*
X0181383Y0260186D01*
X0181366Y0260186D01*
X0180542Y0260055D01*
X0179749Y0259797D01*
X0179006Y0259419D01*
X0178331Y0258928D01*
X0177741Y0258338D01*
X0177250Y0257663D01*
X0176872Y0256920D01*
X0176614Y0256127D01*
X0176483Y0255303D01*
X0176483Y0255286D01*
X0181383Y0255286D01*
X0181383Y0254486D01*
X0176483Y0254486D01*
X0176483Y0254468D01*
X0176614Y0253644D01*
X0176872Y0252851D01*
X0177250Y0252108D01*
X0177741Y0251433D01*
X0178331Y0250843D01*
X0179006Y0250353D01*
X0179749Y0249974D01*
X0180542Y0249716D01*
X0181366Y0249586D01*
X0181383Y0249586D01*
X0181383Y0254485D01*
X0182183Y0254485D01*
X0182183Y0249586D01*
X0182201Y0249586D01*
X0183024Y0249716D01*
X0183818Y0249974D01*
X0184561Y0250353D01*
X0185236Y0250843D01*
X0185826Y0251433D01*
X0186316Y0252108D01*
X0186695Y0252851D01*
X0186953Y0253644D01*
X0187083Y0254468D01*
X0187083Y0254486D01*
X0182183Y0254486D01*
X0182183Y0255286D01*
X0187083Y0255286D01*
X0187083Y0255303D01*
X0186953Y0256127D01*
X0186695Y0256920D01*
X0186316Y0257663D01*
X0185826Y0258338D01*
X0185236Y0258928D01*
X0184561Y0259419D01*
X0185794Y0258370D02*
X0210084Y0258370D01*
X0210084Y0257172D02*
X0186567Y0257172D01*
X0186977Y0255973D02*
X0210084Y0255973D01*
X0210084Y0254775D02*
X0182183Y0254775D01*
X0181383Y0254775D02*
X0156583Y0254775D01*
X0156583Y0254486D02*
X0156583Y0255286D01*
X0155783Y0255286D01*
X0155783Y0254486D01*
X0150883Y0254486D01*
X0150883Y0254468D01*
X0151014Y0253644D01*
X0151272Y0252851D01*
X0151650Y0252108D01*
X0152141Y0251433D01*
X0152731Y0250843D01*
X0153406Y0250353D01*
X0154149Y0249974D01*
X0154942Y0249716D01*
X0155766Y0249586D01*
X0155783Y0249586D01*
X0155783Y0254485D01*
X0156583Y0254485D01*
X0156583Y0249586D01*
X0156601Y0249586D01*
X0157424Y0249716D01*
X0158218Y0249974D01*
X0158961Y0250353D01*
X0159636Y0250843D01*
X0160226Y0251433D01*
X0160716Y0252108D01*
X0161095Y0252851D01*
X0161353Y0253644D01*
X0161483Y0254468D01*
X0161483Y0254486D01*
X0156583Y0254486D01*
X0156583Y0255286D02*
X0161483Y0255286D01*
X0161483Y0255303D01*
X0161353Y0256127D01*
X0161095Y0256920D01*
X0160716Y0257663D01*
X0160226Y0258338D01*
X0159636Y0258928D01*
X0158961Y0259419D01*
X0158218Y0259797D01*
X0157424Y0260055D01*
X0156601Y0260186D01*
X0156583Y0260186D01*
X0156583Y0255286D01*
X0156583Y0255973D02*
X0155783Y0255973D01*
X0155783Y0254775D02*
X0149869Y0254775D01*
X0149776Y0254936D02*
X0149478Y0255234D01*
X0149113Y0255445D01*
X0148706Y0255554D01*
X0146714Y0255554D01*
X0146714Y0252370D01*
X0150095Y0252370D01*
X0150095Y0254165D01*
X0149986Y0254572D01*
X0149776Y0254936D01*
X0150095Y0253576D02*
X0151036Y0253576D01*
X0151513Y0252378D02*
X0150095Y0252378D01*
X0150095Y0251179D02*
X0152394Y0251179D01*
X0154136Y0249981D02*
X0150095Y0249981D01*
X0149523Y0248782D02*
X0210084Y0248782D01*
X0210084Y0249981D02*
X0183831Y0249981D01*
X0182183Y0249981D02*
X0181383Y0249981D01*
X0181383Y0251179D02*
X0182183Y0251179D01*
X0182183Y0252378D02*
X0181383Y0252378D01*
X0181383Y0253576D02*
X0182183Y0253576D01*
X0182183Y0255973D02*
X0181383Y0255973D01*
X0181383Y0257172D02*
X0182183Y0257172D01*
X0182183Y0258370D02*
X0181383Y0258370D01*
X0181383Y0259569D02*
X0182183Y0259569D01*
X0179300Y0259569D02*
X0158666Y0259569D01*
X0160194Y0258370D02*
X0177773Y0258370D01*
X0177000Y0257172D02*
X0160967Y0257172D01*
X0161377Y0255973D02*
X0176590Y0255973D01*
X0176636Y0253576D02*
X0161331Y0253576D01*
X0160854Y0252378D02*
X0177113Y0252378D01*
X0177994Y0251179D02*
X0159972Y0251179D01*
X0158231Y0249981D02*
X0179736Y0249981D01*
X0185572Y0251179D02*
X0210084Y0251179D01*
X0210084Y0252378D02*
X0186454Y0252378D01*
X0186931Y0253576D02*
X0210084Y0253576D01*
X0210084Y0261966D02*
X0132964Y0261966D01*
X0122530Y0261966D02*
X0103436Y0261966D01*
X0103553Y0260767D02*
X0122413Y0260767D01*
X0122413Y0259569D02*
X0103553Y0259569D01*
X0103553Y0258370D02*
X0122413Y0258370D01*
X0122413Y0257172D02*
X0103553Y0257172D01*
X0103553Y0255973D02*
X0106143Y0255973D01*
X0104944Y0254775D02*
X0103553Y0254775D01*
X0103553Y0253576D02*
X0103746Y0253576D01*
X0107875Y0247584D02*
X0108250Y0247584D01*
X0108250Y0246385D02*
X0107875Y0246385D01*
X0107875Y0245187D02*
X0108250Y0245187D01*
X0108250Y0243988D02*
X0107875Y0243988D01*
X0107875Y0242790D02*
X0108250Y0242790D01*
X0108250Y0241591D02*
X0107875Y0241591D01*
X0107875Y0240393D02*
X0108250Y0240393D01*
X0108250Y0239194D02*
X0107875Y0239194D01*
X0107875Y0237996D02*
X0108250Y0237996D01*
X0110689Y0237996D02*
X0110983Y0237996D01*
X0092886Y0255973D02*
X0082368Y0255973D01*
X0081599Y0255973D02*
X0072368Y0255973D01*
X0068415Y0254775D02*
X0065552Y0254775D01*
X0065450Y0253576D02*
X0068517Y0253576D01*
X0068891Y0252378D02*
X0065076Y0252378D01*
X0065152Y0251179D02*
X0068815Y0251179D01*
X0068815Y0249981D02*
X0065152Y0249981D01*
X0065152Y0248782D02*
X0068815Y0248782D01*
X0068815Y0247584D02*
X0065152Y0247584D01*
X0064560Y0246385D02*
X0069406Y0246385D01*
X0069983Y0245187D02*
X0063983Y0245187D01*
X0063983Y0243988D02*
X0069983Y0243988D01*
X0068559Y0242790D02*
X0065408Y0242790D01*
X0065408Y0241591D02*
X0068559Y0241591D01*
X0068559Y0240393D02*
X0065408Y0240393D01*
X0065408Y0239194D02*
X0068559Y0239194D01*
X0068559Y0237996D02*
X0065408Y0237996D01*
X0065408Y0236797D02*
X0068559Y0236797D01*
X0068559Y0235598D02*
X0065408Y0235598D01*
X0065408Y0234400D02*
X0068559Y0234400D01*
X0068559Y0233201D02*
X0065408Y0233201D01*
X0064796Y0232003D02*
X0069171Y0232003D01*
X0059171Y0232003D02*
X0032244Y0232003D01*
X0032244Y0233201D02*
X0058559Y0233201D01*
X0058559Y0234400D02*
X0051139Y0234400D01*
X0051152Y0235598D02*
X0058559Y0235598D01*
X0058559Y0236797D02*
X0051152Y0236797D01*
X0051152Y0237996D02*
X0058559Y0237996D01*
X0058559Y0239194D02*
X0050610Y0239194D01*
X0050207Y0240019D02*
X0050706Y0240307D01*
X0051114Y0240715D01*
X0051403Y0241215D01*
X0051552Y0241772D01*
X0051552Y0243054D01*
X0048368Y0243054D01*
X0048368Y0243823D01*
X0047599Y0243823D01*
X0047599Y0247007D01*
X0046317Y0247007D01*
X0045760Y0246858D01*
X0045260Y0246569D01*
X0044853Y0246161D01*
X0044564Y0245662D01*
X0044415Y0245105D01*
X0044415Y0243823D01*
X0047599Y0243823D01*
X0047599Y0243054D01*
X0048368Y0243054D01*
X0048368Y0239870D01*
X0049650Y0239870D01*
X0050207Y0240019D01*
X0050791Y0240393D02*
X0058559Y0240393D01*
X0058559Y0241591D02*
X0051503Y0241591D01*
X0051552Y0242790D02*
X0058559Y0242790D01*
X0059983Y0243988D02*
X0051552Y0243988D01*
X0051552Y0243823D02*
X0051552Y0245105D01*
X0051403Y0245662D01*
X0051114Y0246161D01*
X0050706Y0246569D01*
X0050207Y0246858D01*
X0049650Y0247007D01*
X0048368Y0247007D01*
X0048368Y0243823D01*
X0051552Y0243823D01*
X0051530Y0245187D02*
X0059983Y0245187D01*
X0059406Y0246385D02*
X0050890Y0246385D01*
X0048368Y0246385D02*
X0047599Y0246385D01*
X0047599Y0245187D02*
X0048368Y0245187D01*
X0048368Y0243988D02*
X0047599Y0243988D01*
X0047599Y0242790D02*
X0048368Y0242790D01*
X0048368Y0241591D02*
X0047599Y0241591D01*
X0047599Y0240393D02*
X0048368Y0240393D01*
X0044815Y0236797D02*
X0042152Y0236797D01*
X0042152Y0235598D02*
X0044815Y0235598D01*
X0044828Y0234400D02*
X0042152Y0234400D01*
X0042152Y0237996D02*
X0043692Y0237996D01*
X0042494Y0239194D02*
X0042152Y0239194D01*
X0043357Y0243988D02*
X0044415Y0243988D01*
X0044437Y0245187D02*
X0042158Y0245187D01*
X0041761Y0246385D02*
X0045076Y0246385D01*
X0044359Y0248782D02*
X0058815Y0248782D01*
X0058815Y0247584D02*
X0032212Y0247584D01*
X0032219Y0246385D02*
X0036206Y0246385D01*
X0035815Y0245187D02*
X0032219Y0245187D01*
X0034463Y0243988D02*
X0035815Y0243988D01*
X0035815Y0242790D02*
X0035661Y0242790D01*
X0032402Y0240393D02*
X0032244Y0240393D01*
X0032244Y0239194D02*
X0033600Y0239194D01*
X0034799Y0237996D02*
X0032244Y0237996D01*
X0032244Y0236797D02*
X0035815Y0236797D01*
X0035815Y0235598D02*
X0032244Y0235598D01*
X0032244Y0234400D02*
X0035815Y0234400D01*
X0026644Y0234400D02*
X0017458Y0234400D01*
X0015583Y0234400D02*
X0014383Y0234400D01*
X0014383Y0235598D02*
X0015583Y0235598D01*
X0015583Y0236797D02*
X0014383Y0236797D01*
X0014383Y0237996D02*
X0015583Y0237996D01*
X0015583Y0239194D02*
X0014383Y0239194D01*
X0015583Y0240393D02*
X0021348Y0240393D01*
X0021064Y0240586D02*
X0020933Y0241414D01*
X0020636Y0242327D01*
X0020201Y0243183D01*
X0019636Y0243959D01*
X0018957Y0244638D01*
X0018181Y0245203D01*
X0017325Y0245639D01*
X0016412Y0245935D01*
X0015583Y0246067D01*
X0015583Y0240586D01*
X0021064Y0240586D01*
X0020876Y0241591D02*
X0021348Y0241591D01*
X0021348Y0242790D02*
X0020401Y0242790D01*
X0019608Y0243988D02*
X0021348Y0243988D01*
X0021348Y0245187D02*
X0018203Y0245187D01*
X0021348Y0246385D02*
X0009583Y0246385D01*
X0009583Y0245187D02*
X0011764Y0245187D01*
X0010359Y0243988D02*
X0009583Y0243988D01*
X0009583Y0247584D02*
X0021426Y0247584D01*
X0019753Y0248782D02*
X0034214Y0248782D01*
X0033953Y0249981D02*
X0020014Y0249981D01*
X0020014Y0251179D02*
X0033953Y0251179D01*
X0033953Y0252378D02*
X0020014Y0252378D01*
X0020014Y0253576D02*
X0033953Y0253576D01*
X0033953Y0254775D02*
X0020014Y0254775D01*
X0020014Y0255973D02*
X0033953Y0255973D01*
X0033953Y0257172D02*
X0020014Y0257172D01*
X0020014Y0258370D02*
X0033953Y0258370D01*
X0033953Y0259569D02*
X0020014Y0259569D01*
X0020014Y0260767D02*
X0033953Y0260767D01*
X0034070Y0261966D02*
X0019897Y0261966D01*
X0009608Y0248782D02*
X0009583Y0248782D01*
X0014383Y0245187D02*
X0015583Y0245187D01*
X0015583Y0243988D02*
X0014383Y0243988D01*
X0014383Y0242790D02*
X0015583Y0242790D01*
X0015583Y0241591D02*
X0014383Y0241591D01*
X0009762Y0236797D02*
X0009583Y0236797D01*
X0009583Y0235598D02*
X0010744Y0235598D01*
X0009583Y0234400D02*
X0012509Y0234400D01*
X0009583Y0233201D02*
X0026644Y0233201D01*
X0026644Y0232003D02*
X0009583Y0232003D01*
X0009583Y0230804D02*
X0026644Y0230804D01*
X0026644Y0229606D02*
X0009583Y0229606D01*
X0009583Y0228407D02*
X0026644Y0228407D01*
X0026644Y0227209D02*
X0009583Y0227209D01*
X0009583Y0226010D02*
X0026644Y0226010D01*
X0026709Y0224812D02*
X0009583Y0224812D01*
X0009583Y0223613D02*
X0027396Y0223613D01*
X0028594Y0222415D02*
X0009583Y0222415D01*
X0009583Y0221216D02*
X0029216Y0221216D01*
X0029713Y0220018D02*
X0009583Y0220018D01*
X0009583Y0218819D02*
X0030811Y0218819D01*
X0032006Y0216058D02*
X0031381Y0215854D01*
X0030795Y0215556D01*
X0030264Y0215170D01*
X0029799Y0214705D01*
X0029413Y0214174D01*
X0029114Y0213588D01*
X0028911Y0212963D01*
X0028809Y0212314D01*
X0028809Y0212173D01*
X0032796Y0212173D01*
X0032796Y0216160D01*
X0032655Y0216160D01*
X0032006Y0216058D01*
X0032796Y0215224D02*
X0033171Y0215224D01*
X0033171Y0216160D02*
X0033171Y0212173D01*
X0037158Y0212173D01*
X0037158Y0212314D01*
X0037055Y0212963D01*
X0036852Y0213588D01*
X0036554Y0214174D01*
X0036168Y0214705D01*
X0035703Y0215170D01*
X0035171Y0215556D01*
X0034586Y0215854D01*
X0033961Y0216058D01*
X0033312Y0216160D01*
X0033171Y0216160D01*
X0033171Y0214025D02*
X0032796Y0214025D01*
X0032796Y0212827D02*
X0033171Y0212827D01*
X0033171Y0212173D02*
X0032796Y0212173D01*
X0032796Y0211798D01*
X0033171Y0211798D01*
X0033171Y0212173D01*
X0033171Y0211798D02*
X0037158Y0211798D01*
X0037158Y0211657D01*
X0037055Y0211008D01*
X0036852Y0210383D01*
X0036554Y0209797D01*
X0036168Y0209266D01*
X0035703Y0208801D01*
X0035171Y0208415D01*
X0034586Y0208117D01*
X0033961Y0207914D01*
X0033312Y0207811D01*
X0033171Y0207811D01*
X0033171Y0211798D01*
X0033171Y0211628D02*
X0032796Y0211628D01*
X0032796Y0211798D02*
X0032796Y0207811D01*
X0032655Y0207811D01*
X0032006Y0207914D01*
X0031381Y0208117D01*
X0030795Y0208415D01*
X0030264Y0208801D01*
X0029799Y0209266D01*
X0029413Y0209797D01*
X0029114Y0210383D01*
X0028911Y0211008D01*
X0028809Y0211657D01*
X0028809Y0211798D01*
X0032796Y0211798D01*
X0032796Y0210430D02*
X0033171Y0210430D01*
X0033171Y0209231D02*
X0032796Y0209231D01*
X0032796Y0208033D02*
X0033171Y0208033D01*
X0034328Y0208033D02*
X0039983Y0208033D01*
X0039983Y0209231D02*
X0036133Y0209231D01*
X0036868Y0210430D02*
X0039983Y0210430D01*
X0039983Y0211628D02*
X0037154Y0211628D01*
X0037077Y0212827D02*
X0039983Y0212827D01*
X0039983Y0214025D02*
X0036630Y0214025D01*
X0035629Y0215224D02*
X0039983Y0215224D01*
X0039983Y0216422D02*
X0009583Y0216422D01*
X0009583Y0215224D02*
X0030338Y0215224D01*
X0029337Y0214025D02*
X0009583Y0214025D01*
X0009583Y0212827D02*
X0028890Y0212827D01*
X0028813Y0211628D02*
X0009583Y0211628D01*
X0009583Y0210430D02*
X0029099Y0210430D01*
X0029834Y0209231D02*
X0009583Y0209231D01*
X0009583Y0208033D02*
X0031639Y0208033D01*
X0039983Y0200842D02*
X0021668Y0200842D01*
X0020469Y0199643D02*
X0039983Y0199643D01*
X0039983Y0198445D02*
X0019271Y0198445D01*
X0018072Y0197246D02*
X0040894Y0197246D01*
X0042093Y0196048D02*
X0033992Y0196048D01*
X0033171Y0196048D02*
X0032796Y0196048D01*
X0031975Y0196048D02*
X0016874Y0196048D01*
X0015675Y0194849D02*
X0029943Y0194849D01*
X0029146Y0193651D02*
X0014477Y0193651D01*
X0013278Y0192452D02*
X0028830Y0192452D01*
X0028809Y0191798D02*
X0028809Y0191657D01*
X0028911Y0191008D01*
X0029114Y0190383D01*
X0029413Y0189797D01*
X0029799Y0189266D01*
X0030264Y0188801D01*
X0030795Y0188415D01*
X0031381Y0188117D01*
X0032006Y0187914D01*
X0032655Y0187811D01*
X0032796Y0187811D01*
X0032796Y0191798D01*
X0028809Y0191798D01*
X0028872Y0191254D02*
X0012080Y0191254D01*
X0011783Y0190055D02*
X0029282Y0190055D01*
X0030208Y0188857D02*
X0011783Y0188857D01*
X0032796Y0188857D02*
X0033171Y0188857D01*
X0033171Y0190055D02*
X0032796Y0190055D01*
X0032796Y0191254D02*
X0033171Y0191254D01*
X0033171Y0192452D02*
X0032796Y0192452D01*
X0032796Y0193651D02*
X0033171Y0193651D01*
X0033171Y0194849D02*
X0032796Y0194849D01*
X0036024Y0194849D02*
X0043291Y0194849D01*
X0044490Y0193651D02*
X0036821Y0193651D01*
X0036685Y0190055D02*
X0041508Y0190055D01*
X0041524Y0190115D02*
X0041415Y0189708D01*
X0041415Y0187716D01*
X0044599Y0187716D01*
X0044599Y0191097D01*
X0042804Y0191097D01*
X0042397Y0190988D01*
X0042032Y0190778D01*
X0041735Y0190480D01*
X0041524Y0190115D01*
X0041415Y0188857D02*
X0035758Y0188857D01*
X0044599Y0188857D02*
X0045368Y0188857D01*
X0045368Y0190055D02*
X0044599Y0190055D01*
X0035990Y0174474D02*
X0035833Y0174474D01*
X0043983Y0208033D02*
X0058559Y0208033D01*
X0058559Y0209231D02*
X0043983Y0209231D01*
X0039520Y0217621D02*
X0009583Y0217621D01*
X0019223Y0235598D02*
X0026644Y0235598D01*
X0026644Y0236797D02*
X0020205Y0236797D01*
X0020751Y0237996D02*
X0021896Y0237996D01*
X0021348Y0239194D02*
X0021034Y0239194D01*
X0024335Y0239194D02*
X0024710Y0239194D01*
X0024710Y0237996D02*
X0024335Y0237996D01*
X0024335Y0240393D02*
X0024710Y0240393D01*
X0024710Y0241591D02*
X0024335Y0241591D01*
X0024335Y0242790D02*
X0024710Y0242790D01*
X0024710Y0243988D02*
X0024335Y0243988D01*
X0024335Y0245187D02*
X0024710Y0245187D01*
X0024710Y0246385D02*
X0024335Y0246385D01*
X0024335Y0247584D02*
X0024710Y0247584D01*
X0044620Y0249981D02*
X0058815Y0249981D01*
X0058815Y0251179D02*
X0044620Y0251179D01*
X0044620Y0252378D02*
X0058891Y0252378D01*
X0058517Y0253576D02*
X0044620Y0253576D01*
X0044503Y0261966D02*
X0093003Y0261966D01*
X0082368Y0259569D02*
X0081599Y0259569D01*
X0081599Y0258370D02*
X0082368Y0258370D01*
X0082368Y0257172D02*
X0081599Y0257172D01*
X0068824Y0259569D02*
X0065143Y0259569D01*
X0065552Y0258370D02*
X0068415Y0258370D01*
X0068415Y0257172D02*
X0065552Y0257172D01*
X0062368Y0257172D02*
X0061599Y0257172D01*
X0061599Y0258370D02*
X0062368Y0258370D01*
X0062368Y0259569D02*
X0061599Y0259569D01*
X0038321Y0218819D02*
X0035156Y0218819D01*
X0065408Y0209231D02*
X0068559Y0209231D01*
X0068559Y0208033D02*
X0065408Y0208033D01*
X0065408Y0206834D02*
X0068559Y0206834D01*
X0068559Y0202040D02*
X0065408Y0202040D01*
X0065408Y0200842D02*
X0068559Y0200842D01*
X0068559Y0199643D02*
X0065408Y0199643D01*
X0065096Y0198445D02*
X0068871Y0198445D01*
X0085408Y0205636D02*
X0088559Y0205636D01*
X0088559Y0206834D02*
X0085408Y0206834D01*
X0085408Y0208033D02*
X0088559Y0208033D01*
X0088559Y0209231D02*
X0085408Y0209231D01*
X0127783Y0209231D02*
X0128183Y0209231D01*
X0128183Y0208033D02*
X0127783Y0208033D01*
X0127783Y0206834D02*
X0128183Y0206834D01*
X0128183Y0205636D02*
X0127783Y0205636D01*
X0127783Y0204437D02*
X0128183Y0204437D01*
X0128183Y0203239D02*
X0127783Y0203239D01*
X0127783Y0202040D02*
X0128183Y0202040D01*
X0128183Y0200842D02*
X0127783Y0200842D01*
X0127783Y0199643D02*
X0128183Y0199643D01*
X0128183Y0198445D02*
X0127783Y0198445D01*
X0127783Y0197246D02*
X0128183Y0197246D01*
X0128183Y0196048D02*
X0127783Y0196048D01*
X0127783Y0194849D02*
X0128183Y0194849D01*
X0128183Y0193651D02*
X0127783Y0193651D01*
X0127783Y0192452D02*
X0128183Y0192452D01*
X0128183Y0191254D02*
X0127783Y0191254D01*
X0127783Y0190055D02*
X0128183Y0190055D01*
X0128183Y0188857D02*
X0127783Y0188857D01*
X0127783Y0187658D02*
X0128183Y0187658D01*
X0128183Y0186460D02*
X0127783Y0186460D01*
X0127783Y0185261D02*
X0128183Y0185261D01*
X0128183Y0184063D02*
X0127783Y0184063D01*
X0127783Y0182864D02*
X0128183Y0182864D01*
X0128183Y0181665D02*
X0127783Y0181665D01*
X0127783Y0180467D02*
X0128956Y0180467D01*
X0129238Y0180186D02*
X0129238Y0180186D01*
X0130155Y0179268D02*
X0127783Y0179268D01*
X0127783Y0178070D02*
X0131353Y0178070D01*
X0132552Y0176871D02*
X0127783Y0176871D01*
X0127783Y0175673D02*
X0133750Y0175673D01*
X0134949Y0174474D02*
X0127783Y0174474D01*
X0127783Y0173276D02*
X0136147Y0173276D01*
X0137346Y0172077D02*
X0127783Y0172077D01*
X0127783Y0170879D02*
X0138544Y0170879D01*
X0139743Y0169680D02*
X0127783Y0169680D01*
X0135783Y0184063D02*
X0136002Y0184063D01*
X0136002Y0185261D02*
X0135783Y0185261D01*
X0135783Y0186460D02*
X0136002Y0186460D01*
X0135783Y0187658D02*
X0136397Y0187658D01*
X0135783Y0188857D02*
X0141133Y0188857D01*
X0141133Y0190055D02*
X0135783Y0190055D01*
X0135783Y0191254D02*
X0141133Y0191254D01*
X0141403Y0192452D02*
X0135783Y0192452D01*
X0135783Y0193651D02*
X0141271Y0193651D01*
X0141483Y0195486D02*
X0146683Y0195486D01*
X0140483Y0195486D01*
X0136983Y0198986D01*
X0136983Y0214986D01*
X0139983Y0217986D01*
X0178983Y0217986D01*
X0180983Y0215986D01*
X0180983Y0212986D01*
X0188983Y0204986D01*
X0192113Y0204986D01*
X0192653Y0203446D01*
X0192192Y0199986D02*
X0192653Y0198525D01*
X0192192Y0199986D02*
X0188983Y0199986D01*
X0173983Y0214986D01*
X0141983Y0214986D01*
X0139983Y0212986D01*
X0139983Y0201986D01*
X0141483Y0200486D01*
X0146683Y0200486D01*
X0141477Y0198445D02*
X0140070Y0198445D01*
X0139780Y0199643D02*
X0138871Y0199643D01*
X0136177Y0197246D02*
X0135783Y0197246D01*
X0135783Y0196048D02*
X0137376Y0196048D01*
X0138574Y0194849D02*
X0135783Y0194849D01*
X0141570Y0187658D02*
X0141609Y0187658D01*
X0138983Y0184986D02*
X0146183Y0184986D01*
X0146683Y0185486D01*
X0146683Y0190486D02*
X0152483Y0190486D01*
X0154983Y0187986D01*
X0154983Y0111986D01*
X0192983Y0073986D01*
X0191304Y0078594D02*
X0190921Y0078594D01*
X0192009Y0079086D02*
X0193958Y0079086D01*
X0195759Y0079832D01*
X0197137Y0081210D01*
X0197883Y0083011D01*
X0197883Y0084960D01*
X0197137Y0086761D01*
X0195759Y0088140D01*
X0193958Y0088886D01*
X0192009Y0088886D01*
X0191233Y0088564D01*
X0160983Y0118814D01*
X0160983Y0173157D01*
X0161312Y0173486D01*
X0162036Y0173486D01*
X0162436Y0173086D01*
X0172130Y0173086D01*
X0172833Y0173788D01*
X0172833Y0177183D01*
X0172130Y0177886D01*
X0162436Y0177886D01*
X0162036Y0177486D01*
X0159655Y0177486D01*
X0158155Y0175986D01*
X0156983Y0174814D01*
X0156983Y0117157D01*
X0188405Y0085736D01*
X0188083Y0084960D01*
X0188083Y0083011D01*
X0188829Y0081210D01*
X0190208Y0079832D01*
X0192009Y0079086D01*
X0190303Y0079792D02*
X0189723Y0079792D01*
X0189049Y0080991D02*
X0188524Y0080991D01*
X0188424Y0082189D02*
X0187325Y0082189D01*
X0188083Y0083388D02*
X0186127Y0083388D01*
X0184928Y0084586D02*
X0188083Y0084586D01*
X0188356Y0085785D02*
X0183730Y0085785D01*
X0182531Y0086983D02*
X0187157Y0086983D01*
X0185959Y0088182D02*
X0181333Y0088182D01*
X0180134Y0089380D02*
X0184760Y0089380D01*
X0183562Y0090579D02*
X0178936Y0090579D01*
X0177737Y0091777D02*
X0182363Y0091777D01*
X0181165Y0092976D02*
X0176539Y0092976D01*
X0175340Y0094174D02*
X0179966Y0094174D01*
X0178768Y0095373D02*
X0174142Y0095373D01*
X0172943Y0096571D02*
X0177569Y0096571D01*
X0176371Y0097770D02*
X0171745Y0097770D01*
X0170546Y0098968D02*
X0175172Y0098968D01*
X0173974Y0100167D02*
X0169348Y0100167D01*
X0168149Y0101365D02*
X0172775Y0101365D01*
X0171577Y0102564D02*
X0166951Y0102564D01*
X0165752Y0103762D02*
X0170378Y0103762D01*
X0169180Y0104961D02*
X0164554Y0104961D01*
X0163355Y0106159D02*
X0167981Y0106159D01*
X0166783Y0107358D02*
X0162157Y0107358D01*
X0160958Y0108556D02*
X0165584Y0108556D01*
X0164386Y0109755D02*
X0159760Y0109755D01*
X0158561Y0110953D02*
X0163187Y0110953D01*
X0161989Y0112152D02*
X0157363Y0112152D01*
X0156783Y0113350D02*
X0160790Y0113350D01*
X0159592Y0114549D02*
X0156783Y0114549D01*
X0156783Y0115747D02*
X0158393Y0115747D01*
X0157195Y0116946D02*
X0156783Y0116946D01*
X0156783Y0118144D02*
X0156983Y0118144D01*
X0156983Y0119343D02*
X0156783Y0119343D01*
X0156783Y0120541D02*
X0156983Y0120541D01*
X0156983Y0121740D02*
X0156783Y0121740D01*
X0156783Y0122938D02*
X0156983Y0122938D01*
X0156983Y0124137D02*
X0156783Y0124137D01*
X0156783Y0125335D02*
X0156983Y0125335D01*
X0156983Y0126534D02*
X0156783Y0126534D01*
X0156783Y0127732D02*
X0156983Y0127732D01*
X0156983Y0128931D02*
X0156783Y0128931D01*
X0156783Y0130130D02*
X0156983Y0130130D01*
X0156983Y0131328D02*
X0156783Y0131328D01*
X0156783Y0132527D02*
X0156983Y0132527D01*
X0156983Y0133725D02*
X0156783Y0133725D01*
X0156783Y0134924D02*
X0156983Y0134924D01*
X0156983Y0136122D02*
X0156783Y0136122D01*
X0156783Y0137321D02*
X0156983Y0137321D01*
X0156983Y0138519D02*
X0156783Y0138519D01*
X0156783Y0139718D02*
X0156983Y0139718D01*
X0156983Y0140916D02*
X0156783Y0140916D01*
X0156783Y0142115D02*
X0156983Y0142115D01*
X0156983Y0143313D02*
X0156783Y0143313D01*
X0156783Y0144512D02*
X0156983Y0144512D01*
X0156983Y0145710D02*
X0156783Y0145710D01*
X0156783Y0146909D02*
X0156983Y0146909D01*
X0156983Y0148107D02*
X0156783Y0148107D01*
X0156783Y0149306D02*
X0156983Y0149306D01*
X0156983Y0150504D02*
X0156783Y0150504D01*
X0156783Y0151703D02*
X0156983Y0151703D01*
X0156983Y0152901D02*
X0156783Y0152901D01*
X0156783Y0154100D02*
X0156983Y0154100D01*
X0156983Y0155298D02*
X0156783Y0155298D01*
X0156783Y0156497D02*
X0156983Y0156497D01*
X0156983Y0157695D02*
X0156783Y0157695D01*
X0156783Y0158894D02*
X0156983Y0158894D01*
X0156983Y0160092D02*
X0156783Y0160092D01*
X0156783Y0161291D02*
X0156983Y0161291D01*
X0156983Y0162489D02*
X0156783Y0162489D01*
X0156783Y0163688D02*
X0156983Y0163688D01*
X0156983Y0164886D02*
X0156783Y0164886D01*
X0156783Y0166085D02*
X0156983Y0166085D01*
X0156983Y0167283D02*
X0156783Y0167283D01*
X0156783Y0168482D02*
X0156983Y0168482D01*
X0156983Y0169680D02*
X0156783Y0169680D01*
X0156783Y0170879D02*
X0156983Y0170879D01*
X0156983Y0172077D02*
X0156783Y0172077D01*
X0156783Y0173276D02*
X0156983Y0173276D01*
X0156983Y0174474D02*
X0156783Y0174474D01*
X0156783Y0175673D02*
X0157842Y0175673D01*
X0156783Y0176871D02*
X0159041Y0176871D01*
X0156783Y0178070D02*
X0179239Y0178070D01*
X0178041Y0176871D02*
X0172833Y0176871D01*
X0172833Y0175673D02*
X0176842Y0175673D01*
X0175644Y0174474D02*
X0172833Y0174474D01*
X0172321Y0173276D02*
X0174445Y0173276D01*
X0174651Y0168482D02*
X0172527Y0168482D01*
X0176713Y0164886D02*
X0185002Y0164886D01*
X0185002Y0163707D02*
X0185705Y0163004D01*
X0188419Y0163004D01*
X0189341Y0162082D01*
X0189341Y0150682D01*
X0186707Y0150682D01*
X0186004Y0149979D01*
X0186004Y0145835D01*
X0186393Y0145446D01*
X0186004Y0145057D01*
X0186004Y0144786D01*
X0168238Y0144786D01*
X0164238Y0140786D01*
X0163183Y0139731D01*
X0163183Y0119240D01*
X0184183Y0098240D01*
X0185238Y0097186D01*
X0189254Y0097186D01*
X0188829Y0096761D01*
X0188083Y0094960D01*
X0188083Y0093011D01*
X0188829Y0091210D01*
X0190208Y0089832D01*
X0192009Y0089086D01*
X0193958Y0089086D01*
X0195759Y0089832D01*
X0197137Y0091210D01*
X0197883Y0093011D01*
X0197883Y0094960D01*
X0197137Y0096761D01*
X0196713Y0097186D01*
X0197238Y0097186D01*
X0198488Y0095936D01*
X0198083Y0094960D01*
X0198083Y0093011D01*
X0198829Y0091210D01*
X0200208Y0089832D01*
X0202009Y0089086D01*
X0203958Y0089086D01*
X0205759Y0089832D01*
X0207137Y0091210D01*
X0207883Y0093011D01*
X0207883Y0094960D01*
X0207137Y0096761D01*
X0205759Y0098140D01*
X0203958Y0098886D01*
X0202009Y0098886D01*
X0201033Y0098481D01*
X0198729Y0100786D01*
X0196713Y0100786D01*
X0197137Y0101210D01*
X0197883Y0103011D01*
X0197883Y0104960D01*
X0197137Y0106761D01*
X0195759Y0108140D01*
X0193958Y0108886D01*
X0192009Y0108886D01*
X0190208Y0108140D01*
X0188829Y0106761D01*
X0188083Y0104960D01*
X0188083Y0103011D01*
X0188829Y0101210D01*
X0189254Y0100786D01*
X0186729Y0100786D01*
X0166783Y0120731D01*
X0166783Y0138240D01*
X0169729Y0141186D01*
X0186004Y0141186D01*
X0186004Y0140914D01*
X0186110Y0140808D01*
X0185924Y0140622D01*
X0185713Y0140257D01*
X0185604Y0139850D01*
X0185604Y0138252D01*
X0190953Y0138252D01*
X0190953Y0137877D01*
X0185604Y0137877D01*
X0185604Y0136279D01*
X0185713Y0135872D01*
X0185924Y0135507D01*
X0186221Y0135209D01*
X0186586Y0134999D01*
X0186993Y0134889D01*
X0190953Y0134889D01*
X0190953Y0137877D01*
X0191328Y0137877D01*
X0191328Y0134889D01*
X0195289Y0134889D01*
X0195695Y0134999D01*
X0196060Y0135209D01*
X0196358Y0135507D01*
X0196569Y0135872D01*
X0196678Y0136279D01*
X0196678Y0137877D01*
X0191328Y0137877D01*
X0191328Y0138252D01*
X0196678Y0138252D01*
X0196678Y0139850D01*
X0196569Y0140257D01*
X0196358Y0140622D01*
X0196172Y0140808D01*
X0196278Y0140914D01*
X0196278Y0145057D01*
X0195889Y0145446D01*
X0196278Y0145835D01*
X0196278Y0149979D01*
X0195575Y0150682D01*
X0192941Y0150682D01*
X0192941Y0163574D01*
X0190965Y0165550D01*
X0190965Y0168264D01*
X0190262Y0168967D01*
X0185705Y0168967D01*
X0185002Y0168264D01*
X0185002Y0163707D01*
X0185022Y0163688D02*
X0175514Y0163688D01*
X0177911Y0166085D02*
X0185002Y0166085D01*
X0185002Y0167283D02*
X0179110Y0167283D01*
X0180308Y0168482D02*
X0185220Y0168482D01*
X0182705Y0170879D02*
X0196965Y0170879D01*
X0196965Y0172077D02*
X0183904Y0172077D01*
X0185102Y0173276D02*
X0196965Y0173276D01*
X0196965Y0169680D02*
X0181507Y0169680D01*
X0186301Y0174474D02*
X0210084Y0174474D01*
X0210084Y0175673D02*
X0187499Y0175673D01*
X0181636Y0180467D02*
X0177293Y0180467D01*
X0176095Y0179268D02*
X0180438Y0179268D01*
X0178492Y0181665D02*
X0182835Y0181665D01*
X0182121Y0182864D02*
X0184033Y0182864D01*
X0185232Y0184063D02*
X0182465Y0184063D01*
X0182465Y0185261D02*
X0186430Y0185261D01*
X0188030Y0186460D02*
X0183286Y0186460D01*
X0184484Y0187658D02*
X0187903Y0187658D01*
X0187903Y0190055D02*
X0186881Y0190055D01*
X0186983Y0191254D02*
X0188237Y0191254D01*
X0188303Y0192452D02*
X0186983Y0192452D01*
X0185683Y0188857D02*
X0192465Y0188857D01*
X0192840Y0188857D02*
X0210084Y0188857D01*
X0210084Y0190055D02*
X0197402Y0190055D01*
X0197069Y0191254D02*
X0210084Y0191254D01*
X0210084Y0192452D02*
X0197002Y0192452D01*
X0197002Y0193651D02*
X0210084Y0193651D01*
X0210084Y0194849D02*
X0197002Y0194849D01*
X0196630Y0196048D02*
X0210084Y0196048D01*
X0210084Y0197246D02*
X0197002Y0197246D01*
X0197002Y0198445D02*
X0210084Y0198445D01*
X0210084Y0199643D02*
X0197002Y0199643D01*
X0196757Y0200842D02*
X0210084Y0200842D01*
X0210084Y0202040D02*
X0197002Y0202040D01*
X0197002Y0203239D02*
X0210084Y0203239D01*
X0210084Y0204437D02*
X0197002Y0204437D01*
X0196885Y0205636D02*
X0210084Y0205636D01*
X0210084Y0206834D02*
X0197002Y0206834D01*
X0197002Y0208033D02*
X0210084Y0208033D01*
X0210084Y0209231D02*
X0197002Y0209231D01*
X0197002Y0210430D02*
X0210084Y0210430D01*
X0210084Y0211628D02*
X0197002Y0211628D01*
X0197002Y0212827D02*
X0210084Y0212827D01*
X0210084Y0214025D02*
X0197002Y0214025D01*
X0197002Y0215224D02*
X0210084Y0215224D01*
X0210084Y0216422D02*
X0197002Y0216422D01*
X0197002Y0217621D02*
X0210084Y0217621D01*
X0210084Y0218819D02*
X0197002Y0218819D01*
X0197002Y0220018D02*
X0210084Y0220018D01*
X0210084Y0221216D02*
X0197002Y0221216D01*
X0197002Y0222415D02*
X0210084Y0222415D01*
X0210084Y0223613D02*
X0197002Y0223613D01*
X0197002Y0224812D02*
X0210084Y0224812D01*
X0210084Y0226010D02*
X0153554Y0226010D01*
X0154752Y0227209D02*
X0210084Y0227209D01*
X0197097Y0228407D02*
X0155951Y0228407D01*
X0157149Y0229606D02*
X0196965Y0229606D01*
X0196965Y0230804D02*
X0157983Y0230804D01*
X0160614Y0239194D02*
X0177353Y0239194D01*
X0178161Y0240393D02*
X0159806Y0240393D01*
X0158110Y0241591D02*
X0179856Y0241591D01*
X0185703Y0224812D02*
X0188303Y0224812D01*
X0188303Y0223613D02*
X0186901Y0223613D01*
X0188100Y0222415D02*
X0188303Y0222415D01*
X0192271Y0208986D02*
X0192653Y0208367D01*
X0185582Y0200842D02*
X0181956Y0200842D01*
X0180757Y0202040D02*
X0184383Y0202040D01*
X0183185Y0203239D02*
X0178776Y0203239D01*
X0177577Y0204437D02*
X0181986Y0204437D01*
X0180788Y0205636D02*
X0176379Y0205636D01*
X0175180Y0206834D02*
X0179589Y0206834D01*
X0178391Y0208033D02*
X0174965Y0208033D01*
X0173483Y0205986D02*
X0177983Y0201486D01*
X0176983Y0200486D01*
X0178696Y0198445D02*
X0172490Y0198445D01*
X0172130Y0197886D02*
X0162436Y0197886D01*
X0161733Y0197183D01*
X0161733Y0193788D01*
X0162436Y0193086D01*
X0172130Y0193086D01*
X0172833Y0193788D01*
X0172833Y0197183D01*
X0172130Y0197886D01*
X0172770Y0197246D02*
X0179894Y0197246D01*
X0181093Y0196048D02*
X0172833Y0196048D01*
X0172833Y0194849D02*
X0182291Y0194849D01*
X0182983Y0193651D02*
X0172696Y0193651D01*
X0172130Y0192886D02*
X0162436Y0192886D01*
X0161733Y0192183D01*
X0161733Y0188788D01*
X0162436Y0188086D01*
X0172130Y0188086D01*
X0172833Y0188788D01*
X0172833Y0192183D01*
X0172130Y0192886D01*
X0172564Y0192452D02*
X0182983Y0192452D01*
X0182423Y0191254D02*
X0172833Y0191254D01*
X0172833Y0190055D02*
X0181225Y0190055D01*
X0180026Y0188857D02*
X0172833Y0188857D01*
X0172130Y0187886D02*
X0162436Y0187886D01*
X0161733Y0187183D01*
X0161733Y0183788D01*
X0162436Y0183086D01*
X0172130Y0183086D01*
X0172833Y0183788D01*
X0172833Y0187183D01*
X0172130Y0187886D01*
X0172358Y0187658D02*
X0176502Y0187658D01*
X0176502Y0186460D02*
X0172833Y0186460D01*
X0172833Y0185261D02*
X0176430Y0185261D01*
X0175232Y0184063D02*
X0172833Y0184063D01*
X0172152Y0182864D02*
X0174033Y0182864D01*
X0162415Y0182864D02*
X0156783Y0182864D01*
X0156783Y0181665D02*
X0161733Y0181665D01*
X0161733Y0180467D02*
X0156783Y0180467D01*
X0156783Y0179268D02*
X0161733Y0179268D01*
X0161733Y0184063D02*
X0156783Y0184063D01*
X0156783Y0185261D02*
X0161733Y0185261D01*
X0161733Y0186460D02*
X0156783Y0186460D01*
X0156783Y0187658D02*
X0162209Y0187658D01*
X0161733Y0188857D02*
X0156658Y0188857D01*
X0155459Y0190055D02*
X0161733Y0190055D01*
X0161733Y0191254D02*
X0154261Y0191254D01*
X0151964Y0192452D02*
X0162003Y0192452D01*
X0161871Y0193651D02*
X0152096Y0193651D01*
X0152233Y0194849D02*
X0161733Y0194849D01*
X0161733Y0196048D02*
X0152233Y0196048D01*
X0152170Y0197246D02*
X0161797Y0197246D01*
X0162077Y0198445D02*
X0151890Y0198445D01*
X0152233Y0199643D02*
X0161733Y0199643D01*
X0161733Y0200842D02*
X0152233Y0200842D01*
X0152233Y0202040D02*
X0161733Y0202040D01*
X0169002Y0204437D02*
X0141783Y0204437D01*
X0141783Y0203239D02*
X0169471Y0203239D01*
X0169002Y0205636D02*
X0141783Y0205636D01*
X0141783Y0206834D02*
X0169002Y0206834D01*
X0169002Y0208033D02*
X0141783Y0208033D01*
X0141783Y0209231D02*
X0177192Y0209231D01*
X0175994Y0210430D02*
X0141783Y0210430D01*
X0141783Y0211628D02*
X0174795Y0211628D01*
X0173597Y0212827D02*
X0142370Y0212827D01*
X0128183Y0212827D02*
X0127783Y0212827D01*
X0127783Y0214025D02*
X0128183Y0214025D01*
X0128183Y0215224D02*
X0127783Y0215224D01*
X0127783Y0216422D02*
X0128183Y0216422D01*
X0128183Y0217621D02*
X0127783Y0217621D01*
X0127783Y0211628D02*
X0128183Y0211628D01*
X0128183Y0210430D02*
X0127783Y0210430D01*
X0151758Y0187658D02*
X0152765Y0187658D01*
X0153183Y0186460D02*
X0152233Y0186460D01*
X0152233Y0185261D02*
X0153183Y0185261D01*
X0153183Y0184063D02*
X0152233Y0184063D01*
X0151552Y0182864D02*
X0153183Y0182864D01*
X0161102Y0173276D02*
X0162246Y0173276D01*
X0161733Y0172077D02*
X0160983Y0172077D01*
X0160983Y0170879D02*
X0161733Y0170879D01*
X0161733Y0169680D02*
X0160983Y0169680D01*
X0160983Y0168482D02*
X0162040Y0168482D01*
X0161834Y0167283D02*
X0160983Y0167283D01*
X0160983Y0166085D02*
X0161733Y0166085D01*
X0161733Y0164886D02*
X0160983Y0164886D01*
X0160983Y0163688D02*
X0161834Y0163688D01*
X0160983Y0162489D02*
X0188934Y0162489D01*
X0189341Y0161291D02*
X0160983Y0161291D01*
X0160983Y0160092D02*
X0189341Y0160092D01*
X0189341Y0158894D02*
X0160983Y0158894D01*
X0160983Y0157695D02*
X0189341Y0157695D01*
X0189341Y0156497D02*
X0160983Y0156497D01*
X0160983Y0155298D02*
X0189341Y0155298D01*
X0189341Y0154100D02*
X0160983Y0154100D01*
X0160983Y0152901D02*
X0189341Y0152901D01*
X0189341Y0151703D02*
X0160983Y0151703D01*
X0160983Y0150504D02*
X0186529Y0150504D01*
X0186004Y0149306D02*
X0160983Y0149306D01*
X0160983Y0148107D02*
X0186004Y0148107D01*
X0186004Y0146909D02*
X0160983Y0146909D01*
X0160983Y0145710D02*
X0186129Y0145710D01*
X0186004Y0140916D02*
X0169460Y0140916D01*
X0168261Y0139718D02*
X0185604Y0139718D01*
X0185604Y0138519D02*
X0167063Y0138519D01*
X0166783Y0137321D02*
X0185604Y0137321D01*
X0185646Y0136122D02*
X0166783Y0136122D01*
X0166783Y0134924D02*
X0186866Y0134924D01*
X0190953Y0134924D02*
X0191328Y0134924D01*
X0191328Y0136122D02*
X0190953Y0136122D01*
X0190953Y0137321D02*
X0191328Y0137321D01*
X0195416Y0134924D02*
X0210084Y0134924D01*
X0210084Y0136122D02*
X0196636Y0136122D01*
X0196678Y0137321D02*
X0210084Y0137321D01*
X0210084Y0138519D02*
X0196678Y0138519D01*
X0196678Y0139718D02*
X0210084Y0139718D01*
X0210084Y0140916D02*
X0196278Y0140916D01*
X0196278Y0142115D02*
X0210084Y0142115D01*
X0210084Y0143313D02*
X0196278Y0143313D01*
X0196278Y0144512D02*
X0210084Y0144512D01*
X0210084Y0145710D02*
X0196153Y0145710D01*
X0196278Y0146909D02*
X0210084Y0146909D01*
X0210084Y0148107D02*
X0196278Y0148107D01*
X0196278Y0149306D02*
X0210084Y0149306D01*
X0210084Y0150504D02*
X0195752Y0150504D01*
X0196556Y0152901D02*
X0192941Y0152901D01*
X0192941Y0151703D02*
X0210084Y0151703D01*
X0197446Y0163688D02*
X0192827Y0163688D01*
X0192941Y0162489D02*
X0196448Y0162489D01*
X0196339Y0161291D02*
X0192941Y0161291D01*
X0192941Y0160092D02*
X0196339Y0160092D01*
X0196339Y0158894D02*
X0192941Y0158894D01*
X0192941Y0157695D02*
X0196339Y0157695D01*
X0196339Y0156497D02*
X0192941Y0156497D01*
X0192941Y0155298D02*
X0196339Y0155298D01*
X0196339Y0154100D02*
X0192941Y0154100D01*
X0191141Y0147907D02*
X0191141Y0162828D01*
X0187983Y0165986D01*
X0190965Y0166085D02*
X0196965Y0166085D01*
X0196965Y0167283D02*
X0190965Y0167283D01*
X0190746Y0168482D02*
X0196965Y0168482D01*
X0196965Y0164886D02*
X0191628Y0164886D01*
X0197002Y0176871D02*
X0210084Y0176871D01*
X0210084Y0178070D02*
X0197002Y0178070D01*
X0197002Y0179268D02*
X0210084Y0179268D01*
X0210084Y0180467D02*
X0197002Y0180467D01*
X0196979Y0181665D02*
X0210084Y0181665D01*
X0210084Y0182864D02*
X0197002Y0182864D01*
X0197002Y0184063D02*
X0210084Y0184063D01*
X0210084Y0185261D02*
X0197002Y0185261D01*
X0197276Y0186460D02*
X0210084Y0186460D01*
X0210084Y0187658D02*
X0197402Y0187658D01*
X0188303Y0197246D02*
X0185551Y0197246D01*
X0184353Y0198445D02*
X0187979Y0198445D01*
X0187183Y0199240D02*
X0187183Y0199240D01*
X0186780Y0199643D02*
X0183154Y0199643D01*
X0173483Y0205986D02*
X0171983Y0205986D01*
X0146683Y0170486D02*
X0141483Y0170486D01*
X0146683Y0165486D02*
X0146683Y0157686D01*
X0145983Y0156986D01*
X0146683Y0163688D02*
X0146683Y0163688D01*
X0146683Y0164886D02*
X0146683Y0164886D01*
X0160983Y0144512D02*
X0167964Y0144512D01*
X0166765Y0143313D02*
X0160983Y0143313D01*
X0160983Y0142115D02*
X0165567Y0142115D01*
X0164368Y0140916D02*
X0160983Y0140916D01*
X0160983Y0139718D02*
X0163183Y0139718D01*
X0163183Y0138519D02*
X0160983Y0138519D01*
X0160983Y0137321D02*
X0163183Y0137321D01*
X0163183Y0136122D02*
X0160983Y0136122D01*
X0160983Y0134924D02*
X0163183Y0134924D01*
X0163183Y0133725D02*
X0160983Y0133725D01*
X0160983Y0132527D02*
X0163183Y0132527D01*
X0163183Y0131328D02*
X0160983Y0131328D01*
X0160983Y0130130D02*
X0163183Y0130130D01*
X0163183Y0128931D02*
X0160983Y0128931D01*
X0160983Y0127732D02*
X0163183Y0127732D01*
X0163183Y0126534D02*
X0160983Y0126534D01*
X0160983Y0125335D02*
X0163183Y0125335D01*
X0163183Y0124137D02*
X0160983Y0124137D01*
X0160983Y0122938D02*
X0163183Y0122938D01*
X0163183Y0121740D02*
X0160983Y0121740D01*
X0160983Y0120541D02*
X0163183Y0120541D01*
X0163183Y0119343D02*
X0160983Y0119343D01*
X0161653Y0118144D02*
X0164279Y0118144D01*
X0165477Y0116946D02*
X0162852Y0116946D01*
X0164050Y0115747D02*
X0166676Y0115747D01*
X0167875Y0114549D02*
X0165249Y0114549D01*
X0166447Y0113350D02*
X0169073Y0113350D01*
X0170272Y0112152D02*
X0167646Y0112152D01*
X0168844Y0110953D02*
X0171470Y0110953D01*
X0172669Y0109755D02*
X0170043Y0109755D01*
X0171241Y0108556D02*
X0173867Y0108556D01*
X0175066Y0107358D02*
X0172440Y0107358D01*
X0173638Y0106159D02*
X0176264Y0106159D01*
X0177463Y0104961D02*
X0174837Y0104961D01*
X0176035Y0103762D02*
X0178661Y0103762D01*
X0179860Y0102564D02*
X0177234Y0102564D01*
X0178432Y0101365D02*
X0181058Y0101365D01*
X0182257Y0100167D02*
X0179631Y0100167D01*
X0180829Y0098968D02*
X0183455Y0098968D01*
X0184654Y0097770D02*
X0182028Y0097770D01*
X0183226Y0096571D02*
X0188751Y0096571D01*
X0188254Y0095373D02*
X0184425Y0095373D01*
X0185623Y0094174D02*
X0188083Y0094174D01*
X0188098Y0092976D02*
X0186822Y0092976D01*
X0188020Y0091777D02*
X0188594Y0091777D01*
X0189219Y0090579D02*
X0189461Y0090579D01*
X0190417Y0089380D02*
X0191298Y0089380D01*
X0194669Y0089380D02*
X0201298Y0089380D01*
X0202009Y0088886D02*
X0200208Y0088140D01*
X0198829Y0086761D01*
X0198083Y0084960D01*
X0198083Y0083011D01*
X0198829Y0081210D01*
X0200208Y0079832D01*
X0202009Y0079086D01*
X0203958Y0079086D01*
X0205759Y0079832D01*
X0207137Y0081210D01*
X0207883Y0083011D01*
X0207883Y0084960D01*
X0207137Y0086761D01*
X0205759Y0088140D01*
X0203958Y0088886D01*
X0202009Y0088886D01*
X0200309Y0088182D02*
X0195658Y0088182D01*
X0196916Y0086983D02*
X0199051Y0086983D01*
X0198425Y0085785D02*
X0197542Y0085785D01*
X0197883Y0084586D02*
X0198083Y0084586D01*
X0198083Y0083388D02*
X0197883Y0083388D01*
X0197543Y0082189D02*
X0198424Y0082189D01*
X0199049Y0080991D02*
X0196918Y0080991D01*
X0195664Y0079792D02*
X0200303Y0079792D01*
X0201304Y0078594D02*
X0194663Y0078594D01*
X0188227Y0076196D02*
X0177318Y0076196D01*
X0178517Y0074998D02*
X0188099Y0074998D01*
X0188083Y0073799D02*
X0179715Y0073799D01*
X0180914Y0072601D02*
X0188253Y0072601D01*
X0188750Y0071402D02*
X0182112Y0071402D01*
X0187028Y0077395D02*
X0176120Y0077395D01*
X0174921Y0078594D02*
X0185830Y0078594D01*
X0184631Y0079792D02*
X0173723Y0079792D01*
X0172524Y0080991D02*
X0183433Y0080991D01*
X0182234Y0082189D02*
X0171325Y0082189D01*
X0170127Y0083388D02*
X0181036Y0083388D01*
X0179837Y0084586D02*
X0168928Y0084586D01*
X0167730Y0085785D02*
X0178639Y0085785D01*
X0177440Y0086983D02*
X0166531Y0086983D01*
X0165333Y0088182D02*
X0176242Y0088182D01*
X0175043Y0089380D02*
X0164134Y0089380D01*
X0162936Y0090579D02*
X0173845Y0090579D01*
X0172646Y0091777D02*
X0161737Y0091777D01*
X0160539Y0092976D02*
X0171448Y0092976D01*
X0170249Y0094174D02*
X0159340Y0094174D01*
X0158142Y0095373D02*
X0169051Y0095373D01*
X0167852Y0096571D02*
X0156943Y0096571D01*
X0155745Y0097770D02*
X0166654Y0097770D01*
X0165455Y0098968D02*
X0154783Y0098968D01*
X0154783Y0100167D02*
X0164257Y0100167D01*
X0163058Y0101365D02*
X0154783Y0101365D01*
X0154783Y0102564D02*
X0161860Y0102564D01*
X0160661Y0103762D02*
X0154783Y0103762D01*
X0154783Y0104961D02*
X0159463Y0104961D01*
X0158264Y0106159D02*
X0154783Y0106159D01*
X0154783Y0107358D02*
X0157066Y0107358D01*
X0155867Y0108556D02*
X0154783Y0108556D01*
X0144183Y0116946D02*
X0142783Y0116946D01*
X0142783Y0118144D02*
X0144183Y0118144D01*
X0144183Y0119343D02*
X0142783Y0119343D01*
X0142783Y0120541D02*
X0144183Y0120541D01*
X0144183Y0121740D02*
X0142783Y0121740D01*
X0142783Y0122938D02*
X0144183Y0122938D01*
X0144183Y0124137D02*
X0142783Y0124137D01*
X0142783Y0125335D02*
X0144183Y0125335D01*
X0144183Y0126534D02*
X0142783Y0126534D01*
X0142783Y0127732D02*
X0144183Y0127732D01*
X0144183Y0128931D02*
X0142783Y0128931D01*
X0142783Y0130130D02*
X0144183Y0130130D01*
X0144183Y0131328D02*
X0142783Y0131328D01*
X0142783Y0132527D02*
X0144183Y0132527D01*
X0144183Y0133725D02*
X0142783Y0133725D01*
X0142783Y0134924D02*
X0144183Y0134924D01*
X0143301Y0136122D02*
X0142392Y0136122D01*
X0141729Y0136786D02*
X0141729Y0136786D01*
X0142103Y0137321D02*
X0141194Y0137321D01*
X0140904Y0138519D02*
X0139995Y0138519D01*
X0139783Y0138731D02*
X0139783Y0138731D01*
X0139706Y0139718D02*
X0138797Y0139718D01*
X0137301Y0136122D02*
X0128605Y0136122D01*
X0127662Y0134924D02*
X0138500Y0134924D01*
X0139183Y0133725D02*
X0049783Y0133725D01*
X0049783Y0132527D02*
X0139183Y0132527D01*
X0123079Y0140916D02*
X0120888Y0140916D01*
X0121699Y0139718D02*
X0122268Y0139718D01*
X0098271Y0128931D02*
X0082194Y0128931D01*
X0082883Y0127732D02*
X0098068Y0127732D01*
X0098068Y0126534D02*
X0082883Y0126534D01*
X0082883Y0125335D02*
X0098068Y0125335D01*
X0098068Y0124137D02*
X0082883Y0124137D01*
X0082883Y0122938D02*
X0098330Y0122938D01*
X0073588Y0119343D02*
X0069437Y0119343D01*
X0071410Y0120541D02*
X0073083Y0120541D01*
X0073083Y0121740D02*
X0072332Y0121740D01*
X0072829Y0122938D02*
X0073083Y0122938D01*
X0073083Y0124137D02*
X0072883Y0124137D01*
X0072752Y0125335D02*
X0073083Y0125335D01*
X0073083Y0126534D02*
X0072256Y0126534D01*
X0073083Y0127732D02*
X0071225Y0127732D01*
X0068991Y0128931D02*
X0073773Y0128931D01*
X0066530Y0119343D02*
X0066110Y0119343D01*
X0084412Y0084586D02*
X0089687Y0084586D01*
X0089583Y0083388D02*
X0083214Y0083388D01*
X0082015Y0082189D02*
X0089583Y0082189D01*
X0089583Y0080991D02*
X0080817Y0080991D01*
X0079983Y0079792D02*
X0082531Y0079792D01*
X0082002Y0078594D02*
X0079983Y0078594D01*
X0079983Y0077395D02*
X0082002Y0077395D01*
X0082002Y0076196D02*
X0079983Y0076196D01*
X0079983Y0074998D02*
X0082002Y0074998D01*
X0087436Y0079792D02*
X0089893Y0079792D01*
X0097983Y0069005D02*
X0100002Y0069005D01*
X0124983Y0075986D02*
X0124983Y0028092D01*
X0126759Y0026316D01*
X0129128Y0022263D02*
X0129312Y0022263D01*
X0134049Y0022263D02*
X0134233Y0022263D01*
X0138970Y0022263D02*
X0139154Y0022263D01*
X0143891Y0022263D02*
X0144075Y0022263D01*
X0148813Y0022263D02*
X0148997Y0022263D01*
X0153734Y0022263D02*
X0153918Y0022263D01*
X0161020Y0022263D02*
X0161395Y0022263D01*
X0161395Y0023462D02*
X0161020Y0023462D01*
X0161020Y0024661D02*
X0161395Y0024661D01*
X0161395Y0025859D02*
X0161020Y0025859D01*
X0161395Y0026504D02*
X0164383Y0026504D01*
X0164383Y0029677D01*
X0164274Y0030083D01*
X0164063Y0030448D01*
X0163765Y0030746D01*
X0163400Y0030957D01*
X0162993Y0031066D01*
X0161395Y0031066D01*
X0161395Y0026504D01*
X0161395Y0027058D02*
X0161020Y0027058D01*
X0161020Y0028256D02*
X0161395Y0028256D01*
X0161395Y0029455D02*
X0161020Y0029455D01*
X0161020Y0030653D02*
X0161395Y0030653D01*
X0163858Y0030653D02*
X0189386Y0030653D01*
X0188564Y0031852D02*
X0150678Y0031852D01*
X0151876Y0033050D02*
X0188083Y0033050D01*
X0188083Y0034249D02*
X0153075Y0034249D01*
X0154273Y0035447D02*
X0188285Y0035447D01*
X0191118Y0029455D02*
X0164383Y0029455D01*
X0164383Y0028256D02*
X0190489Y0028256D01*
X0189126Y0027058D02*
X0164383Y0027058D01*
X0164383Y0025859D02*
X0188456Y0025859D01*
X0188083Y0024661D02*
X0164383Y0024661D01*
X0164383Y0023462D02*
X0188083Y0023462D01*
X0188393Y0022263D02*
X0164109Y0022263D01*
X0158557Y0030653D02*
X0158371Y0030653D01*
X0154202Y0030653D02*
X0153450Y0030653D01*
X0143815Y0036646D02*
X0141472Y0036646D01*
X0141983Y0037844D02*
X0142083Y0037844D01*
X0142083Y0039043D02*
X0141983Y0039043D01*
X0141983Y0040241D02*
X0142083Y0040241D01*
X0142083Y0041440D02*
X0141983Y0041440D01*
X0141983Y0042638D02*
X0142083Y0042638D01*
X0142083Y0043837D02*
X0141883Y0043837D01*
X0141883Y0045035D02*
X0142083Y0045035D01*
X0142083Y0046234D02*
X0141883Y0046234D01*
X0141883Y0047432D02*
X0142083Y0047432D01*
X0142483Y0048631D02*
X0126783Y0048631D01*
X0126783Y0049829D02*
X0142999Y0049829D01*
X0144197Y0051028D02*
X0132965Y0051028D01*
X0132965Y0051186D02*
X0136729Y0051186D01*
X0137783Y0052240D01*
X0141283Y0055740D01*
X0141283Y0057839D01*
X0141883Y0058438D01*
X0141883Y0068133D01*
X0141180Y0068836D01*
X0137786Y0068836D01*
X0137181Y0068230D01*
X0137174Y0068253D01*
X0136964Y0068618D01*
X0136666Y0068916D01*
X0136301Y0069127D01*
X0135894Y0069236D01*
X0134483Y0069236D01*
X0133073Y0069236D01*
X0132666Y0069127D01*
X0132301Y0068916D01*
X0132003Y0068618D01*
X0131792Y0068253D01*
X0131683Y0067846D01*
X0131683Y0063286D01*
X0134483Y0063286D01*
X0134483Y0069236D01*
X0134483Y0063286D01*
X0134483Y0063286D01*
X0134483Y0063285D01*
X0134483Y0063285D01*
X0134483Y0057336D01*
X0133073Y0057336D01*
X0132666Y0057445D01*
X0132301Y0057655D01*
X0132003Y0057953D01*
X0131792Y0058318D01*
X0131683Y0058725D01*
X0131683Y0063285D01*
X0134483Y0063285D01*
X0134483Y0057336D01*
X0135894Y0057336D01*
X0136301Y0057445D01*
X0136666Y0057655D01*
X0136964Y0057953D01*
X0137174Y0058318D01*
X0137181Y0058341D01*
X0137683Y0057839D01*
X0137683Y0057231D01*
X0135238Y0054786D01*
X0132965Y0054786D01*
X0132965Y0055264D01*
X0132262Y0055967D01*
X0127705Y0055967D01*
X0127002Y0055264D01*
X0127002Y0050707D01*
X0127705Y0050004D01*
X0132262Y0050004D01*
X0132965Y0050707D01*
X0132965Y0051186D01*
X0129983Y0052986D02*
X0135983Y0052986D01*
X0139483Y0056486D01*
X0139483Y0063286D01*
X0141883Y0063013D02*
X0142083Y0063013D01*
X0142083Y0064211D02*
X0141883Y0064211D01*
X0141883Y0065410D02*
X0142083Y0065410D01*
X0142083Y0066608D02*
X0141883Y0066608D01*
X0141883Y0067807D02*
X0142083Y0067807D01*
X0142483Y0069005D02*
X0136511Y0069005D01*
X0134483Y0069005D02*
X0134483Y0069005D01*
X0134483Y0067807D02*
X0134483Y0067807D01*
X0134483Y0066608D02*
X0134483Y0066608D01*
X0134483Y0065410D02*
X0134483Y0065410D01*
X0134483Y0064211D02*
X0134483Y0064211D01*
X0134483Y0063286D02*
X0132983Y0064786D01*
X0132983Y0073986D01*
X0128938Y0077395D02*
X0146028Y0077395D01*
X0147227Y0076196D02*
X0127740Y0076196D01*
X0126783Y0074998D02*
X0147683Y0074998D01*
X0149483Y0076486D02*
X0145983Y0079986D01*
X0128983Y0079986D01*
X0124983Y0075986D01*
X0126783Y0073799D02*
X0142002Y0073799D01*
X0142002Y0072601D02*
X0126783Y0072601D01*
X0126783Y0071402D02*
X0142002Y0071402D01*
X0142002Y0070204D02*
X0126783Y0070204D01*
X0126783Y0069005D02*
X0132456Y0069005D01*
X0131683Y0067807D02*
X0126783Y0067807D01*
X0126783Y0066608D02*
X0131683Y0066608D01*
X0131683Y0065410D02*
X0126783Y0065410D01*
X0126783Y0064211D02*
X0131683Y0064211D01*
X0131683Y0063013D02*
X0126783Y0063013D01*
X0126783Y0061814D02*
X0131683Y0061814D01*
X0131683Y0060616D02*
X0126783Y0060616D01*
X0126783Y0059417D02*
X0131683Y0059417D01*
X0131850Y0058219D02*
X0126783Y0058219D01*
X0126783Y0057020D02*
X0137473Y0057020D01*
X0137303Y0058219D02*
X0137117Y0058219D01*
X0136274Y0055822D02*
X0132406Y0055822D01*
X0134483Y0058219D02*
X0134483Y0058219D01*
X0134483Y0059417D02*
X0134483Y0059417D01*
X0134483Y0060616D02*
X0134483Y0060616D01*
X0134483Y0061814D02*
X0134483Y0061814D01*
X0134483Y0063013D02*
X0134483Y0063013D01*
X0141883Y0061814D02*
X0142083Y0061814D01*
X0142083Y0060616D02*
X0141883Y0060616D01*
X0141883Y0059417D02*
X0142083Y0059417D01*
X0142303Y0058219D02*
X0141664Y0058219D01*
X0141283Y0057020D02*
X0171403Y0057020D01*
X0172602Y0055822D02*
X0141283Y0055822D01*
X0140167Y0054623D02*
X0173800Y0054623D01*
X0174183Y0053425D02*
X0138968Y0053425D01*
X0137770Y0052226D02*
X0145396Y0052226D01*
X0146664Y0058219D02*
X0147303Y0058219D01*
X0147083Y0059417D02*
X0146883Y0059417D01*
X0146883Y0060616D02*
X0147083Y0060616D01*
X0147083Y0061814D02*
X0146883Y0061814D01*
X0146883Y0063013D02*
X0147083Y0063013D01*
X0147083Y0064211D02*
X0146883Y0064211D01*
X0146883Y0065410D02*
X0147083Y0065410D01*
X0147083Y0066608D02*
X0146883Y0066608D01*
X0146883Y0067807D02*
X0147083Y0067807D01*
X0147263Y0069005D02*
X0147683Y0069005D01*
X0151283Y0069005D02*
X0159418Y0069005D01*
X0160616Y0067807D02*
X0151883Y0067807D01*
X0151883Y0066608D02*
X0161815Y0066608D01*
X0163013Y0065410D02*
X0151883Y0065410D01*
X0151883Y0064211D02*
X0164212Y0064211D01*
X0165411Y0063013D02*
X0151883Y0063013D01*
X0151883Y0061814D02*
X0166609Y0061814D01*
X0167808Y0060616D02*
X0151883Y0060616D01*
X0151883Y0059417D02*
X0169006Y0059417D01*
X0170205Y0058219D02*
X0151664Y0058219D01*
X0149483Y0063286D02*
X0149483Y0076486D01*
X0151283Y0076196D02*
X0152227Y0076196D01*
X0151283Y0074998D02*
X0153425Y0074998D01*
X0154624Y0073799D02*
X0151283Y0073799D01*
X0151283Y0072601D02*
X0155822Y0072601D01*
X0157021Y0071402D02*
X0151283Y0071402D01*
X0151283Y0070204D02*
X0158219Y0070204D01*
X0154571Y0052226D02*
X0174183Y0052226D01*
X0174183Y0051028D02*
X0155770Y0051028D01*
X0156968Y0049829D02*
X0174183Y0049829D01*
X0174183Y0048631D02*
X0157983Y0048631D01*
X0157983Y0047432D02*
X0174183Y0047432D01*
X0175190Y0046234D02*
X0157983Y0046234D01*
X0142617Y0035447D02*
X0140273Y0035447D01*
X0141418Y0034249D02*
X0139075Y0034249D01*
X0138602Y0033050D02*
X0140220Y0033050D01*
X0139523Y0031852D02*
X0138602Y0031852D01*
X0138686Y0030653D02*
X0139438Y0030653D01*
X0134517Y0030653D02*
X0133765Y0030653D01*
X0133680Y0031852D02*
X0134602Y0031852D01*
X0134602Y0033050D02*
X0133680Y0033050D01*
X0133680Y0034249D02*
X0134602Y0034249D01*
X0134617Y0035447D02*
X0133680Y0035447D01*
X0133680Y0036646D02*
X0135815Y0036646D01*
X0136883Y0037844D02*
X0137014Y0037844D01*
X0137083Y0039043D02*
X0136883Y0039043D01*
X0136883Y0040241D02*
X0137083Y0040241D01*
X0137083Y0041440D02*
X0136883Y0041440D01*
X0136883Y0042638D02*
X0137083Y0042638D01*
X0137083Y0043837D02*
X0136883Y0043837D01*
X0136883Y0045035D02*
X0137083Y0045035D01*
X0137083Y0046234D02*
X0136883Y0046234D01*
X0136883Y0047432D02*
X0137083Y0047432D01*
X0132083Y0047432D02*
X0126783Y0047432D01*
X0126783Y0046234D02*
X0132083Y0046234D01*
X0132083Y0045035D02*
X0126783Y0045035D01*
X0126783Y0043837D02*
X0132083Y0043837D01*
X0131608Y0042638D02*
X0126783Y0042638D01*
X0126783Y0041440D02*
X0130409Y0041440D01*
X0129680Y0040241D02*
X0126783Y0040241D01*
X0126783Y0039043D02*
X0129680Y0039043D01*
X0129680Y0037844D02*
X0126783Y0037844D01*
X0126783Y0036646D02*
X0129680Y0036646D01*
X0129680Y0035447D02*
X0126783Y0035447D01*
X0126783Y0034249D02*
X0129680Y0034249D01*
X0129680Y0033050D02*
X0126783Y0033050D01*
X0126783Y0031852D02*
X0129680Y0031852D01*
X0129596Y0030653D02*
X0128844Y0030653D01*
X0127002Y0051028D02*
X0126783Y0051028D01*
X0126783Y0052226D02*
X0127002Y0052226D01*
X0127002Y0053425D02*
X0126783Y0053425D01*
X0126783Y0054623D02*
X0127002Y0054623D01*
X0126783Y0055822D02*
X0127560Y0055822D01*
X0175363Y0112152D02*
X0188083Y0112152D01*
X0188083Y0113350D02*
X0174164Y0113350D01*
X0172966Y0114549D02*
X0188083Y0114549D01*
X0188083Y0115747D02*
X0171767Y0115747D01*
X0170569Y0116946D02*
X0188083Y0116946D01*
X0188083Y0118144D02*
X0169370Y0118144D01*
X0168172Y0119343D02*
X0210084Y0119343D01*
X0210084Y0120541D02*
X0166973Y0120541D01*
X0166783Y0121740D02*
X0210084Y0121740D01*
X0210084Y0122938D02*
X0209897Y0122938D01*
X0207666Y0118966D02*
X0207301Y0119177D01*
X0206894Y0119286D01*
X0203383Y0119286D01*
X0203383Y0114386D01*
X0202583Y0114386D01*
X0202583Y0119286D01*
X0199073Y0119286D01*
X0198666Y0119177D01*
X0198301Y0118966D01*
X0198003Y0118668D01*
X0197792Y0118303D01*
X0197786Y0118280D01*
X0197180Y0118886D01*
X0188786Y0118886D01*
X0188083Y0118183D01*
X0188083Y0109788D01*
X0188786Y0109086D01*
X0197180Y0109086D01*
X0197786Y0109691D01*
X0197792Y0109668D01*
X0198003Y0109303D01*
X0198301Y0109005D01*
X0198666Y0108795D01*
X0199073Y0108686D01*
X0201526Y0108686D01*
X0200208Y0108140D01*
X0198829Y0106761D01*
X0198083Y0104960D01*
X0198083Y0103011D01*
X0198829Y0101210D01*
X0200208Y0099832D01*
X0202009Y0099086D01*
X0203958Y0099086D01*
X0205759Y0099832D01*
X0207137Y0101210D01*
X0207883Y0103011D01*
X0207883Y0104960D01*
X0207137Y0106761D01*
X0205759Y0108140D01*
X0204441Y0108686D01*
X0206894Y0108686D01*
X0207301Y0108795D01*
X0207666Y0109005D01*
X0207964Y0109303D01*
X0208174Y0109668D01*
X0208283Y0110075D01*
X0208283Y0113586D01*
X0203383Y0113586D01*
X0203383Y0114386D01*
X0208283Y0114386D01*
X0208283Y0117896D01*
X0208174Y0118303D01*
X0207964Y0118668D01*
X0207666Y0118966D01*
X0208217Y0118144D02*
X0210084Y0118144D01*
X0210084Y0116946D02*
X0208283Y0116946D01*
X0208283Y0115747D02*
X0210084Y0115747D01*
X0210084Y0114549D02*
X0208283Y0114549D01*
X0208283Y0113350D02*
X0210084Y0113350D01*
X0210084Y0112152D02*
X0208283Y0112152D01*
X0208283Y0110953D02*
X0210084Y0110953D01*
X0210084Y0109755D02*
X0208198Y0109755D01*
X0210084Y0108556D02*
X0204753Y0108556D01*
X0206541Y0107358D02*
X0210084Y0107358D01*
X0210084Y0106159D02*
X0207387Y0106159D01*
X0207883Y0104961D02*
X0210084Y0104961D01*
X0210084Y0103762D02*
X0207883Y0103762D01*
X0207698Y0102564D02*
X0210084Y0102564D01*
X0210084Y0101365D02*
X0207202Y0101365D01*
X0206094Y0100167D02*
X0210084Y0100167D01*
X0210084Y0098968D02*
X0200546Y0098968D01*
X0199873Y0100167D02*
X0199348Y0100167D01*
X0198765Y0101365D02*
X0197202Y0101365D01*
X0197698Y0102564D02*
X0198269Y0102564D01*
X0198083Y0103762D02*
X0197883Y0103762D01*
X0197883Y0104961D02*
X0198084Y0104961D01*
X0198580Y0106159D02*
X0197387Y0106159D01*
X0196541Y0107358D02*
X0199426Y0107358D01*
X0201214Y0108556D02*
X0194753Y0108556D01*
X0191214Y0108556D02*
X0178958Y0108556D01*
X0180157Y0107358D02*
X0189426Y0107358D01*
X0188580Y0106159D02*
X0181355Y0106159D01*
X0182554Y0104961D02*
X0188084Y0104961D01*
X0188083Y0103762D02*
X0183752Y0103762D01*
X0184951Y0102564D02*
X0188269Y0102564D01*
X0188765Y0101365D02*
X0186149Y0101365D01*
X0185983Y0098986D02*
X0197983Y0098986D01*
X0202983Y0093986D01*
X0199461Y0090579D02*
X0196506Y0090579D01*
X0197372Y0091777D02*
X0198594Y0091777D01*
X0198098Y0092976D02*
X0197869Y0092976D01*
X0197883Y0094174D02*
X0198083Y0094174D01*
X0198254Y0095373D02*
X0197713Y0095373D01*
X0197852Y0096571D02*
X0197216Y0096571D01*
X0204669Y0089380D02*
X0210084Y0089380D01*
X0210084Y0088182D02*
X0205658Y0088182D01*
X0206916Y0086983D02*
X0210084Y0086983D01*
X0210084Y0085785D02*
X0207542Y0085785D01*
X0207883Y0084586D02*
X0210084Y0084586D01*
X0210084Y0083388D02*
X0207883Y0083388D01*
X0207543Y0082189D02*
X0210084Y0082189D01*
X0210084Y0080991D02*
X0206918Y0080991D01*
X0205664Y0079792D02*
X0210084Y0079792D01*
X0210084Y0078594D02*
X0204663Y0078594D01*
X0206504Y0077395D02*
X0210084Y0077395D01*
X0210084Y0076196D02*
X0207371Y0076196D01*
X0207217Y0071402D02*
X0208183Y0071402D01*
X0208183Y0070204D02*
X0206131Y0070204D01*
X0206506Y0090579D02*
X0210084Y0090579D01*
X0210084Y0091777D02*
X0207372Y0091777D01*
X0207869Y0092976D02*
X0210084Y0092976D01*
X0210084Y0094174D02*
X0207883Y0094174D01*
X0207713Y0095373D02*
X0210084Y0095373D01*
X0210084Y0096571D02*
X0207216Y0096571D01*
X0206129Y0097770D02*
X0210084Y0097770D01*
X0203383Y0114549D02*
X0202583Y0114549D01*
X0202583Y0115747D02*
X0203383Y0115747D01*
X0203383Y0116946D02*
X0202583Y0116946D01*
X0202583Y0118144D02*
X0203383Y0118144D01*
X0196991Y0122938D02*
X0166783Y0122938D01*
X0166783Y0124137D02*
X0196339Y0124137D01*
X0196339Y0125335D02*
X0166783Y0125335D01*
X0166783Y0126534D02*
X0196339Y0126534D01*
X0196339Y0127732D02*
X0166783Y0127732D01*
X0166783Y0128931D02*
X0196339Y0128931D01*
X0196339Y0130130D02*
X0166783Y0130130D01*
X0166783Y0131328D02*
X0196339Y0131328D01*
X0196339Y0132527D02*
X0166783Y0132527D01*
X0166783Y0133725D02*
X0210084Y0133725D01*
X0191141Y0142986D02*
X0168983Y0142986D01*
X0164983Y0138986D01*
X0164983Y0119986D01*
X0185983Y0098986D01*
X0188117Y0109755D02*
X0177760Y0109755D01*
X0176561Y0110953D02*
X0188083Y0110953D01*
X0188083Y0043837D02*
X0182678Y0043837D01*
X0183876Y0042638D02*
X0188238Y0042638D01*
X0188734Y0041440D02*
X0185075Y0041440D01*
X0194849Y0029455D02*
X0201118Y0029455D01*
X0200489Y0028256D02*
X0195478Y0028256D01*
X0196841Y0027058D02*
X0199126Y0027058D01*
X0198456Y0025859D02*
X0197511Y0025859D01*
X0197883Y0024661D02*
X0198083Y0024661D01*
X0198083Y0023462D02*
X0197883Y0023462D01*
X0197574Y0022263D02*
X0198393Y0022263D01*
X0198974Y0021065D02*
X0196992Y0021065D01*
X0195794Y0019866D02*
X0200173Y0019866D01*
X0043061Y0066608D02*
X0037201Y0066608D01*
X0037697Y0065410D02*
X0041862Y0065410D01*
X0040664Y0064211D02*
X0037883Y0064211D01*
X0037883Y0063013D02*
X0039465Y0063013D01*
X0038267Y0061814D02*
X0037388Y0061814D01*
X0036092Y0067807D02*
X0043183Y0067807D01*
X0145946Y0248782D02*
X0146714Y0248782D01*
X0146714Y0249981D02*
X0145946Y0249981D01*
X0145946Y0251179D02*
X0146714Y0251179D01*
X0146714Y0252378D02*
X0145946Y0252378D01*
X0145946Y0253576D02*
X0146714Y0253576D01*
X0146714Y0254775D02*
X0145946Y0254775D01*
X0142791Y0254775D02*
X0142679Y0254775D01*
X0155783Y0253576D02*
X0156583Y0253576D01*
X0156583Y0252378D02*
X0155783Y0252378D01*
X0155783Y0251179D02*
X0156583Y0251179D01*
X0156583Y0249981D02*
X0155783Y0249981D01*
X0155783Y0257172D02*
X0156583Y0257172D01*
X0156583Y0258370D02*
X0155783Y0258370D01*
X0155783Y0259569D02*
X0156583Y0259569D01*
D29*
X0032983Y0114986D02*
X0034983Y0112986D01*
X0033983Y0112986D01*
X0032983Y0113986D01*
X0032983Y0114986D02*
X0032983Y0125986D01*
X0032983Y0150986D01*
X0026983Y0144986D01*
X0020983Y0144986D01*
X0032983Y0150986D02*
X0032983Y0171986D01*
X0032983Y0191986D02*
X0032983Y0211986D01*
X0024523Y0220446D01*
X0024523Y0243143D01*
X0018141Y0243143D01*
X0014983Y0239986D01*
X0029444Y0243143D02*
X0029444Y0225525D01*
X0032983Y0221986D01*
D30*
X0037983Y0221986D01*
X0041983Y0217986D01*
X0041983Y0198986D01*
X0046983Y0193986D01*
X0109983Y0193986D01*
X0098054Y0204056D02*
X0105983Y0211986D01*
X0105983Y0219639D01*
X0105637Y0219986D01*
X0112330Y0219986D02*
X0115983Y0219986D01*
X0117983Y0217986D01*
X0117983Y0172986D01*
X0108983Y0163986D01*
X0089983Y0163986D01*
X0089483Y0163486D01*
X0081283Y0163486D01*
X0081283Y0158486D02*
X0092483Y0158486D01*
X0093983Y0159986D01*
X0111983Y0159986D01*
X0120983Y0168986D01*
X0120983Y0219986D01*
X0117905Y0223064D01*
X0117905Y0243143D01*
X0117905Y0251064D01*
X0114983Y0253986D01*
X0106983Y0253986D01*
X0104983Y0251986D01*
X0104983Y0249986D01*
X0102983Y0247986D01*
X0102054Y0247986D01*
X0091983Y0237915D01*
X0081983Y0237915D02*
X0081983Y0249639D01*
X0071983Y0249639D02*
X0071983Y0237915D01*
X0061983Y0237915D02*
X0061983Y0249639D01*
X0047983Y0236533D02*
X0041184Y0243332D01*
X0038983Y0243332D01*
X0032479Y0243143D02*
X0038983Y0236639D01*
X0032479Y0243143D02*
X0029444Y0243143D01*
X0021983Y0203986D02*
X0009983Y0191986D01*
X0032983Y0191986D02*
X0040330Y0191986D01*
X0044983Y0187332D01*
X0053983Y0187332D01*
X0053983Y0180639D02*
X0044983Y0180639D01*
X0036330Y0171986D01*
X0032983Y0171986D01*
X0050983Y0203986D02*
X0061913Y0203986D01*
X0061983Y0204056D01*
X0071983Y0204056D01*
X0081983Y0204056D01*
X0091983Y0204056D02*
X0098054Y0204056D01*
X0113983Y0218332D02*
X0112330Y0219986D01*
X0112983Y0220639D01*
X0112983Y0243143D01*
X0117905Y0243143D02*
X0118983Y0242064D01*
X0139637Y0247678D02*
X0146330Y0240986D01*
X0152283Y0240986D01*
X0156183Y0237086D01*
X0181783Y0237086D01*
X0181783Y0254886D02*
X0156183Y0254886D01*
X0149230Y0254886D01*
X0146330Y0251986D01*
X0139637Y0251986D02*
X0139637Y0247678D01*
X0167283Y0200486D02*
X0176983Y0200486D01*
X0179483Y0200486D01*
X0184983Y0194986D01*
X0184983Y0190986D01*
X0179483Y0185486D01*
X0174483Y0180486D01*
X0167283Y0180486D01*
X0167283Y0175486D02*
X0160483Y0175486D01*
X0158983Y0173986D01*
X0158983Y0117986D01*
X0192983Y0083986D01*
X0202983Y0113986D02*
X0202983Y0119986D01*
X0200983Y0121986D01*
X0194983Y0121986D01*
X0190983Y0125986D01*
X0190983Y0128986D01*
X0174483Y0165486D02*
X0167283Y0165486D01*
X0167283Y0170486D02*
X0174483Y0170486D01*
X0187983Y0183986D01*
X0191877Y0183986D01*
X0192653Y0183761D01*
X0191798Y0178986D02*
X0187983Y0178986D01*
X0174483Y0165486D01*
X0191798Y0178986D02*
X0192653Y0178840D01*
X0192653Y0193604D02*
X0192271Y0194986D01*
X0184983Y0194986D01*
X0093783Y0108245D02*
X0093783Y0097486D01*
X0093783Y0087486D02*
X0093283Y0086986D01*
X0083983Y0086986D01*
X0077983Y0080986D01*
X0077983Y0040986D01*
X0076637Y0039639D01*
X0071983Y0039639D01*
X0071983Y0029367D01*
X0071444Y0028828D01*
X0066523Y0028828D02*
X0064983Y0030367D01*
X0064983Y0039639D01*
X0064983Y0046332D02*
X0071983Y0046332D01*
X0076365Y0033367D02*
X0084983Y0041986D01*
X0102983Y0041986D01*
X0109983Y0048986D01*
X0109983Y0075986D01*
X0107983Y0077986D01*
X0094283Y0077986D01*
X0093783Y0077486D01*
X0093283Y0076986D01*
X0084983Y0076986D01*
X0093783Y0077486D02*
X0093783Y0082486D01*
X0093783Y0067486D02*
X0094283Y0066986D01*
X0102983Y0066986D01*
X0093783Y0067486D02*
X0093783Y0062486D01*
X0093783Y0055532D01*
X0093983Y0055332D01*
X0076365Y0033367D02*
X0076365Y0028828D01*
X0061637Y0028864D02*
X0061602Y0028828D01*
X0049983Y0050986D02*
X0032983Y0033986D01*
X0049983Y0050986D02*
X0049983Y0084986D01*
X0052483Y0087486D01*
X0056183Y0087486D01*
X0056183Y0092486D01*
X0056183Y0097486D02*
X0056183Y0112245D01*
X0067983Y0124045D01*
X0077983Y0124045D02*
X0093783Y0108245D01*
X0066983Y0076986D02*
X0062483Y0072486D01*
X0056183Y0072486D01*
X0032983Y0113986D02*
X0032983Y0116639D01*
X0022983Y0113986D02*
X0016983Y0113986D01*
X0081283Y0168486D02*
X0081283Y0175339D01*
X0080637Y0175986D01*
X0144983Y0071986D02*
X0144483Y0071486D01*
X0144483Y0063286D01*
X0146983Y0050986D02*
X0152983Y0050986D01*
X0155983Y0047986D01*
X0155983Y0039986D01*
X0146983Y0030986D01*
X0146983Y0026856D01*
X0146444Y0026316D01*
X0141523Y0026316D02*
X0141523Y0031525D01*
X0145983Y0035986D01*
X0147983Y0035986D01*
X0149983Y0037986D01*
X0149983Y0042186D01*
X0149483Y0042686D01*
X0144483Y0042686D02*
X0144483Y0048486D01*
X0146983Y0050986D01*
X0139483Y0042686D02*
X0139983Y0042186D01*
X0139983Y0037986D01*
X0136602Y0034604D01*
X0136602Y0026316D01*
X0131680Y0026316D02*
X0131680Y0039882D01*
X0134483Y0042686D01*
D31*
X0129983Y0052986D03*
X0144983Y0071986D03*
X0132983Y0073986D03*
X0102983Y0066986D03*
X0084983Y0076986D03*
X0067983Y0067986D03*
X0066983Y0076986D03*
X0071983Y0054986D03*
X0084983Y0051986D03*
X0051983Y0032986D03*
X0013983Y0118986D03*
X0021983Y0203986D03*
X0050983Y0203986D03*
X0106983Y0232986D03*
X0139983Y0232986D03*
X0109983Y0193986D03*
X0113983Y0184986D03*
X0138983Y0184986D03*
X0145983Y0156986D03*
X0179483Y0185486D03*
X0187983Y0165986D03*
X0190983Y0128986D03*
X0128983Y0115986D03*
X0182983Y0048986D03*
X0171983Y0205986D03*
M02*
