G75*
%MOIN*%
%OFA0B0*%
%FSLAX25Y25*%
%IPPOS*%
%LPD*%
%AMOC8*
5,1,8,0,0,1.08239X$1,22.5*
%
%ADD10C,0.00000*%
%ADD11C,0.00600*%
%ADD12C,0.00400*%
D10*
X0002194Y0006842D02*
X0002194Y0211802D01*
X0305894Y0211802D01*
X0305894Y0006842D01*
X0002194Y0006842D01*
X0273768Y0204086D02*
X0273770Y0204239D01*
X0273776Y0204393D01*
X0273786Y0204546D01*
X0273800Y0204698D01*
X0273818Y0204851D01*
X0273840Y0205002D01*
X0273865Y0205153D01*
X0273895Y0205304D01*
X0273929Y0205454D01*
X0273966Y0205602D01*
X0274007Y0205750D01*
X0274052Y0205896D01*
X0274101Y0206042D01*
X0274154Y0206186D01*
X0274210Y0206328D01*
X0274270Y0206469D01*
X0274334Y0206609D01*
X0274401Y0206747D01*
X0274472Y0206883D01*
X0274547Y0207017D01*
X0274624Y0207149D01*
X0274706Y0207279D01*
X0274790Y0207407D01*
X0274878Y0207533D01*
X0274969Y0207656D01*
X0275063Y0207777D01*
X0275161Y0207895D01*
X0275261Y0208011D01*
X0275365Y0208124D01*
X0275471Y0208235D01*
X0275580Y0208343D01*
X0275692Y0208448D01*
X0275806Y0208549D01*
X0275924Y0208648D01*
X0276043Y0208744D01*
X0276165Y0208837D01*
X0276290Y0208926D01*
X0276417Y0209013D01*
X0276546Y0209095D01*
X0276677Y0209175D01*
X0276810Y0209251D01*
X0276945Y0209324D01*
X0277082Y0209393D01*
X0277221Y0209458D01*
X0277361Y0209520D01*
X0277503Y0209578D01*
X0277646Y0209633D01*
X0277791Y0209684D01*
X0277937Y0209731D01*
X0278084Y0209774D01*
X0278232Y0209813D01*
X0278381Y0209849D01*
X0278531Y0209880D01*
X0278682Y0209908D01*
X0278833Y0209932D01*
X0278986Y0209952D01*
X0279138Y0209968D01*
X0279291Y0209980D01*
X0279444Y0209988D01*
X0279597Y0209992D01*
X0279751Y0209992D01*
X0279904Y0209988D01*
X0280057Y0209980D01*
X0280210Y0209968D01*
X0280362Y0209952D01*
X0280515Y0209932D01*
X0280666Y0209908D01*
X0280817Y0209880D01*
X0280967Y0209849D01*
X0281116Y0209813D01*
X0281264Y0209774D01*
X0281411Y0209731D01*
X0281557Y0209684D01*
X0281702Y0209633D01*
X0281845Y0209578D01*
X0281987Y0209520D01*
X0282127Y0209458D01*
X0282266Y0209393D01*
X0282403Y0209324D01*
X0282538Y0209251D01*
X0282671Y0209175D01*
X0282802Y0209095D01*
X0282931Y0209013D01*
X0283058Y0208926D01*
X0283183Y0208837D01*
X0283305Y0208744D01*
X0283424Y0208648D01*
X0283542Y0208549D01*
X0283656Y0208448D01*
X0283768Y0208343D01*
X0283877Y0208235D01*
X0283983Y0208124D01*
X0284087Y0208011D01*
X0284187Y0207895D01*
X0284285Y0207777D01*
X0284379Y0207656D01*
X0284470Y0207533D01*
X0284558Y0207407D01*
X0284642Y0207279D01*
X0284724Y0207149D01*
X0284801Y0207017D01*
X0284876Y0206883D01*
X0284947Y0206747D01*
X0285014Y0206609D01*
X0285078Y0206469D01*
X0285138Y0206328D01*
X0285194Y0206186D01*
X0285247Y0206042D01*
X0285296Y0205896D01*
X0285341Y0205750D01*
X0285382Y0205602D01*
X0285419Y0205454D01*
X0285453Y0205304D01*
X0285483Y0205153D01*
X0285508Y0205002D01*
X0285530Y0204851D01*
X0285548Y0204698D01*
X0285562Y0204546D01*
X0285572Y0204393D01*
X0285578Y0204239D01*
X0285580Y0204086D01*
X0285578Y0203933D01*
X0285572Y0203779D01*
X0285562Y0203626D01*
X0285548Y0203474D01*
X0285530Y0203321D01*
X0285508Y0203170D01*
X0285483Y0203019D01*
X0285453Y0202868D01*
X0285419Y0202718D01*
X0285382Y0202570D01*
X0285341Y0202422D01*
X0285296Y0202276D01*
X0285247Y0202130D01*
X0285194Y0201986D01*
X0285138Y0201844D01*
X0285078Y0201703D01*
X0285014Y0201563D01*
X0284947Y0201425D01*
X0284876Y0201289D01*
X0284801Y0201155D01*
X0284724Y0201023D01*
X0284642Y0200893D01*
X0284558Y0200765D01*
X0284470Y0200639D01*
X0284379Y0200516D01*
X0284285Y0200395D01*
X0284187Y0200277D01*
X0284087Y0200161D01*
X0283983Y0200048D01*
X0283877Y0199937D01*
X0283768Y0199829D01*
X0283656Y0199724D01*
X0283542Y0199623D01*
X0283424Y0199524D01*
X0283305Y0199428D01*
X0283183Y0199335D01*
X0283058Y0199246D01*
X0282931Y0199159D01*
X0282802Y0199077D01*
X0282671Y0198997D01*
X0282538Y0198921D01*
X0282403Y0198848D01*
X0282266Y0198779D01*
X0282127Y0198714D01*
X0281987Y0198652D01*
X0281845Y0198594D01*
X0281702Y0198539D01*
X0281557Y0198488D01*
X0281411Y0198441D01*
X0281264Y0198398D01*
X0281116Y0198359D01*
X0280967Y0198323D01*
X0280817Y0198292D01*
X0280666Y0198264D01*
X0280515Y0198240D01*
X0280362Y0198220D01*
X0280210Y0198204D01*
X0280057Y0198192D01*
X0279904Y0198184D01*
X0279751Y0198180D01*
X0279597Y0198180D01*
X0279444Y0198184D01*
X0279291Y0198192D01*
X0279138Y0198204D01*
X0278986Y0198220D01*
X0278833Y0198240D01*
X0278682Y0198264D01*
X0278531Y0198292D01*
X0278381Y0198323D01*
X0278232Y0198359D01*
X0278084Y0198398D01*
X0277937Y0198441D01*
X0277791Y0198488D01*
X0277646Y0198539D01*
X0277503Y0198594D01*
X0277361Y0198652D01*
X0277221Y0198714D01*
X0277082Y0198779D01*
X0276945Y0198848D01*
X0276810Y0198921D01*
X0276677Y0198997D01*
X0276546Y0199077D01*
X0276417Y0199159D01*
X0276290Y0199246D01*
X0276165Y0199335D01*
X0276043Y0199428D01*
X0275924Y0199524D01*
X0275806Y0199623D01*
X0275692Y0199724D01*
X0275580Y0199829D01*
X0275471Y0199937D01*
X0275365Y0200048D01*
X0275261Y0200161D01*
X0275161Y0200277D01*
X0275063Y0200395D01*
X0274969Y0200516D01*
X0274878Y0200639D01*
X0274790Y0200765D01*
X0274706Y0200893D01*
X0274624Y0201023D01*
X0274547Y0201155D01*
X0274472Y0201289D01*
X0274401Y0201425D01*
X0274334Y0201563D01*
X0274270Y0201703D01*
X0274210Y0201844D01*
X0274154Y0201986D01*
X0274101Y0202130D01*
X0274052Y0202276D01*
X0274007Y0202422D01*
X0273966Y0202570D01*
X0273929Y0202718D01*
X0273895Y0202868D01*
X0273865Y0203019D01*
X0273840Y0203170D01*
X0273818Y0203321D01*
X0273800Y0203474D01*
X0273786Y0203626D01*
X0273776Y0203779D01*
X0273770Y0203933D01*
X0273768Y0204086D01*
D11*
X0066056Y0184067D02*
X0066056Y0177661D01*
X0066056Y0180864D02*
X0061786Y0180864D01*
X0059610Y0178729D02*
X0058543Y0177661D01*
X0055340Y0177661D01*
X0055340Y0180864D01*
X0056408Y0181932D01*
X0058543Y0181932D01*
X0058543Y0179797D02*
X0055340Y0179797D01*
X0053165Y0177661D02*
X0051030Y0177661D01*
X0052097Y0177661D02*
X0052097Y0184067D01*
X0053165Y0184067D01*
X0058543Y0179797D02*
X0059610Y0178729D01*
X0061786Y0177661D02*
X0061786Y0184067D01*
X0048868Y0184067D02*
X0047800Y0184067D01*
X0047800Y0177661D01*
X0046733Y0177661D02*
X0048868Y0177661D01*
X0050139Y0192905D02*
X0046497Y0192905D01*
X0041969Y0192905D02*
X0041576Y0192905D01*
X0037048Y0192905D02*
X0036654Y0192905D01*
X0032127Y0192905D02*
X0031733Y0192905D01*
X0027206Y0192905D02*
X0026812Y0192905D01*
X0022284Y0192905D02*
X0018643Y0192905D01*
X0018643Y0195759D01*
X0018643Y0208948D02*
X0018643Y0209440D01*
X0050139Y0209440D01*
X0050139Y0208948D01*
X0050139Y0195759D02*
X0050139Y0192905D01*
D12*
X0023994Y0185069D02*
X0022593Y0182967D01*
X0021693Y0182967D02*
X0020291Y0182967D01*
X0020992Y0182967D02*
X0020992Y0185069D01*
X0021693Y0184368D01*
X0022593Y0185069D02*
X0023994Y0182967D01*
M02*
