%
M48
M72
T01C0.02362
T02C0.04000
T03C0.07087
T04C0.11811
%
T01
X88020Y125346
X142351Y107235
T02
X17694Y181842
X16694Y171842
X17694Y161842
X16694Y151842
X17694Y141842
X16694Y131842
X17694Y121842
X16694Y111842
X17694Y101842
X16694Y91842
X17694Y81842
X16694Y71842
X17694Y61842
X16694Y51842
X17694Y41842
X16694Y31842
X111800Y32983
X121800Y32983
X131800Y32983
X141800Y32983
X151800Y32983
X151800Y22983
X141800Y22983
X131800Y22983
X121800Y22983
X111800Y22983
X161800Y22983
X171800Y22983
X181800Y22983
X191800Y22983
X201800Y22983
X201800Y32983
X191800Y32983
X181800Y32983
X171800Y32983
X161800Y32983
X226194Y31842
X226194Y41842
X226194Y51842
X226194Y61842
X226194Y71842
X226194Y81842
X226194Y91842
X226194Y101842
X236194Y101842
X236194Y91842
X236194Y81842
X236194Y71842
X236194Y61842
X236194Y51842
X236194Y41842
X236194Y31842
X266194Y31842
X276194Y31842
X276194Y41842
X266194Y41842
X266194Y51842
X276194Y51842
X276194Y61842
X266194Y61842
X266194Y71842
X276194Y71842
X276194Y81842
X266194Y81842
X266194Y91842
X276194Y91842
X276194Y101842
X266194Y101842
X266194Y111842
X276194Y111842
X276194Y121842
X266194Y121842
X266194Y131842
X276194Y131842
X236194Y131842
X226194Y131842
X226194Y121842
X236194Y121842
X236194Y111842
X226194Y111842
X201800Y192983
X191800Y192983
X181800Y192983
X171800Y192983
X161800Y192983
X151800Y192983
X141800Y192983
X131800Y192983
X121800Y192983
X111800Y192983
X111800Y202983
X121800Y202983
X131800Y202983
X141800Y202983
X151800Y202983
X161800Y202983
X171800Y202983
X181800Y202983
X191800Y202983
X201800Y202983
T03
X268454Y175346
X290894Y175346
X290894Y153692
X268454Y153692
T04
X45107Y30857
X84083Y31251
X279674Y204086
M30
