G75*
%MOIN*%
%OFA0B0*%
%FSLAX25Y25*%
%IPPOS*%
%LPD*%
%AMOC8*
5,1,8,0,0,1.08239X$1,22.5*
%
%ADD10C,0.08200*%
%ADD11R,0.07400X0.07400*%
%ADD12C,0.07400*%
%ADD13C,0.00500*%
%ADD14R,0.08200X0.08200*%
D10*
X0016800Y0059060D03*
X0031800Y0059060D03*
X0031800Y0089060D03*
X0016800Y0089060D03*
X0011800Y0109060D03*
X0011800Y0119060D03*
X0081800Y0119060D03*
X0081800Y0109060D03*
X0081800Y0099060D03*
X0081800Y0089060D03*
X0081800Y0059060D03*
X0081800Y0049060D03*
X0056800Y0024119D03*
X0046800Y0024119D03*
D11*
X0041800Y0119060D03*
D12*
X0041800Y0049060D03*
X0041800Y0059060D03*
X0041800Y0069060D03*
X0041800Y0079060D03*
X0041800Y0089060D03*
X0041800Y0099060D03*
X0041800Y0109060D03*
X0071800Y0109060D03*
X0071800Y0099060D03*
X0071800Y0089060D03*
X0071800Y0079060D03*
X0071800Y0069060D03*
X0071800Y0059060D03*
X0071800Y0049060D03*
X0071800Y0119060D03*
D13*
X0030570Y0119590D02*
X0030503Y0118932D01*
X0030322Y0118295D01*
X0030034Y0117700D01*
X0029647Y0117163D01*
X0029172Y0116702D01*
X0028625Y0116331D01*
X0028021Y0116060D01*
X0027380Y0115898D01*
X0026720Y0115850D01*
X0026000Y0115928D01*
X0025310Y0116146D01*
X0024676Y0116494D01*
X0024122Y0116959D01*
X0023669Y0117523D01*
X0023335Y0118165D01*
X0023133Y0118859D01*
X0023070Y0119580D01*
X0023131Y0120305D01*
X0023333Y0121004D01*
X0023667Y0121650D01*
X0024121Y0122218D01*
X0024677Y0122687D01*
X0025314Y0123038D01*
X0026007Y0123259D01*
X0026730Y0123340D01*
X0027390Y0123290D01*
X0028031Y0123126D01*
X0028634Y0122854D01*
X0029180Y0122481D01*
X0029653Y0122019D01*
X0030039Y0121481D01*
X0030326Y0120885D01*
X0030505Y0120248D01*
X0030570Y0119590D01*
X0030552Y0119417D02*
X0023084Y0119417D01*
X0023098Y0119915D02*
X0030538Y0119915D01*
X0030458Y0120414D02*
X0023163Y0120414D01*
X0023307Y0120912D02*
X0030313Y0120912D01*
X0030073Y0121411D02*
X0023544Y0121411D01*
X0023875Y0121909D02*
X0029732Y0121909D01*
X0029255Y0122408D02*
X0024347Y0122408D01*
X0025075Y0122906D02*
X0028517Y0122906D01*
X0030499Y0118918D02*
X0023127Y0118918D01*
X0023261Y0118420D02*
X0030358Y0118420D01*
X0030141Y0117921D02*
X0023462Y0117921D01*
X0023749Y0117423D02*
X0029834Y0117423D01*
X0029401Y0116924D02*
X0024163Y0116924D01*
X0024800Y0116426D02*
X0028765Y0116426D01*
X0027496Y0115927D02*
X0026010Y0115927D01*
X0026730Y0112319D02*
X0026007Y0112238D01*
X0025314Y0112018D01*
X0024677Y0111667D01*
X0024121Y0111198D01*
X0023667Y0110629D01*
X0023333Y0109983D01*
X0023131Y0109285D01*
X0023070Y0108560D01*
X0023133Y0107839D01*
X0023335Y0107145D01*
X0023669Y0106503D01*
X0024122Y0105939D01*
X0024676Y0105474D01*
X0025310Y0105126D01*
X0026000Y0104908D01*
X0026720Y0104830D01*
X0027380Y0104878D01*
X0028021Y0105040D01*
X0028625Y0105311D01*
X0029172Y0105682D01*
X0029647Y0106143D01*
X0030034Y0106680D01*
X0030322Y0107275D01*
X0030503Y0107912D01*
X0030570Y0108570D01*
X0030505Y0109228D01*
X0030326Y0109865D01*
X0030039Y0110461D01*
X0029653Y0110999D01*
X0029180Y0111461D01*
X0028634Y0111834D01*
X0028031Y0112106D01*
X0027390Y0112270D01*
X0026730Y0112319D01*
X0025171Y0111939D02*
X0028400Y0111939D01*
X0029201Y0111441D02*
X0024409Y0111441D01*
X0023917Y0110942D02*
X0029694Y0110942D01*
X0030048Y0110444D02*
X0023571Y0110444D01*
X0023322Y0109945D02*
X0030287Y0109945D01*
X0030443Y0109447D02*
X0023178Y0109447D01*
X0023103Y0108948D02*
X0030532Y0108948D01*
X0030558Y0108450D02*
X0023079Y0108450D01*
X0023123Y0107951D02*
X0030507Y0107951D01*
X0030373Y0107453D02*
X0023245Y0107453D01*
X0023434Y0106954D02*
X0030167Y0106954D01*
X0029872Y0106456D02*
X0023707Y0106456D01*
X0024107Y0105957D02*
X0029455Y0105957D01*
X0028843Y0105459D02*
X0024704Y0105459D01*
X0025836Y0104960D02*
X0027706Y0104960D01*
D14*
X0066800Y0024119D03*
M02*
