%
M48
M72
T01C0.03543
T02C0.04000
T03C0.04400
%
T01
X16800Y59060
X31800Y59060
X31800Y89060
X16800Y89060
T02
X11800Y109060
X11800Y119060
X26800Y119560
X26800Y108560
X81800Y109060
X81800Y99060
X81800Y89060
X81800Y119060
X81800Y59060
X81800Y49060
X66800Y24119
X56800Y24119
X46800Y24119
T03
X41800Y49060
X41800Y59060
X41800Y69060
X41800Y79060
X41800Y89060
X41800Y99060
X41800Y109060
X41800Y119060
X71800Y119060
X71800Y109060
X71800Y99060
X71800Y89060
X71800Y79060
X71800Y69060
X71800Y59060
X71800Y49060
M30
