G75*
%MOIN*%
%OFA0B0*%
%FSLAX25Y25*%
%IPPOS*%
%LPD*%
%AMOC8*
5,1,8,0,0,1.08239X$1,22.5*
%
%ADD10C,0.08200*%
%ADD11R,0.07400X0.07400*%
%ADD12C,0.07400*%
%ADD13C,0.00500*%
%ADD14R,0.08200X0.08200*%
D10*
X0016800Y0059060D03*
X0031800Y0059060D03*
X0031800Y0089060D03*
X0016800Y0089060D03*
X0011800Y0109060D03*
X0011800Y0119060D03*
X0081800Y0119060D03*
X0081800Y0109060D03*
X0081800Y0099060D03*
X0081800Y0089060D03*
X0081800Y0059060D03*
X0081800Y0049060D03*
X0056800Y0024119D03*
X0046800Y0024119D03*
D11*
X0041800Y0119060D03*
D12*
X0041800Y0049060D03*
X0041800Y0059060D03*
X0041800Y0069060D03*
X0041800Y0079060D03*
X0041800Y0089060D03*
X0041800Y0099060D03*
X0041800Y0109060D03*
X0071800Y0109060D03*
X0071800Y0099060D03*
X0071800Y0089060D03*
X0071800Y0079060D03*
X0071800Y0069060D03*
X0071800Y0059060D03*
X0071800Y0049060D03*
X0071800Y0119060D03*
D13*
X0028580Y0119590D02*
X0028528Y0119197D01*
X0028391Y0118825D01*
X0028175Y0118493D01*
X0027890Y0118218D01*
X0027551Y0118012D01*
X0027174Y0117888D01*
X0026780Y0117850D01*
X0026396Y0117897D01*
X0026033Y0118027D01*
X0025708Y0118236D01*
X0025437Y0118511D01*
X0025234Y0118840D01*
X0025110Y0119206D01*
X0025070Y0119590D01*
X0025104Y0119971D01*
X0025222Y0120336D01*
X0025418Y0120665D01*
X0025682Y0120942D01*
X0026002Y0121153D01*
X0026360Y0121288D01*
X0026740Y0121340D01*
X0027140Y0121305D01*
X0027523Y0121182D01*
X0027869Y0120976D01*
X0028160Y0120699D01*
X0028382Y0120364D01*
X0028525Y0119988D01*
X0028580Y0119590D01*
X0028557Y0119417D02*
X0025088Y0119417D01*
X0025099Y0119915D02*
X0028535Y0119915D01*
X0028349Y0120414D02*
X0025268Y0120414D01*
X0025654Y0120912D02*
X0027936Y0120912D01*
X0028426Y0118918D02*
X0025207Y0118918D01*
X0025526Y0118420D02*
X0028099Y0118420D01*
X0027276Y0117921D02*
X0026328Y0117921D01*
X0026740Y0110320D02*
X0027140Y0110285D01*
X0027523Y0110162D01*
X0027869Y0109956D01*
X0028160Y0109679D01*
X0028382Y0109344D01*
X0028525Y0108968D01*
X0028580Y0108570D01*
X0028528Y0108177D01*
X0028391Y0107805D01*
X0028175Y0107473D01*
X0027890Y0107198D01*
X0027551Y0106992D01*
X0027174Y0106868D01*
X0026780Y0106830D01*
X0026396Y0106877D01*
X0026033Y0107007D01*
X0025708Y0107216D01*
X0025437Y0107491D01*
X0025234Y0107820D01*
X0025110Y0108186D01*
X0025070Y0108570D01*
X0025104Y0108951D01*
X0025222Y0109316D01*
X0025418Y0109645D01*
X0025682Y0109922D01*
X0026002Y0110133D01*
X0026360Y0110268D01*
X0026740Y0110320D01*
X0025717Y0109945D02*
X0027880Y0109945D01*
X0028314Y0109447D02*
X0025300Y0109447D01*
X0025103Y0108948D02*
X0028527Y0108948D01*
X0028564Y0108450D02*
X0025082Y0108450D01*
X0025189Y0107951D02*
X0028445Y0107951D01*
X0028154Y0107453D02*
X0025475Y0107453D01*
X0026181Y0106954D02*
X0027435Y0106954D01*
D14*
X0066800Y0024119D03*
M02*
